<?xml version="1.0" encoding="UTF-8"?>
<svg width="20px" height="20px" viewBox="0 0 20 20" version="1.1" xmlns="http://www.w3.org/2000/svg" xmlns:xlink="http://www.w3.org/1999/xlink">
    <title>shop</title>
    <g id="1070" stroke="none" stroke-width="1" fill="none" fill-rule="evenodd">
        <g id="常用工具页面" transform="translate(-1001, -585)" fill="#FFFFFF" fill-rule="nonzero">
            <g id="编组-3" transform="translate(987, 571)">
                <g id="shop" transform="translate(16, 15)">
                    <path d="M10.9,4 C10.9,2.39837423 9.60162577,1.1 8,1.1 C6.39837423,1.1 5.1,2.39837423 5.1,4 L4,4 C4,1.790861 5.790861,0 8,0 C10.209139,0 12,1.790861 12,4 L14,4 C15.1045695,4 16,4.8954305 16,6 L16,16 C16,17.1045695 15.1045695,18 14,18 L2,18 C0.8954305,18 0,17.1045695 0,16 L0,6 C0,4.8954305 0.8954305,4 2,4 Z M14,5 L2,5 C1.44771525,5 1,5.44771525 1,6 L1,16 C1,16.5522847 1.44771525,17 2,17 L14,17 C14.5522847,17 15,16.5522847 15,16 L15,6 C15,5.44771525 14.5522847,5 14,5 Z M5.1,6 C5.1,7.60162577 6.39837423,8.9 8,8.9 C9.60162577,8.9 10.9,7.60162577 10.9,6 L12,6 C12,8.209139 10.209139,10 8,10 C5.790861,10 4,8.209139 4,6 L5.1,6 Z" id="形状结合"></path>
                </g>
            </g>
        </g>
    </g>
</svg>