<?xml version="1.0" encoding="UTF-8"?>
<svg width="82px" height="95px" viewBox="0 0 82 95" version="1.1" xmlns="http://www.w3.org/2000/svg" xmlns:xlink="http://www.w3.org/1999/xlink">
    <!-- Generator: Sketch 58 (84663) - https://sketch.com -->
    <title>Service-96px</title>
    <desc>Created with Sketch.</desc>
    <defs>
        <filter x="-8.3%" y="-8.3%" width="116.7%" height="116.7%" filterUnits="objectBoundingBox" id="filter-1">
            <feOffset dx="0" dy="2" in="SourceAlpha" result="shadowOffsetOuter1"></feOffset>
            <feGaussianBlur stdDeviation="1" in="shadowOffsetOuter1" result="shadowBlurOuter1"></feGaussianBlur>
            <feColorMatrix values="0 0 0 0 0   0 0 0 0 0   0 0 0 0 0  0 0 0 0.2 0" type="matrix" in="shadowBlurOuter1" result="shadowMatrixOuter1"></feColorMatrix>
            <feMerge>
                <feMergeNode in="shadowMatrixOuter1"></feMergeNode>
                <feMergeNode in="SourceGraphic"></feMergeNode>
            </feMerge>
        </filter>
        <linearGradient x1="50%" y1="0%" x2="50%" y2="100%" id="linearGradient-2">
            <stop stop-color="#00EEC9" offset="0%"></stop>
            <stop stop-color="#00DB9C" offset="100%"></stop>
        </linearGradient>
        <linearGradient x1="50%" y1="28.0573539%" x2="50%" y2="100%" id="linearGradient-3">
            <stop stop-color="#73F4F4" offset="0%"></stop>
            <stop stop-color="#3FE5E5" stop-opacity="0.501802885" offset="100%"></stop>
        </linearGradient>
    </defs>
    <g id="页面-1" stroke="none" stroke-width="1" fill="none" fill-rule="evenodd">
        <g id="画板" transform="translate(-350.000000, -91.000000)">
            <g id="Service-96px" transform="translate(343.000000, 89.000000)">
                <g id="编组-3" filter="url(#filter-1)">
                    <rect id="矩形" fill="#FF6969" opacity="0" x="0" y="0" width="96" height="96"></rect>
                    <g id="编组-2" transform="translate(2.000000, 2.000000)">
                        <circle id="椭圆形" fill="url(#linearGradient-2)" cx="46.7299167" cy="13.9354839" r="13.9354839"></circle>
                        <g id="编组" transform="translate(46.000000, 46.317439) rotate(-45.000000) translate(-46.000000, -46.317439) translate(15.000000, 13.317439)">
                            <path d="M0.00265839022,65.0322581 L0.00265839022,21.6774194 L0.00265839022,15.483871 C0.00265839022,6.93236516 6.93502355,-1.12115952e-13 15.4865294,-1.13686838e-13 C24.0380352,-1.15257724e-13 30.9704003,6.93236516 30.9704003,15.483871 L30.9704003,21.6774194 L30.9704003,65.0322581 L15.4865294,65.0322581 L15.4865294,65.0322581 L0.00265839022,65.0322581 Z" id="形状结合" fill="#6734FF"></path>
                            <path d="M15.4865294,80.516129 L15.4865294,39.2258065 L15.4865294,34.0645161 C15.4865294,25.5130103 22.4188945,18.5806452 30.9704003,18.5806452 C39.5219061,18.5806452 46.4542713,25.5130103 46.4542713,34.0645161 L46.4542713,39.2258065 L46.4542713,80.516129 L30.9704003,80.516129 L30.9704003,80.516129 L15.4865294,80.516129 Z" id="形状结合备份" fill="url(#linearGradient-3)" transform="translate(30.970400, 49.548387) rotate(-270.000000) translate(-30.970400, -49.548387) "></path>
                            <path d="M0.0049469144,24.8712944 C3.75347556,29.7322038 9.6352321,32.8635858 16.2483621,32.8635858 L30.9696764,32.8627636 L30.9692785,34.0637636 L0.00527847758,34.0637636 L0.0049469144,24.8712944 Z" id="形状结合" fill="#4324C0"></path>
                            <path d="M13.4554689,34.156479 L30.9694986,34.1555749 L30.9704003,65.0322581 L0.00265839022,65.0322581 L0.00253532432,26.8213679 C2.85100229,31.2347259 7.81202957,34.156479 13.4554689,34.156479 Z" id="形状结合" fill-opacity="0.381856425" fill="#3FE5E5"></path>
                        </g>
                    </g>
                </g>
            </g>
        </g>
    </g>
</svg>