<svg xmlns="http://www.w3.org/2000/svg" xmlns:xlink="http://www.w3.org/1999/xlink" width="96" height="96" viewBox="0 0 96 96">
  <defs>
    <filter id="96-a" width="127.3%" height="127.3%" x="-13.6%" y="-13.6%" filterUnits="objectBoundingBox">
      <feOffset dy="2" in="SourceAlpha" result="shadowOffsetOuter1"/>
      <feGaussianBlur in="shadowOffsetOuter1" result="shadowBlurOuter1" stdDeviation="2"/>
      <feColorMatrix in="shadowBlurOuter1" result="shadowMatrixOuter1" values="0 0 0 0 0   0 0 0 0 0   0 0 0 0 0  0 0 0 0.2 0"/>
      <feMerge>
        <feMergeNode in="shadowMatrixOuter1"/>
        <feMergeNode in="SourceGraphic"/>
      </feMerge>
    </filter>
    <linearGradient id="96-b" x1="25.966%" x2="52.599%" y1="6.401%" y2="82.47%">
      <stop offset="0%" stop-color="#2AA13A"/>
      <stop offset="100%" stop-color="#007463"/>
    </linearGradient>
    <path id="96-c" d="M44,0 C68.300529,0 88,19.699471 88,44 C88,68.300529 68.300529,88 44,88 C37.1261956,88 30.6205377,86.4237778 24.8247503,83.6130575 L11.6109284,85.4061536 C11.1277488,85.4717472 10.6360935,85.4318632 10.1698044,85.2892468 C8.38735104,84.7440763 7.38433507,82.8571644 7.9295055,81.0747111 L7.9295055,81.0747111 L10.531945,72.5650639 C3.96512745,64.8784393 7.10542736e-15,54.9022722 7.10542736e-15,44 C7.10542736e-15,19.699471 19.699471,0 44,0 Z"/>
    <filter id="96-d" width="102.3%" height="102.3%" x="-1.1%" y="-1.1%" filterUnits="objectBoundingBox">
      <feOffset dy="2" in="SourceAlpha" result="shadowOffsetInner1"/>
      <feComposite in="shadowOffsetInner1" in2="SourceAlpha" k2="-1" k3="1" operator="arithmetic" result="shadowInnerInner1"/>
      <feColorMatrix in="shadowInnerInner1" result="shadowMatrixInner1" values="0 0 0 0 1   0 0 0 0 1   0 0 0 0 1  0 0 0 0.202059659 0"/>
      <feOffset dy="-2" in="SourceAlpha" result="shadowOffsetInner2"/>
      <feComposite in="shadowOffsetInner2" in2="SourceAlpha" k2="-1" k3="1" operator="arithmetic" result="shadowInnerInner2"/>
      <feColorMatrix in="shadowInnerInner2" result="shadowMatrixInner2" values="0 0 0 0 0   0 0 0 0 0   0 0 0 0 0  0 0 0 0.08 0"/>
      <feMerge>
        <feMergeNode in="shadowMatrixInner1"/>
        <feMergeNode in="shadowMatrixInner2"/>
      </feMerge>
    </filter>
    <linearGradient id="96-e" x1="50%" x2="72.769%" y1="8.082%" y2="84.606%">
      <stop offset="0%" stop-color="#F4F4F4"/>
      <stop offset="100%" stop-color="#FFF" stop-opacity=".668"/>
    </linearGradient>
    <linearGradient id="96-f" x1="50%" x2="50%" y1="0%" y2="100%">
      <stop offset="0%" stop-color="#FFF" stop-opacity=".502"/>
      <stop offset="100%" stop-color="#FFF" stop-opacity=".197"/>
    </linearGradient>
  </defs>
  <g fill="none" fill-rule="evenodd" filter="url(#96-a)" transform="translate(4 4)">
    <use fill="url(#96-b)" xlink:href="#96-c"/>
    <use fill="#000" filter="url(#96-d)" xlink:href="#96-c"/>
    <path fill="url(#96-e)" fill-rule="nonzero" stroke="url(#96-f)" d="M44.1875,17.5 C50.3035106,17.5 55.8694606,19.8551499 60.027832,23.7080675 C64.2134607,27.5862403 66.9732485,32.9817728 67.4321687,39.0204295 L67.4321687,39.0204295 L67.4977333,53.500536 L66.7853118,53.5012966 C65.2672439,59.484669 61.4350429,64.5449344 56.2976405,67.6743172 C56.0128861,69.0134892 55.5923917,69.8536908 54.9418862,70.459345 C54.290388,71.0659236 53.4082209,71.4375 52.4375,71.4375 C51.4351456,71.4375 50.5271929,71.0412897 49.870151,70.3991806 C49.2173173,69.761184 48.8125,68.8800874 48.8125,67.90625 C48.8125,66.9324126 49.2173173,66.051316 49.870151,65.4133194 C50.5271929,64.7712103 51.4351456,64.375 52.4375,64.375 C53.6315569,64.375 54.691893,64.937373 55.3532795,65.8077831 C60.4117144,63.0620477 63.6977872,58.6540285 65.1116333,53.4735629 C64.113001,52.3813404 63.5717048,51.4851378 63.5066195,50.4593873 L63.5066195,50.4593873 L63.5007881,43.5349269 C58.71348,44.0844927 52.3288081,42.946015 47.1342681,40.7432613 C42.7660266,38.8909008 39.1997094,36.2972488 38.2915045,33.262881 L38.2915045,33.262881 L37.8599934,31.8211761 L37.3429386,33.2344592 C36.1641633,36.4564449 29.1521645,41.1736017 25.3728109,42.4186054 L25.3749998,40.8129636 C25.375,35.6175716 27.4806608,30.9144466 30.8850537,27.5100537 C34.2894466,24.1056608 38.9925716,22 44.1875,22 C49.3859,22 54.0918393,24.1085188 57.4966077,27.5251374 C60.8971922,30.9375576 62.9996617,35.6547093 62.9993408,40.8790245 L62.9992261,42.7468173 L63.9324564,41.1288769 C64.2892488,40.5103063 64.8437684,40.020092 65.8175768,39.2473121 C65.416309,33.604139 62.8551311,28.557597 58.9555239,24.9299227 C55.0837952,21.3281829 49.8929453,19.125 44.1875,19.125 L44.1875,19.125 C38.450119,19.125 33.2331068,21.3529115 29.3543396,24.9907435 C25.4506777,28.6519237 22.9027163,33.7412701 22.8034985,39.8954276 C23.576921,40.3167849 24.1595992,41.0424103 24.390924,41.9114734 L24.583,42.636 L24.4991106,42.6549343 L24.5,50.25 C24.5,51.1474627 24.1362314,51.9599627 23.548097,52.548097 C22.9599627,53.1362314 22.1474627,53.5 21.25,53.5 L21.25,53.5 L20.5,53.5 L20.5,39.0278653 C21.1815129,32.9633913 24.0713589,27.547227 28.3407114,23.6639917 C32.547523,19.8376411 38.0944153,17.5 44.1875,17.5 Z M41.6105494,56.6922953 C41.5477617,56.6799984 41.4802829,56.6916542 41.4229952,56.7301774 C41.3657075,56.7687006 41.3294579,56.8267972 41.3171609,56.8895849 C41.304864,56.9523727 41.3165198,57.0198515 41.355043,57.0771392 C42.1366492,58.2394624 43.2303839,58.8165496 44.5688616,58.7382447 C45.8740816,58.6618854 46.871573,58.1053006 47.4631176,57.0608374 C47.4971392,57.0007671 47.5035916,56.9325936 47.4865211,56.8709324 C47.4694505,56.8092711 47.428857,56.754122 47.3687867,56.7201005 C47.3190972,56.6919582 47.2626272,56.6863088 47.2072063,56.7078966 C47.102226,56.7487889 47.010006,56.8479657 46.9239467,56.9850679 C46.4180783,57.7508929 45.6644377,58.1732953 44.53966,58.2390981 C43.3772596,58.307102 42.4838599,57.8597715 41.6105494,56.6922953 Z M70.25,39.5 L69.5,39.5 L69.5,53.5 L70.25,53.5 C71.1474627,53.5 71.9599627,53.1362314 72.548097,52.548097 C73.1362314,51.9599627 73.5,51.1474627 73.5,50.25 L73.5,42.75 C73.5,41.8525373 73.1362314,41.0400373 72.548097,40.451903 C71.9599627,39.8637686 71.1474627,39.5 70.25,39.5 Z M18.5,39.5017967 L17.5652419,39.5051496 C16.7104171,39.5529469 15.9439336,39.9313152 15.3912048,40.5142362 C14.8388231,41.0967912 14.5,41.8838325 14.5,42.75 L14.5051889,50.4354597 C14.5531539,51.2900023 14.9314747,52.0562176 15.5142362,52.6087952 C16.0967912,53.1611769 16.8838325,53.5 17.75,53.5 L18.5,53.5 L18.5,39.5017967 Z M35.9375,45.4375 C35.6744675,45.4375 35.4683483,45.6614876 35.3069856,45.9337872 C35.0741967,46.3266184 34.9375,46.8707818 34.9375,47.46875 C34.9375,48.0667182 35.0741967,48.6108816 35.3069856,49.0037128 C35.4683483,49.2760124 35.6744675,49.5 35.9375,49.5 C36.2005325,49.5 36.4066517,49.2760124 36.5680144,49.0037128 C36.8008033,48.6108816 36.9375,48.0667182 36.9375,47.46875 C36.9375,46.8707818 36.8008033,46.3266184 36.5680144,45.9337872 C36.4066517,45.6614876 36.2005325,45.4375 35.9375,45.4375 Z M52.4375,45.4375 C52.1744675,45.4375 51.9683483,45.6614876 51.8069856,45.9337872 C51.5741967,46.3266184 51.4375,46.8707818 51.4375,47.46875 C51.4375,48.0667182 51.5741967,48.6108816 51.8069856,49.0037128 C51.9683483,49.2760124 52.1744675,49.5 52.4375,49.5 C52.7005325,49.5 52.9066517,49.2760124 53.0680144,49.0037128 C53.3008033,48.6108816 53.4375,48.0667182 53.4375,47.46875 C53.4375,46.8707818 53.3008033,46.3266184 53.0680144,45.9337872 C52.9066517,45.6614876 52.7005325,45.4375 52.4375,45.4375 Z"/>
  </g>
</svg>
