<?xml version="1.0" encoding="UTF-8"?>
<svg width="46px" height="46px" viewBox="0 0 46 46" version="1.1" xmlns="http://www.w3.org/2000/svg" xmlns:xlink="http://www.w3.org/1999/xlink">
    <!-- Generator: Sketch 56.2 (81672) - https://sketch.com -->
    <title>commenticon_normal_light</title>
    <desc>Created with Sketch.</desc>
    <defs>
        <circle id="path-1" cx="23" cy="23" r="15"></circle>
        <filter x="-33.3%" y="-26.7%" width="166.7%" height="166.7%" filterUnits="objectBoundingBox" id="filter-2">
            <feOffset dx="0" dy="2" in="SourceAlpha" result="shadowOffsetOuter1"></feOffset>
            <feGaussianBlur stdDeviation="3" in="shadowOffsetOuter1" result="shadowBlurOuter1"></feGaussianBlur>
            <feColorMatrix values="0 0 0 0 0.521512681   0 0 0 0 0.29198328   0 0 0 0 0  0 0 0 0.2 0" type="matrix" in="shadowBlurOuter1"></feColorMatrix>
        </filter>
    </defs>
    <g id="page" stroke="none" stroke-width="1" fill="none" fill-rule="evenodd">
        <g id="按钮规范" transform="translate(-874.000000, -48.000000)">
            <g id="编组" transform="translate(874.000000, 48.000000)">
                <g id="Oval-3">
                    <use fill="black" fill-opacity="1" filter="url(#filter-2)" xlink:href="#path-1"></use>
                    <use fill="#C2752B" fill-rule="evenodd" xlink:href="#path-1"></use>
                </g>
                <path d="M29,23.6585886 L29,32 L15,32 L15,15 L21.8026932,15 C21.6197688,15.3162218 21.4648756,15.6506877 21.3414114,16 L16,16 L16,31 L28,31 L28,23.9170416 C28.3441518,23.8593038 28.6783692,23.7722688 29,23.6585886 Z M21.3414114,20 L17,20 L17,19 L21.0829584,19 C21.1406962,19.3441518 21.2277312,19.6783692 21.3414114,20 Z M23.6822049,23 L17,23 L17,22 L22.527787,22 C22.8679898,22.3801046 23.2559383,22.7165804 23.6822049,23 Z M27,26 L17,26 L17,25 L27,25 L27,26 Z M27,29 L17,29 L17,28 L27,28 L27,29 Z M31.5,18 C31.5,20.4852814 29.4852814,22.5 27,22.5 C24.5147186,22.5 22.5,20.4852814 22.5,18 C22.5,15.5147186 24.5147186,13.5 27,13.5 C29.4852814,13.5 31.5,15.5147186 31.5,18 Z M23.5,18 C23.5,19.9329966 25.0670034,21.5 27,21.5 C28.9329966,21.5 30.5,19.9329966 30.5,18 C30.5,16.0670034 28.9329966,14.5 27,14.5 C25.0670034,14.5 23.5,16.0670034 23.5,18 Z" id="批注" fill="#FFFFFF" fill-rule="nonzero"></path>
            </g>
        </g>
    </g>
</svg>