<?xml version="1.0" encoding="UTF-8"?>
<svg width="96px" height="96px" viewBox="0 0 96 96" version="1.1" xmlns="http://www.w3.org/2000/svg" xmlns:xlink="http://www.w3.org/1999/xlink">
    <!-- Generator: Sketch 56.2 (81672) - https://sketch.com -->
    <title>deepin-appstore-96px</title>
    <desc>Created with Sketch.</desc>
    <defs>
        <filter x="-14.6%" y="-14.6%" width="129.3%" height="129.3%" filterUnits="objectBoundingBox" id="filter-1">
            <feOffset dx="0" dy="2" in="SourceAlpha" result="shadowOffsetOuter1"></feOffset>
            <feGaussianBlur stdDeviation="2" in="shadowOffsetOuter1" result="shadowBlurOuter1"></feGaussianBlur>
            <feComposite in="shadowBlurOuter1" in2="SourceAlpha" operator="out" result="shadowBlurOuter1"></feComposite>
            <feColorMatrix values="0 0 0 0 0   0 0 0 0 0   0 0 0 0 0  0 0 0 0.2 0" type="matrix" in="shadowBlurOuter1" result="shadowMatrixOuter1"></feColorMatrix>
            <feMerge>
                <feMergeNode in="shadowMatrixOuter1"></feMergeNode>
                <feMergeNode in="SourceGraphic"></feMergeNode>
            </feMerge>
        </filter>
        <linearGradient x1="50%" y1="12.87256%" x2="50%" y2="100%" id="linearGradient-2">
            <stop stop-color="#F8F8F8" offset="0%"></stop>
            <stop stop-color="#FFE4C5" offset="100%"></stop>
        </linearGradient>
        <radialGradient cx="50%" cy="0%" fx="50%" fy="0%" r="100%" gradientTransform="translate(0.500000,0.000000),scale(0.707317,1.000000),rotate(90.000000),translate(-0.500000,-0.000000)" id="radialGradient-3">
            <stop stop-color="#FFB558" offset="0%"></stop>
            <stop stop-color="#FF631C" offset="100%"></stop>
        </radialGradient>
        <linearGradient x1="50%" y1="0%" x2="50%" y2="100%" id="linearGradient-4">
            <stop stop-color="#FF8800" offset="0%"></stop>
            <stop stop-color="#FF3F00" offset="100%"></stop>
        </linearGradient>
        <linearGradient x1="50%" y1="0%" x2="50%" y2="100%" id="linearGradient-5">
            <stop stop-color="#FFEBEB" offset="0%"></stop>
            <stop stop-color="#FFD2D2" offset="100%"></stop>
        </linearGradient>
        <path d="M63.5,12.8333333 C63.5,11.7287638 64.3954305,10.8333333 65.5,10.8333333 C66.6045695,10.8333333 67.5,11.7287638 67.5,12.8333333 C67.5,32.3607865 58.9065955,45.1666667 41,45.1666667 C23.0934045,45.1666667 14.5,32.3607865 14.5,12.8333333 C14.5,11.7287638 15.3954305,10.8333333 16.5,10.8333333 C17.6045695,10.8333333 18.5,11.7287638 18.5,12.8333333 C18.5,30.4103608 25.7180347,41.1666667 41,41.1666667 C56.2819653,41.1666667 63.5,30.4103608 63.5,12.8333333 Z" id="path-6"></path>
        <filter x="-10.4%" y="-10.2%" width="120.8%" height="132.0%" filterUnits="objectBoundingBox" id="filter-7">
            <feOffset dx="0" dy="2" in="SourceAlpha" result="shadowOffsetOuter1"></feOffset>
            <feGaussianBlur stdDeviation="1.5" in="shadowOffsetOuter1" result="shadowBlurOuter1"></feGaussianBlur>
            <feColorMatrix values="0 0 0 0 0.788235294   0 0 0 0 0.290196078   0 0 0 0 0  0 0 0 0.4 0" type="matrix" in="shadowBlurOuter1"></feColorMatrix>
        </filter>
        <filter x="-7.5%" y="-5.8%" width="115.1%" height="123.3%" filterUnits="objectBoundingBox" id="filter-8">
            <feGaussianBlur stdDeviation="0.5" in="SourceAlpha" result="shadowBlurInner1"></feGaussianBlur>
            <feOffset dx="0" dy="-1" in="shadowBlurInner1" result="shadowOffsetInner1"></feOffset>
            <feComposite in="shadowOffsetInner1" in2="SourceAlpha" operator="arithmetic" k2="-1" k3="1" result="shadowInnerInner1"></feComposite>
            <feColorMatrix values="0 0 0 0 1   0 0 0 0 0.568627451   0 0 0 0 0.243137255  0 0 0 0.501217165 0" type="matrix" in="shadowInnerInner1" result="shadowMatrixInner1"></feColorMatrix>
            <feGaussianBlur stdDeviation="0.5" in="SourceAlpha" result="shadowBlurInner2"></feGaussianBlur>
            <feOffset dx="0" dy="1" in="shadowBlurInner2" result="shadowOffsetInner2"></feOffset>
            <feComposite in="shadowOffsetInner2" in2="SourceAlpha" operator="arithmetic" k2="-1" k3="1" result="shadowInnerInner2"></feComposite>
            <feColorMatrix values="0 0 0 0 1   0 0 0 0 1   0 0 0 0 1  0 0 0 1 0" type="matrix" in="shadowInnerInner2" result="shadowMatrixInner2"></feColorMatrix>
            <feMerge>
                <feMergeNode in="shadowMatrixInner1"></feMergeNode>
                <feMergeNode in="shadowMatrixInner2"></feMergeNode>
            </feMerge>
        </filter>
    </defs>
    <g id="deepin-appstore-96px" stroke="none" stroke-width="1" fill="none" fill-rule="evenodd">
        <g id="deepin-appstore" filter="url(#filter-1)" transform="translate(7.000000, 7.000000)" fill-rule="nonzero">
            <g id="深度商店-48px">
                <g id="Page-1">
                    <g id="深度商店-48px">
                        <g id="Group-6">
                            <path d="M12,0 L70,0 C76.627417,-1.21743675e-15 82,5.372583 82,12 L82,24 L0,24 L0,12 C-8.11624501e-16,5.372583 5.372583,1.21743675e-15 12,0 Z M16.5,16.3333333 C18.4329966,16.3333333 20,14.7663299 20,12.8333333 C20,10.9003367 18.4329966,9.33333333 16.5,9.33333333 C14.5670034,9.33333333 13,10.9003367 13,12.8333333 C13,14.7663299 14.5670034,16.3333333 16.5,16.3333333 Z M65.5,16.3333333 C67.4329966,16.3333333 69,14.76633 69,12.8333333 C69,10.9003367 67.4329966,9.33333333 65.5,9.33333333 C63.5670034,9.33333333 62,10.9003367 62,12.8333333 C62,14.76633 63.5670034,16.3333333 65.5,16.3333333 Z" id="Combined-Shape" fill="url(#linearGradient-2)"></path>
                            <path d="M0,24 L82,24 L82,70 C82,76.627417 76.627417,82 70,82 L12,82 C5.372583,82 8.11624501e-16,76.627417 0,70 L0,24 Z" id="Rectangle" fill="url(#radialGradient-3)"></path>
                            <path d="M58,24 L70,24 L70,82 L58,82 L58,24 Z M36,24 L48,24 L48,82 L36,82 L36,24 Z M12,24 L24,24 L24,82 L12,82 L12,24 Z" id="Combined-Shape" fill="url(#linearGradient-4)"></path>
                            <g id="Path">
                                <use fill="black" fill-opacity="1" filter="url(#filter-7)" xlink:href="#path-6"></use>
                                <use fill="url(#linearGradient-5)" xlink:href="#path-6"></use>
                                <use fill="black" fill-opacity="1" filter="url(#filter-8)" xlink:href="#path-6"></use>
                            </g>
                        </g>
                    </g>
                </g>
            </g>
        </g>
    </g>
</svg>