<?xml version="1.0" encoding="UTF-8" standalone="no"?>
<!-- Generator: Adobe Illustrator 18.0.0, SVG Export Plug-In . SVG Version: 6.00 Build 0)  -->

<svg
   xmlns:dc="http://purl.org/dc/elements/1.1/"
   xmlns:cc="http://creativecommons.org/ns#"
   xmlns:rdf="http://www.w3.org/1999/02/22-rdf-syntax-ns#"
   xmlns:svg="http://www.w3.org/2000/svg"
   xmlns="http://www.w3.org/2000/svg"
   xmlns:sodipodi="http://sodipodi.sourceforge.net/DTD/sodipodi-0.dtd"
   xmlns:inkscape="http://www.inkscape.org/namespaces/inkscape"
   version="1.1"
   id="图层_1"
   x="0px"
   y="0px"
   viewBox="0 0 30 20"
   enable-background="new 0 0 30 20"
   xml:space="preserve"
   sodipodi:docname="Enter.svg"
   width="30"
   height="20"
   inkscape:version="0.92.1 r15371"><metadata
     id="metadata25"><rdf:RDF><cc:Work
         rdf:about=""><dc:format>image/svg+xml</dc:format><dc:type
           rdf:resource="http://purl.org/dc/dcmitype/StillImage" /><dc:title></dc:title></cc:Work></rdf:RDF></metadata><defs
     id="defs23" /><sodipodi:namedview
     pagecolor="#ffffff"
     bordercolor="#666666"
     borderopacity="1"
     objecttolerance="10"
     gridtolerance="10"
     guidetolerance="10"
     inkscape:pageopacity="0"
     inkscape:pageshadow="2"
     inkscape:window-width="836"
     inkscape:window-height="480"
     id="namedview21"
     showgrid="false"
     fit-margin-top="0"
     fit-margin-left="0"
     fit-margin-right="0"
     fit-margin-bottom="0"
     inkscape:zoom="10.7"
     inkscape:cx="15"
     inkscape:cy="10"
     inkscape:window-x="0"
     inkscape:window-y="0"
     inkscape:window-maximized="0"
     inkscape:current-layer="图层_1" /><g
     id="g18"><path
       d="M 25.667,19.5 H 4.333 C 2.225,19.5 0.5,17.775 0.5,15.667 V 4.333 C 0.5,2.225 2.225,0.5 4.333,0.5 h 21.334 c 2.108,0 3.833,1.725 3.833,3.833 v 11.334 c 0,2.108 -1.725,3.833 -3.833,3.833 z"
       id="path2"
       inkscape:connector-curvature="0"
       style="opacity:0.1;fill:#ffffff" /><path
       d="M 15,14 H 14 V 10.669 C 14,9.477 13.54,8.881 12.656,8.881 12.198,8.881 11.779,9.049 11.485,9.384 11.191,9.72 11,10.145 11,10.659 V 14 H 10 V 8 h 1 v 1 c 0,0 0.521,-1.032 2.021,-1.032 0.646,0 1.137,0.235 1.474,0.643 C 14.832,9.019 15,9.643 15,10.423 Z"
       id="path4"
       inkscape:connector-curvature="0" /><path
       d="m 22.965,11.291 h -3.881 c 0.017,0.617 0.179,1.094 0.486,1.43 0.307,0.336 0.737,0.505 1.289,0.505 0.622,0 1.192,-0.207 1.71,-0.622 v 0.915 c -0.488,0.359 -1.135,0.539 -1.941,0.539 -0.802,0 -1.428,-0.265 -1.878,-0.795 -0.45,-0.53 -0.674,-1.265 -0.674,-2.207 0,-0.886 0.247,-1.616 0.74,-2.191 0.493,-0.575 1.106,-0.863 1.838,-0.863 0.725,0 1.292,0.243 1.7,0.729 0.408,0.486 0.612,1.167 0.612,2.042 v 0.518 z M 21.982,10.47 C 21.979,9.947 21.86,9.543 21.626,9.257 21.392,8.971 21.063,8.828 20.638,8.828 c -0.391,0 -0.73,0.152 -1.015,0.455 -0.286,0.303 -0.466,0.699 -0.539,1.187 z"
       id="path6"
       inkscape:connector-curvature="0" /><path
       stroke-miterlimit="10"
       d="m 25.5,19.5 h -21 c -2.209,0 -4,-1.791 -4,-4 v -11 c 0,-2.209 1.791,-4 4,-4 h 21 c 2.209,0 4,1.791 4,4 v 11 c 0,2.209 -1.791,4 -4,4 z"
       id="path8"
       inkscape:connector-curvature="0"
       style="fill:none;stroke:#cbcbcb;stroke-miterlimit:10" /><g
       id="g12"><path
         d="M 9,14 H 4 V 5 H 9 V 6 H 5 v 3 h 3 v 1 H 5 v 3 h 4 z"
         id="path10"
         inkscape:connector-curvature="0" /></g><path
       d="M 27,9.077 C 27,8.952 26.577,8.888 26.297,8.888 25.926,8.888 25.611,9.08 25.37,9.463 25.13,9.846 25,10.35 25,10.976 V 14 H 24 V 8 h 1 V 9 H 24.994 C 25.266,8.203 25.783,7.969 26.454,7.969 26.828,7.969 27,8.18 27,8.234 Z"
       id="path14"
       inkscape:connector-curvature="0" /><path
       d="m 18,13.811 c 0,0.114 -0.342,0.171 -0.697,0.171 C 16.336,13.982 16,13.447 16,12.376 V 9 H 15 V 8 h 1 V 6.728 L 17,6.425 V 8 h 1 v 1 h -1 v 3.204 c 0,0.355 -0.027,0.612 0.094,0.765 0.121,0.153 0.232,0.227 0.512,0.227 0.215,0 0.394,-0.181 0.394,-0.181 z"
       id="path16"
       inkscape:connector-curvature="0" /></g></svg>