<?xml version="1.0" encoding="UTF-8" standalone="no"?>
<!-- Generator: Adobe Illustrator 18.0.0, SVG Export Plug-In . SVG Version: 6.00 Build 0)  -->

<svg
   xmlns:dc="http://purl.org/dc/elements/1.1/"
   xmlns:cc="http://creativecommons.org/ns#"
   xmlns:rdf="http://www.w3.org/1999/02/22-rdf-syntax-ns#"
   xmlns:svg="http://www.w3.org/2000/svg"
   xmlns="http://www.w3.org/2000/svg"
   xmlns:sodipodi="http://sodipodi.sourceforge.net/DTD/sodipodi-0.dtd"
   xmlns:inkscape="http://www.inkscape.org/namespaces/inkscape"
   version="1.1"
   id="图层_1"
   x="0px"
   y="0px"
   viewBox="0 0 30 20"
   enable-background="new 0 0 30 20"
   xml:space="preserve"
   sodipodi:docname="Tab.svg"
   width="30"
   height="20"
   inkscape:version="0.92.1 r15371"><metadata
     id="metadata21"><rdf:RDF><cc:Work
         rdf:about=""><dc:format>image/svg+xml</dc:format><dc:type
           rdf:resource="http://purl.org/dc/dcmitype/StillImage" /><dc:title></dc:title></cc:Work></rdf:RDF></metadata><defs
     id="defs19" /><sodipodi:namedview
     pagecolor="#ffffff"
     bordercolor="#666666"
     borderopacity="1"
     objecttolerance="10"
     gridtolerance="10"
     guidetolerance="10"
     inkscape:pageopacity="0"
     inkscape:pageshadow="2"
     inkscape:window-width="836"
     inkscape:window-height="480"
     id="namedview17"
     showgrid="false"
     fit-margin-top="0"
     fit-margin-left="0"
     fit-margin-right="0"
     fit-margin-bottom="0"
     inkscape:zoom="10.7"
     inkscape:cx="15"
     inkscape:cy="10"
     inkscape:window-x="0"
     inkscape:window-y="0"
     inkscape:window-maximized="0"
     inkscape:current-layer="图层_1" /><g
     id="g14"><path
       d="M 25.667,19.5 H 4.333 C 2.225,19.5 0.5,17.775 0.5,15.667 V 4.333 C 0.5,2.225 2.225,0.5 4.333,0.5 h 21.334 c 2.108,0 3.833,1.725 3.833,3.833 v 11.334 c 0,2.108 -1.725,3.833 -3.833,3.833 z"
       id="path2"
       inkscape:connector-curvature="0"
       style="opacity:0.1;fill:#ffffff" /><g
       id="g8"><path
         d="m 12.919,8.542 c 0.583,-0.363 1.256,-0.546 2.019,-0.546 1.413,0 2.12,0.742 2.12,2.226 v 3.773 H 16.03 v -0.906 h -0.026 c -0.406,0.696 -1.005,1.044 -1.797,1.044 -0.568,0 -1.021,-0.153 -1.356,-0.461 -0.335,-0.308 -0.503,-0.723 -0.503,-1.245 0,-1.096 0.647,-1.733 1.944,-1.913 L 16.03,10.27 c 0,-0.957 -0.396,-1.436 -1.188,-1.436 -0.702,0 -1.344,0.236 -1.923,0.71 z m 1.738,2.697 c -0.481,0.063 -0.813,0.184 -0.994,0.36 -0.181,0.176 -0.272,0.424 -0.272,0.742 0,0.279 0.099,0.507 0.296,0.684 0.198,0.177 0.46,0.265 0.785,0.265 0.452,0 0.824,-0.158 1.118,-0.477 0.293,-0.318 0.439,-0.717 0.439,-1.197 v -0.563 z"
         id="path4"
         inkscape:connector-curvature="0" /><path
         d="M 19.03,13.035 V 14 H 17.992 V 4.956 h 1.038 v 4.057 h 0.021 c 0.459,-0.767 1.13,-1.15 2.014,-1.15 0.734,0 1.318,0.259 1.751,0.776 0.433,0.517 0.649,1.226 0.649,2.123 0,0.989 -0.243,1.775 -0.729,2.36 C 22.251,13.708 21.603,14 20.795,14 20.032,14 19.451,13.679 19.052,13.035 Z m -0.005,-1.584 c 0,0.474 0.153,0.874 0.461,1.2 0.308,0.327 0.692,0.49 1.155,0.49 0.551,0 0.981,-0.212 1.293,-0.636 0.311,-0.424 0.466,-1.011 0.466,-1.76 0,-0.618 -0.145,-1.109 -0.435,-1.476 C 21.676,8.904 21.279,8.72 20.778,8.72 c -0.509,0 -0.929,0.183 -1.259,0.546 -0.33,0.364 -0.495,0.827 -0.495,1.389 v 0.796 z"
         id="path6"
         inkscape:connector-curvature="0" /></g><path
       stroke-miterlimit="10"
       d="m 25.5,19.5 h -21 c -2.209,0 -4,-1.791 -4,-4 v -11 c 0,-2.209 1.791,-4 4,-4 h 21 c 2.209,0 4,1.791 4,4 v 11 c 0,2.209 -1.791,4 -4,4 z"
       id="path10"
       inkscape:connector-curvature="0"
       style="fill:none;stroke:#cbcbcb;stroke-miterlimit:10" /><polygon
       points="9,5 6,5 6,6 9,6 9,14 10,14 10,6 13,6 13,5 10,5 "
       id="polygon12" /></g></svg>