<?xml version="1.0" encoding="UTF-8"?>
<svg width="60px" height="60px" viewBox="0 0 60 60" version="1.1" xmlns="http://www.w3.org/2000/svg" xmlns:xlink="http://www.w3.org/1999/xlink">
    <!-- Generator: Sketch 56.2 (81672) - https://sketch.com -->
    <title>record_normal</title>
    <desc>Created with Sketch.</desc>
    <defs>
        <linearGradient x1="50%" y1="0%" x2="50%" y2="100%" id="linearGradient-1">
            <stop stop-color="#FD5E5E" offset="0%"></stop>
            <stop stop-color="#ED5656" offset="100%"></stop>
        </linearGradient>
        <circle id="path-2" cx="30" cy="30" r="20"></circle>
        <filter x="-27.5%" y="-17.5%" width="155.0%" height="155.0%" filterUnits="objectBoundingBox" id="filter-3">
            <feOffset dx="0" dy="4" in="SourceAlpha" result="shadowOffsetOuter1"></feOffset>
            <feGaussianBlur stdDeviation="3" in="shadowOffsetOuter1" result="shadowBlurOuter1"></feGaussianBlur>
            <feColorMatrix values="0 0 0 0 0.97254902   0 0 0 0 0.17254902   0 0 0 0 0.277440324  0 0 0 0.4 0" type="matrix" in="shadowBlurOuter1"></feColorMatrix>
        </filter>
        <linearGradient x1="50%" y1="41.4361479%" x2="50%" y2="100%" id="linearGradient-4">
            <stop stop-color="#FFFFFF" offset="0%"></stop>
            <stop stop-color="#FFFFFF" offset="34.0878783%"></stop>
            <stop stop-color="#F3F3F3" offset="62.7017222%"></stop>
            <stop stop-color="#FFFFFF" offset="100%"></stop>
        </linearGradient>
    </defs>
    <g id="页面-1" stroke="none" stroke-width="1" fill="none" fill-rule="evenodd">
        <g id="按钮状态" transform="translate(-567.000000, -128.000000)">
            <g id="record_normal" transform="translate(567.000000, 128.000000)">
                <g id="椭圆形">
                    <use fill="black" fill-opacity="1" filter="url(#filter-3)" xlink:href="#path-2"></use>
                    <use fill="url(#linearGradient-1)" fill-rule="evenodd" xlink:href="#path-2"></use>
                </g>
                <path d="M36.3829787,31.7287217 L36.3829787,30.452126 L35.5319149,30.452126 L35.5319149,31.7287217 C35.5319149,32.4911387 35.3856409,33.204783 35.093086,33.8696817 C34.8005311,34.534577 34.4015966,35.11968 33.8962757,35.6250009 C33.3909549,36.1303217 32.801423,36.5248204 32.1276596,36.8085106 C31.4538962,37.0922009 30.7358196,37.2340426 29.973406,37.2340426 L29.973406,37.2340426 C29.2109889,37.2340426 28.4973447,37.0922009 27.832446,36.8085106 C27.1675506,36.5248204 26.5824494,36.1303217 26.0771275,35.6250009 C25.571806,35.11968 25.1773062,34.534577 24.893617,33.8696817 C24.6099278,33.204783 24.4680851,32.4911387 24.4680851,31.7287217 L24.4680851,30.452126 L23.6170213,30.452126 L23.6170213,31.7287217 C23.6170213,32.5266009 23.7588638,33.2845719 24.0425532,34.0026587 C24.3262424,34.7207489 24.7118771,35.3546077 25.1994683,35.9042553 C25.6870591,36.453903 26.2632946,36.9148902 26.9281913,37.287234 C27.5930894,37.6595779 28.3067336,37.8989345 29.0691472,38.0053174 L29.0691472,40.5585106 C27.8634689,40.6648943 26.8572735,40.8909556 26.0505321,41.236702 C25.2437903,41.5824487 24.8404255,41.9414877 24.8404255,42.3138298 C24.8404255,42.3315604 25.3856327,42.3404255 26.476064,42.3404255 L30.0664885,42.3404255 L33.6569157,42.3404255 C34.7473464,42.3404255 35.2925549,42.3315604 35.2925549,42.3138298 C35.2925549,41.9237569 34.8581617,41.5514203 33.9893617,41.1968085 C33.1205617,40.8421968 32.0478774,40.6294329 30.7712749,40.5585106 L30.7712749,38.0053174 C31.5514213,37.9166672 32.2827983,37.6906043 32.9654264,37.3271285 C33.6480545,36.9636494 34.2420187,36.5026621 34.7473396,35.9441498 C35.2526604,35.385634 35.6515949,34.747343 35.9441498,34.0292562 C36.2367047,33.311166 36.3829787,32.5443302 36.3829787,31.7287217 Z M29.973406,36.3297872 C31.2677379,36.3297872 32.3758809,35.8776647 33.2978723,34.973406 C34.2198638,34.0691438 34.6808511,32.9698655 34.6808511,31.6755336 L34.6808511,30.452126 L25.3191489,30.452126 L25.3191489,31.6755336 C25.3191489,32.9698655 25.7712722,34.0691438 26.6755319,34.973406 C27.5797923,35.8776647 28.6790706,36.3297872 29.973406,36.3297872 Z M25.3191489,27.0212766 L28.7234043,27.0212766 L28.7234043,26.1702128 L25.3191489,26.1702128 L25.3191489,22.3138315 C25.3191489,21.0372289 25.7712722,19.9423796 26.6755319,19.0292562 C27.5797923,18.1161294 28.6790706,17.6595745 29.973406,17.6595745 C31.2677379,17.6595745 32.3758809,18.1161294 33.2978723,19.0292562 C34.2198638,19.9423796 34.6808511,21.0372289 34.6808511,22.3138315 L34.6808511,26.1702128 L33.8297872,26.1702128 L32.9787234,26.1702128 L31.2765957,26.1702128 L31.2765957,27.0212766 L32.9787234,27.0212766 L33.8297872,27.0212766 L34.6808511,27.0212766 L34.6808511,27.8723404 L32.1276596,27.8723404 L31.2765957,27.8723404 L31.2765957,28.7234043 L32.1276596,28.7234043 L34.6808511,28.7234043 L34.6808511,29.6276596 L25.3191489,29.6276596 L25.3191489,28.7234043 L27.8723404,28.7234043 L27.8723404,27.8723404 L25.3191489,27.8723404 L25.3191489,27.0212766 Z M27.8723404,19.3617021 L27.8723404,20.212766 L28.7234043,20.212766 L28.7234043,19.3617021 L27.8723404,19.3617021 Z M27.0212766,21.0638298 L27.0212766,21.9148936 L27.8723404,21.9148936 L27.8723404,21.0638298 L27.0212766,21.0638298 Z M27.8723404,27.8723404 L27.8723404,28.7234043 L28.7234043,28.7234043 L28.7234043,27.8723404 L27.8723404,27.8723404 Z M32.9787234,24.4680851 L32.9787234,25.3191489 L33.8297872,25.3191489 L33.8297872,24.4680851 L32.9787234,24.4680851 Z M31.2765957,24.4680851 L31.2765957,25.3191489 L32.1276596,25.3191489 L32.1276596,24.4680851 L31.2765957,24.4680851 Z M29.5744681,24.4680851 L29.5744681,25.3191489 L30.4255319,25.3191489 L30.4255319,24.4680851 L29.5744681,24.4680851 Z M27.8723404,24.4680851 L27.8723404,25.3191489 L28.7234043,25.3191489 L28.7234043,24.4680851 L27.8723404,24.4680851 Z M26.1702128,24.4680851 L26.1702128,25.3191489 L27.0212766,25.3191489 L27.0212766,24.4680851 L26.1702128,24.4680851 Z M32.9787234,22.7659574 L32.9787234,23.6170213 L33.8297872,23.6170213 L33.8297872,22.7659574 L32.9787234,22.7659574 Z M31.2765957,22.7659574 L31.2765957,23.6170213 L32.1276596,23.6170213 L32.1276596,22.7659574 L31.2765957,22.7659574 Z M29.5744681,22.7659574 L29.5744681,23.6170213 L30.4255319,23.6170213 L30.4255319,22.7659574 L29.5744681,22.7659574 Z M27.8723404,22.7659574 L27.8723404,23.6170213 L28.7234043,23.6170213 L28.7234043,22.7659574 L27.8723404,22.7659574 Z M26.1702128,22.7659574 L26.1702128,23.6170213 L27.0212766,23.6170213 L27.0212766,22.7659574 L26.1702128,22.7659574 Z M29.5744681,19.3617021 L29.5744681,20.212766 L30.4255319,20.212766 L30.4255319,19.3617021 L29.5744681,19.3617021 Z M28.7234043,21.0638298 L28.7234043,21.9148936 L29.5744681,21.9148936 L29.5744681,21.0638298 L28.7234043,21.0638298 Z M31.2765957,19.3617021 L31.2765957,20.212766 L32.1276596,20.212766 L32.1276596,19.3617021 L31.2765957,19.3617021 Z M30.4255319,21.0638298 L30.4255319,21.9148936 L31.2765957,21.9148936 L31.2765957,21.0638298 L30.4255319,21.0638298 Z M32.1276596,21.0638298 L32.1276596,21.9148936 L32.9787234,21.9148936 L32.9787234,21.0638298 L32.1276596,21.0638298 Z" id="Page-1" fill="url(#linearGradient-4)"></path>
            </g>
        </g>
    </g>
</svg>