<?xml version="1.0" encoding="UTF-8"?>
<svg width="36px" height="36px" viewBox="0 0 36 36" version="1.1" xmlns="http://www.w3.org/2000/svg" xmlns:xlink="http://www.w3.org/1999/xlink">
    <title>导出</title>
    <g id="页面-1备份" stroke="none" stroke-width="1" fill="none" fill-rule="evenodd">
        <g id="按钮" transform="translate(-146.000000, -38.000000)" fill="#536076">
            <g id="编组-4" transform="translate(146.000000, 38.000000)">
                <g id="导出" transform="translate(0.000000, 2.000000)">
                    <path d="M25,18.5357143 L25,21.3214286 C25,22.8214286 23.9,24 22.5,24 L13.5,24 C12.1,24 11,22.8214286 11,21.3214286 L11,11.6785714 C11,10.1785714 12.1,9 13.5,9 L17.1666667,9 C17.4666667,9 17.6577759,9.16540309 17.6577759,9.48683167 C17.6577759,9.80826024 17.4666667,9.93120575 17.1666667,9.93120575 L13.5,9.93120575 C12.7,9.93120575 12,10.8214286 12,11.6785714 L12,21.3214286 C12,22.1785714 12.7,23.0490532 13.5,23.0490532 L22.5,23.0490532 C23.3,23.0490532 24.0763509,22.1785714 24.0763509,21.3214286 L24.0763509,18.5357143 C24.0763509,18.2142857 24.2,18 24.5,18 C24.8,18 25,18.2142857 25,18.5357143 Z" id="形状" fill-rule="nonzero" transform="translate(18.000000, 16.500000) scale(1, -1) translate(-18.000000, -16.500000) "></path>
                    <g id="编组-2" transform="translate(21.500000, 19.500000) rotate(-270.000000) translate(-21.500000, -19.500000) translate(17.000000, 15.000000)">
                        <rect id="矩形" x="4" y="0" width="1" height="9" rx="0.5"></rect>
                        <path d="M2.20710678,-0.207106781 L2.70710678,-0.207106781 C2.98324916,-0.207106781 3.20710678,0.0167508439 3.20710678,0.292893219 L3.20710678,4.29289322 C3.20710678,4.56903559 2.98324916,4.79289322 2.70710678,4.79289322 C2.43096441,4.79289322 2.20710678,4.56903559 2.20710678,4.29289322 L2.20710678,-0.207106781 L2.20710678,-0.207106781 Z" id="矩形" transform="translate(2.707107, 2.292893) rotate(-315.000000) translate(-2.707107, -2.292893) "></path>
                        <path d="M6.21782413,-0.101270399 L6.69434472,0.00520475784 L6.69434472,0.00520475784 L6.61762121,4.27163561 C6.61271913,4.54422938 6.39033988,4.76264553 6.11770203,4.76264553 L6.10879134,4.76264553 C5.83264897,4.76264553 5.60879134,4.53878791 5.60879134,4.26264553 L5.60879134,0.38669666 C5.60879134,0.110554285 5.83264897,-0.11330334 6.10879134,-0.11330334 C6.14546692,-0.11330334 6.18203118,-0.109268081 6.21782413,-0.101270399 Z" id="矩形" transform="translate(6.151568, 2.262646) rotate(-45.000000) translate(-6.151568, -2.262646) "></path>
                    </g>
                </g>
            </g>
        </g>
    </g>
</svg>