<?xml version="1.0" encoding="utf-8"?>
<!-- Generator: Adobe Illustrator 16.0.0, SVG Export Plug-In . SVG Version: 6.00 Build 0)  -->
<!DOCTYPE svg PUBLIC "-//W3C//DTD SVG 1.1//EN" "http://www.w3.org/Graphics/SVG/1.1/DTD/svg11.dtd">
<svg version="1.1" id="图层_1" xmlns="http://www.w3.org/2000/svg" xmlns:xlink="http://www.w3.org/1999/xlink" x="0px" y="0px"
	 width="24px" height="24px" viewBox="0 0 24 24" enable-background="new 0 0 24 24" xml:space="preserve">
<filter  id="filter-3" y="-20.8%" x="-29.2%" width="158.3%" height="158.3%" filterUnits="objectBoundingBox">
	<feOffset  result="shadowOffsetOuter1" in="SourceAlpha" dy="2" dx="0"></feOffset>
	<feGaussianBlur  result="shadowBlurOuter1" in="shadowOffsetOuter1" stdDeviation="2"></feGaussianBlur>
	<feComposite  in2="SourceAlpha" result="shadowBlurOuter1" in="shadowBlurOuter1" operator="out"></feComposite>
	<feColorMatrix  values="0 0 0 0 0   0 0 0 0 0   0 0 0 0 0  0 0 0 0.05 0" in="shadowBlurOuter1" type="matrix"></feColorMatrix>
</filter>
<title></title>
<desc>Created with Sketch.</desc>
<g id="矩形">
	<g filter="url(#filter-3)">
		<path id="path-2_2_" d="M5,0h14c2.762,0,5,2.239,5,5v14c0,2.762-2.238,5-5,5H5c-2.761,0-5-2.238-5-5V5C0,2.239,2.239,0,5,0z"/>
	</g>
	<g>
		<path id="path-2_1_" fill-opacity="0.08" d="M5,0h14c2.762,0,5,2.239,5,5v14c0,2.762-2.238,5-5,5H5c-2.761,0-5-2.238-5-5V5
			C0,2.239,2.239,0,5,0z"/>
	</g>
	
		<linearGradient id="SVGID_1_" gradientUnits="userSpaceOnUse" x1="-272.2231" y1="415.7861" x2="-272.2231" y2="414.8296" gradientTransform="matrix(23 0 0 -23 6273.1406 9563.5625)">
		<stop  offset="0" style="stop-color:#E6E6E6"/>
		<stop  offset="1" style="stop-color:#E3E3E3"/>
	</linearGradient>
	<path fill="url(#SVGID_1_)" stroke="#000000" stroke-opacity="0.03" d="M5.5,0.5h13c2.762,0,5,2.239,5,5v13c0,2.762-2.238,5-5,5
		h-13c-2.761,0-5-2.238-5-5v-13C0.5,2.739,2.739,0.5,5.5,0.5z"/>
</g>
<g id="退出" transform="translate(5.666667, 5.666667)">
	<g id="编组" transform="translate(0.843137, 0.843137)">
		<g id="Clip-2">
		</g>
		<defs>
			<filter id="Adobe_OpacityMaskFilter" filterUnits="userSpaceOnUse" x="-2" y="-2" width="14.492" height="13.875">
				<feColorMatrix  type="matrix" values="1 0 0 0 0  0 1 0 0 0  0 0 1 0 0  0 0 0 1 0"/>
			</filter>
		</defs>
		<mask maskUnits="userSpaceOnUse" x="-2" y="-2" width="14.492" height="13.875" id="mask-5">
			<g filter="url(#Adobe_OpacityMaskFilter)">
				<polygon id="path-4" fill="#FFFFFF" points="-2,-2 18.182,-2 18.182,18.182 -2,18.182 				"/>
			</g>
		</mask>
		<path id="Fill-1" mask="url(#mask-5)" fill="#536076" d="M7.62,10.684h-8.362V-0.812H7.62c0.259,0,0.469-0.324,0.469-0.569
			S7.879-2,7.62-2h-9.153C-1.791-2-2-1.8-2-1.557v12.988c0,0.246,0.209,0.443,0.467,0.443H7.62c0.259,0,0.469-0.34,0.469-0.586
			C8.089,11.044,7.879,10.684,7.62,10.684z M10.432,4.27H4.195c-0.258,0-0.531,0.319-0.531,0.633s0.307,0.629,0.563,0.629
			c0.172,0,2.24-0.007,6.204-0.021L9.08,7.044C8.9,7.316,9,7.651,9.152,7.841c0.153,0.188,0.592,0.292,0.853,0l2.352-2.54
			c0.182-0.181,0.182-0.625,0-0.807c-0.119-0.121-0.919-0.983-2.396-2.587c-0.183-0.185-0.552-0.185-0.809,0.03
			C8.896,2.151,8.921,2.571,9.08,2.781L10.432,4.27z"/>
	</g>
</g>
</svg>
