<?xml version="1.0" encoding="utf-8"?>
<!-- Generator: Adobe Illustrator 16.0.0, SVG Export Plug-In . SVG Version: 6.00 Build 0)  -->
<!DOCTYPE svg PUBLIC "-//W3C//DTD SVG 1.1//EN" "http://www.w3.org/Graphics/SVG/1.1/DTD/svg11.dtd">
<svg version="1.1" id="图层_1" xmlns="http://www.w3.org/2000/svg" xmlns:xlink="http://www.w3.org/1999/xlink" x="0px" y="0px"
	 width="24px" height="24px" viewBox="0 0 24 24" enable-background="new 0 0 24 24" xml:space="preserve">
<filter  id="filter-3" y="-20.8%" x="-29.2%" width="158.3%" height="158.3%" filterUnits="objectBoundingBox">
	<feOffset  result="shadowOffsetOuter1" in="SourceAlpha" dy="2" dx="0"></feOffset>
	<feGaussianBlur  result="shadowBlurOuter1" in="shadowOffsetOuter1" stdDeviation="2"></feGaussianBlur>
	<feComposite  in2="SourceAlpha" result="shadowBlurOuter1" in="shadowBlurOuter1" operator="out"></feComposite>
	<feColorMatrix  values="0 0 0 0 0   0 0 0 0 0   0 0 0 0 0  0 0 0 0.05 0" in="shadowBlurOuter1" type="matrix"></feColorMatrix>
</filter>
<title>切片</title>
<desc>Created with Sketch.</desc>
<g id="矩形">
	<g filter="url(#filter-3)">
		<path id="path-2_2_" d="M5,0h14c2.762,0,5,2.239,5,5v14c0,2.762-2.238,5-5,5H5c-2.761,0-5-2.238-5-5V5C0,2.239,2.239,0,5,0z"/>
	</g>
	<g>
		<path id="path-2_1_" fill-opacity="0.08" d="M5,0h14c2.762,0,5,2.239,5,5v14c0,2.762-2.238,5-5,5H5c-2.761,0-5-2.238-5-5V5
			C0,2.239,2.239,0,5,0z"/>
	</g>
	
		<linearGradient id="SVGID_1_" gradientUnits="userSpaceOnUse" x1="-272.2231" y1="415.7861" x2="-272.2231" y2="414.8296" gradientTransform="matrix(23 0 0 -23 6273.1406 9563.5625)">
		<stop  offset="0" style="stop-color:#E6E6E6"/>
		<stop  offset="1" style="stop-color:#E3E3E3"/>
	</linearGradient>
	<path fill="url(#SVGID_1_)" stroke="#000000" stroke-opacity="0.03" d="M5.5,0.5h13c2.762,0,5,2.239,5,5v13c0,2.762-2.238,5-5,5
		h-13c-2.761,0-5-2.238-5-5v-13C0.5,2.739,2.739,0.5,5.5,0.5z"/>
</g>
<g id="解散" transform="translate(6.171429, 6.000000)">
	<g id="编组" transform="translate(-0.000000, 0.000000)">
		<g id="Fill-3" transform="translate(0.000000, 0.015238)">
			<path fill="#536076" d="M4.565-0.623c0.231,0,0.417,0.188,0.417,0.418S4.796,0.212,4.565,0.212H-0.11l0,4.522
				c0,0.237-0.192,0.43-0.429,0.43s-0.429-0.192-0.429-0.43v-4.927c0-0.009,0-0.011,0-0.013c0-0.23,0.188-0.418,0.418-0.418h0.01
				H4.565z"/>
			<path fill="#536076" d="M7.09-0.623c-0.229,0-0.416,0.188-0.416,0.418S6.861,0.212,7.09,0.212h4.677v4.522
				c0,0.237,0.19,0.43,0.428,0.43c0.238,0,0.431-0.192,0.431-0.43v-4.927c-0.002-0.009-0.002-0.011-0.002-0.013
				c0-0.23-0.187-0.418-0.417-0.418h-0.01H7.09z"/>
			<path fill="#536076" d="M4.567,12.592c0.23,0,0.417-0.187,0.417-0.417c0-0.231-0.187-0.417-0.417-0.417h-4.676l0.001-4.522
				c0-0.236-0.192-0.43-0.429-0.43c-0.238,0-0.43,0.193-0.43,0.43v4.926c0.001,0.01,0.001,0.013,0.001,0.014
				c0,0.23,0.187,0.417,0.417,0.417h0.01H4.567z"/>
		</g>
		<path id="路径" fill="#536076" d="M10.246,9.804l2.234-2.057c0.161-0.157,0.127-0.399-0.031-0.554
			c-0.16-0.155-0.406-0.187-0.568-0.029L9.646,9.221L7.497,7.197c-0.16-0.155-0.404-0.121-0.567,0.037S6.732,7.631,6.89,7.784
			L9.041,9.81l-2.219,2.065c-0.161,0.157-0.134,0.401,0.025,0.556c0.16,0.155,0.412,0.184,0.574,0.026l2.219-2.065l2.241,2.072
			c0.16,0.154,0.402,0.124,0.566-0.035c0.163-0.16,0.172-0.425,0.04-0.554L10.246,9.804z"/>
	</g>
</g>
</svg>
