<?xml version="1.0" encoding="UTF-8"?>
<svg width="44px" height="44px" viewBox="0 0 44 44" version="1.1" xmlns="http://www.w3.org/2000/svg" xmlns:xlink="http://www.w3.org/1999/xlink">
    <title>button_有图标</title>
    <defs>
        <linearGradient x1="50%" y1="0%" x2="50%" y2="95.6533653%" id="linearGradient-1">
            <stop stop-color="#E6E6E6" offset="0%"></stop>
            <stop stop-color="#E3E3E3" offset="100%"></stop>
        </linearGradient>
        <rect id="path-2" x="0" y="0" width="36" height="36" rx="8"></rect>
        <filter x="-19.4%" y="-13.9%" width="138.9%" height="138.9%" filterUnits="objectBoundingBox" id="filter-3">
            <feOffset dx="0" dy="2" in="SourceAlpha" result="shadowOffsetOuter1"></feOffset>
            <feGaussianBlur stdDeviation="2" in="shadowOffsetOuter1" result="shadowBlurOuter1"></feGaussianBlur>
            <feComposite in="shadowBlurOuter1" in2="SourceAlpha" operator="out" result="shadowBlurOuter1"></feComposite>
            <feColorMatrix values="0 0 0 0 0   0 0 0 0 0   0 0 0 0 0  0 0 0 0.05 0" type="matrix" in="shadowBlurOuter1"></feColorMatrix>
        </filter>
    </defs>
    <g id="页面-1" stroke="none" stroke-width="1" fill="none" fill-rule="evenodd">
        <g id="主页面-IM-个人名片" transform="translate(-904.000000, -153.000000)">
            <g id="联系人IM-群" transform="translate(114.000000, 88.000000)">
                <g id="联系人IM4">
                    <g id="编组-10" transform="translate(270.000000, 60.000000)">
                        <g id="button_有图标" transform="translate(524.000000, 7.000000)">
                            <g id="button/群成员">
                                <g>
                                    <g id="Rectangle">
                                        <use fill="black" fill-opacity="1" filter="url(#filter-3)" xlink:href="#path-2"></use>
                                        <rect stroke-opacity="0.03" stroke="#000000" stroke-width="1" stroke-linejoin="square" fill="url(#linearGradient-1)" fill-rule="evenodd" x="0.5" y="0.5" width="35" height="35" rx="8"></rect>
                                    </g>
                                    <g id="群设置" transform="translate(10.000000, 10.000000)" fill="#536076" fill-rule="evenodd" stroke-width="1">
                                        <g id="编组">
                                            <path d="M5.00899731,4.5 C5.00899731,2.60401821 6.50591135,1 8.43790765,1 C10.3698857,1 12.0089973,2.60401821 12.0089973,4.5 C12.0089973,6.39598179 10.4375185,8 8.50546754,8 C6.58144725,8 5.00899731,6.39583884 5.00899731,4.5 Z M4.0012608,4.53232319 C4.0012608,5.73901261 4.3042739,7 6.00163279,8.3555131 C2.50612655,9.31938333 0,11.9748863 0,15.5645809 C0,15.7930389 0.259008205,16 0.502171735,16 C0.745188927,16 1.00795158,15.7930389 1.00795158,15.5645809 C1.00795158,11.6579626 4.2418544,9 8.40187754,9 C11.3604603,9 13,6.72418102 13,4.53232319 C13,2.34046536 11.5593526,2.84217094e-14 8.40187754,2.84217094e-14 C5.48265785,2.84217094e-14 4.0012608,2.5693361 4.0012608,4.53232319 Z" id="Fill-1"></path>
                                            <path d="M15,12.4444424 L15,12.4444424 L15,12.7610493 C14.7962999,12.8041671 14.4501726,12.9197881 14.312664,13.2194147 C14.2069109,13.4499381 14.2526274,13.7259428 14.4483144,14.0414715 L14.0564223,14.4544869 C13.8655364,14.3387276 13.4971242,14.1646602 13.1891079,14.3106275 C12.972262,14.4133181 12.8422001,14.6448919 12.8013191,15 L12.1986049,15 C12.1577792,14.6448919 12.0276896,14.4133181 11.8107885,14.3106275 C11.5029587,14.1648744 11.134436,14.3386239 10.943474,14.4544869 L10.5516372,14.0414715 C10.7473519,13.7259428 10.7930062,13.4499381 10.6872877,13.2194147 C10.5497514,12.9197881 10.2036242,12.8041671 10,12.7610493 L10,12.4494045 L10,12.4494045 L10,12.2389991 C10.2036794,12.1958606 10.5498274,12.0802602 10.6873637,11.7806061 C10.7930891,11.5500896 10.7474348,11.2740503 10.5516925,10.9585492 L10.9435224,10.5454785 C11.1344636,10.6613761 11.5029587,10.8351187 11.8108714,10.6894002 C12.0277173,10.5866474 12.1578552,10.3551288 12.1986601,10 L12.801402,10 C12.8422277,10.3551011 12.9723449,10.586675 13.1891563,10.6894002 C13.4971519,10.8353675 13.865564,10.6612655 14.05645,10.5454785 L14.4483697,10.9585492 C14.2526481,11.2740503 14.2069938,11.5500896 14.312664,11.7806061 C14.4501726,12.0802602 14.7963551,12.1958606 15,12.2389991 L15,12.4444424 L15,12.4444424 Z M15.8140247,11.7993027 C15.668955,11.7861179 15.2284585,11.6917904 15.1129511,11.4398772 C15.0122205,11.2205459 15.1787808,10.9112621 15.3361333,10.6904269 L15.4338231,10.5532123 L14.4771007,9.54531194 L14.3315014,9.65435383 C14.200175,9.75285981 13.7711583,10.0076355 13.5267247,9.89157824 C13.3304654,9.79821631 13.2768159,9.4619305 13.2662073,9.19640527 L13.2585626,9 L11.7415399,9 L11.7337671,9.19637109 C11.7232183,9.46186214 11.6695346,9.79818213 11.4733778,9.89157824 C11.2293798,10.0076355 10.7997652,9.75285981 10.668473,9.65435383 L10.5227028,9.54507269 L9.56617691,10.5532123 L9.66387521,10.690461 C9.82102272,10.910963 9.98751469,11.2199478 9.88751872,11.4392107 C9.77274585,11.6906881 9.34183299,11.7844516 9.18597526,11.7993369 L9,11.8162901 L9,12.4312945 L9,12.4312945 L9,13.1837099 L9.18591547,13.2006716 C9.34176466,13.2155569 9.77271169,13.3093546 9.88745038,13.5607893 C9.98744636,13.7800266 9.82102272,14.089037 9.66387521,14.3095048 L9.56617691,14.4468304 L10.5226687,15.4548931 L10.6684388,15.345612 C10.7996969,15.2471487 11.2292773,14.9923389 11.4732838,15.1083278 C11.6694663,15.2017837 11.7231841,15.5380439 11.7337671,15.8035691 L11.7414374,16 L13.2584857,16 L13.2661731,15.8035691 C13.2767817,15.5380439 13.3304654,15.2017837 13.5266564,15.1083278 C13.7711242,14.9923389 14.2001408,15.2471146 14.3315014,15.345612 L14.4771007,15.4547308 L15.4337889,14.4468304 L15.3361333,14.3095048 C15.1787125,14.0886695 15.0121522,13.7793515 15.1128827,13.5600544 C15.2284243,13.308184 15.6689208,13.2138565 15.8139906,13.2006716 L16,13.1837099 L16,12.4374041 L16,12.4374041 L16,11.8163242 L15.8140247,11.7993027 Z M12,12.5066681 C12,12.2309509 12.2243075,12.0066681 12.5,12.0066681 C12.7757077,12.0066681 13,12.2309509 13,12.5066681 C13,12.7823549 12.7757077,13.0066681 12.5,13.0066681 C12.2243075,13.0066681 12,12.7823549 12,12.5066681 Z M11.5047649,12.4918227 C11.5047649,13.0432652 11.9533107,13.491806 12.504776,13.491806 C13.0561744,13.491806 13.5047649,13.0432652 13.5047649,12.4918227 C13.5047649,11.9403915 13.0561744,11.491806 12.504776,11.491806 C11.9533107,11.491806 11.5047649,11.9403915 11.5047649,12.4918227 Z" id="Fill-1"></path>
                                        </g>
                                    </g>
                                </g>
                            </g>
                        </g>
                    </g>
                </g>
            </g>
        </g>
    </g>
</svg>