<?xml version="1.0" encoding="UTF-8"?>
<svg width="24px" height="21px" viewBox="0 0 24 21" version="1.1" xmlns="http://www.w3.org/2000/svg" xmlns:xlink="http://www.w3.org/1999/xlink">
    <title>形状结合备份 2</title>
    <g id="组件" stroke="none" stroke-width="1" fill="none" fill-rule="evenodd">
        <g id="add-chat-footer" transform="translate(-97.000000, -61.000000)" fill="#536076">
            <g id="chat-footer" transform="translate(-2.000000, 0.000000)">
                <g id="bg" transform="translate(2.000000, 0.000000)">
                    <path d="M106.03456,61 C106.569868,61 107.059058,61.3029765 107.297548,61.7822223 L109.307315,65.8208486 C109.545805,66.3000944 110.034995,66.6030709 110.570303,66.6030709 L116.767808,66.6030709 C119.105183,66.6030709 121,68.4978879 121,70.8352632 L121,77.7678078 C121,80.105183 119.105183,82 116.767808,82 L101.232192,82 C98.894817,82 97,80.105183 97,77.7678078 L97,65.2321922 C97,62.894817 98.894817,61 101.232192,61 L106.03456,61 Z M105.185273,62.3892517 L101.24977,62.3892517 C99.6915194,62.3892517 98.4283081,63.6524631 98.4283081,65.2107132 L98.4283081,65.2107132 L98.4283081,77.7777708 C98.4283081,79.3360209 99.6915194,80.5992323 101.24977,80.5992323 L101.24977,80.5992323 L116.767808,80.5992323 C118.326058,80.5992323 119.589269,79.3360209 119.589269,77.7777708 L119.589269,77.7777708 L119.589269,70.8411495 C119.589269,69.2828993 118.326058,68.019688 116.767808,68.019688 L116.767808,68.019688 L109.701725,68.019688 C109.163101,68.019688 108.671484,67.7129857 108.434666,67.2292162 L108.434666,67.2292162 L106.452333,63.1797235 C106.215515,62.695954 105.723897,62.3892517 105.185273,62.3892517 L105.185273,62.3892517 Z" id="形状结合备份-2"></path>
                </g>
            </g>
        </g>
    </g>
</svg>