<svg id="图层_1" data-name="图层 1" xmlns="http://www.w3.org/2000/svg" xmlns:xlink="http://www.w3.org/1999/xlink" viewBox="0 0 42 36"><defs><style>.cls-1,.cls-2,.cls-3,.cls-6{fill:none;}.cls-1{clip-rule:evenodd;}.cls-3,.cls-6{stroke:#414d68;}.cls-3{stroke-miterlimit:10;}.cls-4{clip-path:url(#clip-path);}.cls-5{clip-path:url(#clip-path-2);}.cls-6{stroke-linejoin:round;stroke-width:2px;}</style><clipPath id="clip-path"><path class="cls-1" d="M14.51,11.64l.33,4.88c.11.55-.44.66-.56.19L13.1,12c-.07-.51-1.74-.2-1.65.37l1.67,6.21a1.09,1.09,0,0,0,.05.26c0,.17-.07.28-.07.28-3.3-3.45-4.1-1-4.1-1,2.24,1.59,3.6,6.53,5.28,6.82h4.6a1.91,1.91,0,0,0,1.92-2,22.12,22.12,0,0,1,.2-5l1-4.17c.16-.63-1.84-.92-1.94-.49l-.84,3.52c-.07.29-.51.18-.51,0l.67-5.25c0-.59-2-.62-2-.11l-.23,4.58a.31.31,0,1,1-.62-.05l0-4.38C16.46,10.73,14.44,10.84,14.51,11.64ZM-1,1H32V35H-1Z"/></clipPath><clipPath id="clip-path-2"><rect class="cls-2" x="-253" y="-49" width="1131" height="618"/></clipPath></defs><title>画板 1 副本</title><polyline class="cls-3" points="30.91 17.09 33.09 19.27 35.27 17.09"/><g class="cls-4"><g class="cls-5"><path class="cls-6" d="M14.51,11.64l.33,4.88c.11.55-.44.66-.56.19L13.1,12c-.07-.51-1.74-.2-1.65.37l1.67,6.21a1.09,1.09,0,0,0,.05.26c0,.17-.07.28-.07.28-3.3-3.45-4.1-1-4.1-1,2.24,1.59,3.6,6.53,5.28,6.82h4.6a1.91,1.91,0,0,0,1.92-2,22.12,22.12,0,0,1,.2-5l1-4.17c.16-.63-1.84-.92-1.94-.49l-.84,3.52c-.07.29-.51.18-.51,0l.67-5.25c0-.59-2-.62-2-.11l-.23,4.58a.31.31,0,1,1-.62-.05l0-4.38C16.46,10.73,14.44,10.84,14.51,11.64Z"/></g></g></svg>