<?xml version="1.0" encoding="UTF-8"?>
<svg width="15px" height="17px" viewBox="0 0 15 17" version="1.1" xmlns="http://www.w3.org/2000/svg" xmlns:xlink="http://www.w3.org/1999/xlink">
    <!-- Generator: Sketch 58 (84663) - https://sketch.com -->
    <title>mount备份</title>
    <desc>Created with Sketch.</desc>
    <g id="组件" stroke="none" stroke-width="1" fill="none" fill-rule="evenodd">
        <g id="mount备份" transform="translate(0.856406, 0.794229)" fill="#536076">
            <path d="M11.9365079,0 C12.9183475,-1.80361e-16 13.7142857,0.795938223 13.7142857,1.77777778 L13.7142857,14.2222222 C13.7142857,15.2040618 12.9183475,16 11.9365079,16 L1.77777778,16 C0.795938223,16 7.86374482e-16,15.2040618 0,14.2222222 L0,1.77777778 C-1.20240667e-16,0.795938223 0.795938223,-4.16836046e-17 1.77777778,0 L11.9365079,0 Z M11.6825397,12.5714286 L2.03174603,12.5714286 C1.57858931,12.5714286 1.20463316,12.9105265 1.14978285,13.3488171 L1.14285714,13.4603175 L1.14285714,13.968254 C1.14285714,14.4214107 1.48195508,14.7953668 1.9202457,14.8502172 L2.03174603,14.8571429 L11.6825397,14.8571429 C12.1356964,14.8571429 12.5096526,14.5180449 12.5645029,14.0797543 L12.5714286,13.968254 L12.5714286,13.4603175 C12.5714286,12.9693977 12.1734595,12.5714286 11.6825397,12.5714286 Z M3.87142829,4 L2.585714,5.71428571 L3.44285686,5.71428571 C3.44285686,7.60783343 4.97788057,9.14285714 6.87142829,9.14285714 C7.79683139,9.14285714 8.63660417,8.7762301 9.25341961,8.18030302 L9.25341961,8.18030302 L8.65322768,7.56832242 C8.19105408,8.01259868 7.56313597,8.28571429 6.87142829,8.28571429 L6.87142829,8.28571429 L6.7088071,8.28065531 C5.3644115,8.19675745 4.29999971,7.07982493 4.29999971,5.71428571 L4.29999971,5.71428571 L5.15714257,5.71428571 L3.87142829,4 Z M6.87142829,2.28571429 C5.88588889,2.28571429 4.99747061,2.70153926 4.37205003,3.36731263 L4.37205003,3.36731263 L4.96557408,3.98799938 C5.43605171,3.46889918 6.1156644,3.14285714 6.87142829,3.14285714 C8.29158907,3.14285714 9.44285686,4.29412493 9.44285686,5.71428571 L9.44285686,5.71428571 L8.585714,5.71428571 L9.87142829,7.42857143 L11.1571426,5.71428571 L10.2999997,5.71428571 C10.2999997,3.820738 8.764976,2.28571429 6.87142829,2.28571429 Z" id="形状结合"></path>
        </g>
    </g>
</svg>