<?xml version="1.0" encoding="UTF-8"?>
<svg width="11px" height="18px" viewBox="0 0 11 18" version="1.1" xmlns="http://www.w3.org/2000/svg" xmlns:xlink="http://www.w3.org/1999/xlink">
    <!-- Generator: Sketch 58 (84663) - https://sketch.com -->
    <title>编组 2备份</title>
    <desc>Created with Sketch.</desc>
    <g id="设计稿" stroke="none" stroke-width="1" fill="none" fill-rule="evenodd">
        <g id="设置_属性栏" transform="translate(-482.000000, -102.000000)">
            <g id="编组" transform="translate(158.000000, 84.000000)">
                <g id="编组-2备份" transform="translate(311.000000, 9.000000)">
                    <rect id="矩形备份-14" fill="#FF6969" opacity="0" x="0" y="0" width="36" height="36"></rect>
                    <path d="M23.9839062,17.7996796 C23.9945703,17.9413895 24,18.0845817 24,18.2290586 C24,21.1347591 21.8037439,23.52088 19.0009454,23.7772029 L19,26 L22,26 L22,27 L15,27 L15,26 L18,26 L18.0000545,23.7772943 C15.1967785,23.5214475 13,21.1351046 13,18.2290586 C13,18.0845817 13.0054297,17.9413895 13.0160938,17.7996796 L13.8651726,17.8 L13.8509428,18.0132842 L13.8461538,18.2290586 C13.8461538,20.832459 15.9297517,22.9429321 18.5,22.9429321 C21.0702483,22.9429321 23.1538462,20.832459 23.1538462,18.2290586 C23.1538462,18.0844252 23.1474153,17.9413132 23.1348274,17.8 L23.9839062,17.7996796 Z M18.5,9 C20.4329966,9 22,10.5670034 22,12.5 L22,18.5 C22,20.4329966 20.4329966,22 18.5,22 C16.5670034,22 15,20.4329966 15,18.5 L15,12.5 C15,10.5670034 16.5670034,9 18.5,9 Z" id="形状结合" fill="#536076"></path>
                </g>
            </g>
        </g>
    </g>
</svg>