<?xml version="1.0" encoding="UTF-8"?>
<svg width="20px" height="20px" viewBox="0 0 20 20" version="1.1" xmlns="http://www.w3.org/2000/svg" xmlns:xlink="http://www.w3.org/1999/xlink">
    <title>search_indicator_light</title>
    <g id="页面-1备份" stroke="none" stroke-width="1" fill="none" fill-rule="evenodd">
        <g id="search_indicator_light" fill="#FFFFFF" fill-rule="nonzero">
            <path d="M8.6,2 C12.2450793,2 15.2,4.95492065 15.2,8.6 C15.2,10.2063613 14.6261237,11.6786865 13.6722057,12.8231412 L18.4242641,17.5757359 C18.6585786,17.8100505 18.6585786,18.1899495 18.4242641,18.4242641 C18.1899495,18.6585786 17.8100505,18.6585786 17.5757359,18.4242641 L17.5757359,18.4242641 L12.8231412,13.6722057 C11.6786865,14.6261237 10.2063612,15.2 8.6,15.2 C4.95492065,15.2 2,12.2450793 2,8.6 C2,4.95492065 4.95492065,2 8.6,2 Z M8.6,3.2 C5.61766235,3.2 3.2,5.61766235 3.2,8.6 C3.2,11.5823376 5.61766235,14 8.6,14 C11.5823376,14 14,11.5823376 14,8.6 C14,5.61766235 11.5823376,3.2 8.6,3.2 Z" id="形状"></path>
        </g>
    </g>
</svg>