<?xml version="1.0" encoding="UTF-8"?>
<svg width="24px" height="24px" viewBox="0 0 24 24" version="1.1" xmlns="http://www.w3.org/2000/svg" xmlns:xlink="http://www.w3.org/1999/xlink">
    <!-- Generator: Sketch 56.2 (81672) - https://sketch.com -->
    <title>uncollection_normal</title>
    <desc>Created with Sketch.</desc>
    <g id="页面-1" stroke="none" stroke-width="1" fill="none" fill-rule="evenodd">
        <g id="按钮规范" transform="translate(-113.000000, -139.000000)" stroke="#414D68">
            <g id="uncollection_normal" transform="translate(113.000000, 139.000000)">
                <g id="收藏" transform="translate(2.000000, 2.000000)">
                    <path d="M10.0000271,17.2654234 C10.7992222,16.4079099 12.3046168,14.8021626 12.6909812,14.383466 C13.7803984,13.2028827 14.5615404,12.3075769 15.2137899,11.474383 C16.7608449,9.49815025 17.5,7.94159052 17.5,6.50335739 C17.5,2.22889361 12.3478703,1.02860487 10.44101,4.59788822 L9.99997813,5.42341683 L9.55898028,4.59787005 C7.64420844,1.01342231 2.5,2.23014249 2.5,6.50335739 C2.5,7.94152416 3.23922127,9.49802786 4.78645162,11.4743721 C5.43868384,12.3074965 6.21972018,13.2026676 7.30930562,14.383472 C7.69416537,14.8005518 9.20001273,16.4069149 10.0000271,17.2654234 Z"></path>
                </g>
            </g>
        </g>
    </g>
</svg>