<?xml version="1.0" encoding="UTF-8" standalone="no"?>
<!-- Generator: Adobe Illustrator 18.1.1, SVG Export Plug-In . SVG Version: 6.00 Build 0)  -->

<svg
   xmlns:ns="&amp;ns_sfw;"
   xmlns:dc="http://purl.org/dc/elements/1.1/"
   xmlns:cc="http://creativecommons.org/ns#"
   xmlns:rdf="http://www.w3.org/1999/02/22-rdf-syntax-ns#"
   xmlns:svg="http://www.w3.org/2000/svg"
   xmlns="http://www.w3.org/2000/svg"
   xmlns:sodipodi="http://sodipodi.sourceforge.net/DTD/sodipodi-0.dtd"
   xmlns:inkscape="http://www.inkscape.org/namespaces/inkscape"
   version="1.1"
   id="图层_1"
   x="0px"
   y="0px"
   viewBox="0 0 24 24"
   enable-background="new 0 0 24 24"
   xml:space="preserve"
   sodipodi:docname="personalization_normal.svg"
   inkscape:version="0.92.1 r15371"><defs
     id="defs21" /><sodipodi:namedview
     pagecolor="#ffffff"
     bordercolor="#666666"
     borderopacity="1"
     objecttolerance="10"
     gridtolerance="10"
     guidetolerance="10"
     inkscape:pageopacity="0"
     inkscape:pageshadow="2"
     inkscape:window-width="1920"
     inkscape:window-height="998"
     id="namedview19"
     showgrid="false"
     inkscape:zoom="5.6568543"
     inkscape:cx="-7.3955778"
     inkscape:cy="12.382928"
     inkscape:window-x="0"
     inkscape:window-y="0"
     inkscape:window-maximized="1"
     inkscape:current-layer="图层_1" /><metadata
     id="metadata2"><ns:sfw><ns:slices /><ns:sliceSourceBounds
         width="921"
         height="16845"
         y="-8451"
         x="-57"
         bottomLeftOrigin="true" /></ns:sfw><rdf:RDF><cc:Work
         rdf:about=""><dc:format>image/svg+xml</dc:format><dc:type
           rdf:resource="http://purl.org/dc/dcmitype/StillImage" /></cc:Work></rdf:RDF></metadata><path
     fill="none"
     stroke="#B4B4B4"
     stroke-linecap="round"
     stroke-linejoin="round"
     stroke-miterlimit="10"
     d="M10.349,22.318  c0.559,0.092,1.134,0.139,1.719,0.139c5.142,0,9.423-3.678,10.343-8.54c0,0,1.045-4.658-2.761-3.559  c-0.54,0.156-1.23,0.476-1.971,0.614"
     id="path4"
     style="stroke:#000000;stroke-opacity:1" /><path
     fill="none"
     stroke="#B4B4B4"
     stroke-linejoin="round"
     stroke-miterlimit="10"
     d="M14.169,9.637  c-0.224-0.422-0.313-0.944-0.202-1.569c0.201-1.128,1.286-1.947,1.333-3.716c0.081-3.027-3.232-2.893-3.232-2.893  c-5.813,0-10.526,4.701-10.526,10.5c0,4.111,2.369,7.671,5.819,9.394"
     id="path6"
     style="stroke:#000000;stroke-opacity:1" /><path
     fill="none"
     stroke="#B4B4B4"
     stroke-linejoin="round"
     stroke-miterlimit="10"
     d="M10.624,13.89c0,0-3.747,0.37-2.633,4.983  c0,0,0.371,2.636-2.262,3.355c0,0,8.844,1.999,8.743-5.813L10.624,13.89z"
     id="path8"
     style="stroke:#000000;stroke-opacity:1" /><path
     fill="none"
     stroke="#B4B4B4"
     stroke-linejoin="round"
     stroke-miterlimit="10"
     d="M10.624,13.89l9.427-10.759  c0,0,0.866-1.097,1.476-0.704c0.49,0.281,0.49,0.691-0.052,1.722l-7.003,12.266L10.624,13.89z"
     id="path10"
     style="stroke:#000000;stroke-opacity:1" /><line
     fill="none"
     stroke="#B4B4B4"
     stroke-linejoin="round"
     stroke-miterlimit="10"
     x1="12.799"
     y1="11.702"
     x2="15.81"
     y2="13.577"
     id="line12"
     style="stroke:#000000;stroke-opacity:1" /><ellipse
     fill="none"
     stroke="#B4B4B4"
     stroke-linejoin="round"
     stroke-miterlimit="10"
     cx="9.34"
     cy="6.393"
     rx="1.55"
     ry="1.559"
     id="ellipse14"
     style="stroke:#000000;stroke-opacity:1" /><ellipse
     fill="none"
     stroke="#B4B4B4"
     stroke-linejoin="round"
     stroke-miterlimit="10"
     cx="5.946"
     cy="10.626"
     rx="1.55"
     ry="1.559"
     id="ellipse16"
     style="stroke:#000000;stroke-opacity:1" /></svg>