<?xml version="1.0" encoding="UTF-8"?>
<svg width="24px" height="24px" viewBox="0 0 24 24" version="1.1" xmlns="http://www.w3.org/2000/svg" xmlns:xlink="http://www.w3.org/1999/xlink">
    <title>UOS快速上手手册/24px</title>
    <defs>
        <filter x="-11.4%" y="-11.4%" width="122.7%" height="122.7%" filterUnits="objectBoundingBox" id="filter-1">
            <feOffset dx="0" dy="0" in="SourceAlpha" result="shadowOffsetOuter1"></feOffset>
            <feGaussianBlur stdDeviation="0.5" in="shadowOffsetOuter1" result="shadowBlurOuter1"></feGaussianBlur>
            <feColorMatrix values="0 0 0 0 0   0 0 0 0 0   0 0 0 0 0  0 0 0 0.15 0" type="matrix" in="shadowBlurOuter1" result="shadowMatrixOuter1"></feColorMatrix>
            <feMerge>
                <feMergeNode in="shadowMatrixOuter1"></feMergeNode>
                <feMergeNode in="SourceGraphic"></feMergeNode>
            </feMerge>
        </filter>
        <linearGradient x1="50%" y1="-10.4247182%" x2="50%" y2="91.1041357%" id="linearGradient-2">
            <stop stop-color="#FFE94B" offset="0%"></stop>
            <stop stop-color="#FC8100" offset="100%"></stop>
        </linearGradient>
        <linearGradient x1="50%" y1="0%" x2="50%" y2="100%" id="linearGradient-3">
            <stop stop-color="#FCEDDB" offset="0%"></stop>
            <stop stop-color="#FFFFFF" offset="2.07736933%"></stop>
            <stop stop-color="#FFF9EA" offset="6.67533432%"></stop>
            <stop stop-color="#FFEBD2" offset="100%"></stop>
        </linearGradient>
        <path d="M8,15 L8,19.6105889 C8,19.8257612 7.82533474,20 7.60985983,20 L4.39014017,20 C4.17466526,20 4,19.8257612 4,19.6105889 L4,15 L5,15 L5,18.7779451 C5,18.9005643 5.09957552,19 5.22254858,19 L6.78686102,19 C6.90983407,19 7.00940959,18.9005643 7.00940959,18.7779451 L7.00940959,15 L8,15 Z M13,19.610421 C13,19.825586 12.8255831,20 12.6105958,20 L9.38958531,20 C9.17441686,20 9,19.825586 9,19.610421 L9,15.389579 C9,15.174414 9.17441686,15 9.38958531,15 L12.6105958,15 C12.8255831,15 13,15.174414 13,15.389579 L13,19.610421 Z M11.7777679,19 C11.9005661,19 12,18.9003816 12,18.7777604 L12,16.2220585 C12,16.0994373 11.9005661,16 11.7777679,16 L10.2288899,16 C10.1060918,16 10.0066579,16.0994373 10.0066579,16.2220585 L10.0066579,18.7777604 C10.0066579,18.9003816 10.1060918,19 10.2288899,19 L11.7777679,19 Z M18,19.610421 C18,19.825586 17.8260392,20 17.6114333,20 L14,20 L14,19 L16.7785296,19 C16.9008261,19 17,18.9005677 17,18.7779526 L17.0037935,18.2220474 C17.0037935,18.0994323 16.9046196,18 16.7821425,18 L14.3921796,18 C14.1777544,18 14,17.825586 14,17.610421 L14,15.389579 C14,15.174414 14.1739608,15 14.3885667,15 L18,15 L18,16 L15.221651,16 C15.0991739,16 15,16.0994323 15,16.2222285 L15,16.7779526 C15,16.9005677 15.0991739,17 15.221651,17 L17.6114333,17 C17.8260392,17 18,17.174414 18,17.389579 L18,19.610421 Z" id="path-4"></path>
        <filter x="-7.1%" y="-20.0%" width="114.3%" height="140.0%" filterUnits="objectBoundingBox" id="filter-5">
            <feGaussianBlur stdDeviation="0.5" in="SourceAlpha" result="shadowBlurInner1"></feGaussianBlur>
            <feOffset dx="0" dy="-1" in="shadowBlurInner1" result="shadowOffsetInner1"></feOffset>
            <feComposite in="shadowOffsetInner1" in2="SourceAlpha" operator="arithmetic" k2="-1" k3="1" result="shadowInnerInner1"></feComposite>
            <feColorMatrix values="0 0 0 0 1   0 0 0 0 0.568627451   0 0 0 0 0.243137255  0 0 0 0.501217165 0" type="matrix" in="shadowInnerInner1" result="shadowMatrixInner1"></feColorMatrix>
            <feGaussianBlur stdDeviation="0.5" in="SourceAlpha" result="shadowBlurInner2"></feGaussianBlur>
            <feOffset dx="0" dy="0" in="shadowBlurInner2" result="shadowOffsetInner2"></feOffset>
            <feComposite in="shadowOffsetInner2" in2="SourceAlpha" operator="arithmetic" k2="-1" k3="1" result="shadowInnerInner2"></feComposite>
            <feColorMatrix values="0 0 0 0 1   0 0 0 0 1   0 0 0 0 1  0 0 0 1 0" type="matrix" in="shadowInnerInner2" result="shadowMatrixInner2"></feColorMatrix>
            <feMerge>
                <feMergeNode in="shadowMatrixInner1"></feMergeNode>
                <feMergeNode in="shadowMatrixInner2"></feMergeNode>
            </feMerge>
        </filter>
    </defs>
    <g id="UOS快速上手手册/24px" stroke="none" stroke-width="1" fill="none" fill-rule="evenodd">
        <g id="编组" filter="url(#filter-1)" transform="translate(1.000000, 1.000000)">
            <rect id="矩形" fill="url(#linearGradient-2)" fill-rule="nonzero" x="0" y="0" width="22" height="22" rx="4.59375"></rect>
            <path d="M12.8482143,13.3897111 C12.8482143,13.5874227 12.6882143,13.7478842 12.4910714,13.7478842 L9.63392857,13.7478842 C9.43678571,13.7478842 9.27678571,13.5874227 9.27678571,13.3897111 C9.27678571,13.198984 9.42589284,13.0444323 9.61339285,13.0336871 C9.39107143,11.0182472 7.3125,10.196393 7.3125,7.82331731 C7.3125,5.74627163 8.99142858,4.0625 11.0625,4.0625 C13.1335714,4.0625 14.8125,5.74627164 14.8125,7.82331731 C14.8125,10.196393 12.7339286,11.0182472 12.5116071,13.0336871 C12.6991071,13.0444323 12.8482143,13.198984 12.8482143,13.3897111 Z M10.2927359,5.04427879 C10.2366504,4.90559273 10.0792145,4.83887155 9.94035349,4.89474377 C9.01864097,5.26921419 8.31982743,6.06968764 8.07113997,7.03596957 C8.0338098,7.18116501 8.12091353,7.32889187 8.26554538,7.36632083 C8.28808777,7.37228775 8.31081048,7.375 8.33317252,7.375 C8.45363897,7.375 8.56346539,7.29381352 8.59502471,7.17158174 C8.80097182,6.37092747 9.37985995,5.70769353 10.1434152,5.39759369 C10.2819155,5.34135984 10.3486409,5.18332647 10.2927359,5.04427879 Z" id="形状" fill="#FFFFFF" fill-rule="nonzero"></path>
            <rect id="矩形" fill="#FFFFFF" x="9" y="13" width="4" height="1" rx="0.5"></rect>
            <path d="M5.5,7 L4.5,7 C4.22385763,7 4,7.22385763 4,7.5 C4,7.77614237 4.22385763,8 4.5,8 L5.5,8 C5.77614237,8 6,7.77614237 6,7.5 C6,7.22385763 5.77614237,7 5.5,7 Z" id="路径" fill="#FFFFFF" fill-rule="nonzero"></path>
            <path d="M17.5,7 L16.5,7 C16.2238576,7 16,7.22385763 16,7.5 C16,7.77614237 16.2238576,8 16.5,8 L17.5,8 C17.7761424,8 18,7.77614237 18,7.5 C18,7.22385763 17.7761424,7 17.5,7 Z" id="路径" fill="#FFFFFF" fill-rule="nonzero"></path>
            <path d="M11.5,2 L10.5,2 C10.2238576,2 10,2.22385763 10,2.5 C10,2.77614237 10.2238576,3 10.5,3 L11.5,3 C11.7761424,3 12,2.77614237 12,2.5 C12,2.22385763 11.7761424,2 11.5,2 Z" id="路径" fill="#FFFFFF" fill-rule="nonzero" transform="translate(11.000000, 2.500000) rotate(-270.000000) translate(-11.000000, -2.500000) "></path>
            <path d="M15.5,3 L14.5,3 C14.2238576,3 14,3.22385763 14,3.5 C14,3.77614237 14.2238576,4 14.5,4 L15.5,4 C15.7761424,4 16,3.77614237 16,3.5 C16,3.22385763 15.7761424,3 15.5,3 Z" id="路径" fill="#FFFFFF" fill-rule="nonzero" transform="translate(15.000000, 3.500000) rotate(-225.000000) translate(-15.000000, -3.500000) "></path>
            <path d="M16.5,11 L15.5,11 C15.2238576,11 15,11.2238576 15,11.5 C15,11.7761424 15.2238576,12 15.5,12 L16.5,12 C16.7761424,12 17,11.7761424 17,11.5 C17,11.2238576 16.7761424,11 16.5,11 Z" id="路径" fill="#FFFFFF" fill-rule="nonzero" transform="translate(16.000000, 11.500000) scale(1, -1) rotate(-225.000000) translate(-16.000000, -11.500000) "></path>
            <path d="M7.5,3 L6.5,3 C6.22385763,3 6,3.22385763 6,3.5 C6,3.77614237 6.22385763,4 6.5,4 L7.5,4 C7.77614237,4 8,3.77614237 8,3.5 C8,3.22385763 7.77614237,3 7.5,3 Z" id="路径" fill="#FFFFFF" fill-rule="nonzero" transform="translate(7.000000, 3.500000) scale(-1, 1) rotate(-225.000000) translate(-7.000000, -3.500000) "></path>
            <path d="M6.5,11 L5.5,11 C5.22385763,11 5,11.2238576 5,11.5 C5,11.7761424 5.22385763,12 5.5,12 L6.5,12 C6.77614237,12 7,11.7761424 7,11.5 C7,11.2238576 6.77614237,11 6.5,11 Z" id="路径" fill="#FFFFFF" fill-rule="nonzero" transform="translate(6.000000, 11.500000) scale(-1, -1) rotate(-225.000000) translate(-6.000000, -11.500000) "></path>
            <g id="形状结合" fill-rule="nonzero">
                <use fill="url(#linearGradient-3)" xlink:href="#path-4"></use>
                <use fill="black" fill-opacity="1" filter="url(#filter-5)" xlink:href="#path-4"></use>
            </g>
        </g>
    </g>
</svg>