<?xml version="1.0" encoding="UTF-8"?>
<svg width="54px" height="44px" viewBox="0 0 54 44" version="1.1" xmlns="http://www.w3.org/2000/svg" xmlns:xlink="http://www.w3.org/1999/xlink">
    <!-- Generator: Sketch 58 (84663) - https://sketch.com -->
    <title>button/photograph</title>
    <desc>Created with Sketch.</desc>
    <defs>
        <rect id="path-1" x="0" y="0" width="46.08" height="36" rx="5.76"></rect>
        <filter x="-16.3%" y="-12.5%" width="132.6%" height="141.7%" filterUnits="objectBoundingBox" id="filter-2">
            <feOffset dx="0" dy="3" in="SourceAlpha" result="shadowOffsetOuter1"></feOffset>
            <feGaussianBlur stdDeviation="2" in="shadowOffsetOuter1" result="shadowBlurOuter1"></feGaussianBlur>
            <feColorMatrix values="0 0 0 0 0.17254902   0 0 0 0 0.654901961   0 0 0 0 0.97254902  0 0 0 0.4 0" type="matrix" in="shadowBlurOuter1"></feColorMatrix>
        </filter>
    </defs>
    <g id="视觉稿" stroke="none" stroke-width="1" fill="none" fill-rule="evenodd">
        <g id="button/photograph" transform="translate(4.000000, 1.000000)">
            <g id="编组-4备份">
                <g id="矩形">
                    <use fill="black" fill-opacity="1" filter="url(#filter-2)" xlink:href="#path-1"></use>
                    <use fill="#0081FF" fill-rule="evenodd" xlink:href="#path-1"></use>
                </g>
                <path d="M21.0215335,10.8 L25.05683,10.8 C25.4456773,10.8 25.8023311,11.0046316 25.9970894,11.3300723 L26.0558347,11.442912 L26.777559,13.0510182 L29.8587393,13.0512543 C30.814457,13.0512543 31.5965219,13.7791496 31.6737422,14.7039666 L31.68,14.8515494 L31.68,23.3994688 C31.68,24.3451136 30.944244,25.1190127 30.0095364,25.1940385 L29.8603759,25.2 L16.2196241,25.2 C15.2639065,25.2 14.4818416,24.4718916 14.4060244,23.5470533 L14.4,23.3994688 L14.4,14.8515494 C14.4,13.9072504 15.134279,13.1321401 16.0700417,13.0567874 L16.2193903,13.0507821 L19.3008045,13.0507821 L20.0227625,11.442912 C20.1814156,11.0903847 20.5137244,10.8516478 20.8933955,10.8074257 L21.0215335,10.8 L25.05683,10.8 Z M23.0394155,15.3834924 C21.0802159,15.3834924 19.4866713,16.9604329 19.4866713,18.898849 C19.4866713,20.8398623 21.0802159,22.4165667 23.0394155,22.4165667 C24.9986151,22.4165667 26.5921598,20.8372651 26.5921598,18.898849 C26.5921598,16.9601968 24.9986151,15.3834924 23.0394155,15.3834924 Z M23.0504039,16.4665027 C24.3416163,16.4665027 25.3883509,17.5235776 25.3883509,18.8275455 C25.3883509,20.1315134 24.3416163,21.1885883 23.0504039,21.1885883 C21.7591914,21.1885883 20.7124569,20.1315134 20.7124569,18.8275455 C20.7124569,17.5235776 21.7591914,16.4665027 23.0504039,16.4665027 Z M18.6083046,11.5083128 L18.6083046,12.45273 L16.2703576,12.45273 L16.2703576,11.5083128 L18.6083046,11.5083128 Z" id="button/photograph" fill="#FFFFFF" fill-rule="nonzero"></path>
            </g>
        </g>
    </g>
</svg>