<?xml version="1.0" encoding="UTF-8"?>
<svg width="128px" height="128px" viewBox="0 0 128 128" version="1.1" xmlns="http://www.w3.org/2000/svg" xmlns:xlink="http://www.w3.org/1999/xlink">
    <!-- Generator: Sketch 56.2 (81672) - https://sketch.com -->
    <title>icon_import_photo</title>
    <desc>Created with Sketch.</desc>
    <g id="page" stroke="none" stroke-width="1" fill="none" fill-rule="evenodd">
        <g id="1-初次使用文档查看器" transform="translate(-478.000000, -275.000000)">
            <g id="添加文档备份-2" transform="translate(478.000000, 275.000000)">
                <g id="编组-22" transform="translate(29.000000, 24.000000)">
                    <path d="M49,0.175499806 C22.8725611,0.0584999354 8.64665668,0 6.32228661,0 C2.83573149,0 0,2.83768068 0,6.32663233 L0,73.6755829 C0,77.1645345 2.83573149,80 6.32228661,80 L61.6777134,80 C65.1642685,80 68,77.1623193 68,73.6755829 L68,20 L49,0.175499806 Z" id="路径" stroke="#E6E6E6" stroke-width="3" fill="#FFFFFF" fill-rule="nonzero" stroke-linejoin="round"></path>
                    <rect id="矩形" fill="#E6E6E6" x="14" y="32" width="36" height="3" rx="1.5"></rect>
                    <rect id="矩形备份-10" fill="#E6E6E6" x="14" y="45" width="30" height="3" rx="1.5"></rect>
                    <rect id="矩形备份-11" fill="#E6E6E6" x="14" y="58" width="18" height="3" rx="1.5"></rect>
                    <path d="M52.8906794,20 L68,20 L49,0 L49,16.064 C48.997367,18.2346667 50.7450083,20 52.8906794,20 Z" id="路径" stroke="#E6E6E6" stroke-width="3" fill="#FFFFFF" fill-rule="nonzero" stroke-linejoin="round"></path>
                </g>
                <circle id="椭圆形" stroke="#E6E6E6" stroke-width="3" fill="#FFFFFF" cx="92" cy="85" r="19"></circle>
                <path d="M98.3070344,84.6269144 C98.3923401,84.6269144 98.4806925,84.6475832 98.5538117,84.6977787 C99.1143921,85.0845794 99.1082989,85.7105469 98.7487962,86.0648682 L92.1193228,92.587332 C91.7811465,92.9180318 91.229706,92.9239372 90.8884831,92.59619 L90.8793432,92.587332 L84.2498698,86.0648682 C83.9116935,85.7312157 83.9177868,85.1967811 84.2620563,84.8719866 C84.4235279,84.7184474 84.6428855,84.6298671 84.8683363,84.6298671 L87.9637154,84.6298671 L87.9637154,77.4222328 C87.9637154,77.1889713 88.1586999,77 88.3993839,77 L94.5992821,77 C94.8399661,77 95.0349506,77.1889713 95.0349506,77.4222328 L95.0349506,84.6269144 L98.3070344,84.6269144 Z" id="形状" fill="#E6E6E6" fill-rule="nonzero" transform="translate(91.500000, 84.919355) scale(1, -1) rotate(-270.000000) translate(-91.500000, -84.919355) "></path>
            </g>
        </g>
    </g>
</svg>