<?xml version="1.0" encoding="UTF-8"?>
<svg width="16px" height="16px" viewBox="0 0 16 16" version="1.1" xmlns="http://www.w3.org/2000/svg" xmlns:xlink="http://www.w3.org/1999/xlink">
    <title>list_icon_file/normal</title>
    <g id="list_icon_file/normal" stroke="none" stroke-width="1" fill="none" fill-rule="evenodd">
        <path d="M8,1 L8,7 L14,7 L14,13 C14,14.1045695 13.1045695,15 12,15 L4,15 C2.8954305,15 2,14.1045695 2,13 L2,3 C2,1.8954305 2.8954305,1 4,1 L8,1 Z M12,12 L4,12 L4,13 L12,13 L12,12 Z M12,9 L4,9 L4,10 L12,10 L12,9 Z M9.29289322,1.29289322 L13.7071068,5.70710678 C13.7925934,5.79259345 13.861004,5.89196417 13.9101431,5.99991892 L9,6 L9.0010929,1.09031818 C9.10865676,1.13942374 9.2076737,1.2076737 9.29289322,1.29289322 Z" id="形状结合" fill="#536076"></path>
    </g>
</svg>