<?xml version="1.0" encoding="UTF-8"?>
<svg width="50px" height="47px" viewBox="0 0 50 47" version="1.1" xmlns="http://www.w3.org/2000/svg" xmlns:xlink="http://www.w3.org/1999/xlink">
    <title>icon_rotate</title>
    <defs>
        <path d="M0.961538462,17.3076923 C0.702662722,17.3076923 0.474045186,17.1821036 0.28577192,16.9264409 C0.0974986552,16.6752635 -2.30926389e-13,16.3702624 -2.30926389e-13,16.0248935 C-2.30926389e-13,15.6795246 0.0941366326,15.3745234 0.28577192,15.123346 L4.13528779,9.99663602 C4.32356105,9.74545862 4.54881657,9.61538462 4.81105433,9.61538462 C5.06993007,9.61538462 5.29854761,9.74097331 5.48682087,9.99663602 L9.32961269,15.123346 C9.51788596,15.3745234 9.61538462,15.6750392 9.61538462,16.0248935 C9.61538462,16.3702624 9.52124798,16.6752635 9.32961269,16.9264409 C9.14133943,17.1776183 8.91272189,17.3076923 8.65384615,17.3076923 L5.76923077,17.3076923 L5.76923077,17.3076923 C5.76923077,25.8043808 12.6571577,32.6923077 21.1538462,32.6923077 C29.6505346,32.6923077 36.5384615,25.8043808 36.5384615,17.3076923 C36.5384615,8.81100385 29.6505346,1.92307692 21.1538462,1.92307692 L21.1538462,0 C30.7126207,0 38.4615385,7.74891779 38.4615385,17.3076923 C38.4615385,26.8664668 30.7126207,34.6153846 21.1538462,34.6153846 C11.5950716,34.6153846 3.84615385,26.8664668 3.84615385,17.3076923 L0.961538462,17.3076923 Z" id="path-1"></path>
        <filter x="-10.4%" y="-11.6%" width="120.8%" height="123.1%" filterUnits="objectBoundingBox" id="filter-2">
            <feMorphology radius="1" operator="dilate" in="SourceAlpha" result="shadowSpreadOuter1"></feMorphology>
            <feOffset dx="0" dy="0" in="shadowSpreadOuter1" result="shadowOffsetOuter1"></feOffset>
            <feGaussianBlur stdDeviation="1" in="shadowOffsetOuter1" result="shadowBlurOuter1"></feGaussianBlur>
            <feComposite in="shadowBlurOuter1" in2="SourceAlpha" operator="out" result="shadowBlurOuter1"></feComposite>
            <feColorMatrix values="0 0 0 0 0   0 0 0 0 0   0 0 0 0 0  0 0 0 0.5 0" type="matrix" in="shadowBlurOuter1"></feColorMatrix>
        </filter>
        <circle id="path-3" cx="26.9230769" cy="23.0769231" r="3.84615385"></circle>
        <filter x="-52.0%" y="-52.0%" width="204.0%" height="204.0%" filterUnits="objectBoundingBox" id="filter-4">
            <feMorphology radius="1" operator="dilate" in="SourceAlpha" result="shadowSpreadOuter1"></feMorphology>
            <feOffset dx="0" dy="0" in="shadowSpreadOuter1" result="shadowOffsetOuter1"></feOffset>
            <feGaussianBlur stdDeviation="1" in="shadowOffsetOuter1" result="shadowBlurOuter1"></feGaussianBlur>
            <feComposite in="shadowBlurOuter1" in2="SourceAlpha" operator="out" result="shadowBlurOuter1"></feComposite>
            <feColorMatrix values="0 0 0 0 0   0 0 0 0 0   0 0 0 0 0  0 0 0 0.5 0" type="matrix" in="shadowBlurOuter1"></feColorMatrix>
        </filter>
    </defs>
    <g id="浅色主题" stroke="none" stroke-width="1" fill="none" fill-rule="evenodd">
        <g id="画板" transform="translate(-281.000000, -480.000000)">
            <g id="icon_rotate" transform="translate(281.000000, 480.000000)">
                <g id="编组-5" transform="translate(5.769231, 5.769231)">
                    <path d="M1.15384615,17.3076923 C0.843195266,17.3076923 0.568854223,17.1821036 0.342926304,16.9264409 C0.116998386,16.6752635 2.84217094e-14,16.3702624 2.84217094e-14,16.0248935 C2.84217094e-14,15.6795246 0.112963959,15.3745234 0.342926304,15.123346 L4.96234535,9.99663602 C5.18827327,9.74545862 5.45857988,9.61538462 5.7732652,9.61538462 C6.08391608,9.61538462 6.35825713,9.74097331 6.58418505,9.99663602 L11.1955352,15.123346 C11.4214632,15.3745234 11.5384615,15.6750392 11.5384615,16.0248935 C11.5384615,16.3702624 11.4254976,16.6752635 11.1955352,16.9264409 C10.9696073,17.1776183 10.6952663,17.3076923 10.3846154,17.3076923 L5.76923077,17.3076923 L5.76923077,17.3076923 C5.76923077,25.8043808 12.6571577,32.6923077 21.1538462,32.6923077 C29.6505346,32.6923077 36.5384615,25.8043808 36.5384615,17.3076923 C36.5384615,8.81100385 29.6505346,1.92307692 21.1538462,1.92307692 L21.1538462,0 C21.4169688,0 21.6787201,0.00587155551 21.9389762,0.0174907909 C21.995589,0.00559703442 22.0548332,1.26121336e-13 22.1153846,1.26121336e-13 C22.2145905,1.26121336e-13 22.3102873,0.0150239319 22.4003239,0.0429206597 C31.376947,0.682686114 38.4615385,8.16784171 38.4615385,17.3076923 C38.4615385,26.8664668 30.7126207,34.6153846 21.1538462,34.6153846 C11.5950716,34.6153846 3.84615385,26.8664668 3.84615385,17.3076923 L1.15384615,17.3076923 Z" id="形状结合" fill="#001A2E"></path>
                    <g id="形状结合">
                        <use fill="black" fill-opacity="1" filter="url(#filter-2)" xlink:href="#path-1"></use>
                        <path stroke="#FFFFFF" stroke-width="1" d="M20.6538462,-0.493144572 C25.769069,-0.633283804 30.4143478,1.384314 33.7457861,4.71575232 C36.9683446,7.93831079 38.9615385,12.3902339 38.9615385,17.3076923 C38.9615385,22.2251508 36.9683446,26.6770738 33.7457861,29.8996323 C30.5232277,33.1221908 26.0713046,35.1153846 21.1538462,35.1153846 C16.2363877,35.1153846 11.7844646,33.1221908 8.56190617,29.8996323 C5.4489287,26.7866548 3.48312988,22.5264987 3.35303798,17.8076923 L3.35303798,17.8076923 L0.961538462,17.8076923 C0.555389216,17.8076923 0.183604802,17.6309107 -0.114311998,17.226329 C-0.365211926,16.8916007 -0.5,16.486272 -0.5,16.0248935 C-0.5,15.5618468 -0.367846056,15.1557365 -0.114060182,14.8231223 L-0.114060182,14.8231223 L3.73520387,9.69674794 C4.0349433,9.29686233 4.40112374,9.11538462 4.81105433,9.11538462 C5.21720358,9.11538462 5.58898799,9.29216626 5.88690479,9.69674794 L5.88690479,9.69674794 L9.72969661,14.823458 C9.98059654,15.1581863 10.1153846,15.557523 10.1153846,16.0248935 C10.1153846,16.4879402 9.98323067,16.8940504 9.72969661,17.226329 C9.42995718,17.6262146 9.05852123,17.8076923 8.65384615,17.8076923 L8.65384615,17.8076923 L6.27747066,17.8076923 C6.40657813,21.7192327 8.04490178,25.2487729 10.6288337,27.8327048 C13.3224193,30.5262904 17.0435731,32.1923077 21.1538462,32.1923077 C25.2641192,32.1923077 28.985273,30.5262904 31.6788586,27.8327048 C34.3724442,25.1391192 36.0384615,21.4179653 36.0384615,17.3076923 C36.0384615,13.1974193 34.3724442,9.47626542 31.6788586,6.78267983 C28.8764583,3.98027953 24.96179,2.29014728 20.6538462,2.43127572 L20.6538462,2.43127572 Z" fill="#001A2E" fill-rule="evenodd"></path>
                    </g>
                    <path d="M22.1153846,1.92307692 C22.6464276,1.92307692 23.0769231,1.49258149 23.0769231,0.961538462 C23.0769231,0.430495433 22.6464276,0 22.1153846,0 C21.5843416,0 21.1538462,0.430495433 21.1538462,0.961538462 C21.1538462,1.49258149 21.5843416,1.92307692 22.1153846,1.92307692 Z" id="椭圆形" fill="#000000"></path>
                </g>
                <g id="Oval-9">
                    <use fill="black" fill-opacity="1" filter="url(#filter-4)" xlink:href="#path-3"></use>
                    <circle stroke="#FFFFFF" stroke-width="1" fill="#001A2E" fill-rule="evenodd" cx="26.9230769" cy="23.0769231" r="4.34615385"></circle>
                </g>
            </g>
        </g>
    </g>
</svg>