<?xml version="1.0" encoding="UTF-8"?>
<svg width="20px" height="21px" viewBox="0 0 20 21" version="1.1" xmlns="http://www.w3.org/2000/svg" xmlns:xlink="http://www.w3.org/1999/xlink">
    <title>在线客服</title>
    <g id="帮助手册" stroke="none" stroke-width="1" fill="none" fill-rule="evenodd">
        <g id="在线客服" transform="translate(-970.000000, -626.000000)" fill="#FFFFFF">
            <g transform="translate(970.000000, 626.000000)">
                <path d="M18,8 L17,8 C15.8954305,8 15,8.8954305 15,10 L15,14 C15,15.1045695 15.8954305,16 17,16 L18,16 C19.1045695,16 20,15.1045695 20,14 L20,10 C20,8.8954305 19.1045695,8 18,8 Z M18,9 C18.5522847,9 19,9.44771525 19,10 L19,14 C19,14.5522847 18.5522847,15 18,15 L17,15 C16.4477153,15 16,14.5522847 16,14 L16,10 C16,9.44771525 16.4477153,9 17,9 L18,9 Z" id="矩形" fill-rule="nonzero"></path>
                <path d="M3.23793005,15.1557018 C7.27623869,15.1695545 8.87685477,15.815119 9.4894234,18.7458457 C9.54592064,19.0161468 9.37259838,19.2810692 9.1022973,19.3375664 C8.83199622,19.3940637 8.56707384,19.2207414 8.5105766,18.9504403 C8.04395453,16.7179692 6.89342849,16.1934242 3.51638336,16.1574937 L2.5,16.1568588 C2.22385763,16.1568588 2,15.9330012 2,15.6568588 C2,15.3807165 2.22385763,15.1568588 2.5,15.1568588 L3.23793005,15.1557018 Z" id="椭圆形" fill-rule="nonzero" transform="translate(5.750050, 17.251973) rotate(-180.000000) translate(-5.750050, -17.251973) "></path>
                <path d="M3,8 L2,8 C0.8954305,8 0,8.8954305 0,10 L0,14 C0,15.1045695 0.8954305,16 2,16 L3,16 C4.1045695,16 5,15.1045695 5,14 L5,10 C5,8.8954305 4.1045695,8 3,8 Z M3,9 C3.55228475,9 4,9.44771525 4,10 L4,14 C4,14.5522847 3.55228475,15 3,15 L2,15 C1.44771525,15 1,14.5522847 1,14 L1,10 C1,9.44771525 1.44771525,9 2,9 L3,9 Z" id="矩形" fill-rule="nonzero"></path>
                <path d="M10,0.5 C14.6090673,0.5 18.3613215,4.16845296 18.4962434,8.74483973 L18.5,9 L17.5,9 C17.5,4.85786438 14.1421356,1.5 10,1.5 C5.93908272,1.5 2.63198248,4.72747441 2.50385357,8.75726895 L2.5,9 L1.5,9 C1.5,4.30557963 5.30557963,0.5 10,0.5 Z" id="椭圆形-2" fill-rule="nonzero"></path>
                <path d="M10.5,16.5 C9.3954305,16.5 8.5,17.3954305 8.5,18.5 C8.5,19.6045695 9.3954305,20.5 10.5,20.5 C11.6045695,20.5 12.5,19.6045695 12.5,18.5 C12.5,17.3954305 11.6045695,16.5 10.5,16.5 Z M10.5,17.5 C11.0522847,17.5 11.5,17.9477153 11.5,18.5 C11.5,19.0522847 11.0522847,19.5 10.5,19.5 C9.94771525,19.5 9.5,19.0522847 9.5,18.5 C9.5,17.9477153 9.94771525,17.5 10.5,17.5 Z" id="椭圆形" fill-rule="nonzero"></path>
                <circle id="椭圆形" cx="7" cy="11" r="1"></circle>
                <circle id="椭圆形" cx="13" cy="11" r="1"></circle>
            </g>
        </g>
    </g>
</svg>