<?xml version="1.0" encoding="UTF-8"?>
<svg width="16px" height="16px" viewBox="0 0 16 16" version="1.1" xmlns="http://www.w3.org/2000/svg" xmlns:xlink="http://www.w3.org/1999/xlink">
    <title>文件管理</title>
    <g id="页面-1备份" stroke="none" stroke-width="1" fill="none" fill-rule="evenodd">
        <g id="按钮" transform="translate(-324.000000, -100.000000)" fill="#536076">
            <g id="文件管理" transform="translate(324.000000, 100.000000)">
                <path d="M1,3.5 C1,2.67157288 1.67157288,2 2.5,2 L5.98445056,2 C6.59780744,2 7.14937057,2.37342642 7.37716559,2.94291399 L7.8,4 L13,4 C14.1045695,4 15,4.8954305 15,6 L15.0009561,8.35525927 C14.2679883,7.52421057 13.1952121,7 12,7 C9.790861,7 8,8.790861 8,11 C8,12.1952121 8.52421057,13.2679883 9.35525927,14.0009561 L3,14 C1.8954305,14 1,13.1045695 1,12 L1,3.5 Z" id="形状结合"></path>
                <path d="M12.3840964,8 C12.5320021,7.99992149 12.6639494,8.09287484 12.7137413,8.23214754 C12.8330582,8.56588883 13.0327176,8.79736764 13.3127193,8.92658397 C13.5862953,9.05283492 13.8857362,9.07775907 14.2110422,9.00135642 C14.3615053,8.96599479 14.5173402,9.03353054 14.5944368,9.16749225 L14.947457,9.7808946 C15.0240181,9.91392927 15.0049679,10.0813252 14.900471,10.1937539 C14.6778302,10.4332941 14.5665098,10.7099736 14.5665098,11.0237925 C14.5665098,11.3269859 14.6704195,11.5774207 14.878239,11.7750969 C14.9929032,11.8842339 15.0200803,12.0567453 14.9444793,12.1958254 L14.5912693,12.8456112 C14.5157999,12.9844553 14.3566517,13.0555023 14.202898,13.0189907 C13.85538,12.9364663 13.5586538,12.9617509 13.3127193,13.0948446 C13.0608081,13.2311728 12.8652188,13.4620964 12.7259513,13.7876156 C12.6708899,13.9164544 12.5442758,14 12.4041644,14 L11.6615457,14 C11.5136796,14.0000071 11.3817656,13.9070845 11.3319767,13.7678529 C11.2258991,13.4712129 11.0390189,13.2468768 10.7713362,13.0948446 C10.4976334,12.9393933 10.1724128,12.9114978 9.7956742,13.011158 C9.6411732,13.05199 9.47862063,12.9830138 9.40066613,12.8435114 L9.05125169,12.2182218 C8.96957647,12.0722477 9.00267354,11.8889062 9.13017423,11.780634 C9.34712085,11.5964053 9.45559416,11.3441248 9.45559416,11.0237925 C9.45559416,10.6885529 9.35012303,10.4087368 9.13918078,10.1843441 C9.03641949,10.0749366 9.01480765,9.91218851 9.0855106,9.7797839 L9.40443537,9.18253706 C9.48077077,9.03981856 9.64497875,8.96797016 9.80157816,9.00886361 C10.2059482,9.1144584 10.5292008,9.08703185 10.7713362,8.92658397 C11.0046539,8.77197894 11.1703488,8.54376949 11.2684209,8.24195563 C11.3151823,8.0976658 11.4496107,8 11.6012885,8 L12.3840964,8 Z M11.9896188,9.99999995 C11.4194974,9.99999995 10.9573226,10.4477152 10.9573226,11 C10.9573226,11.5522847 11.4194974,12 11.9896188,12 C12.5597403,12 13.021915,11.5522847 13.021915,11 C13.021915,10.4477152 12.5597403,9.99999995 11.9896188,9.99999995 Z" id="形状结合备份"></path>
            </g>
        </g>
    </g>
</svg>