<?xml version="1.0" encoding="UTF-8"?>
<svg width="54px" height="44px" viewBox="0 0 54 44" version="1.1" xmlns="http://www.w3.org/2000/svg" xmlns:xlink="http://www.w3.org/1999/xlink">
    <!-- Generator: Sketch 58 (84663) - https://sketch.com -->
    <title>分组 7</title>
    <desc>Created with Sketch.</desc>
    <defs>
        <path d="M8,0 L46,0 L46,0 L46,36 L8,36 C3.581722,36 5.41083001e-16,32.418278 0,28 L0,8 C-5.41083001e-16,3.581722 3.581722,8.11624501e-16 8,0 Z" id="path-1"></path>
        <filter x="-15.2%" y="-13.9%" width="130.4%" height="138.9%" filterUnits="objectBoundingBox" id="filter-2">
            <feOffset dx="0" dy="2" in="SourceAlpha" result="shadowOffsetOuter1"></feOffset>
            <feGaussianBlur stdDeviation="2" in="shadowOffsetOuter1" result="shadowBlurOuter1"></feGaussianBlur>
            <feColorMatrix values="0 0 0 0 0   0 0 0 0 0   0 0 0 0 0  0 0 0 0.05 0" type="matrix" in="shadowBlurOuter1"></feColorMatrix>
        </filter>
    </defs>
    <g id="视觉稿" stroke="none" stroke-width="1" fill="none" fill-rule="evenodd">
        <g id="分组-7" transform="translate(4.000000, 2.000000)">
            <g id="矩形">
                <use fill="black" fill-opacity="1" filter="url(#filter-2)" xlink:href="#path-1"></use>
                <use fill="#E1E1E1" fill-rule="evenodd" xlink:href="#path-1"></use>
            </g>
            <g id="照相机" transform="translate(13.000000, 10.000000)" fill="#536076">
                <path d="M7.42872131,2.22044605e-14 L11.9559344,2.22044605e-14 C12.3965902,2.22044605e-14 12.8003945,0.231946888 13.0173802,0.599869448 L13.0767213,0.714229516 L13.8864262,2.50072131 L17.3432131,2.50098361 C18.4205663,2.50098361 19.3012291,3.3173803 19.3806603,4.35179202 L19.3864918,4.50098361 L19.3864918,13.9971148 C19.3864918,15.0526855 18.5531267,15.9156288 17.4973252,15.9918972 L17.3450492,15.997377 L2.04144262,15.997377 C0.964089424,15.997377 0.0834266364,15.1807414 0.00559231938,14.1463079 L-4.61852778e-14,13.9971148 L-4.61852778e-14,4.50098361 C-4.61852778e-14,3.44691505 0.831692188,2.58260615 1.88871038,2.50598231 L2.04118033,2.50045902 L5.49822952,2.50045902 L6.30819672,0.714229516 C6.48798808,0.318640837 6.86656009,0.0520319743 7.29788671,0.00682696362 L7.42872131,2.22044605e-14 L11.9559344,2.22044605e-14 Z M9.69259016,5.09193442 C7.5632459,5.09193442 5.81889241,6.73602229 5.71194976,8.79657835 L5.70675409,8.99724591 L5.71194976,9.19793637 C5.81889241,11.2613386 7.5632459,12.9051803 9.69259016,12.9051803 C11.890623,12.9051803 13.6784262,11.1506885 13.6784262,8.99724591 C13.6784262,6.84354098 11.8906229,5.09193442 9.69259016,5.09193442 Z M9.70491804,6.29508196 C11.1535338,6.29508196 12.3278689,7.46941704 12.3278689,8.91803278 C12.3278689,10.3666485 11.1535338,11.5409836 9.70491804,11.5409836 C8.2563023,11.5409836 7.08196722,10.3666485 7.08196722,8.91803278 C7.08196722,7.46941704 8.2563023,6.29508196 9.70491804,6.29508196 Z M4.72131147,0.78688525 L4.72131147,1.83606558 L2.09836066,1.83606558 L2.09836066,0.78688525 L4.72131147,0.78688525 Z" id="形状结合"></path>
            </g>
        </g>
    </g>
</svg>