<?xml version="1.0" encoding="UTF-8"?>
<svg width="36px" height="36px" viewBox="0 0 36 36" version="1.1" xmlns="http://www.w3.org/2000/svg" xmlns:xlink="http://www.w3.org/1999/xlink">
    <!-- Generator: Sketch 56.2 (81672) - https://sketch.com -->
    <title>thumbnail_normal_light</title>
    <desc>Created with Sketch.</desc>
    <g id="page" stroke="none" stroke-width="1" fill="none" fill-rule="evenodd">
        <g id="按钮规范" transform="translate(-35.000000, -49.000000)" fill="#414D68" fill-rule="nonzero">
            <g id="Combined-Shape-2" transform="translate(35.000000, 49.000000)">
                <path d="M9,11 L10,10 L10,26 L9,25 L27,25 L26,26 L26,10 L27,11 L9,11 Z M27,10 L27,26 L9,26 L9,10 L27,10 Z M16,11 L16,25 L17,25 L17,11 L16,11 Z M19,16 L19,17 L24,17 L24,16 L19,16 Z M19,13 L19,14 L24,14 L24,13 L19,13 Z M19,19 L19,20 L24,20 L24,19 L19,19 Z M19,22 L19,23 L24,23 L24,22 L19,22 Z M12,14 L14,14 L14,16 L12,16 L12,14 Z M15,13 L11,13 L11,17 L15,17 L15,13 Z M12,20 L14,20 L14,22 L12,22 L12,20 Z M15,19 L11,19 L11,23 L15,23 L15,19 Z" id="Combined-Shape"></path>
            </g>
        </g>
    </g>
</svg>