<?xml version="1.0" encoding="UTF-8"?>
<svg width="16px" height="16px" viewBox="0 0 16 16" version="1.1" xmlns="http://www.w3.org/2000/svg" xmlns:xlink="http://www.w3.org/1999/xlink">
    <title>应用</title>
    <g id="页面-1备份" stroke="none" stroke-width="1" fill="none" fill-rule="evenodd">
        <g id="按钮" transform="translate(-197.000000, -100.000000)" fill="#536076">
            <g id="应用" transform="translate(197.000000, 100.000000)">
                <g transform="translate(1.000000, 1.000000)" id="形状">
                    <path d="M4.28571428,6 L1.71428571,6 C0.771428567,6 0,5.22857143 0,4.28571429 L0,1.7142857 C0,0.771428566 0.771428567,-1.77635684e-15 1.71428571,-1.77635684e-15 L4.28571428,-1.77635684e-15 C5.22857142,-1.77635684e-15 6,0.771428566 6,1.7142857 L6,4.28571429 C6,5.22857143 5.22857143,6 4.28571428,6 Z M4.28571428,14 L1.71428571,14 C0.771428567,14 0,13.2285714 0,12.2857143 L0,9.7142857 C0,8.77142857 0.771428567,8 1.71428571,8 L4.28571428,8 C5.22857142,8 6,8.77142857 6,9.7142857 L6,12.2857143 C6,13.2285714 5.22857143,14 4.28571428,14 Z M9.11806452,6.18129033 L7.51870968,4.58193549 C6.82709677,3.89032258 6.82709677,2.80967742 7.51870968,2.11806452 L9.11806452,0.518709679 C9.80967743,-0.172903226 10.8903226,-0.172903226 11.5819355,0.518709679 L13.1812903,2.11806452 C13.8729032,2.80967742 13.8729032,3.89032258 13.1812903,4.58193549 L11.5819355,6.18129033 C10.8903226,6.87290324 9.76645161,6.87290324 9.11806452,6.18129033 L9.11806452,6.18129033 Z M11.2857143,14 L8.71428571,14 C7.77142857,14 7,13.2285714 7,12.2857143 L7,9.71428571 C7,8.77142857 7.77142857,8 8.71428571,8 L11.2857143,8 C12.2285714,8 13,8.77142857 13,9.71428571 L13,12.2857143 C13,13.2285714 12.2285714,14 11.2857143,14 Z" fill-rule="nonzero"></path>
                </g>
            </g>
        </g>
    </g>
</svg>