<?xml version="1.0" encoding="UTF-8"?>
<svg width="24px" height="24px" viewBox="0 0 24 24" version="1.1" xmlns="http://www.w3.org/2000/svg" xmlns:xlink="http://www.w3.org/1999/xlink">
    <!-- Generator: Sketch 44.1 (41455) - http://www.bohemiancoding.com/sketch -->
    <title>img_upload</title>
    <desc>Created with Sketch.</desc>
    <defs></defs>
    <g id="Page-1" stroke="none" stroke-width="1" fill="none" fill-rule="evenodd">
        <g id="ic_camera_alt" fill="#000000">
            <g id="Icon-24px" transform="translate(2.000000, 3.000000)">
                <path d="M7,0 L13,0 L14.83,2 L18,2 C19.1,2 20,2.9 20,4 L20,16 C20,17.1 19.1,18 18,18 L2,18 C0.9,18 0,17.1 0,16 L0,4 C0,2.9 0.9,2 2,2 L5.17,2 L7,0 Z M10,13.2 C8.2326888,13.2 6.8,11.7673112 6.8,10 C6.8,8.2326888 8.2326888,6.8 10,6.8 C11.7673112,6.8 13.2,8.2326888 13.2,10 C13.2,11.7673112 11.7673112,13.2 10,13.2 Z M10,15 C12.76,15 15,12.76 15,10 C15,7.24 12.76,5 10,5 C7.24,5 5,7.24 5,10 C5,12.76 7.24,15 10,15 Z" id="Combined-Shape"></path>
            </g>
        </g>
    </g>
</svg>