<?xml version="1.0" encoding="UTF-8"?>
<svg width="30px" height="30px" viewBox="0 0 30 30" version="1.1" xmlns="http://www.w3.org/2000/svg" xmlns:xlink="http://www.w3.org/1999/xlink">
    <!-- Generator: Sketch 44.1 (41455) - http://www.bohemiancoding.com/sketch -->
    <title>tool_focus</title>
    <desc>Created with Sketch.</desc>
    <defs></defs>
    <g id="Page-1" stroke="none" stroke-width="1" fill="none" fill-rule="evenodd">
        <g id="Group-5" fill="#000000">
            <g id="Group-7">
                <path d="M15,10.4545455 C12.4886364,10.4545455 10.4545455,12.4886364 10.4545455,15 C10.4545455,17.5113636 12.4886364,19.5454545 15,19.5454545 C17.5113636,19.5454545 19.5454545,17.5113636 19.5454545,15 C19.5454545,12.4886364 17.5113636,10.4545455 15,10.4545455 L15,10.4545455 Z M25.1590909,13.8636364 C24.6363636,9.125 20.875,5.36363636 16.1363636,4.84090909 L16.1363636,2.5 L13.8636364,2.5 L13.8636364,4.84090909 C9.125,5.36363636 5.36363636,9.125 4.84090909,13.8636364 L2.5,13.8636364 L2.5,16.1363636 L4.84090909,16.1363636 C5.36363636,20.875 9.125,24.6363636 13.8636364,25.1590909 L13.8636364,27.5 L16.1363636,27.5 L16.1363636,25.1590909 C20.875,24.6363636 24.6363636,20.875 25.1590909,16.1363636 L27.5,16.1363636 L27.5,13.8636364 L25.1590909,13.8636364 L25.1590909,13.8636364 Z M15,23.4415584 C10.3330241,23.4415584 6.55844156,19.6669759 6.55844156,15 C6.55844156,10.3330241 10.3330241,6.55844156 15,6.55844156 C19.6669759,6.55844156 23.4415584,10.3330241 23.4415584,15 C23.4415584,19.6669759 19.6669759,23.4415584 15,23.4415584 L15,23.4415584 Z" id="Shape"></path>
            </g>
        </g>
    </g>
</svg>