<?xml version="1.0" encoding="UTF-8"?>
<svg width="30px" height="30px" viewBox="0 0 30 30" version="1.1" xmlns="http://www.w3.org/2000/svg" xmlns:xlink="http://www.w3.org/1999/xlink">
    <!-- Generator: Sketch 44.1 (41455) - http://www.bohemiancoding.com/sketch -->
    <title>tool_track</title>
    <desc>Created with Sketch.</desc>
    <defs></defs>
    <g id="Page-1" stroke="none" stroke-width="1" fill="none" fill-rule="evenodd">
        <g id="Group-6" fill="#000000">
            <g id="Group-9">
                <g id="Group-8">
                    <path d="M22.7,9.10333333 C21.02,9.10333333 19.4333333,9.75666667 18.3016667,10.8883333 L15,13.8166667 L13.2266667,15.38 L13.2383333,15.38 L10.1,18.1683333 C9.35333333,18.915 8.36166667,19.3233333 7.3,19.3233333 C5.11833333,19.3233333 3.345,17.5616667 3.345,15.38 C3.345,13.1983333 5.11833333,11.4366667 7.3,11.4366667 C8.36166667,11.4366667 9.35333333,11.845 10.1466667,12.6383333 L11.465,13.805 L13.2266667,12.2416667 L11.7566667,10.9466667 C10.5666667,9.75666667 8.98,9.10333333 7.3,9.10333333 C3.82333333,9.10333333 1,11.9266667 1,15.38 C1,18.8333333 3.82333333,21.6566667 7.3,21.6566667 C8.98,21.6566667 10.5666667,21.0033333 11.6983333,19.8716667 L15,16.955 L15.0116667,16.9666667 L16.7733333,15.38 L16.7616667,15.38 L19.9,12.5916667 C20.6466667,11.845 21.6383333,11.4366667 22.7,11.4366667 C24.8816667,11.4366667 26.655,13.1983333 26.655,15.38 C26.655,17.5616667 24.8816667,19.3233333 22.7,19.3233333 C21.65,19.3233333 20.6466667,18.915 19.8533333,18.1216667 L18.5233333,16.9433333 L16.7616667,18.5066667 L18.2433333,19.8133333 C19.4333333,20.9916667 21.0083333,21.645 22.7,21.645 C26.1766667,21.645 29,18.8333333 29,15.3683333 C29,11.9033333 26.1766667,9.10333333 22.7,9.10333333 L22.7,9.10333333 Z" id="Shape"></path>
                </g>
            </g>
        </g>
    </g>
</svg>