<?xml version="1.0" encoding="UTF-8"?>
<svg width="24px" height="24px" viewBox="0 0 24 24" version="1.1" xmlns="http://www.w3.org/2000/svg" xmlns:xlink="http://www.w3.org/1999/xlink">
    <!-- Generator: Sketch 43 (38999) - http://www.bohemiancoding.com/sketch -->
    <title>投屏active</title>
    <desc>Created with Sketch.</desc>
    <defs></defs>
    <g id="详细设置" stroke="none" stroke-width="1" fill="none" fill-rule="evenodd">
        <g id="1-控制中心首页" transform="translate(-2062.000000, -1107.000000)" fill-rule="nonzero" fill="#000000">
            <g id="7" transform="translate(1805.000000, 0.000000)">
                <g id="底部控制" transform="translate(0.000000, 1017.000000)">
                    <g id="投屏active" transform="translate(257.000000, 90.000000)">
                        <path d="M13.5,15 L15,17 L9,17 L10.5,15 L7,15 L7,8 L17,8 L17,15 L13.5,15 Z M12.75,14 L16,14 L16,9 L8,9 L8,14 L11.25,14 L12,13 L12.75,14 Z M12,23.5 C5.64872538,23.5 0.5,18.3512746 0.5,12 C0.5,5.64872538 5.64872538,0.5 12,0.5 C18.3512746,0.5 23.5,5.64872538 23.5,12 C23.5,18.3512746 18.3512746,23.5 12,23.5 Z M12,22.5 C17.7989899,22.5 22.5,17.7989899 22.5,12 C22.5,6.20101013 17.7989899,1.5 12,1.5 C6.20101013,1.5 1.5,6.20101013 1.5,12 C1.5,17.7989899 6.20101013,22.5 12,22.5 Z M11,16 L13,16 L12,14.6666667 L11,16 Z" id="Combined-Shape"></path>
                    </g>
                </g>
            </g>
        </g>
    </g>
</svg>