<?xml version="1.0" encoding="UTF-8"?>
<svg width="24px" height="24px" viewBox="0 0 24 24" version="1.1" xmlns="http://www.w3.org/2000/svg" xmlns:xlink="http://www.w3.org/1999/xlink">
    <!-- Generator: Sketch 43 (38999) - http://www.bohemiancoding.com/sketch -->
    <title>airplay_on</title>
    <desc>Created with Sketch.</desc>
    <defs></defs>
    <g id="UI" stroke="none" stroke-width="1" fill="none" fill-rule="evenodd">
        <g id="airplay_on" fill-rule="nonzero" fill="#000000">
            <g id="airplay_off">
                <path d="M23.5,12 C23.5,5.64872538 18.3512746,0.5 12,0.5 C5.64872538,0.5 0.5,5.64872538 0.5,12 C0.5,18.3512746 5.64872538,23.5 12,23.5 C18.3512746,23.5 23.5,18.3512746 23.5,12 Z M1.5,12 C1.5,6.20101013 6.20101013,1.5 12,1.5 C17.7989899,1.5 22.5,6.20101013 22.5,12 C22.5,17.7989899 17.7989899,22.5 12,22.5 C6.20101013,22.5 1.5,17.7989899 1.5,12 Z" id="Oval-419"></path>
                <path d="M7,9 L8,8 L8,15 L7,14 L17,14 L16,15 L16,8 L17,9 L7,9 Z M17,8 L17,15 L7,15 L7,8 L17,8 Z" id="Rectangle-1375"></path>
                <path d="M17.8980835,16.8472249 L17.3707987,16.8472249 L16.1154353,14.4664175 L17,15 L7,15 L7.88456471,14.4664175 L6.62920128,16.8472249 L6.10191653,16.8472249 L5.78005167,16.3136424 L6.02598649,15.8472249 L17.9740135,15.8472249 L18.2199483,16.3136424 L17.8980835,16.8472249 Z M18.5012983,16.8472249 L5.49870174,16.8472249 L7,14 L17,14 L18.5012983,16.8472249 Z" id="Rectangle-1375"></path>
            </g>
        </g>
    </g>
</svg>