<?xml version="1.0" encoding="UTF-8" standalone="no"?>
<!-- Generator: Adobe Illustrator 18.0.0, SVG Export Plug-In . SVG Version: 6.00 Build 0)  -->

<svg
   xmlns:dc="http://purl.org/dc/elements/1.1/"
   xmlns:cc="http://creativecommons.org/ns#"
   xmlns:rdf="http://www.w3.org/1999/02/22-rdf-syntax-ns#"
   xmlns:svg="http://www.w3.org/2000/svg"
   xmlns="http://www.w3.org/2000/svg"
   xmlns:sodipodi="http://sodipodi.sourceforge.net/DTD/sodipodi-0.dtd"
   xmlns:inkscape="http://www.inkscape.org/namespaces/inkscape"
   version="1.1"
   id="图层_1"
   x="0px"
   y="0px"
   viewBox="0 0 30 20"
   enable-background="new 0 0 30 20"
   xml:space="preserve"
   sodipodi:docname="Delete.svg"
   width="30"
   height="20"
   inkscape:version="0.92.1 r15371"><metadata
     id="metadata31"><rdf:RDF><cc:Work
         rdf:about=""><dc:format>image/svg+xml</dc:format><dc:type
           rdf:resource="http://purl.org/dc/dcmitype/StillImage" /><dc:title></dc:title></cc:Work></rdf:RDF></metadata><defs
     id="defs29" /><sodipodi:namedview
     pagecolor="#ffffff"
     bordercolor="#666666"
     borderopacity="1"
     objecttolerance="10"
     gridtolerance="10"
     guidetolerance="10"
     inkscape:pageopacity="0"
     inkscape:pageshadow="2"
     inkscape:window-width="836"
     inkscape:window-height="480"
     id="namedview27"
     showgrid="false"
     fit-margin-top="0"
     fit-margin-left="0"
     fit-margin-right="0"
     fit-margin-bottom="0"
     inkscape:zoom="10.7"
     inkscape:cx="15"
     inkscape:cy="10"
     inkscape:window-x="0"
     inkscape:window-y="0"
     inkscape:window-maximized="0"
     inkscape:current-layer="图层_1" /><g
     id="g8"><path
       d="M 25.667,19.5 H 4.333 C 2.225,19.5 0.5,17.775 0.5,15.667 V 4.333 C 0.5,2.225 2.225,0.5 4.333,0.5 h 21.334 c 2.108,0 3.833,1.725 3.833,3.833 v 11.334 c 0,2.108 -1.725,3.833 -3.833,3.833 z"
       id="path2"
       inkscape:connector-curvature="0"
       style="opacity:0.1;fill:#ffffff" /><g
       id="g6"><path
         stroke-miterlimit="10"
         d="m 25.5,19.5 h -21 c -2.209,0 -4,-1.791 -4,-4 v -11 c 0,-2.209 1.791,-4 4,-4 h 21 c 2.209,0 4,1.791 4,4 v 11 c 0,2.209 -1.791,4 -4,4 z"
         id="path4"
         inkscape:connector-curvature="0"
         style="fill:none;stroke:#cbcbcb;stroke-miterlimit:10" /></g></g><g
     id="g24"><path
       d="M 4.639,6 H 3.774 3.744 3 v 8 h 0.744 0.03 0.865 C 6.608,14 8,12.279 8,10.31 V 9.415 C 8,7.445 6.608,6 4.639,6 Z M 7,10.31 C 7,11.791 6.12,13 4.639,13 H 4 V 7 H 4.639 C 6.12,7 7,7.934 7,9.415 Z"
       id="path10"
       inkscape:connector-curvature="0" /><g
       id="g22"><path
         d="M 12.526,11.782 H 9.178 c 0.015,0.51 0.154,0.904 0.42,1.183 0.266,0.279 0.636,0.417 1.112,0.417 0.536,0 1.028,-0.171 1.475,-0.514 v 0.757 c -0.421,0.297 -0.979,0.446 -1.674,0.446 -0.692,0 -1.232,-0.219 -1.62,-0.657 -0.388,-0.438 -0.582,-1.047 -0.582,-1.825 0,-0.732 0.213,-1.337 0.638,-1.812 0.424,-0.479 0.953,-0.716 1.585,-0.716 0.626,0 1.114,0.201 1.466,0.603 0.352,0.403 0.528,0.966 0.528,1.689 z m -0.848,-0.68 C 11.675,10.669 11.573,10.335 11.371,10.098 11.169,9.861 10.885,9.743 10.519,9.743 10.182,9.743 9.89,9.868 9.643,10.12 9.397,10.37 9.242,10.698 9.178,11.102 Z"
         id="path12"
         inkscape:connector-curvature="0" /><path
         d="M 13,14 V 7 h 1 v 7 z"
         id="path14"
         inkscape:connector-curvature="0" /><path
         d="m 18.981,11.782 h -3.348 c 0.015,0.51 0.154,0.904 0.42,1.183 0.265,0.278 0.636,0.417 1.112,0.417 0.536,0 1.028,-0.171 1.475,-0.514 v 0.757 c -0.421,0.297 -0.979,0.446 -1.674,0.446 -0.692,0 -1.232,-0.219 -1.62,-0.657 -0.388,-0.438 -0.582,-1.047 -0.582,-1.825 0,-0.732 0.213,-1.337 0.638,-1.812 0.425,-0.477 0.954,-0.714 1.585,-0.714 0.626,0 1.114,0.201 1.466,0.603 0.352,0.403 0.528,0.966 0.528,1.689 z m -0.848,-0.68 C 18.13,10.669 18.028,10.335 17.826,10.098 17.624,9.861 17.34,9.743 16.974,9.743 c -0.337,0 -0.629,0.125 -0.876,0.377 -0.246,0.25 -0.401,0.578 -0.465,0.982 z"
         id="path16"
         inkscape:connector-curvature="0" /><path
         d="m 22.07,13.91 c -0.184,0.101 -0.434,0.151 -0.748,0.151 -0.856,0 -1.285,-0.474 -1.285,-1.424 V 9.874 H 19.215 V 9.173 h 0.822 V 8.023 L 20.88,7.755 v 1.419 h 1.19 v 0.701 h -1.19 v 2.613 c 0,0.315 0.053,0.54 0.16,0.675 0.107,0.135 0.284,0.203 0.532,0.203 0.19,0 0.356,-0.053 0.497,-0.16 v 0.704 z"
         id="path18"
         inkscape:connector-curvature="0" /><path
         d="m 26.959,11.782 h -3.348 c 0.015,0.51 0.154,0.904 0.42,1.183 0.266,0.279 0.636,0.417 1.112,0.417 0.536,0 1.028,-0.171 1.475,-0.514 v 0.757 c -0.421,0.297 -0.979,0.446 -1.674,0.446 -0.692,0 -1.232,-0.219 -1.62,-0.657 -0.388,-0.438 -0.582,-1.047 -0.582,-1.825 0,-0.732 0.213,-1.337 0.638,-1.812 0.425,-0.477 0.954,-0.714 1.585,-0.714 0.626,0 1.114,0.201 1.466,0.603 0.352,0.403 0.528,0.966 0.528,1.689 z m -0.848,-0.68 C 26.108,10.669 26.006,10.335 25.804,10.098 25.602,9.861 25.318,9.743 24.952,9.743 c -0.337,0 -0.629,0.125 -0.876,0.377 -0.246,0.25 -0.401,0.578 -0.465,0.982 z"
         id="path20"
         inkscape:connector-curvature="0" /></g></g></svg>