<?xml version="1.0" encoding="UTF-8" standalone="no"?>
<!-- Generator: Adobe Illustrator 18.1.1, SVG Export Plug-In . SVG Version: 6.00 Build 0)  -->

<svg
   xmlns:ns="&amp;ns_sfw;"
   xmlns:dc="http://purl.org/dc/elements/1.1/"
   xmlns:cc="http://creativecommons.org/ns#"
   xmlns:rdf="http://www.w3.org/1999/02/22-rdf-syntax-ns#"
   xmlns:svg="http://www.w3.org/2000/svg"
   xmlns="http://www.w3.org/2000/svg"
   xmlns:sodipodi="http://sodipodi.sourceforge.net/DTD/sodipodi-0.dtd"
   xmlns:inkscape="http://www.inkscape.org/namespaces/inkscape"
   version="1.1"
   id="图层_1"
   x="0px"
   y="0px"
   viewBox="0 0 30 20"
   enable-background="new 0 0 30 20"
   xml:space="preserve"
   sodipodi:docname="Home.svg"
   width="30"
   height="20"
   inkscape:version="0.92.1 r15371"><defs
     id="defs23" /><sodipodi:namedview
     pagecolor="#ffffff"
     bordercolor="#666666"
     borderopacity="1"
     objecttolerance="10"
     gridtolerance="10"
     guidetolerance="10"
     inkscape:pageopacity="0"
     inkscape:pageshadow="2"
     inkscape:window-width="836"
     inkscape:window-height="480"
     id="namedview21"
     showgrid="false"
     fit-margin-top="0"
     fit-margin-left="0"
     fit-margin-right="0"
     fit-margin-bottom="0"
     inkscape:zoom="10.7"
     inkscape:cx="15"
     inkscape:cy="10"
     inkscape:window-x="0"
     inkscape:window-y="0"
     inkscape:window-maximized="0"
     inkscape:current-layer="图层_1" /><metadata
     id="metadata2"><ns:sfw><ns:slices /><ns:sliceSourceBounds
         width="16383"
         height="633"
         y="-188"
         x="-8121"
         bottomLeftOrigin="true" /></ns:sfw><rdf:RDF><cc:Work
         rdf:about=""><dc:format>image/svg+xml</dc:format><dc:type
           rdf:resource="http://purl.org/dc/dcmitype/StillImage" /><dc:title></dc:title></cc:Work></rdf:RDF></metadata><g
     id="g18"><path
       d="M 25.667,19.5 H 4.333 C 2.225,19.5 0.5,17.775 0.5,15.667 V 4.333 C 0.5,2.225 2.225,0.5 4.333,0.5 h 21.334 c 2.108,0 3.833,1.725 3.833,3.833 v 11.334 c 0,2.108 -1.725,3.833 -3.833,3.833 z"
       id="path4"
       inkscape:connector-curvature="0"
       style="opacity:0.1;fill:#ffffff" /><path
       stroke-miterlimit="10"
       d="m 25.5,19.5 h -21 c -2.209,0 -4,-1.791 -4,-4 v -11 c 0,-2.209 1.791,-4 4,-4 h 21 c 2.209,0 4,1.791 4,4 v 11 c 0,2.209 -1.791,4 -4,4 z"
       id="path6"
       inkscape:connector-curvature="0"
       style="fill:none;stroke:#cbcbcb;stroke-miterlimit:10" /><g
       id="g16"><path
         d="M 8,14 H 7 V 10 H 4 v 4 H 3 V 5 H 4 V 9 H 7 V 5 h 1 z"
         id="path8"
         inkscape:connector-curvature="0" /><path
         d="m 8.5,11.078 c 0,-0.945 0.233,-1.69 0.7,-2.237 0.466,-0.546 1.099,-0.82 1.898,-0.82 0.759,0 1.354,0.263 1.786,0.789 0.431,0.526 0.647,1.252 0.647,2.18 0,0.903 -0.23,1.632 -0.69,2.187 -0.46,0.555 -1.078,0.833 -1.852,0.833 -0.756,0 -1.36,-0.269 -1.811,-0.807 C 8.727,12.665 8.5,11.957 8.5,11.078 Z m 0.915,-0.031 c 0,0.658 0.147,1.177 0.441,1.557 0.294,0.379 0.69,0.569 1.187,0.569 0.512,0 0.902,-0.185 1.171,-0.556 0.268,-0.371 0.402,-0.902 0.402,-1.595 0,-0.696 -0.134,-1.231 -0.402,-1.603 -0.268,-0.372 -0.658,-0.558 -1.171,-0.558 -0.503,0 -0.9,0.195 -1.191,0.584 -0.292,0.388 -0.437,0.922 -0.437,1.602 z"
         id="path10"
         inkscape:connector-curvature="0" /><path
         d="m 20.99,14.027 h -0.824 v -3.442 c 0,-0.65 -0.078,-1.116 -0.235,-1.396 -0.157,-0.28 -0.528,-0.42 -0.886,-0.42 -0.303,0 -0.562,0.182 -0.777,0.547 -0.216,0.365 -0.324,0.797 -0.324,1.296 v 3.415 H 17.12 v -3.55 c 0,-1.138 -0.527,-1.707 -1.207,-1.707 -0.314,0 -0.475,0.173 -0.681,0.52 -0.206,0.347 -0.309,0.79 -0.309,1.328 v 3.41 H 14 V 8.032 h 0.824 v 0.949 h 0.017 c 0.331,-0.726 1,-1.09 1.636,-1.09 0.782,0 1.227,0.849 1.32,1.225 0.345,-0.817 0.973,-1.225 1.66,-1.225 1.023,0 1.534,1.156 1.534,2.439 v 3.697 z"
         id="path12"
         inkscape:connector-curvature="0" /><path
         d="m 26.622,11.113 h -4.065 c 0.018,0.62 0.187,1.098 0.509,1.436 0.322,0.338 0.772,0.507 1.35,0.507 0.651,0 1.248,-0.208 1.791,-0.625 v 0.919 c -0.511,0.361 -1.189,0.541 -2.032,0.541 -0.84,0 -1.496,-0.266 -1.967,-0.798 -0.471,-0.532 -0.706,-1.271 -0.706,-2.216 0,-0.889 0.258,-1.623 0.775,-2.2 0.516,-0.578 1.158,-0.867 1.925,-0.867 0.76,0 1.353,0.244 1.78,0.733 0.427,0.488 0.641,1.172 0.641,2.051 v 0.519 z m -1.03,-0.825 C 25.588,9.763 25.464,9.357 25.219,9.07 24.974,8.783 24.629,8.639 24.184,8.639 c -0.41,0 -0.764,0.152 -1.063,0.457 -0.299,0.305 -0.488,0.702 -0.565,1.192 z"
         id="path14"
         inkscape:connector-curvature="0" /></g></g></svg>