<?xml version="1.0" encoding="UTF-8" standalone="no"?>
<!-- Generator: Adobe Illustrator 18.1.1, SVG Export Plug-In . SVG Version: 6.00 Build 0)  -->

<svg
   xmlns:ns="&amp;#38;ns_sfw;"
   xmlns:dc="http://purl.org/dc/elements/1.1/"
   xmlns:cc="http://creativecommons.org/ns#"
   xmlns:rdf="http://www.w3.org/1999/02/22-rdf-syntax-ns#"
   xmlns:svg="http://www.w3.org/2000/svg"
   xmlns="http://www.w3.org/2000/svg"
   xmlns:sodipodi="http://sodipodi.sourceforge.net/DTD/sodipodi-0.dtd"
   xmlns:inkscape="http://www.inkscape.org/namespaces/inkscape"
   version="1.1"
   id="图层_1"
   x="0px"
   y="0px"
   viewBox="0 0 22.003513 22.001074"
   enable-background="new 0 0 24 24"
   xml:space="preserve"
   sodipodi:docname="personalization_normal.svg"
   inkscape:version="0.92.1 r15371"
   width="22.003513"
   height="22.001074"><defs
     id="defs21" /><sodipodi:namedview
     pagecolor="#ffffff"
     bordercolor="#666666"
     borderopacity="1"
     objecttolerance="10"
     gridtolerance="10"
     guidetolerance="10"
     inkscape:pageopacity="0"
     inkscape:pageshadow="2"
     inkscape:window-width="1920"
     inkscape:window-height="998"
     id="namedview19"
     showgrid="false"
     inkscape:zoom="5.6568543"
     inkscape:cx="-42.02515"
     inkscape:cy="10.988218"
     inkscape:window-x="0"
     inkscape:window-y="0"
     inkscape:window-maximized="1"
     inkscape:current-layer="图层_1"
     fit-margin-top="0"
     fit-margin-left="0"
     fit-margin-right="0"
     fit-margin-bottom="0" /><metadata
     id="metadata2"><ns:sfw><ns:slices /><ns:sliceSourceBounds
         width="921"
         height="16845"
         y="-8451"
         x="-57"
         bottomLeftOrigin="true" /></ns:sfw><rdf:RDF><cc:Work
         rdf:about=""><dc:format>image/svg+xml</dc:format><dc:type
           rdf:resource="http://purl.org/dc/dcmitype/StillImage" /><dc:title></dc:title></cc:Work></rdf:RDF></metadata><path
     stroke-miterlimit="10"
     d="m 9.307,21.360231 c 0.559,0.092 1.134,0.139 1.719,0.139 5.142,0 9.423,-3.678 10.343,-8.54 0,0 1.045,-4.6580004 -2.761,-3.5590004 -0.54,0.156 -1.23,0.476 -1.971,0.6140004"
     id="path4"
     style="fill:none;stroke:#000000;stroke-linecap:round;stroke-linejoin:round;stroke-miterlimit:10;stroke-opacity:1"
     inkscape:connector-curvature="0" /><path
     stroke-miterlimit="10"
     d="m 13.127,8.6792306 c -0.224,-0.422 -0.313,-0.944 -0.202,-1.569 0.201,-1.128 1.286,-1.947 1.333,-3.716 C 14.339,0.36723062 11.026,0.50123062 11.026,0.50123062 5.213,0.50123062 0.5,5.2022306 0.5,11.001231 c 0,4.111 2.369,7.671 5.819,9.394"
     id="path6"
     style="fill:none;stroke:#000000;stroke-linejoin:round;stroke-miterlimit:10;stroke-opacity:1"
     inkscape:connector-curvature="0" /><path
     stroke-miterlimit="10"
     d="m 9.582,12.932231 c 0,0 -3.747,0.37 -2.633,4.983 0,0 0.371,2.636 -2.262,3.355 0,0 8.844,1.999 8.743,-5.813 z"
     id="path8"
     style="fill:none;stroke:#000000;stroke-linejoin:round;stroke-miterlimit:10;stroke-opacity:1"
     inkscape:connector-curvature="0" /><path
     stroke-miterlimit="10"
     d="M 9.582,12.932231 19.009,2.1732306 c 0,0 0.866,-1.097 1.476,-0.704 0.49,0.281 0.49,0.691 -0.052,1.722 L 13.43,15.457231 Z"
     id="path10"
     style="fill:none;stroke:#000000;stroke-linejoin:round;stroke-miterlimit:10;stroke-opacity:1"
     inkscape:connector-curvature="0" /><line
     stroke-miterlimit="10"
     x1="11.757"
     y1="10.74423"
     x2="14.768001"
     y2="12.61923"
     id="line12"
     style="fill:none;stroke:#000000;stroke-linejoin:round;stroke-miterlimit:10;stroke-opacity:1" /><ellipse
     stroke-miterlimit="10"
     cx="8.2980003"
     cy="5.4352307"
     rx="1.55"
     ry="1.559"
     id="ellipse14"
     style="fill:none;stroke:#000000;stroke-linejoin:round;stroke-miterlimit:10;stroke-opacity:1" /><ellipse
     stroke-miterlimit="10"
     cx="4.9040003"
     cy="9.668231"
     rx="1.55"
     ry="1.559"
     id="ellipse16"
     style="fill:none;stroke:#000000;stroke-linejoin:round;stroke-miterlimit:10;stroke-opacity:1" /></svg>