<?xml version="1.0" encoding="UTF-8" standalone="no"?>
<!-- Generator: Adobe Illustrator 18.1.1, SVG Export Plug-In . SVG Version: 6.00 Build 0)  -->

<svg
   xmlns:ns="&amp;#38;ns_sfw;"
   xmlns:dc="http://purl.org/dc/elements/1.1/"
   xmlns:cc="http://creativecommons.org/ns#"
   xmlns:rdf="http://www.w3.org/1999/02/22-rdf-syntax-ns#"
   xmlns:svg="http://www.w3.org/2000/svg"
   xmlns="http://www.w3.org/2000/svg"
   xmlns:sodipodi="http://sodipodi.sourceforge.net/DTD/sodipodi-0.dtd"
   xmlns:inkscape="http://www.inkscape.org/namespaces/inkscape"
   version="1.1"
   id="图层_1"
   x="0px"
   y="0px"
   viewBox="0 0 22 15"
   enable-background="new 0 0 24 24"
   xml:space="preserve"
   sodipodi:docname="power_normal.svg"
   inkscape:version="0.92.1 r15371"
   width="22"
   height="15"><defs
     id="defs11" /><sodipodi:namedview
     pagecolor="#ffffff"
     bordercolor="#666666"
     borderopacity="1"
     objecttolerance="10"
     gridtolerance="10"
     guidetolerance="10"
     inkscape:pageopacity="0"
     inkscape:pageshadow="2"
     inkscape:window-width="836"
     inkscape:window-height="480"
     id="namedview9"
     showgrid="false"
     inkscape:zoom="9.8333333"
     inkscape:cx="-8.5254238"
     inkscape:cy="8"
     inkscape:window-x="0"
     inkscape:window-y="0"
     inkscape:window-maximized="0"
     inkscape:current-layer="图层_1"
     fit-margin-top="0"
     fit-margin-left="0"
     fit-margin-right="0"
     fit-margin-bottom="0" /><metadata
     id="metadata2"><ns:sfw><ns:slices /><ns:sliceSourceBounds
         width="921"
         height="16845"
         y="-8451"
         x="-57"
         bottomLeftOrigin="true" /></ns:sfw><rdf:RDF><cc:Work
         rdf:about=""><dc:format>image/svg+xml</dc:format><dc:type
           rdf:resource="http://purl.org/dc/dcmitype/StillImage" /><dc:title></dc:title></cc:Work></rdf:RDF></metadata><polygon
     stroke-miterlimit="10"
     points="9.962,12.214 11.416,8.541 18.489,15.166 12.317,12.758 10.93,16.46 3.544,9.719 "
     id="polygon4"
     style="fill:none;stroke:#1e1e1e;stroke-width:1.03299999;stroke-linecap:round;stroke-linejoin:round;stroke-miterlimit:10;stroke-opacity:1"
     transform="translate(-1,-5)" /><path
     stroke-miterlimit="10"
     d="m 21,5.5 h -1.5 v -4 c 0,-0.552 -0.448,-1 -1,-1 h -17 c -0.552,0 -1,0.448 -1,1 v 12 c 0,0.552 0.448,1 1,1 h 17 c 0.552,0 1,-0.448 1,-1 v -4 H 21 c 0.276,0 0.5,-0.224 0.5,-0.5 V 6 C 21.5,5.724 21.276,5.5 21,5.5 Z"
     id="path6"
     style="fill:none;stroke:#1e1e1e;stroke-linecap:round;stroke-linejoin:round;stroke-miterlimit:10;stroke-opacity:1"
     inkscape:connector-curvature="0" /></svg>