<?xml version="1.0" encoding="UTF-8"?>
<svg width="96px" height="96px" viewBox="0 0 96 96" version="1.1" xmlns="http://www.w3.org/2000/svg" xmlns:xlink="http://www.w3.org/1999/xlink">
    <!-- Generator: Sketch 58 (84663) - https://sketch.com -->
    <title>deepin-mail-96px</title>
    <desc>Created with Sketch.</desc>
    <defs>
        <filter x="-52.9%" y="-17.0%" width="200.0%" height="158.0%" filterUnits="objectBoundingBox" id="filter-1">
            <feOffset dx="0" dy="2" in="SourceAlpha" result="shadowOffsetOuter1"></feOffset>
            <feGaussianBlur stdDeviation="2" in="shadowOffsetOuter1" result="shadowBlurOuter1"></feGaussianBlur>
            <feComposite in="shadowBlurOuter1" in2="SourceAlpha" operator="out" result="shadowBlurOuter1"></feComposite>
            <feColorMatrix values="0 0 0 0 0   0 0 0 0 0   0 0 0 0 0  0 0 0 0.2 0" type="matrix" in="shadowBlurOuter1" result="shadowMatrixOuter1"></feColorMatrix>
            <feMerge>
                <feMergeNode in="shadowMatrixOuter1"></feMergeNode>
                <feMergeNode in="SourceGraphic"></feMergeNode>
            </feMerge>
        </filter>
        <linearGradient x1="50%" y1="0%" x2="50%" y2="100%" id="linearGradient-2">
            <stop stop-color="#080030" offset="0%"></stop>
            <stop stop-color="#002F48" offset="100%"></stop>
        </linearGradient>
        <path d="M7.16883117,0 C3.20959504,0 0,3.18869357 0,7.12214642 L0,69.2430902 C0,73.176543 3.20959504,76.3652366 7.16883117,76.3652366 L50.5800866,76.3652366 C54.5393227,76.3652366 57.7489177,73.176543 57.7489177,69.2430902 L57.7489177,7.12214642 C57.7489177,3.18869357 54.5393227,0 50.5800866,0 L7.16883117,0 Z" id="path-3"></path>
        <linearGradient x1="8.68155965%" y1="71.0763504%" x2="71.2944657%" y2="41.5902725%" id="linearGradient-5">
            <stop stop-color="#00499C" offset="0%"></stop>
            <stop stop-color="#000A72" offset="100%"></stop>
        </linearGradient>
        <ellipse id="path-6" cx="49.1860159" cy="2.17628817" rx="17.5238095" ry="17.4096912"></ellipse>
        <filter x="-17.1%" y="-17.2%" width="134.2%" height="134.5%" filterUnits="objectBoundingBox" id="filter-7">
            <feOffset dx="12" dy="1" in="SourceAlpha" result="shadowOffsetInner1"></feOffset>
            <feComposite in="shadowOffsetInner1" in2="SourceAlpha" operator="arithmetic" k2="-1" k3="1" result="shadowInnerInner1"></feComposite>
            <feColorMatrix values="0 0 0 0 1   0 0 0 0 1   0 0 0 0 1  0 0 0 0.1 0" type="matrix" in="shadowInnerInner1"></feColorMatrix>
        </filter>
        <linearGradient x1="3.38077148%" y1="53.0529279%" x2="74.0374777%" y2="56.5916104%" id="linearGradient-8">
            <stop stop-color="#00807D" offset="0%"></stop>
            <stop stop-color="#0013AE" offset="100%"></stop>
        </linearGradient>
        <linearGradient x1="50%" y1="0%" x2="50%" y2="100%" id="linearGradient-9">
            <stop stop-color="#FAD961" offset="0%"></stop>
            <stop stop-color="#F76B1C" offset="100%"></stop>
        </linearGradient>
        <ellipse id="path-10" cx="22.1037648" cy="14.0465322" rx="4.51948052" ry="4.48543689"></ellipse>
        <linearGradient x1="50%" y1="0%" x2="50%" y2="100%" id="linearGradient-11">
            <stop stop-color="#FAD961" offset="0%"></stop>
            <stop stop-color="#F76B1C" offset="100%"></stop>
        </linearGradient>
        <linearGradient x1="30.0727141%" y1="8.25737223%" x2="80.5342614%" y2="65.0477464%" id="linearGradient-12">
            <stop stop-color="#004940" offset="0%"></stop>
            <stop stop-color="#001D3C" offset="100%"></stop>
        </linearGradient>
        <ellipse id="path-13" cx="8.56263929" cy="75.3761264" rx="10.3549784" ry="10.2875448"></ellipse>
        <filter x="-16.9%" y="-17.0%" width="133.8%" height="134.0%" filterUnits="objectBoundingBox" id="filter-14">
            <feOffset dx="7" dy="1" in="SourceAlpha" result="shadowOffsetInner1"></feOffset>
            <feComposite in="shadowOffsetInner1" in2="SourceAlpha" operator="arithmetic" k2="-1" k3="1" result="shadowInnerInner1"></feComposite>
            <feColorMatrix values="0 0 0 0 1   0 0 0 0 1   0 0 0 0 1  0 0 0 0.1 0" type="matrix" in="shadowInnerInner1"></feColorMatrix>
        </filter>
        <linearGradient x1="31.4761257%" y1="60.9315613%" x2="58.750991%" y2="100%" id="linearGradient-15">
            <stop stop-color="#33B8EC" offset="0%"></stop>
            <stop stop-color="#B5DEFF" offset="100%"></stop>
        </linearGradient>
        <linearGradient x1="92.0309005%" y1="1.08621765%" x2="50%" y2="100%" id="linearGradient-16">
            <stop stop-color="#0D98CF" offset="49.6225718%"></stop>
            <stop stop-color="#7ADAFF" offset="100%"></stop>
        </linearGradient>
        <linearGradient x1="36.6140305%" y1="58.7057175%" x2="9.19779715%" y2="100%" id="linearGradient-17">
            <stop stop-color="#00B7FF" offset="0%"></stop>
            <stop stop-color="#87CAFF" offset="100%"></stop>
        </linearGradient>
        <polygon id="path-18" points="19.5267242 28.2743124 14.4704484 36.6262183 47.9086039 0.15561322"></polygon>
        <filter x="-1.5%" y="-1.4%" width="103.0%" height="102.7%" filterUnits="objectBoundingBox" id="filter-19">
            <feOffset dx="1" dy="1" in="SourceAlpha" result="shadowOffsetInner1"></feOffset>
            <feComposite in="shadowOffsetInner1" in2="SourceAlpha" operator="arithmetic" k2="-1" k3="1" result="shadowInnerInner1"></feComposite>
            <feColorMatrix values="0 0 0 0 1   0 0 0 0 1   0 0 0 0 1  0 0 0 0.5 0" type="matrix" in="shadowInnerInner1"></feColorMatrix>
        </filter>
        <filter x="-53.1%" y="-58.0%" width="206.3%" height="215.9%" filterUnits="objectBoundingBox" id="filter-20">
            <feOffset dx="0" dy="5" in="SourceAlpha" result="shadowOffsetOuter1"></feOffset>
            <feGaussianBlur stdDeviation="4" in="shadowOffsetOuter1" result="shadowBlurOuter1"></feGaussianBlur>
            <feColorMatrix values="0 0 0 0 0   0 0 0 0 0   0 0 0 0 0  0 0 0 0.2 0" type="matrix" in="shadowBlurOuter1" result="shadowMatrixOuter1"></feColorMatrix>
            <feMerge>
                <feMergeNode in="shadowMatrixOuter1"></feMergeNode>
                <feMergeNode in="SourceGraphic"></feMergeNode>
            </feMerge>
        </filter>
        <linearGradient x1="98.2475456%" y1="35.1964179%" x2="10.4235407%" y2="62.648142%" id="linearGradient-21">
            <stop stop-color="#6DB4FF" offset="0%"></stop>
            <stop stop-color="#D5FFFD" offset="100%"></stop>
        </linearGradient>
        <linearGradient x1="70.4302382%" y1="3.1102325%" x2="50%" y2="94.7721121%" id="linearGradient-22">
            <stop stop-color="#57A2FF" offset="0%"></stop>
            <stop stop-color="#D3F9FF" offset="100%"></stop>
        </linearGradient>
    </defs>
    <g id="deepin-mail-96px" stroke="none" stroke-width="1" fill="none" fill-rule="evenodd">
        <g id="编组-2" filter="url(#filter-1)" transform="translate(13.000000, 4.000000)">
            <path d="M53.3089424,0.500817682 L49.8110628,0.500817682 C49.1177614,1.82221584 47.7410983,2.6794867 46.2064403,2.6794867 C44.6717822,2.6794867 43.2951191,1.82221584 42.6018178,0.500817682 L39.1039382,0.500817682 C38.4106368,1.82221584 37.0339738,2.6794867 35.4993157,2.6794867 C33.9646576,2.6794867 32.5879945,1.82221584 31.8946932,0.500817682 L28.3968136,0.500817682 C27.7035122,1.82221584 26.3268492,2.6794867 24.7921911,2.6794867 C23.257533,2.6794867 21.8808699,1.82221584 21.1875686,0.500817682 L17.689689,0.500817682 C16.9963876,1.82221584 15.6197246,2.6794867 14.0850665,2.6794867 C12.7197801,2.6794867 11.4735677,2.00126101 10.7247279,0.906202084 C9.49435192,1.22989038 8.3261392,1.74144206 7.25684389,2.42057731 C6.81233071,3.82068567 5.63599173,4.88148129 4.19110016,5.17360326 C3.363429,6.21228904 2.70735872,7.37669164 2.25102729,8.62365757 C3.26085996,9.38227052 3.87648444,10.5772391 3.87648444,11.8781261 C3.87648444,13.4930381 2.92738467,14.9274859 1.49982043,15.58 L1.49982043,18.8833769 C2.92738467,19.535891 3.87648444,20.9703388 3.87648444,22.5852507 C3.87648444,24.2001627 2.92738467,25.6346105 1.49982043,26.2871246 L1.49982043,29.5905015 C2.92738467,30.2430156 3.87648444,31.6774634 3.87648444,33.2923753 C3.87648444,34.9072873 2.92738467,36.3417351 1.49982043,36.9942492 L1.49982043,40.2976261 C2.92738467,40.9501402 3.87648444,42.384588 3.87648444,43.9994999 C3.87648444,45.6144119 2.92738467,47.0488597 1.49982043,47.7013738 L1.49982043,51.0047507 C2.92738467,51.6572648 3.87648444,53.0917126 3.87648444,54.7066245 C3.87648444,56.3215364 2.92738467,57.7559843 1.49982043,58.4084984 L1.49982043,61.7118753 C2.92738467,62.3643894 3.87648444,63.7988372 3.87648444,65.4137491 C3.87648444,67.028661 2.92738467,68.4631088 1.49982043,69.115623 L1.49982043,72.4189998 C2.92738467,73.071514 3.87648444,74.5059618 3.87648444,76.1208737 C3.87648444,77.4219813 3.26068102,78.6168864 2.25036345,79.3750138 C2.67367769,80.5304551 3.26789022,81.6148875 4.01089801,82.5937234 C5.62248911,82.8456872 6.93016858,84.0453615 7.32413997,85.621437 C8.34443286,86.2597183 9.45202041,86.7458763 10.6156662,87.062304 C11.3453827,85.8734204 12.6475758,85.121314 14.0850665,85.121314 C15.70038,85.121314 17.135111,86.0708842 17.7873982,87.4989784 L21.0898594,87.4989784 C21.7421465,86.0708842 23.1768776,85.121314 24.7921911,85.121314 C26.4075046,85.121314 27.8422356,86.0708842 28.4945228,87.4989784 L31.796984,87.4989784 C32.4492711,86.0708842 33.8840022,85.121314 35.4993157,85.121314 C37.1146292,85.121314 38.5493602,86.0708842 39.2016474,87.4989784 L42.5041086,87.4989784 C43.1563957,86.0708842 44.5911268,85.121314 46.2064403,85.121314 C47.8217538,85.121314 49.2564848,86.0708842 49.9087719,87.4989784 L53.2112332,87.4989784 C53.8635203,86.0708842 55.2982514,85.121314 56.9135649,85.121314 C58.351321,85.121314 59.6533755,85.873629 60.3832552,87.0634906 C61.5483605,86.7454675 62.6557328,86.2586095 63.6736301,85.6202603 C64.0684748,84.0450128 65.3764179,82.8456831 66.9871218,82.5944979 C67.7312196,81.6142539 68.3251767,80.5296314 68.7468881,79.3748034 C67.7374628,78.6161491 67.1221469,77.4214363 67.1221469,76.1208737 C67.1221469,74.505734 68.0715135,73.0711255 69.4993784,72.4187401 L69.4993784,69.1158827 C68.0715135,68.4634973 67.1221469,67.0288888 67.1221469,65.4137491 C67.1221469,63.7986094 68.0715135,62.3640009 69.4993784,61.7116155 L69.4993784,58.4087581 C68.0715135,57.7563727 67.1221469,56.3217642 67.1221469,54.7066245 C67.1221469,53.0914848 68.0715135,51.6568763 69.4993784,51.0044909 L69.4993784,47.7016335 C68.0715135,47.0492481 67.1221469,45.6146396 67.1221469,43.9994999 C67.1221469,42.3843602 68.0715135,40.9497517 69.4993784,40.2973663 L69.4993784,36.9945089 C68.0715135,36.3421235 67.1221469,34.907515 67.1221469,33.2923753 C67.1221469,31.6772356 68.0715135,30.2426271 69.4993784,29.5902417 L69.4993784,26.2873843 C68.0715135,25.6349989 67.1221469,24.2003904 67.1221469,22.5852507 C67.1221469,20.970111 68.0715135,19.5355025 69.4993784,18.8831171 L69.4993784,15.5802597 C68.0715135,14.9278743 67.1221469,13.4932658 67.1221469,11.8781261 C67.1221469,10.5770331 67.7378892,9.38247696 68.74856,8.62478551 C68.2913749,7.37664356 67.6349968,6.21211007 66.8076381,5.17475638 C65.3623878,4.88148963 64.1862377,3.82041222 63.7420905,2.420155 C62.6715679,1.74081072 61.5032352,1.22967307 60.2734597,0.90715935 C59.5249479,2.00141767 58.278645,2.6794867 56.9135649,2.6794867 C55.3789068,2.6794867 54.0022437,1.82221584 53.3089424,0.500817682 Z M57.111845,5.24707076 C61.3301961,5.24707076 64.749928,8.66540625 64.749928,12.8822389 L64.749928,75.1167609 C64.749928,79.3335936 61.3301961,82.7519291 57.111845,82.7519291 L13.8867864,82.7519291 C9.66843533,82.7519291 6.24870335,79.3335936 6.24870335,75.1167609 L6.24870335,12.8822389 C6.24870335,8.66540625 9.66843533,5.24707076 13.8867864,5.24707076 L57.111845,5.24707076 Z" id="形状结合" stroke="#FFFFFF" fill="#F3F3F3" fill-rule="nonzero"></path>
            <g id="编组" transform="translate(7.000000, 6.000000)">
                <mask id="mask-4" fill="white">
                    <use xlink:href="#path-3"></use>
                </mask>
                <use id="蒙版" fill="url(#linearGradient-2)" fill-rule="nonzero" xlink:href="#path-3"></use>
                <g id="椭圆形" opacity="0.5" mask="url(#mask-4)">
                    <use fill="url(#linearGradient-5)" fill-rule="evenodd" xlink:href="#path-6"></use>
                    <use fill="black" fill-opacity="1" filter="url(#filter-7)" xlink:href="#path-6"></use>
                </g>
                <ellipse id="椭圆形" stroke="url(#linearGradient-8)" stroke-width="3" opacity="0.5" mask="url(#mask-4)" transform="translate(52.901176, 11.284528) rotate(11.000000) translate(-52.901176, -11.284528) " cx="52.9011764" cy="11.2845283" rx="37.0301843" ry="15.6329512"></ellipse>
                <g id="椭圆形" mask="url(#mask-4)">
                    <use fill="url(#linearGradient-9)" fill-rule="evenodd" xlink:href="#path-10"></use>
                    <ellipse stroke="#070935" stroke-width="3" cx="22.1037648" cy="14.0465322" rx="6.01948052" ry="5.98543689"></ellipse>
                    <use stroke="#000000" stroke-width="1" xlink:href="#path-10"></use>
                </g>
                <ellipse id="椭圆形" fill="url(#linearGradient-11)" mask="url(#mask-4)" cx="51.4890462" cy="72.5203865" rx="1.50649351" ry="1.49668294"></ellipse>
                <g id="椭圆形" mask="url(#mask-4)">
                    <use fill="url(#linearGradient-12)" fill-rule="evenodd" xlink:href="#path-13"></use>
                    <use fill="black" fill-opacity="1" filter="url(#filter-14)" xlink:href="#path-13"></use>
                </g>
            </g>
            <g id="编组-4" transform="translate(33.057089, 54.584402) rotate(-28.000000) translate(-33.057089, -54.584402) translate(9.057089, 32.084402)">
                <path d="M16.8865327,26.7797202 L15.9171827,33.568552 L37.7989653,9.70234775 L16.8865327,26.7797202 Z" id="路径-2" stroke="url(#linearGradient-16)" stroke-width="2" fill="url(#linearGradient-15)"></path>
                <g id="路径-2">
                    <use fill="url(#linearGradient-17)" fill-rule="evenodd" xlink:href="#path-18"></use>
                    <use fill="black" fill-opacity="1" filter="url(#filter-19)" xlink:href="#path-18"></use>
                </g>
                <g id="编组-5" filter="url(#filter-20)" transform="translate(0.000000, 0.197358)">
                    <polygon id="路径-2" fill="url(#linearGradient-21)" points="15.9517388 26.0546586 47.8836207 1.41227136e-12 0 23.4856467"></polygon>
                    <polygon id="路径-2" fill="url(#linearGradient-22)" points="19.5267242 28.076954 47.8836207 -8.88047706e-13 35.987069 43.122805"></polygon>
                </g>
            </g>
        </g>
    </g>
</svg>