<?xml version="1.0" encoding="UTF-8"?>
<svg width="54px" height="44px" viewBox="0 0 54 44" version="1.1" xmlns="http://www.w3.org/2000/svg" xmlns:xlink="http://www.w3.org/1999/xlink">
    <!-- Generator: Sketch 58 (84663) - https://sketch.com -->
    <title>分组 6</title>
    <desc>Created with Sketch.</desc>
    <defs>
        <path d="M0,0 L38,0 C42.418278,-8.11624501e-16 46,3.581722 46,8 L46,28 C46,32.418278 42.418278,36 38,36 L0,36 L0,36 L0,0 Z" id="path-1"></path>
        <filter x="-15.2%" y="-13.9%" width="130.4%" height="138.9%" filterUnits="objectBoundingBox" id="filter-2">
            <feOffset dx="0" dy="2" in="SourceAlpha" result="shadowOffsetOuter1"></feOffset>
            <feGaussianBlur stdDeviation="2" in="shadowOffsetOuter1" result="shadowBlurOuter1"></feGaussianBlur>
            <feColorMatrix values="0 0 0 0 0   0 0 0 0 0   0 0 0 0 0  0 0 0 0.05 0" type="matrix" in="shadowBlurOuter1"></feColorMatrix>
        </filter>
    </defs>
    <g id="视觉稿" stroke="none" stroke-width="1" fill="none" fill-rule="evenodd">
        <g id="分组-6" transform="translate(4.000000, 2.000000)">
            <g id="矩形">
                <use fill="black" fill-opacity="1" filter="url(#filter-2)" xlink:href="#path-1"></use>
                <use fill="#E1E1E1" fill-rule="evenodd" xlink:href="#path-1"></use>
            </g>
            <path d="M31.4690909,13.8618182 L35.0036364,11.8327273 C35.6581818,11.44 36.1818182,11.7672727 36.1818182,12.4218182 L36.1818182,22.6981818 C36.1818182,23.4181818 35.6581818,23.68 35.0036364,23.2872727 L31.4690909,21.2581818 C30.8145455,20.8654545 30.2909091,20.4727273 30.2909091,19.8181818 L30.2909091,15.2363636 C30.2909091,14.5818182 30.8145455,14.2545455 31.4690909,13.8618182 Z M25.84,10 L12.4872727,10 C11.1127273,10 10,11.1127273 10,12.4872727 L10,23.2218182 C10,24.5963636 11.1127273,25.7090909 12.4872727,25.7090909 L25.84,25.7090909 C27.2145455,25.7090909 28.3272727,24.5963636 28.3272727,23.2218182 L28.3272727,12.4872727 C28.3272727,11.1127273 27.2145455,10 25.84,10 Z M17.7890909,16.0218182 C17.5927273,16.9381818 16.8727273,17.6581818 16.0218182,17.8545455 C14.3854545,18.1818182 13.0109091,16.7418182 13.3381818,15.1709091 C13.5345455,14.2545455 14.2545455,13.5345455 15.1054545,13.4036364 C16.7418182,13.0109091 18.1163636,14.3854545 17.7890909,16.0218182 L17.7890909,16.0218182 Z" id="形状" fill="#536076"></path>
        </g>
    </g>
</svg>