<?xml version="1.0" encoding="UTF-8"?>
<svg width="60px" height="50px" viewBox="0 0 60 50" version="1.1" xmlns="http://www.w3.org/2000/svg" xmlns:xlink="http://www.w3.org/1999/xlink">
    <!-- Generator: Sketch 58 (84663) - https://sketch.com -->
    <title>button/photograph备份</title>
    <desc>Created with Sketch.</desc>
    <defs>
        <rect id="path-1" x="0" y="0" width="46.08" height="36" rx="5.76"></rect>
        <filter x="-27.1%" y="-23.6%" width="154.3%" height="169.4%" filterUnits="objectBoundingBox" id="filter-2">
            <feOffset dx="0" dy="4" in="SourceAlpha" result="shadowOffsetOuter1"></feOffset>
            <feGaussianBlur stdDeviation="3.5" in="shadowOffsetOuter1" result="shadowBlurOuter1"></feGaussianBlur>
            <feColorMatrix values="0 0 0 0 0.751514668   0 0 0 0 0   0 0 0 0 0  0 0 0 0.5 0" type="matrix" in="shadowBlurOuter1"></feColorMatrix>
        </filter>
    </defs>
    <g id="视觉稿" stroke="none" stroke-width="1" fill="none" fill-rule="evenodd">
        <g id="button/transcribe" transform="translate(7.000000, 3.000000)">
            <g id="button/photograph">
                <g id="矩形">
                    <use fill="black" fill-opacity="1" filter="url(#filter-2)" xlink:href="#path-1"></use>
                    <use fill="#E5463D" fill-rule="evenodd" xlink:href="#path-1"></use>
                </g>
                <g id="button/transcribe" transform="translate(12.960000, 12.240000)" fill="#FFFFFF">
                    <path d="M15.4577455,2.79523636 L18.0026182,1.33429091 C18.4738909,1.05152727 18.8509091,1.28716364 18.8509091,1.75843636 L18.8509091,9.15741818 C18.8509091,9.67581818 18.4738909,9.86432727 18.0026182,9.58156364 L15.4577455,8.12061818 C14.9864727,7.83785455 14.6094545,7.55509091 14.6094545,7.08381818 L14.6094545,3.78490909 C14.6094545,3.31363636 14.9864727,3.078 15.4577455,2.79523636 Z M11.4048,0.0147272727 L1.79083636,0.0147272727 C0.801163636,0.0147272727 0,0.815890909 0,1.80556364 L0,9.53443636 C0,10.5241091 0.801163636,11.3252727 1.79083636,11.3252727 L11.4048,11.3252727 C12.3944727,11.3252727 13.1956364,10.5241091 13.1956364,9.53443636 L13.1956364,1.80556364 C13.1956364,0.815890909 12.3944727,0.0147272727 11.4048,0.0147272727 Z M5.60814545,4.35043636 C5.46676364,5.01021818 4.94836364,5.52861818 4.33570909,5.67 C3.15752727,5.90563636 2.16785455,4.86883636 2.40349091,3.73778182 C2.54487273,3.078 3.06327273,2.5596 3.67592727,2.46534545 C4.85410909,2.18258182 5.84378182,3.17225455 5.60814545,4.35043636 L5.60814545,4.35043636 Z" id="形状"></path>
                </g>
            </g>
        </g>
    </g>
</svg>