<?xml version="1.0" encoding="utf-8"?>
<!-- Generator: Adobe Illustrator 16.0.0, SVG Export Plug-In . SVG Version: 6.00 Build 0)  -->
<!DOCTYPE svg PUBLIC "-//W3C//DTD SVG 1.1//EN" "http://www.w3.org/Graphics/SVG/1.1/DTD/svg11.dtd">
<svg version="1.1" id="图层_1" xmlns="http://www.w3.org/2000/svg" xmlns:xlink="http://www.w3.org/1999/xlink" x="0px" y="0px"
	 width="24px" height="24px" viewBox="0 0 24 24" enable-background="new 0 0 24 24" xml:space="preserve">
<filter  id="filter-3" y="-20.8%" x="-29.2%" width="158.3%" height="158.3%" filterUnits="objectBoundingBox">
	<feOffset  result="shadowOffsetOuter1" in="SourceAlpha" dy="2" dx="0"></feOffset>
	<feGaussianBlur  result="shadowBlurOuter1" in="shadowOffsetOuter1" stdDeviation="2"></feGaussianBlur>
	<feComposite  in2="SourceAlpha" result="shadowBlurOuter1" in="shadowBlurOuter1" operator="out"></feComposite>
	<feColorMatrix  values="0 0 0 0 0   0 0 0 0 0   0 0 0 0 0  0 0 0 0.05 0" in="shadowBlurOuter1" type="matrix"></feColorMatrix>
</filter>
<title></title>
<desc>Created with Sketch.</desc>
<g id="Rectangle-175" transform="translate(12.000000, 12.000000) scale(-1, 1) translate(-12.000000, -12.000000) ">
	<g filter="url(#filter-3)">
		<path id="path-2_2_" d="M5,0h14c2.761,0,5,2.239,5,5v14c0,2.762-2.239,5-5,5H5c-2.762,0-5-2.238-5-5V5C0,2.239,2.238,0,5,0z"/>
	</g>
	<g>
		<path id="path-2_1_" fill-opacity="0.08" d="M5,0h14c2.761,0,5,2.239,5,5v14c0,2.762-2.239,5-5,5H5c-2.762,0-5-2.238-5-5V5
			C0,2.239,2.238,0,5,0z"/>
	</g>
	
		<linearGradient id="SVGID_1_" gradientUnits="userSpaceOnUse" x1="321.7749" y1="415.7861" x2="321.7749" y2="414.8296" gradientTransform="matrix(-23 0 0 -23 7412.8594 9563.5625)">
		<stop  offset="0" style="stop-color:#E6E6E6"/>
		<stop  offset="1" style="stop-color:#E3E3E3"/>
	</linearGradient>
	<path fill="url(#SVGID_1_)" stroke="#000000" stroke-opacity="0.03" d="M5.5,0.5h13c2.761,0,5,2.239,5,5v13c0,2.762-2.239,5-5,5
		h-13c-2.762,0-5-2.238-5-5v-13C0.5,2.739,2.738,0.5,5.5,0.5z"/>
</g>
<path id="形状" fill="#536076" d="M12,7.2c-2.339,0-4.235,1.896-4.235,4.235c0,2.339,1.896,4.235,4.235,4.235
	s4.235-1.896,4.235-4.235C16.234,9.096,14.339,7.2,12,7.2z M12,15.064c-2.004,0-3.63-1.625-3.63-3.629s1.625-3.63,3.63-3.63
	s3.63,1.625,3.63,3.63S14.004,15.064,12,15.064z M12,8.41c1.669,0,3.026,1.356,3.026,3.025S13.669,14.46,12,14.46
	c-1.668,0-3.025-1.356-3.025-3.025S10.331,8.41,12,8.41z M12,10.225c-0.667,0-1.21,0.543-1.21,1.21s0.543,1.21,1.21,1.21
	c0.667,0,1.21-0.543,1.21-1.21S12.667,10.225,12,10.225z M17.2,17.788c0.608,0.689-0.006,1.62-0.875,1.501
	C15.238,19.142,14.367,18.26,12,18.26s-3.238,0.882-4.325,1.029c-0.87,0.119-1.484-0.812-0.875-1.501l1.69-1.919
	C9.511,16.507,10.71,16.88,12,16.88c1.29,0,2.489-0.374,3.509-1.011L17.2,17.788L17.2,17.788z"/>
<g id="iconmonstr-webcam-3" transform="translate(7.680000, 7.200000)">
</g>
</svg>
