<?xml version="1.0" encoding="UTF-8"?>
<svg width="16px" height="16px" viewBox="0 0 16 16" version="1.1" xmlns="http://www.w3.org/2000/svg" xmlns:xlink="http://www.w3.org/1999/xlink">
    <title>视频</title>
    <g id="页面-1备份" stroke="none" stroke-width="1" fill="none" fill-rule="evenodd">
        <g id="按钮" transform="translate(-263.000000, -100.000000)" fill="#536076" fill-rule="nonzero">
            <g id="视频" transform="translate(263.000000, 100.000000)">
                <path d="M12.2857143,2 C13.2324881,2 14,2.97004969 14,4.16666664 L14,12.8333334 C14,14.0299503 13.2324881,15 12.2857143,15 L3.71428569,15 C2.76751188,15 2,14.0299503 2,12.8333334 L2,4.16666664 C2,2.97004969 2.76751188,2 3.71428569,2 L12.2857143,2 Z M5,12 L3,12 L3,13 C3,13.5522847 3.44771525,14 4,14 L4,14 L5,14 L5,12 Z M13,12 L11,12 L11,14 L12,14 C12.5522847,14 13,13.5522847 13,13 L13,13 L13,12 Z M5,9 L3,9 L3,11 L5,11 L5,9 Z M13,9 L11,9 L11,11 L13,11 L13,9 Z M5,6 L3,6 L3,8 L5,8 L5,6 Z M13,6 L11,6 L11,8 L13,8 L13,6 Z M5,3 L4,3 C3.44771525,3 3,3.44771525 3,4 L3,4 L3,5 L5,5 L5,3 Z M12,3 L11,3 L11,5 L13,5 L13,4 C13,3.44771525 12.5522847,3 12,3 L12,3 Z" id="形状结合"></path>
            </g>
        </g>
    </g>
</svg>