<?xml version="1.0" encoding="iso-8859-1"?>
<!-- Generator: Adobe Illustrator 18.0.0, SVG Export Plug-In . SVG Version: 6.00 Build 0)  -->
<!DOCTYPE svg PUBLIC "-//W3C//DTD SVG 1.1//EN" "http://www.w3.org/Graphics/SVG/1.1/DTD/svg11.dtd">
<svg version="1.1" id="&#x56FE;&#x5C42;_1" xmlns="http://www.w3.org/2000/svg" xmlns:xlink="http://www.w3.org/1999/xlink" x="0px"
	 y="0px" viewBox="0 0 20 20" enable-background="new 0 0 20 20" xml:space="preserve">
<g>
	<path opacity="0.1" fill="#FFFFFF" d="M15.7,19.5H4.3c-2.09,0-3.8-1.71-3.8-3.8V4.3c0-2.09,1.71-3.8,3.8-3.8h11.4
		c2.09,0,3.8,1.71,3.8,3.8v11.4C19.5,17.79,17.79,19.5,15.7,19.5z"/>
	<path fill="none" stroke="#CBCBCB" stroke-miterlimit="10" d="M15.5,19.5h-11c-2.209,0-4-1.791-4-4v-11c0-2.209,1.791-4,4-4h11
		c2.209,0,4,1.791,4,4v11C19.5,17.709,17.709,19.5,15.5,19.5z"/>
	<path d="M12.665,9.272c-0.933-0.483-1.399-1.184-1.399-2.102c0-0.641,0.219-1.162,0.656-1.565c0.438-0.403,0.998-0.604,1.678-0.604
		c0.624,0,1.137,0.189,1.542,0.568c0.404,0.379,0.606,0.867,0.606,1.467c0,0.967-0.487,1.71-1.461,2.231v0.022
		C15.429,9.746,16,10.526,16,11.627c0,0.723-0.235,1.299-0.705,1.728c-0.47,0.429-1.126,0.644-1.968,0.644
		c-0.691,0-1.253-0.212-1.689-0.635c-0.434-0.424-0.651-0.972-0.651-1.647c0-1.109,0.56-1.916,1.678-2.422V9.272z M13.433,9.795
		c-0.967,0.435-1.451,1.056-1.451,1.866c0,0.419,0.141,0.764,0.424,1.034c0.283,0.27,0.652,0.405,1.107,0.405
		c0.441,0,0.8-0.134,1.076-0.402c0.277-0.268,0.415-0.602,0.415-1.003C15.005,10.852,14.48,10.219,13.433,9.795z M14.747,7.165
		c0-0.39-0.109-0.697-0.328-0.922c-0.22-0.225-0.516-0.337-0.889-0.337c-0.351,0-0.649,0.117-0.895,0.351
		c-0.246,0.234-0.369,0.533-0.369,0.896c0,0.727,0.41,1.279,1.228,1.658C14.329,8.426,14.747,7.877,14.747,7.165z"/>
	<g>
		<path d="M10,6H6v3h3v1H6v4H5V5h5V6z"/>
	</g>
</g>
</svg>
