<?xml version="1.0" encoding="iso-8859-1"?>
<!-- Generator: Adobe Illustrator 18.1.1, SVG Export Plug-In . SVG Version: 6.00 Build 0)  -->
<!DOCTYPE svg PUBLIC "-//W3C//DTD SVG 1.1//EN" "http://www.w3.org/Graphics/SVG/1.1/DTD/svg11.dtd" [
	<!ENTITY ns_extend "http://ns.adobe.com/Extensibility/1.0/">
	<!ENTITY ns_ai "http://ns.adobe.com/AdobeIllustrator/10.0/">
	<!ENTITY ns_graphs "http://ns.adobe.com/Graphs/1.0/">
	<!ENTITY ns_vars "http://ns.adobe.com/Variables/1.0/">
	<!ENTITY ns_imrep "http://ns.adobe.com/ImageReplacement/1.0/">
	<!ENTITY ns_sfw "http://ns.adobe.com/SaveForWeb/1.0/">
	<!ENTITY ns_custom "http://ns.adobe.com/GenericCustomNamespace/1.0/">
	<!ENTITY ns_adobe_xpath "http://ns.adobe.com/XPath/1.0/">
]>
<svg version="1.1" id="&#x56FE;&#x5C42;_1" xmlns:x="&ns_extend;" xmlns:i="&ns_ai;" xmlns:graph="&ns_graphs;"
	 xmlns="http://www.w3.org/2000/svg" xmlns:xlink="http://www.w3.org/1999/xlink" x="0px" y="0px" viewBox="0 0 20 20"
	 enable-background="new 0 0 20 20" xml:space="preserve">
<metadata>
	<sfw  xmlns="&ns_sfw;">
		<slices></slices>
		<sliceSourceBounds  width="708.507" height="497" y="-412.5" x="1.993" bottomLeftOrigin="true"></sliceSourceBounds>
	</sfw>
</metadata>
<g>
	<rect x="10" y="8" fill="#2EA7E0" width="1" height="5"/>
	<path fill="#2EA7E0" d="M7.016,8H6.984C6.39,8,5.864,8.188,5.5,8.601C5.136,8.188,4.641,8,4.047,8H4.015
		c-0.37,0-0.781,0.302-0.999,0.648L3,8H2v1.794V13h1V9.794C3,9.252,3.441,8.81,3.984,8.81C4.559,8.81,5,9.252,5,9.794v0V13h1V9.794
		v0C6,9.252,6.441,8.81,6.984,8.81C7.559,8.81,8,9.252,8,9.794V13h1V9.794C9,8.699,8.112,8,7.016,8z"/>
	<circle fill="#2EA7E0" cx="10.516" cy="6.295" r="0.75"/>
	<circle fill="#2EA7E0" cx="17.5" cy="6.295" r="0.75"/>
	<rect x="17" y="8" fill="#2EA7E0" width="1" height="5"/>
	<path fill="#2EA7E0" d="M14.016,8h-0.032C13.63,8,13.296,8.35,13,8.625V8h-1v3h0.001c0.001,0-0.002,0.28-0.001,0.294V13h1v-1.75
		V9.794c0-0.542,0.441-0.984,0.984-0.984C14.559,8.81,15,9.252,15,9.794V13h1V9.794C16,8.699,15.111,8,14.016,8z"/>
</g>
</svg>
