<?xml version="1.0" encoding="iso-8859-1"?>
<!-- Generator: Adobe Illustrator 18.1.1, SVG Export Plug-In . SVG Version: 6.00 Build 0)  -->
<!DOCTYPE svg PUBLIC "-//W3C//DTD SVG 1.1//EN" "http://www.w3.org/Graphics/SVG/1.1/DTD/svg11.dtd" [
	<!ENTITY ns_extend "http://ns.adobe.com/Extensibility/1.0/">
	<!ENTITY ns_ai "http://ns.adobe.com/AdobeIllustrator/10.0/">
	<!ENTITY ns_graphs "http://ns.adobe.com/Graphs/1.0/">
	<!ENTITY ns_vars "http://ns.adobe.com/Variables/1.0/">
	<!ENTITY ns_imrep "http://ns.adobe.com/ImageReplacement/1.0/">
	<!ENTITY ns_sfw "http://ns.adobe.com/SaveForWeb/1.0/">
	<!ENTITY ns_custom "http://ns.adobe.com/GenericCustomNamespace/1.0/">
	<!ENTITY ns_adobe_xpath "http://ns.adobe.com/XPath/1.0/">
]>
<svg version="1.1" id="&#x56FE;&#x5C42;_1" xmlns:x="&ns_extend;" xmlns:i="&ns_ai;" xmlns:graph="&ns_graphs;"
	 xmlns="http://www.w3.org/2000/svg" xmlns:xlink="http://www.w3.org/1999/xlink" x="0px" y="0px" viewBox="0 0 20 20"
	 enable-background="new 0 0 20 20" xml:space="preserve">
<metadata>
	<sfw  xmlns="&ns_sfw;">
		<slices></slices>
		<sliceSourceBounds  width="708.507" height="497" y="-412.5" x="1.993" bottomLeftOrigin="true"></sliceSourceBounds>
	</sfw>
</metadata>
<g>
	<g>
		<path fill="#2EA7E0" d="M10,3c-3.866,0-7,3.135-7,7s3.134,7,7,7s7-3.135,7-7S13.866,3,10,3z M9.994,16.127
			c-0.141,0-0.278-0.012-0.416-0.021c-0.093-0.181-0.43-0.906-0.178-1.296c0,0,1.048-0.58,0.959-1.249c0,0,1.116-0.625,0.647-1.026
			c0,0,0.045-0.424,0.267-0.447c0,0,0.424-0.401-0.156-0.647c0,0-0.822-0.067-1.024-0.424c0,0-0.313-0.535-0.827-0.581
			c0,0-0.58-0.847-1.451-0.29c0,0-0.635,0.137-1.002-0.045c0.127,0.135,0.291,0.272,0.466,0.313c0,0,0.602,0.156,0.157,0.759
			c0,0-0.602,0.78,0.803,1.494c0,0,0.313,0.246,0.156,0.96c0,0-0.326,1.654,0.357,2.185C8.897,15.926,9.014,16,9.115,16.056
			c-2.961-0.429-5.246-2.977-5.246-6.055c0-0.685,0.117-1.34,0.325-1.955c0.122,0.308,0.223,0.083,0.531,0.268
			c0.365,0.219-0.256,0.42,0.203,0.583c0.458,0.164,0.253,0.037,0.418,0.475c0.164,0.439,0.731,0.351,0.731,0.351
			C6.713,9.508,6.022,9.978,6.81,10.05C6.811,10.05,6.812,10,6.814,10c-0.001,0-0.002,0-0.002,0C7.6,10,6.787,9.559,6.787,9.559
			c0.438-0.456-0.165-0.303-0.165-0.303C6.422,9.42,6.149,9.268,6.149,9.268c-0.548-0.329-0.127-0.76-0.127-0.76
			c0.985-0.785,1.13-0.197,1.13-0.197c0.019,0.474,0.256,0.458,0.256,0.458c0.42,0.018,0.457-0.474,0.457-0.474
			C7.827,7.912,8.12,7.894,8.12,7.894c0.512-0.256,0.555-0.512,0.555-0.512c0.172-0.565,0.649-0.419,0.649-0.419
			c0.64-0.128,0.311-0.365,0.311-0.365c-0.09-0.42,0.292,0.018,0.292,0.018c0.292,0.347,0.42,0,0.42,0
			c0.328-0.475-0.366-0.639-0.366-0.639c-0.054-0.419,0.347-0.104,0.293-0.816c0,0,0.054-0.398-0.329-0.51
			c0,0-0.401-0.041-0.073-0.388c0,0,0.227-0.256,0.406,0.073c0,0,0.269,0.273,0.743,0.037c0,0,0.729,0.182,0.381,0.529
			c0,0-0.274,0.711,0.347,0.529c0,0,0.224-0.219,0.517-0.216c0,0,0.562,0.143,0.908-0.387l0.045-0.025
			c0.401,0.25,0.774,0.54,1.106,0.872c-0.49-0.076-0.5,0.283-0.5,0.283c-0.498,0.476,0.207,0.476,0.207,0.476
			c0.456-0.092,0.292,0.347,0.292,0.347c0.274,0.109-0.073,0.295-0.073,0.295c-0.875,0.404-0.127,0.638-0.127,0.638
			c0.249,0.465-0.493,0.435-0.401,0.727c0,0-0.311,0.529-0.657,0.566c0,0-0.384,0.693,0.09,1.15c0,0,0.329,1.077,1.324,0.548
			c0,0,0.63-0.402,0.739,0.292c0,0,0.096,0.732,0.648,0.728C15.122,14.265,12.773,16.127,9.994,16.127z"/>
	</g>
</g>
</svg>
