<?xml version="1.0" encoding="iso-8859-1"?>
<!-- Generator: Adobe Illustrator 18.1.1, SVG Export Plug-In . SVG Version: 6.00 Build 0)  -->
<!DOCTYPE svg PUBLIC "-//W3C//DTD SVG 1.1//EN" "http://www.w3.org/Graphics/SVG/1.1/DTD/svg11.dtd" [
	<!ENTITY ns_extend "http://ns.adobe.com/Extensibility/1.0/">
	<!ENTITY ns_ai "http://ns.adobe.com/AdobeIllustrator/10.0/">
	<!ENTITY ns_graphs "http://ns.adobe.com/Graphs/1.0/">
	<!ENTITY ns_vars "http://ns.adobe.com/Variables/1.0/">
	<!ENTITY ns_imrep "http://ns.adobe.com/ImageReplacement/1.0/">
	<!ENTITY ns_sfw "http://ns.adobe.com/SaveForWeb/1.0/">
	<!ENTITY ns_custom "http://ns.adobe.com/GenericCustomNamespace/1.0/">
	<!ENTITY ns_adobe_xpath "http://ns.adobe.com/XPath/1.0/">
]>
<svg version="1.1" id="&#x56FE;&#x5C42;_1" xmlns:x="&ns_extend;" xmlns:i="&ns_ai;" xmlns:graph="&ns_graphs;"
	 xmlns="http://www.w3.org/2000/svg" xmlns:xlink="http://www.w3.org/1999/xlink" x="0px" y="0px" viewBox="0 0 20 20"
	 enable-background="new 0 0 20 20" xml:space="preserve">
<metadata>
	<sfw  xmlns="&ns_sfw;">
		<slices></slices>
		<sliceSourceBounds  width="708.507" height="497" y="-412.5" x="1.993" bottomLeftOrigin="true"></sliceSourceBounds>
	</sfw>
</metadata>
<g>
	<path fill="#2EA7E0" d="M16.844,7.979l-3.946-3.946c-0.172-0.17-0.436-0.207-0.649-0.093c-0.212,0.117-0.323,0.359-0.271,0.595
		c0.004,0.017,0.34,1.685-0.522,2.547l-1.228,1.23C9.998,8.544,9.63,8.646,9.038,8.646c-0.293,0-0.596-0.023-0.893-0.047
		c-0.316-0.024-0.629-0.047-0.92-0.047c-0.473,0-1.156,0.054-1.628,0.526c-0.212,0.213-0.212,0.559,0,0.773l2.273,2.284L3.999,16
		h1.699l3.038-2.999l2.27,2.264c0.107,0.106,0.247,0.157,0.386,0.157c0.14,0,0.279-0.054,0.386-0.161
		c0.672-0.674,0.582-1.642,0.493-2.578c-0.077-0.828-0.151-1.609,0.296-2.054l1.181-1.182c0.922-0.922,2.585-0.552,2.592-0.549
		c0.245,0.053,0.48-0.058,0.595-0.272C17.052,8.414,17.015,8.151,16.844,7.979z"/>
</g>
</svg>
