<?xml version="1.0" encoding="iso-8859-1"?>
<!-- Generator: Adobe Illustrator 18.1.1, SVG Export Plug-In . SVG Version: 6.00 Build 0)  -->
<!DOCTYPE svg PUBLIC "-//W3C//DTD SVG 1.1//EN" "http://www.w3.org/Graphics/SVG/1.1/DTD/svg11.dtd" [
	<!ENTITY ns_extend "http://ns.adobe.com/Extensibility/1.0/">
	<!ENTITY ns_ai "http://ns.adobe.com/AdobeIllustrator/10.0/">
	<!ENTITY ns_graphs "http://ns.adobe.com/Graphs/1.0/">
	<!ENTITY ns_vars "http://ns.adobe.com/Variables/1.0/">
	<!ENTITY ns_imrep "http://ns.adobe.com/ImageReplacement/1.0/">
	<!ENTITY ns_sfw "http://ns.adobe.com/SaveForWeb/1.0/">
	<!ENTITY ns_custom "http://ns.adobe.com/GenericCustomNamespace/1.0/">
	<!ENTITY ns_adobe_xpath "http://ns.adobe.com/XPath/1.0/">
]>
<svg version="1.1" id="&#x56FE;&#x5C42;_1" xmlns:x="&ns_extend;" xmlns:i="&ns_ai;" xmlns:graph="&ns_graphs;"
	 xmlns="http://www.w3.org/2000/svg" xmlns:xlink="http://www.w3.org/1999/xlink" x="0px" y="0px" viewBox="0 0 20 20"
	 enable-background="new 0 0 20 20" xml:space="preserve">
<metadata>
	<sfw  xmlns="&ns_sfw;">
		<slices></slices>
		<sliceSourceBounds  width="708.507" height="497" y="-412.5" x="1.993" bottomLeftOrigin="true"></sliceSourceBounds>
	</sfw>
</metadata>
<path fill="#2EA7E0" d="M16.946,12.219l-4.081-8.591c-0.003-0.007-0.01-0.011-0.013-0.018c-0.038-0.074-0.089-0.139-0.15-0.197
	c-0.016-0.016-0.032-0.03-0.049-0.044c-0.017-0.014-0.03-0.031-0.048-0.043c-0.02-0.013-0.046-0.01-0.067-0.021
	c-0.042-0.023-0.078-0.055-0.123-0.069c-0.044-0.014-0.09-0.008-0.135-0.014c-0.036-0.004-0.067-0.011-0.103-0.011
	c-0.124,0.002-0.247,0.024-0.357,0.086L3.363,8.062C3.271,8.113,3.2,8.187,3.138,8.268C3.125,8.286,3.112,8.302,3.101,8.32
	C3.048,8.405,3.01,8.497,2.994,8.597c-0.001,0.006-0.005,0.01-0.006,0.016C2.987,8.624,2.993,8.636,2.992,8.648
	C2.987,8.694,2.98,8.739,2.984,8.785l0.688,7.335c0.026,0.282,0.21,0.525,0.475,0.628C4.235,16.783,4.328,16.8,4.42,16.8
	c0.183,0,0.361-0.066,0.502-0.192l2.953-2.66l0.292,0.293c0.143,0.144,0.334,0.222,0.532,0.222c0.038,0,0.076-0.003,0.115-0.009
	l7.568-1.172c0.234-0.036,0.438-0.181,0.549-0.391C17.042,12.683,17.048,12.434,16.946,12.219z M7.933,11.878L4.958,8.885
	l6.308-3.554l-0.479,3.977L7.933,11.878z M5.027,14.494l-0.354-3.768l2.143,2.156L5.027,14.494z M9.037,12.901l2.962-2.667
	c0.135-0.122,0.221-0.288,0.242-0.468l0.38-3.155l2.538,5.343L9.037,12.901z"/>
</svg>
