<?xml version="1.0" encoding="iso-8859-1"?>
<!-- Generator: Adobe Illustrator 18.1.1, SVG Export Plug-In . SVG Version: 6.00 Build 0)  -->
<!DOCTYPE svg PUBLIC "-//W3C//DTD SVG 1.1//EN" "http://www.w3.org/Graphics/SVG/1.1/DTD/svg11.dtd" [
	<!ENTITY ns_extend "http://ns.adobe.com/Extensibility/1.0/">
	<!ENTITY ns_ai "http://ns.adobe.com/AdobeIllustrator/10.0/">
	<!ENTITY ns_graphs "http://ns.adobe.com/Graphs/1.0/">
	<!ENTITY ns_vars "http://ns.adobe.com/Variables/1.0/">
	<!ENTITY ns_imrep "http://ns.adobe.com/ImageReplacement/1.0/">
	<!ENTITY ns_sfw "http://ns.adobe.com/SaveForWeb/1.0/">
	<!ENTITY ns_custom "http://ns.adobe.com/GenericCustomNamespace/1.0/">
	<!ENTITY ns_adobe_xpath "http://ns.adobe.com/XPath/1.0/">
]>
<svg version="1.1" id="&#x56FE;&#x5C42;_1" xmlns:x="&ns_extend;" xmlns:i="&ns_ai;" xmlns:graph="&ns_graphs;"
	 xmlns="http://www.w3.org/2000/svg" xmlns:xlink="http://www.w3.org/1999/xlink" x="0px" y="0px" viewBox="0 0 20 20"
	 enable-background="new 0 0 20 20" xml:space="preserve">
<metadata>
	<sfw  xmlns="&ns_sfw;">
		<slices></slices>
		<sliceSourceBounds  width="708.507" height="497" y="-412.5" x="1.993" bottomLeftOrigin="true"></sliceSourceBounds>
	</sfw>
</metadata>
<g>
	<path fill="#2EA7E0" d="M16.021,9h-1.12c-0.126-1-0.376-1.214-0.718-1.738l0.787-0.782c0.389-0.389,0.389-1.023,0-1.412
		c-0.389-0.389-1.025-0.388-1.414,0.001l-0.786,0.776C12.246,5.493,12,5.239,11,5.106V4.021c0-0.55-0.45-1-1-1c-0.55,0-1,0.45-1,1
		v1.078C8,5.227,7.766,5.481,7.235,5.832L6.48,5.071c-0.389-0.389-1.023-0.389-1.412,0C4.68,5.46,4.681,6.096,5.07,6.485l0.761,0.75
		C5.48,7.765,5.227,8,5.099,9H4.021c-0.55,0-1,0.45-1,1s0.45,1,1,1h1.085c0.133,1,0.388,1.246,0.741,1.771l-0.775,0.78
		c-0.389,0.389-0.389,1.028,0,1.417s1.025,0.39,1.414,0.001l0.777-0.787C7.786,14.525,8,14.775,9,14.901v1.12c0,0.55,0.45,1,1,1
		c0.55,0,1-0.45,1-1v-1.126c1-0.131,1.225-0.382,1.744-0.726l0.807,0.802c0.389,0.389,1.028,0.389,1.417,0s0.39-1.025,0.001-1.414
		l-0.802-0.813C14.511,12.225,14.764,12,14.894,11h1.126c0.55,0,1-0.45,1-1S16.571,9,16.021,9z M10.004,12.01c-1.105,0-2-0.895-2-2
		c0-1.105,0.895-2,2-2c1.105,0,2,0.895,2,2C12.004,11.115,11.108,12.01,10.004,12.01z"/>
</g>
</svg>
