<?xml version="1.0" encoding="iso-8859-1"?>
<!-- Generator: Adobe Illustrator 18.1.1, SVG Export Plug-In . SVG Version: 6.00 Build 0)  -->
<!DOCTYPE svg PUBLIC "-//W3C//DTD SVG 1.1//EN" "http://www.w3.org/Graphics/SVG/1.1/DTD/svg11.dtd" [
	<!ENTITY ns_extend "http://ns.adobe.com/Extensibility/1.0/">
	<!ENTITY ns_ai "http://ns.adobe.com/AdobeIllustrator/10.0/">
	<!ENTITY ns_graphs "http://ns.adobe.com/Graphs/1.0/">
	<!ENTITY ns_vars "http://ns.adobe.com/Variables/1.0/">
	<!ENTITY ns_imrep "http://ns.adobe.com/ImageReplacement/1.0/">
	<!ENTITY ns_sfw "http://ns.adobe.com/SaveForWeb/1.0/">
	<!ENTITY ns_custom "http://ns.adobe.com/GenericCustomNamespace/1.0/">
	<!ENTITY ns_adobe_xpath "http://ns.adobe.com/XPath/1.0/">
]>
<svg version="1.1" id="&#x56FE;&#x5C42;_1" xmlns:x="&ns_extend;" xmlns:i="&ns_ai;" xmlns:graph="&ns_graphs;"
	 xmlns="http://www.w3.org/2000/svg" xmlns:xlink="http://www.w3.org/1999/xlink" x="0px" y="0px" viewBox="0 0 20 20"
	 enable-background="new 0 0 20 20" xml:space="preserve">
<metadata>
	<sfw  xmlns="&ns_sfw;">
		<slices></slices>
		<sliceSourceBounds  width="708.507" height="497" y="-412.5" x="1.993" bottomLeftOrigin="true"></sliceSourceBounds>
	</sfw>
</metadata>
<g>
	<path fill="#2EA7E0" d="M16.603,7.46c-0.233-0.063-0.484,0.017-0.614,0.208C15.98,7.682,15.036,9,13.817,9h-1.438
		c-0.327,0-0.659-0.168-1.078-0.56c-0.207-0.193-0.405-0.405-0.599-0.618c-0.207-0.225-0.411-0.445-0.618-0.637
		C9.75,6.873,9.222,6.458,8.554,6.457C8.253,6.458,8,6.687,8,6.969V10H2.5l1,1H8v3.118c0,0.141,0.07,0.268,0.168,0.36
		s0.239,0.149,0.39,0.15c0.952-0.001,1.574-0.745,2.174-1.422C11.262,12.609,11.764,12,12.395,12h1.37
		c1.304,0,2.218,1.388,2.221,1.395c0.135,0.197,0.384,0.301,0.617,0.236C16.836,13.567,17,13.391,17,13.164V7.95
		C17,7.724,16.834,7.525,16.603,7.46z"/>
</g>
</svg>
