<?xml version="1.0" encoding="iso-8859-1"?>
<!-- Generator: Adobe Illustrator 18.1.1, SVG Export Plug-In . SVG Version: 6.00 Build 0)  -->
<!DOCTYPE svg PUBLIC "-//W3C//DTD SVG 1.1//EN" "http://www.w3.org/Graphics/SVG/1.1/DTD/svg11.dtd" [
	<!ENTITY ns_extend "http://ns.adobe.com/Extensibility/1.0/">
	<!ENTITY ns_ai "http://ns.adobe.com/AdobeIllustrator/10.0/">
	<!ENTITY ns_graphs "http://ns.adobe.com/Graphs/1.0/">
	<!ENTITY ns_vars "http://ns.adobe.com/Variables/1.0/">
	<!ENTITY ns_imrep "http://ns.adobe.com/ImageReplacement/1.0/">
	<!ENTITY ns_sfw "http://ns.adobe.com/SaveForWeb/1.0/">
	<!ENTITY ns_custom "http://ns.adobe.com/GenericCustomNamespace/1.0/">
	<!ENTITY ns_adobe_xpath "http://ns.adobe.com/XPath/1.0/">
]>
<svg version="1.1" id="&#x56FE;&#x5C42;_1" xmlns:x="&ns_extend;" xmlns:i="&ns_ai;" xmlns:graph="&ns_graphs;"
	 xmlns="http://www.w3.org/2000/svg" xmlns:xlink="http://www.w3.org/1999/xlink" x="0px" y="0px" viewBox="0 0 20 20"
	 enable-background="new 0 0 20 20" xml:space="preserve">
<metadata>
	<sfw  xmlns="&ns_sfw;">
		<slices></slices>
		<sliceSourceBounds  width="708.507" height="497" y="-412.5" x="1.993" bottomLeftOrigin="true"></sliceSourceBounds>
	</sfw>
</metadata>
<g>
	<path fill="#2EA7E0" d="M14.115,4h-9.23C3.846,4,3,4.846,3,5.885v9.23C3,16.154,3.846,17,4.885,17h9.23
		C15.154,17,16,16.154,16,15.115v-9.23C16,4.846,15.154,4,14.115,4z M15,15.115C15,15.604,14.604,16,14.115,16h-9.23
		C4.396,16,4,15.604,4,15.115v-9.23C4,5.396,4.396,5,4.885,5h9.23C14.604,5,15,5.396,15,5.885V15.115z"/>
	<polygon fill="#2EA7E0" points="11,12 13,12 13,11 11,11 11,10 10,10 10,11 8,11 8,12 10,12 10,13 8,13 8,14 10,14 10,15 11,15 
		11,14 14,14 14,13 11,13 	"/>
	<path fill="#2EA7E0" d="M9.643,8.728C8.924,9.042,8.09,9.242,7.158,9.389L7.013,9.396L7.094,9.52
		c0.137,0.22,0.262,0.452,0.374,0.697l0.033,0.069l0.072-0.019c1.106-0.274,2.074-0.624,2.88-1.04
		c0.759,0.438,1.692,0.759,2.776,0.955l0.068,0.013l0.031-0.066c0.118-0.254,0.242-0.502,0.368-0.736l0.072-0.134l-0.143-0.016
		c-0.865-0.092-1.629-0.294-2.274-0.57C11.907,8.318,12.675,7.516,12.734,7H13V6H8v1h0.291C8.832,7.838,9.031,8.143,9.643,8.728z
		 M11.766,7c-0.203,0.516-0.656,0.981-1.268,1.352C9.963,7.99,9.423,7.221,9.217,7H11.766z"/>
	<path fill="#2EA7E0" d="M6.497,8.056l0.063,0.081l0.814-0.685L7.306,7.375C6.838,6.858,6.339,6.333,5.82,5.814L5.758,5.751
		L5.022,6.34l0.073,0.078C5.6,6.965,6.07,7.516,6.497,8.056z"/>
	<path fill="#2EA7E0" d="M7,13.02V9H5v1h1v3.381c0,0.335-0.576,0.822-0.576,0.822l0.513,0.766l1.643-1.239l-0.075-1.089L7,13.02z"/>
</g>
</svg>
