<?xml version="1.0" encoding="iso-8859-1"?>
<!-- Generator: Adobe Illustrator 18.1.1, SVG Export Plug-In . SVG Version: 6.00 Build 0)  -->
<!DOCTYPE svg PUBLIC "-//W3C//DTD SVG 1.1//EN" "http://www.w3.org/Graphics/SVG/1.1/DTD/svg11.dtd" [
	<!ENTITY ns_extend "http://ns.adobe.com/Extensibility/1.0/">
	<!ENTITY ns_ai "http://ns.adobe.com/AdobeIllustrator/10.0/">
	<!ENTITY ns_graphs "http://ns.adobe.com/Graphs/1.0/">
	<!ENTITY ns_vars "http://ns.adobe.com/Variables/1.0/">
	<!ENTITY ns_imrep "http://ns.adobe.com/ImageReplacement/1.0/">
	<!ENTITY ns_sfw "http://ns.adobe.com/SaveForWeb/1.0/">
	<!ENTITY ns_custom "http://ns.adobe.com/GenericCustomNamespace/1.0/">
	<!ENTITY ns_adobe_xpath "http://ns.adobe.com/XPath/1.0/">
]>
<svg version="1.1" id="&#x56FE;&#x5C42;_1" xmlns:x="&ns_extend;" xmlns:i="&ns_ai;" xmlns:graph="&ns_graphs;"
	 xmlns="http://www.w3.org/2000/svg" xmlns:xlink="http://www.w3.org/1999/xlink" x="0px" y="0px" viewBox="0 0 20 20"
	 enable-background="new 0 0 20 20" xml:space="preserve">
<metadata>
	<sfw  xmlns="&ns_sfw;">
		<slices></slices>
		<sliceSourceBounds  width="708.507" height="497" y="-412.5" x="1.993" bottomLeftOrigin="true"></sliceSourceBounds>
	</sfw>
</metadata>
<g>
	<path fill="#2EA7E0" d="M11.68,3.086c-0.192-0.073-0.412-0.022-0.55,0.131L7.69,7H4.5C4.224,7,4,7.224,4,7.5v6
		C4,13.776,4.224,14,4.5,14h3.273l3.351,3.829C11.221,17.939,11.359,18,11.5,18c0.059,0,0.119-0.011,0.176-0.032
		C11.871,17.895,12,17.708,12,17.5V3.553C12,3.346,11.873,3.161,11.68,3.086z M11,16.169l-2.624-2.998C8.281,13.063,8.144,13,8,13H5
		V8h2.911c0.141,0,0.275-0.06,0.37-0.164L11,4.846V16.169z"/>
	<rect x="13" y="10" fill="#2EA7E0" width="4" height="1"/>
	<rect x="14" y="5" transform="matrix(0.7071 0.7071 -0.7071 0.7071 8.8431 -8.3492)" fill="#2EA7E0" width="1" height="3"/>
	<rect x="13" y="14" transform="matrix(-0.7071 -0.7071 0.7071 -0.7071 14.5 35.0061)" fill="#2EA7E0" width="3" height="1"/>
</g>
</svg>
