<?xml version="1.0" encoding="iso-8859-1"?>
<!-- Generator: Adobe Illustrator 18.1.1, SVG Export Plug-In . SVG Version: 6.00 Build 0)  -->
<!DOCTYPE svg PUBLIC "-//W3C//DTD SVG 1.1//EN" "http://www.w3.org/Graphics/SVG/1.1/DTD/svg11.dtd" [
	<!ENTITY ns_extend "http://ns.adobe.com/Extensibility/1.0/">
	<!ENTITY ns_ai "http://ns.adobe.com/AdobeIllustrator/10.0/">
	<!ENTITY ns_graphs "http://ns.adobe.com/Graphs/1.0/">
	<!ENTITY ns_vars "http://ns.adobe.com/Variables/1.0/">
	<!ENTITY ns_imrep "http://ns.adobe.com/ImageReplacement/1.0/">
	<!ENTITY ns_sfw "http://ns.adobe.com/SaveForWeb/1.0/">
	<!ENTITY ns_custom "http://ns.adobe.com/GenericCustomNamespace/1.0/">
	<!ENTITY ns_adobe_xpath "http://ns.adobe.com/XPath/1.0/">
]>
<svg version="1.1" id="&#x56FE;&#x5C42;_1" xmlns:x="&ns_extend;" xmlns:i="&ns_ai;" xmlns:graph="&ns_graphs;"
	 xmlns="http://www.w3.org/2000/svg" xmlns:xlink="http://www.w3.org/1999/xlink" x="0px" y="0px" viewBox="0 0 20 20"
	 enable-background="new 0 0 20 20" xml:space="preserve">
<metadata>
	<sfw  xmlns="&ns_sfw;">
		<slices></slices>
		<sliceSourceBounds  width="708.507" height="497" x="1.993" y="-412.5" bottomLeftOrigin="true"></sliceSourceBounds>
	</sfw>
</metadata>
<path fill="#2EA7E0" d="M12.999,10.918l-1.925-1.722C11.471,8.549,11.7,7.789,11.7,6.974c0-2.349-1.904-4.253-4.253-4.253
	c-2.349,0-4.253,1.904-4.253,4.253c0,2.349,1.904,4.253,4.253,4.253c0.809,0,1.564-0.226,2.208-0.617l1.724,1.927
	c0.064,0.064,0.167,0.064,0.231,0c0,0,0.299-0.221,0.733-0.655c0.434-0.434,0.655-0.733,0.655-0.733
	C13.063,11.085,13.063,10.982,12.999,10.918z M7.448,9.361c-1.318,0-2.386-1.068-2.386-2.386S6.13,4.588,7.448,4.588
	c1.318,0,2.386,1.068,2.386,2.386S8.766,9.361,7.448,9.361z"/>
<path fill="#2EA7E0" d="M17.932,5.008l-4.937-1.656c0,0-0.724,1.124-0.85,1.32c0.373,0.639,0.533,1.47,0.533,1.47l0.572-1.012
	l2.198,0.828c-1.176,3.057-1.135,6.226-1.135,6.226l-1.647,1.647c0,0-3.169-0.041-6.226,1.135l-0.828-2.198l1.012-0.572
	c0,0-0.831-0.16-1.47-0.533c-0.196,0.126-1.32,0.85-1.32,0.85L5.49,17.45c0,0,2.372-2.177,8.178-1.656l2.608-2.608
	C15.755,7.38,17.932,5.008,17.932,5.008z"/>
</svg>
