<?xml version="1.0" encoding="UTF-8" standalone="no"?>
<!-- Generator: Adobe Illustrator 18.0.0, SVG Export Plug-In . SVG Version: 6.00 Build 0)  -->

<svg
   xmlns:dc="http://purl.org/dc/elements/1.1/"
   xmlns:cc="http://creativecommons.org/ns#"
   xmlns:rdf="http://www.w3.org/1999/02/22-rdf-syntax-ns#"
   xmlns:svg="http://www.w3.org/2000/svg"
   xmlns="http://www.w3.org/2000/svg"
   xmlns:sodipodi="http://sodipodi.sourceforge.net/DTD/sodipodi-0.dtd"
   xmlns:inkscape="http://www.inkscape.org/namespaces/inkscape"
   version="1.1"
   id="图层_1"
   x="0px"
   y="0px"
   viewBox="0 0 30 20"
   enable-background="new 0 0 30 20"
   xml:space="preserve"
   sodipodi:docname="Shift.svg"
   width="30"
   height="20"
   inkscape:version="0.92.1 r15371"><metadata
     id="metadata27"><rdf:RDF><cc:Work
         rdf:about=""><dc:format>image/svg+xml</dc:format><dc:type
           rdf:resource="http://purl.org/dc/dcmitype/StillImage" /><dc:title></dc:title></cc:Work></rdf:RDF></metadata><defs
     id="defs25" /><sodipodi:namedview
     pagecolor="#ffffff"
     bordercolor="#666666"
     borderopacity="1"
     objecttolerance="10"
     gridtolerance="10"
     guidetolerance="10"
     inkscape:pageopacity="0"
     inkscape:pageshadow="2"
     inkscape:window-width="836"
     inkscape:window-height="480"
     id="namedview23"
     showgrid="false"
     fit-margin-top="0"
     fit-margin-left="0"
     fit-margin-right="0"
     fit-margin-bottom="0"
     inkscape:zoom="10.7"
     inkscape:cx="15"
     inkscape:cy="10"
     inkscape:window-x="0"
     inkscape:window-y="0"
     inkscape:window-maximized="0"
     inkscape:current-layer="图层_1" /><g
     id="g20"><path
       d="M 25.667,19.492 H 4.333 C 2.225,19.492 0.5,17.767 0.5,15.659 V 4.325 C 0.5,2.217 2.225,0.492 4.333,0.492 h 21.334 c 2.108,0 3.833,1.725 3.833,3.833 v 11.334 c 0,2.108 -1.725,3.833 -3.833,3.833 z"
       id="path2"
       inkscape:connector-curvature="0"
       style="opacity:0.1;fill:#ffffff" /><path
       d="M 16,14 H 15 V 10.522 C 15,9.307 14.493,8.7 13.643,8.7 13.208,8.7 12.783,8.878 12.495,9.233 12.208,9.587 12,10.033 12,10.572 V 14 H 11 V 5 h 1 v 4 h 0.065 C 12.501,8 13.2,7.84 14.001,7.84 15.28,7.84 16,8.636 16,10.277 Z"
       id="path4"
       inkscape:connector-curvature="0" /><path
       d="m 16.895,6.688 c 0,-0.169 0.058,-0.311 0.174,-0.427 0.115,-0.116 0.258,-0.173 0.427,-0.173 0.173,0 0.318,0.057 0.438,0.17 0.118,0.114 0.178,0.258 0.178,0.43 0,0.17 -0.06,0.311 -0.178,0.423 C 17.815,7.223 17.669,7.28 17.496,7.28 17.324,7.28 17.181,7.223 17.066,7.111 16.952,6.998 16.895,6.857 16.895,6.688 Z"
       id="path6"
       inkscape:connector-curvature="0" /><rect
       x="17"
       y="8"
       width="1"
       height="6"
       id="rect8" /><path
       d="M 22.441,6.911 C 22.262,6.819 22.069,6.772 21.86,6.772 c -0.599,0 -0.898,0.366 -0.898,1.098 V 8 h 1.054 v 1 h -1.054 v 4.992 H 20.015 V 9 H 19 V 8 h 1.015 V 7.826 c 0,-0.571 0.167,-1.019 0.501,-1.346 0.333,-0.327 0.758,-0.488 1.271,-0.488 0.273,0 0.492,0.03 0.654,0.091 z"
       id="path10"
       inkscape:connector-curvature="0" /><path
       stroke-miterlimit="10"
       d="m 25.5,19.5 h -21 c -2.209,0 -4,-1.791 -4,-4 v -11 c 0,-2.209 1.791,-4 4,-4 h 21 c 2.209,0 4,1.791 4,4 v 11 c 0,2.209 -1.791,4 -4,4 z"
       id="path12"
       inkscape:connector-curvature="0"
       style="fill:none;stroke:#cbcbcb;stroke-miterlimit:10" /><g
       id="g16"><path
         d="M 6.451,13.992 C 6.068,13.992 5.614,13.943 5.102,13.847 4.597,13.752 4.225,13.634 3.998,13.495 l 0.035,-1.277 c 0.29,0.194 0.654,0.359 1.087,0.49 0.511,0.156 1.006,0.235 1.469,0.235 1.386,0 2.187,-0.195 2.187,-1.189 0,-0.271 -0.082,-0.518 -0.243,-0.735 C 8.378,10.811 8.162,10.624 7.892,10.463 7.628,10.307 7.147,10.074 6.422,9.751 5.451,9.315 4.805,8.907 4.502,8.54 4.203,8.181 4.052,7.763 4.052,7.299 4.052,6.59 4.361,6.042 4.995,5.625 5.633,5.205 6.678,4.992 7.657,4.992 8.367,4.992 8.989,5.151 10,5.477 V 6.486 C 8.989,6.203 8.533,5.906 7.587,5.906 c -0.619,0 -1.245,0.12 -1.64,0.357 -0.399,0.239 -0.701,0.48 -0.701,0.939 0,0.39 0.116,0.713 0.402,0.958 0.272,0.234 0.828,0.542 1.726,0.942 0.953,0.411 1.618,0.825 1.993,1.23 0.367,0.396 0.55,0.847 0.55,1.339 0,0.752 -0.296,1.312 -0.9,1.714 -0.608,0.402 -1.473,0.607 -2.566,0.607 z"
         id="path14"
         inkscape:connector-curvature="0" /></g><path
       d="m 26,13.811 c 0,0.114 -0.342,0.171 -0.697,0.171 C 24.336,13.982 24,13.447 24,12.376 V 9 H 23 V 8 h 1 V 6.728 L 25,6.425 V 8 h 1 v 1 h -1 v 3.204 c 0,0.355 -0.027,0.612 0.094,0.765 0.121,0.153 0.232,0.227 0.512,0.227 0.215,0 0.394,-0.181 0.394,-0.181 z"
       id="path18"
       inkscape:connector-curvature="0" /></g></svg>