<?xml version="1.0" encoding="utf-8"?>
<!-- Generator: Adobe Illustrator 16.0.0, SVG Export Plug-In . SVG Version: 6.00 Build 0)  -->
<!DOCTYPE svg PUBLIC "-//W3C//DTD SVG 1.1//EN" "http://www.w3.org/Graphics/SVG/1.1/DTD/svg11.dtd">
<svg version="1.1" id="图层_1" xmlns="http://www.w3.org/2000/svg" xmlns:xlink="http://www.w3.org/1999/xlink" x="0px" y="0px"
	 width="24px" height="24px" viewBox="0 0 24 24" enable-background="new 0 0 24 24" xml:space="preserve">
<filter  id="filter-3" y="-20.8%" x="-29.2%" width="158.3%" height="158.3%" filterUnits="objectBoundingBox">
	<feOffset  result="shadowOffsetOuter1" in="SourceAlpha" dy="2" dx="0"></feOffset>
	<feGaussianBlur  result="shadowBlurOuter1" in="shadowOffsetOuter1" stdDeviation="2"></feGaussianBlur>
	<feComposite  in2="SourceAlpha" result="shadowBlurOuter1" in="shadowBlurOuter1" operator="out"></feComposite>
	<feColorMatrix  values="0 0 0 0 0   0 0 0 0 0   0 0 0 0 0  0 0 0 0.05 0" in="shadowBlurOuter1" type="matrix"></feColorMatrix>
</filter>
<title>切片</title>
<desc>Created with Sketch.</desc>
<g id="分组-7">
	<g id="矩形">
		<g filter="url(#filter-3)">
			<path id="path-2_2_" d="M5,0h14c2.762,0,5,2.239,5,5v14c0,2.762-2.238,5-5,5H5c-2.761,0-5-2.238-5-5V5C0,2.239,2.239,0,5,0z"/>
		</g>
		<g>
			<path id="path-2_1_" fill-opacity="0.08" d="M5,0h14c2.762,0,5,2.239,5,5v14c0,2.762-2.238,5-5,5H5c-2.761,0-5-2.238-5-5V5
				C0,2.239,2.239,0,5,0z"/>
		</g>
		
			<linearGradient id="SVGID_1_" gradientUnits="userSpaceOnUse" x1="-272.2231" y1="415.7861" x2="-272.2231" y2="414.8296" gradientTransform="matrix(23 0 0 -23 6273.1406 9563.5625)">
			<stop  offset="0" style="stop-color:#E6E6E6"/>
			<stop  offset="1" style="stop-color:#E3E3E3"/>
		</linearGradient>
		<path fill="url(#SVGID_1_)" stroke="#000000" stroke-opacity="0.03" d="M5.5,0.5h13c2.762,0,5,2.239,5,5v13c0,2.762-2.238,5-5,5
			h-13c-2.761,0-5-2.238-5-5v-13C0.5,2.739,2.739,0.5,5.5,0.5z"/>
	</g>
	<g id="会议-icon" transform="translate(3.333333, 6.000000)">
		<g id="形状结合">
			<path fill="#536076" d="M16.792,10.02c0.745,0,1.354,0.652,1.354,1.45c0,0.797-0.608,1.448-1.354,1.448H0.542
				c-0.744,0-1.354-0.651-1.354-1.448c0-0.798,0.609-1.45,1.354-1.45H16.792z M9.604,4.186c1.938,0,3.438,1.925,3.438,3.208
				c0,0.292,0,1.166-1.25,1.166h-6.25c-1.25,0-1.25-0.874-1.25-1.166c0-1.283,1.5-3.208,3.438-3.208H9.604z M3.338,4.661
				C3.467,4.75,3.604,4.83,3.749,4.896c-0.454,0.763-0.742,1.592-0.86,2.467L2.861,7.449v0.159c-0.01,0.099-0.017,0.199-0.022,0.299
				L2.836,7.943v0.14l0.014,0.103c0.019,0.127,0.048,0.253,0.089,0.375h-1.72c-0.292,0-0.533-0.216-0.572-0.496
				C0.651,7.98,0.658,7.896,0.667,7.813c0.144-1.31,0.867-2.448,1.911-3.152C2.806,4.501,3.109,4.504,3.338,4.661z M14.785,4.641
				c0.909,0.704,1.541,1.834,1.666,3.131c0.007,0.08,0.013,0.163,0.016,0.249c-0.018,0.127-0.069,0.241-0.146,0.327
				c-0.093,0.105-0.222,0.171-0.362,0.171h-1.534c0.037-0.122,0.063-0.249,0.079-0.376l0.019-0.137l-0.006-0.14
				c-0.006-0.125-0.015-0.252-0.026-0.378C14.4,6.557,14.058,5.671,13.645,4.88c0.136-0.068,0.343-0.151,0.467-0.245
				C14.315,4.481,14.582,4.483,14.785,4.641z M12.102-0.189c1.154-0.002,2.092,1.05,2.092,2.352c0,0.991-0.545,1.841-1.316,2.188
				c-0.358-0.547-0.792-1.032-1.295-1.436c0.025-0.059,0.049-0.119,0.071-0.18c0.194-0.52,0.294-1.071,0.294-1.636
				c0-0.431-0.057-0.854-0.171-1.26C11.883-0.18,11.991-0.189,12.102-0.189z M5.19-0.189c0.125,0,0.248,0.009,0.369,0.03
				C5.431,0.246,5.368,0.667,5.368,1.098C5.365,1.666,5.477,2.215,5.696,2.734C5.716,2.782,5.737,2.83,5.76,2.877
				C5.192,3.279,4.685,3.772,4.268,4.331C3.424,3.973,2.834,3.137,2.834,2.165C2.834,0.866,3.887-0.189,5.19-0.189z M8.713-0.918
				c1.228,0,2.233,0.984,2.233,2.188S9.94,3.457,8.713,3.457c-1.229,0-2.233-0.984-2.233-2.188S7.484-0.918,8.713-0.918z"/>
		</g>
	</g>
</g>
</svg>
