<?xml version="1.0" encoding="UTF-8"?>
<svg width="96px" height="96px" viewBox="0 0 96 96" version="1.1" xmlns="http://www.w3.org/2000/svg" xmlns:xlink="http://www.w3.org/1999/xlink">
    <!-- Generator: Sketch 58 (84663) - https://sketch.com -->
    <title>设备管理/压缩</title>
    <desc>Created with Sketch.</desc>
    <defs>
        <filter x="-4.4%" y="-4.4%" width="108.9%" height="108.9%" filterUnits="objectBoundingBox" id="filter-1">
            <feOffset dx="0" dy="1" in="SourceAlpha" result="shadowOffsetOuter1"></feOffset>
            <feGaussianBlur stdDeviation="0.5" in="shadowOffsetOuter1" result="shadowBlurOuter1"></feGaussianBlur>
            <feComposite in="shadowBlurOuter1" in2="SourceAlpha" operator="out" result="shadowBlurOuter1"></feComposite>
            <feColorMatrix values="0 0 0 0 0   0 0 0 0 0   0 0 0 0 0  0 0 0 0.15 0" type="matrix" in="shadowBlurOuter1" result="shadowMatrixOuter1"></feColorMatrix>
            <feMerge>
                <feMergeNode in="shadowMatrixOuter1"></feMergeNode>
                <feMergeNode in="SourceGraphic"></feMergeNode>
            </feMerge>
        </filter>
        <linearGradient x1="52.6111718%" y1="101.319636%" x2="47.9444041%" y2="2.22044605e-14%" id="linearGradient-2">
            <stop stop-color="#410DD9" offset="0%"></stop>
            <stop stop-color="#2F54F8" offset="100%"></stop>
        </linearGradient>
        <circle id="path-3" cx="45" cy="45" r="28.6363636"></circle>
        <filter x="-2.6%" y="-2.6%" width="105.2%" height="105.2%" filterUnits="objectBoundingBox" id="filter-4">
            <feGaussianBlur stdDeviation="1" in="SourceAlpha" result="shadowBlurInner1"></feGaussianBlur>
            <feOffset dx="0" dy="1" in="shadowBlurInner1" result="shadowOffsetInner1"></feOffset>
            <feComposite in="shadowOffsetInner1" in2="SourceAlpha" operator="arithmetic" k2="-1" k3="1" result="shadowInnerInner1"></feComposite>
            <feColorMatrix values="0 0 0 0 0   0 0 0 0 0   0 0 0 0 0  0 0 0 0.5 0" type="matrix" in="shadowInnerInner1"></feColorMatrix>
        </filter>
        <radialGradient cx="50%" cy="50%" fx="50%" fy="50%" r="50.3926794%" gradientTransform="translate(0.500000,0.500000),scale(0.999957,1.000000),rotate(90.000000),scale(1.000000,0.950670),translate(-0.500000,-0.500000)" id="radialGradient-5">
            <stop stop-color="#E2E5ED" offset="0%"></stop>
            <stop stop-color="#9DA3B5" offset="48.4048274%"></stop>
            <stop stop-color="#E7ECFF" offset="100%"></stop>
        </radialGradient>
    </defs>
    <g id="页面-1" stroke="none" stroke-width="1" fill="none" fill-rule="evenodd">
        <g id="设备管理/压缩-96px-2">
            <g id="preferences-system-32px">
                <g id="13-settings" filter="url(#filter-1)" transform="translate(3.000000, 3.000000)">
                    <circle id="Oval" fill="url(#linearGradient-2)" cx="45" cy="45" r="45"></circle>
                    <g id="Oval">
                        <use fill-opacity="0.5" fill="#000000" fill-rule="evenodd" xlink:href="#path-3"></use>
                        <use fill="black" fill-opacity="1" filter="url(#filter-4)" xlink:href="#path-3"></use>
                    </g>
                    <g id="Group-12" transform="translate(4.090909, 4.090909)">
                        <path d="M43.8503642,16.3636599 C45.3700222,16.545135 46.8470374,16.8654557 48.2683626,17.3115748 L47.9701878,20.6436455 C49.1145475,21.0675245 50.2112677,21.5914803 51.2500056,22.2050433 L53.7317957,19.8007915 C55.0047453,20.5821799 56.2009614,21.4764201 57.3065138,22.4695821 L55.496507,25.5340277 C56.3693067,26.4245918 57.1630685,27.3946451 57.8662567,28.4325107 L61.4277517,27.2588314 C62.2233097,28.4677163 62.9149064,29.7510973 63.4898198,31.0962526 L60.2831575,33.2370117 C60.7080427,34.4514339 61.0246494,35.7176903 61.2212302,37.0238897 L65.2530341,37.5748213 C65.3859917,38.6093371 65.4545455,39.6640144 65.4545455,40.7347033 C65.4545455,41.0911405 65.446948,41.4458033 65.4319061,41.7985384 L61.345629,42.3571985 C61.2050417,43.7268264 60.9331521,45.0569626 60.5429242,46.3344843 L64.1244614,48.7255762 C63.6752954,50.0307741 63.1191605,51.2861953 62.4665289,52.4813673 L58.3803413,51.1349146 C57.6476975,52.3298912 56.7987431,53.4441545 55.8494883,54.4614984 L58.0944725,58.2601807 C57.1378221,59.1983813 56.1046855,60.0588733 55.0052806,60.831439 L51.8605185,57.7844296 C50.6687316,58.5458029 49.3942382,59.1865804 48.0537636,59.6898318 L48.4486318,64.1004795 C47.2001452,64.5030296 45.9079721,64.8082949 44.5810444,65.0073432 L43.0488358,60.8702596 C42.3455121,60.943925 41.6316571,60.9816789 40.9090909,60.9816789 C40.1865248,60.9816789 39.4726697,60.943925 38.769346,60.8702596 L37.2371374,65.0073432 C35.9102097,64.8082949 34.6180366,64.5030296 33.36955,64.1004795 L33.7644182,59.6898318 C32.4239436,59.1865804 31.1494502,58.5458029 29.9576633,57.7844296 L26.8129012,60.831439 C25.7134963,60.0588733 24.6803598,59.1983813 23.7237093,58.2601807 L25.9686936,54.4614984 C25.0194387,53.4441545 24.1704843,52.3298912 23.4378406,51.1349146 L19.3516529,52.4813673 C18.6990213,51.2861953 18.1428864,50.0307741 17.6937204,48.7255762 L21.2752576,46.3344843 C20.8850297,45.0569626 20.6131401,43.7268264 20.4725528,42.3571985 L16.3862758,41.7985384 C16.3712339,41.4458033 16.3636364,41.0911405 16.3636364,40.7347033 C16.3636364,39.6640144 16.4321901,38.6093371 16.5651478,37.5748213 L20.5969516,37.0238897 C20.7935325,35.7176903 21.1101391,34.4514339 21.5350243,33.2370117 L18.328362,31.0962526 C18.9032754,29.7510973 19.5948721,28.4677163 20.3904301,27.2588314 L23.9519251,28.4325107 C24.6551133,27.3946451 25.4488751,26.4245918 26.3216749,25.5340277 L24.511668,22.4695821 C25.6174134,21.4762468 26.8138541,20.5818677 28.0870526,19.8003824 L30.5681762,22.2050433 C31.6069141,21.5914803 32.7036343,21.0675245 33.847994,20.6436455 L33.5498192,17.3115748 C34.9711444,16.8654557 36.4481596,16.545135 37.9678176,16.3636599 L39.1149281,19.4611601 C39.7061747,19.4093897 40.3045843,19.382965 40.9090909,19.382965 C41.5135975,19.382965 42.1120071,19.4093897 42.7032537,19.4611601 Z M40.9090909,23.7989367 C31.8717041,23.7989367 24.5454545,31.1251863 24.5454545,40.1625731 C24.5454545,49.1999599 31.8717041,56.5262095 40.9090909,56.5262095 C49.9464777,56.5262095 57.2727273,49.1999599 57.2727273,40.1625731 C57.2727273,31.1251863 49.9464777,23.7989367 40.9090909,23.7989367 Z" id="Combined-Shape" fill="#585F6C"></path>
                        <path d="M35.2758623,0.223027817 L37.6835523,7.2077183 C37.7837975,7.49834432 38.0661141,7.68598024 38.3728807,7.66580877 C39.4673042,7.5938448 40.3122983,7.55786282 40.9078628,7.55786282 C41.5034311,7.55786282 42.3484321,7.59384526 43.4428658,7.66581013 C43.7496578,7.68597896 44.0319976,7.49832767 44.1321941,7.20765818 L46.5398633,0.223027817 C46.6532494,-0.105904468 46.9961155,-0.296700666 47.3354082,-0.219672608 L52.2800584,0.902888543 C52.6178196,0.979568897 52.8444237,1.29729874 52.8069185,1.6416181 L52.0025874,9.02584531 C51.9712546,9.3134991 52.1248998,9.58960054 52.3858644,9.7145963 L57.0917092,11.9685828 C57.3544574,12.0944328 57.6681385,12.0394357 57.8724006,11.8317055 L63.0399353,6.57643456 C63.2843575,6.32786254 63.6769187,6.30370568 63.9499738,6.52043395 L67.9287626,9.67846326 C68.1989078,9.89288186 68.2663894,10.275266 68.0859563,10.5692008 L64.2299949,16.8507603 C64.0785368,17.0974932 64.0994111,17.4129725 64.2820576,17.6375988 L67.7033684,21.845271 C67.8854109,22.0691546 68.1886762,22.1541998 68.460587,22.0576191 L75.3732755,19.6022839 C75.6987152,19.4866901 76.059188,19.632685 76.2124688,19.9421649 L78.4618095,24.4836714 C78.6158858,24.7947574 78.5116242,25.1719438 78.2196492,25.3597327 L72.0945992,29.2991677 C71.8493296,29.4569172 71.7315391,29.7531886 71.8015401,30.0362822 L73.1691729,35.5671817 C73.2374171,35.8431708 73.4697492,36.0478463 73.7521398,36.0807525 L81.0598504,36.932302 C81.3917581,36.9709784 81.6467262,37.2444966 81.6620359,37.5782992 L81.8158284,40.9314764 C81.8165784,40.9478287 81.8167392,40.9642027 81.8163106,40.9805666 L81.7730143,42.6336353 C81.7641323,42.9727502 81.5072977,43.2537551 81.1703464,43.2930192 L73.9754687,44.1314206 C73.6816078,44.1656635 73.4433617,44.3855097 73.3856606,44.6756776 L72.2255397,50.5097039 C72.1709098,50.7844276 72.2898569,51.0646129 72.52544,51.2161324 L78.754842,55.2226832 C79.0389042,55.4053828 79.1464015,55.7685121 79.0075685,56.0764015 L76.9918063,60.546751 C76.8459539,60.8702076 76.4764016,61.0277354 76.1420469,60.9089751 L69.3289863,58.489027 C69.0482936,58.389327 68.7353703,58.4833824 68.55616,58.7213154 L64.8739173,63.6101344 C64.7053151,63.8339832 64.690854,64.1382001 64.8374623,64.3770326 L68.7437675,70.7406047 C68.9207694,71.0289499 68.8595463,71.4034794 68.5999414,71.6204539 L64.9288118,74.6887375 C64.6562534,74.9165384 64.2544613,74.8969092 64.0054059,74.6436252 L58.8823428,69.4335809 C58.6743655,69.2220725 58.3535015,69.1693001 58.0887385,69.303057 L52.544408,72.1040248 C52.2908475,72.2321224 52.1432822,72.504012 52.1740439,72.7864224 L52.9838202,80.2206393 C53.0210652,80.5625697 52.7977978,80.8787008 52.4630982,80.9579455 L47.8878274,82.041204 C47.5469158,82.1219196 47.2003161,81.9311378 47.0861445,81.599927 L44.6786706,74.6158632 C44.5793151,74.3276336 44.3006891,74.1403936 43.9962843,74.1572915 L40.9456532,74.3266358 C40.920479,74.3280332 40.8952467,74.3280332 40.8700724,74.3266358 L37.8194413,74.1572915 C37.5150365,74.1403936 37.2364105,74.3276336 37.137055,74.6158632 L34.7295811,81.599927 C34.6154096,81.9311378 34.2688099,82.1219196 33.9278982,82.041204 L29.3526275,80.9579455 C29.0179278,80.8787008 28.7946605,80.5625697 28.8319054,80.2206393 L29.6416817,72.7864224 C29.6724434,72.504012 29.5248782,72.2321224 29.2713176,72.1040248 L23.7269872,69.303057 C23.4622241,69.1693001 23.1413602,69.2220725 22.9333829,69.4335809 L17.8103198,74.6436252 C17.5612644,74.8969092 17.1594723,74.9165384 16.8869138,74.6887375 L13.2157843,71.6204539 C12.9561794,71.4034794 12.8949562,71.0289499 13.0719581,70.7406047 L16.9782633,64.3770326 C17.1248717,64.1382001 17.1104105,63.8339832 16.9418083,63.6101344 L13.2595657,58.7213154 C13.0803553,58.4833824 12.7674321,58.389327 12.4867394,58.489027 L5.67367881,60.9089751 C5.33932402,61.0277354 4.96977181,60.8702076 4.82391931,60.546751 L2.80815714,56.0764015 C2.66932418,55.7685121 2.77682144,55.4053828 3.06088364,55.2226832 L9.29028566,51.2161324 C9.52586873,51.0646129 9.6448159,50.7844276 9.59018593,50.5097039 L8.43006504,44.6756776 C8.37236393,44.3855097 8.13411787,44.1656635 7.84025698,44.1314206 L0.645379237,43.2930192 C0.308427948,43.2537551 0.0515933428,42.9727502 0.0427114058,42.6336353 L-0.000584978173,40.9805666 L-0.000102723451,40.9314764 L-0.000102723451,40.9314764 L0.153689711,37.5782992 C0.168999465,37.2444966 0.423967599,36.9709784 0.755875288,36.932302 L8.06358582,36.0807525 C8.34597643,36.0478463 8.57830858,35.8431708 8.64655278,35.5671817 L10.0141856,30.0362822 C10.0841865,29.7531886 9.96639609,29.4569172 9.72112643,29.2991677 L3.59607643,25.3597327 C3.30410149,25.1719438 3.19983989,24.7947574 3.35391618,24.4836714 L5.60325686,19.9421649 C5.7565377,19.632685 6.11701046,19.4866901 6.44245011,19.6022839 L13.3551387,22.0576191 C13.6270495,22.1541998 13.9303148,22.0691546 14.1123573,21.845271 L17.5336681,17.6375988 C17.7163145,17.4129725 17.7371888,17.0974932 17.5857308,16.8507603 L13.7297694,10.5692008 C13.5493363,10.275266 13.6168179,9.89288186 13.886963,9.67846326 L17.8657519,6.52043395 C18.138807,6.30370568 18.5313682,6.32786254 18.7757903,6.57643456 L23.9433251,11.8317055 C24.1475872,12.0394357 24.4612683,12.0944328 24.7240164,11.9685828 L29.4298612,9.7145963 C29.6908258,9.58960054 29.8444711,9.3134991 29.8131382,9.02584531 L29.0088071,1.6416181 C28.9713019,1.29729874 29.1979061,0.979568897 29.5356672,0.902888543 L34.4803175,-0.219672608 C34.8196102,-0.296700666 35.1624762,-0.105904468 35.2758623,0.223027817 Z M34.7091363,45.5113636 C30.5488692,38.3055696 22.666299,34.5887128 14.8921968,35.3876035 C14.5160366,37.1688551 14.3181818,39.0158673 14.3181818,40.9090909 C14.3181818,53.3091941 22.8059439,63.7268743 34.2889691,66.6691377 C38.2117173,60.4509698 38.6405274,52.3207327 34.7091363,45.5113636 Z M66.9256673,35.3873304 C59.1518828,34.5887128 51.2693126,38.3055696 47.1090455,45.5113636 C43.1776545,52.3207327 43.6064645,60.4509698 47.5295796,66.6692654 C59.0122379,63.7268743 67.5,53.3091941 67.5,40.9090909 C67.5,39.1468005 67.3285658,37.4245507 67.0014645,35.7581087 L67.0014645,35.7581087 Z M40.9091408,36.8152593 C38.6497941,36.8152593 36.8182317,38.6468217 36.8182317,40.9061684 C36.8182317,43.1655151 38.6497941,44.9970775 40.9091408,44.9970775 C43.1684875,44.9970775 45.0000499,43.1655151 45.0000499,40.9061684 C45.0000499,38.6468217 43.1684875,36.8152593 40.9091408,36.8152593 Z M40.9090909,14.3181818 C33.5238223,14.3181818 26.8417528,17.3289353 22.0242822,22.1903242 C25.1080191,29.5794685 32.4020797,34.7727273 40.9090909,34.7727273 C49.4164839,34.7727273 56.7108175,29.5790023 59.7938735,22.1890076 C54.9755158,17.3285238 48.2938549,14.3181818 40.9090909,14.3181818 Z" id="Combined-Shape" fill="url(#radialGradient-5)"></path>
                    </g>
                </g>
            </g>
        </g>
    </g>
</svg>