<?xml version="1.0" encoding="UTF-8"?>
<svg width="96px" height="96px" viewBox="0 0 96 96" version="1.1" xmlns="http://www.w3.org/2000/svg" xmlns:xlink="http://www.w3.org/1999/xlink">
    <!-- Generator: Sketch 56.2 (81672) - https://sketch.com -->
    <title>preference-system-96px</title>
    <desc>Created with Sketch.</desc>
    <defs>
        <filter x="-13.6%" y="-13.6%" width="127.3%" height="127.3%" filterUnits="objectBoundingBox" id="filter-1">
            <feOffset dx="0" dy="2" in="SourceAlpha" result="shadowOffsetOuter1"></feOffset>
            <feGaussianBlur stdDeviation="2" in="shadowOffsetOuter1" result="shadowBlurOuter1"></feGaussianBlur>
            <feComposite in="shadowBlurOuter1" in2="SourceAlpha" operator="out" result="shadowBlurOuter1"></feComposite>
            <feColorMatrix values="0 0 0 0 0   0 0 0 0 0   0 0 0 0 0  0 0 0 0.2 0" type="matrix" in="shadowBlurOuter1" result="shadowMatrixOuter1"></feColorMatrix>
            <feMerge>
                <feMergeNode in="shadowMatrixOuter1"></feMergeNode>
                <feMergeNode in="SourceGraphic"></feMergeNode>
            </feMerge>
        </filter>
        <linearGradient x1="52.7028203%" y1="103.309406%" x2="47.9444041%" y2="1.43982049e-14%" id="linearGradient-2">
            <stop stop-color="#410DD9" offset="1.92602962%"></stop>
            <stop stop-color="#2F54F8" offset="100%"></stop>
        </linearGradient>
        <circle id="path-3" cx="44" cy="44" r="28"></circle>
        <filter x="-5.4%" y="-5.4%" width="110.7%" height="110.7%" filterUnits="objectBoundingBox" id="filter-4">
            <feGaussianBlur stdDeviation="2" in="SourceAlpha" result="shadowBlurInner1"></feGaussianBlur>
            <feOffset dx="0" dy="2" in="shadowBlurInner1" result="shadowOffsetInner1"></feOffset>
            <feComposite in="shadowOffsetInner1" in2="SourceAlpha" operator="arithmetic" k2="-1" k3="1" result="shadowInnerInner1"></feComposite>
            <feColorMatrix values="0 0 0 0 0   0 0 0 0 0   0 0 0 0 0  0 0 0 0.5 0" type="matrix" in="shadowInnerInner1"></feColorMatrix>
        </filter>
        <path d="M32.6287477,62.676264 L33.0140978,58.363391 C31.7034115,57.871323 30.4572402,57.2447851 29.2919375,56.5003311 L26.2166005,59.479307 C25.1419457,58.7240962 24.1320519,57.8829625 23.1969013,56.9658881 L25.3916115,53.2512429 C24.4634512,52.2565067 23.6333624,51.1670047 22.9169997,49.9985832 L18.921394,51.3147079 C18.2833286,50.1461572 17.7396044,48.9187051 17.300459,47.6425892 L20.8024741,45.3048291 C20.4209179,44.0556968 20.1550704,42.7551192 20.0176072,41.4159274 L16.0221447,40.8698786 C16.0074315,40.5249172 16,40.1780703 16,39.8294876 C16,38.7826207 16.0670267,37.7514086 16.1970226,36.7399088 L20.1392416,36.2011366 C20.331454,34.9239638 20.6410249,33.6858464 21.0564682,32.4984114 L17.9210128,30.4053471 C18.4830909,29.0902028 19.1592385,27.8354484 19.9370199,26.6535196 L23.4196601,27.8006771 C24.1072219,26.7858752 24.8833445,25.8373786 25.7367488,24.9666049 L23.9666141,21.9705727 C25.0476561,20.9993913 26.217361,20.1249457 27.4621053,19.3608592 L29.8888834,21.7115979 C30.9045383,21.1116696 31.9768868,20.5993573 33.0958164,20.1848978 L32.8047035,16.9267364 C34.1943699,16.4905835 35.6384809,16.1774197 37.1242813,16 L38.2457074,19.0286898 C38.8238153,18.9780699 39.4089269,18.9522325 40,18.9522325 C40.5910731,18.9522325 41.1761847,18.9780699 41.7542926,19.0286898 L42.8757187,16 C44.3615191,16.1774197 45.8056301,16.4905835 47.1952965,16.9267364 L46.9041836,20.1848978 C48.0231132,20.5993573 49.0954617,21.1116696 50.1111166,21.7115979 L52.5378947,19.3608592 C53.782639,20.1249457 54.9523439,20.9993913 56.0333859,21.9705727 L54.2632512,24.9666049 C55.1166555,25.8373786 55.8927781,26.7858752 56.5803399,27.8006771 L60.0629801,26.6535196 C60.8407615,27.8354484 61.5169091,29.0902028 62.0789872,30.4053471 L58.9435318,32.4984114 C59.3589751,33.6858464 59.668546,34.9239638 59.8607584,36.2011366 L63.8029774,36.7399088 C63.9329733,37.7514086 64,38.7826207 64,39.8294876 C64,40.1780703 63.9925685,40.5249172 63.9778553,40.8698786 L59.9823928,41.4159274 C59.8449296,42.7551192 59.5790821,44.0556968 59.1975259,45.3048291 L62.699541,47.6425892 C62.2603956,48.9187051 61.7166714,50.1461572 61.078606,51.3147079 L57.0830003,49.9985832 C56.3666376,51.1670047 55.5365488,52.2565067 54.6083885,53.2512429 L56.8030987,56.9658881 C55.8679481,57.8829625 54.8580543,58.7240962 53.7833995,59.479307 L50.7080625,56.5003311 C49.5427598,57.2447851 48.2965885,57.871323 46.9859022,58.363391 L47.3712523,62.676264 C46.1506299,63.0697857 44.8873032,63.368204 43.5900026,63.5627883 L42.092195,59.5175871 C41.4045007,59.5896155 40.7065091,59.6265305 40,59.6265305 C39.2934909,59.6265305 38.5954993,59.5896155 37.907805,59.5175871 L36.4099974,63.5627883 C35.1126968,63.368204 33.8493701,63.0697857 32.6287477,62.676264 Z M40,55.2700715 C48.836556,55.2700715 56,48.1066275 56,39.2700715 C56,30.4335155 48.836556,23.2700715 40,23.2700715 C31.163444,23.2700715 24,30.4335155 24,39.2700715 C24,48.1066275 31.163444,55.2700715 40,55.2700715 Z" id="path-5"></path>
        <filter x="-8.3%" y="-4.2%" width="116.7%" height="116.8%" filterUnits="objectBoundingBox" id="filter-6">
            <feOffset dx="0" dy="2" in="SourceAlpha" result="shadowOffsetOuter1"></feOffset>
            <feGaussianBlur stdDeviation="1" in="shadowOffsetOuter1" result="shadowBlurOuter1"></feGaussianBlur>
            <feComposite in="shadowBlurOuter1" in2="SourceAlpha" operator="out" result="shadowBlurOuter1"></feComposite>
            <feColorMatrix values="0 0 0 0 0   0 0 0 0 0   0 0 0 0 0  0 0 0 0.2 0" type="matrix" in="shadowBlurOuter1"></feColorMatrix>
        </filter>
        <radialGradient cx="50%" cy="50%" fx="50%" fy="50%" r="50.3926794%" gradientTransform="translate(0.500000,0.500000),scale(0.999957,1.000000),rotate(90.000000),scale(1.000000,0.950670),translate(-0.500000,-0.500000)" id="radialGradient-7">
            <stop stop-color="#E2E5ED" offset="0%"></stop>
            <stop stop-color="#9DA3B5" offset="48.4048274%"></stop>
            <stop stop-color="#E7ECFF" offset="100%"></stop>
        </radialGradient>
    </defs>
    <g id="preference-system-96px" stroke="none" stroke-width="1" fill="none" fill-rule="evenodd">
        <g id="13-settings" filter="url(#filter-1)" transform="translate(4.000000, 4.000000)">
            <circle id="Oval" fill="url(#linearGradient-2)" cx="44" cy="44" r="44"></circle>
            <g id="Oval">
                <use fill-opacity="0.5" fill="#000000" fill-rule="evenodd" xlink:href="#path-3"></use>
                <use fill="black" fill-opacity="1" filter="url(#filter-4)" xlink:href="#path-3"></use>
            </g>
            <g id="Group-12" transform="translate(4.000000, 4.000000)">
                <g id="Combined-Shape">
                    <use fill="black" fill-opacity="1" filter="url(#filter-6)" xlink:href="#path-5"></use>
                    <path stroke-opacity="0.1" stroke="#FFFFFF" stroke-width="1" d="M33.1626198,62.3194576 C34.1179906,62.6095246 35.0931393,62.838557 36.0834763,63.0046709 L37.5737333,58.9798617 L37.9598895,59.0203073 C38.6343602,59.0909507 39.3149813,59.1265305 40,59.1265305 C40.6850187,59.1265305 41.3656398,59.0909507 42.0401105,59.0203073 L42.4262667,58.9798617 L43.9165237,63.0046709 C44.9068607,62.838557 45.8820094,62.6095246 46.8373802,62.3194576 L46.4540324,58.0289944 L46.8101649,57.8952923 C48.07973,57.4186624 49.2953239,56.8095364 50.4388795,56.0789756 L50.7720082,55.8661563 L53.8316108,58.8298908 C54.6526563,58.2311514 55.4344132,57.579766 56.1717348,56.8802194 L53.9876654,53.1835841 L54.2428132,52.9101348 C55.150579,51.9372561 55.9597566,50.8740493 56.6567377,49.7372403 L56.8635747,49.3998793 L60.8358315,50.7083131 C61.3199754,49.7829914 61.7419722,48.8258363 62.0985817,47.8425901 L58.6107386,45.5142904 L58.719337,45.1587629 C59.0951876,43.9283091 59.3521523,42.6591607 59.4850062,41.3648725 L59.5251516,40.9737694 L63.4924405,40.431571 C63.4974775,40.2312011 63.5,40.0304966 63.5,39.8294876 C63.5,38.9401974 63.4506273,38.05714 63.3526841,37.1830163 L59.422053,36.6458278 L59.3663265,36.2755478 C59.1804245,35.0403055 58.8804416,33.832145 58.4715829,32.6635304 L58.3435999,32.2977247 L61.4529206,30.2221066 C60.9916137,29.1936396 60.4566575,28.2002397 59.8527163,27.2492056 L56.3781738,28.3936958 L56.1664024,28.0811334 C55.4968437,27.092903 54.7400391,26.1674359 53.9061542,25.3165788 L53.637617,25.0425759 L55.3927512,22.0719326 C54.5157807,21.311076 53.5838113,20.6157596 52.6046782,19.9922851 L50.1851252,22.3360251 L49.8568246,22.1421041 C48.86084,21.5537946 47.8150106,21.0554729 46.7305113,20.6537665 L46.3721588,20.5210302 L46.6611365,17.2867657 C45.5338613,16.9541989 44.3798813,16.7064241 43.2065884,16.5463733 L42.0907171,19.5600608 L41.7106787,19.526784 C41.144191,19.4771816 40.5736241,19.4522325 40,19.4522325 C39.4263759,19.4522325 38.855809,19.4771816 38.2893213,19.526784 L37.9092829,19.5600608 L36.7934116,16.5463733 C35.6201187,16.7064241 34.4661387,16.9541988 33.3388635,17.2867658 L33.6278412,20.5210302 L33.2694887,20.6537665 C32.1849894,21.0554729 31.13916,21.5537946 30.1431754,22.1421041 L29.8148748,22.3360251 L27.3953218,19.9922851 C26.4161887,20.6157596 25.4842194,21.311076 24.6072488,22.0719327 L26.362383,25.0425759 L26.0938458,25.3165788 C25.2599609,26.1674359 24.5031563,27.092903 23.8335976,28.0811334 L23.6218262,28.3936958 L20.1472836,27.2492056 C19.5433425,28.2002397 19.0083863,29.1936396 18.5470794,30.2221066 L21.6564001,32.2977247 L21.5284171,32.6635304 C21.1195584,33.832145 20.8195755,35.0403055 20.6336735,36.2755478 L20.577947,36.6458278 L16.6473158,37.1830163 C16.5493727,38.05714 16.5,38.9401974 16.5,39.8294876 C16.5,40.0304966 16.5025225,40.2312011 16.5075595,40.431571 L20.4748484,40.9737694 L20.5149938,41.3648725 C20.6478477,42.6591607 20.9048124,43.9283091 21.280663,45.1587629 L21.3892614,45.5142904 L17.9014183,47.8425901 C18.2580278,48.8258363 18.6800246,49.7829914 19.1641685,50.7083131 L23.1364253,49.3998793 L23.3432623,49.7372403 C24.0402434,50.8740493 24.849421,51.9372561 25.7571868,52.9101348 L26.0123346,53.1835841 L23.8282652,56.8802194 C24.5655868,57.579766 25.3473437,58.2311514 26.1683892,58.8298908 L29.2279918,55.8661563 L29.5611205,56.0789756 C30.7046761,56.8095364 31.92027,57.4186624 33.1898351,57.8952923 L33.5459676,58.0289944 L33.1626198,62.3194576 Z M40,55.7700715 C30.8873016,55.7700715 23.5,48.3827698 23.5,39.2700715 C23.5,30.1573731 30.8873016,22.7700715 40,22.7700715 C49.1126984,22.7700715 56.5,30.1573731 56.5,39.2700715 C56.5,48.3827698 49.1126984,55.7700715 40,55.7700715 Z" stroke-linejoin="square" fill="#585F6C" fill-rule="evenodd"></path>
                </g>
                <path d="M28.8157601,77.3215428 C28.7338212,78.0737897 29.2250093,78.7692779 29.9613486,78.9436164 L32.114721,79.4534571 C32.8647266,79.6310313 33.627246,79.2113113 33.8784234,78.4826475 L35.5107094,73.747398 C35.875013,72.6905561 36.8966416,72.0040096 38.0127926,72.0659685 L39.9156604,72.171599 C39.9710436,72.1746734 40.0265548,72.1746734 40.0819381,72.171599 L41.9848059,72.0659685 C43.1009568,72.0040096 44.1225854,72.6905561 44.486889,73.747398 L46.119175,78.4826475 C46.3703524,79.2113113 47.1328718,79.6310313 47.8828774,79.4534571 L50.0362499,78.9436164 C50.7725891,78.7692779 51.2637773,78.0737897 51.1818383,77.3215428 L50.61756,72.1411399 C50.5047671,71.105635 51.0458396,70.1087063 51.9755617,69.6390154 L55.7032398,67.7558112 C56.6740376,67.265369 57.8505387,67.4588679 58.6131222,68.2343988 L62.0773771,71.757471 C62.625299,72.3146958 63.5092416,72.3578801 64.1088702,71.8567181 L65.8709061,70.3840308 C66.442037,69.9066869 66.5767278,69.0827221 66.1873236,68.4483625 L63.4457188,63.9821472 C62.9081549,63.106428 62.9611791,61.990966 63.5793871,61.1701871 L66.0443935,57.8974614 C66.7014981,57.0250404 67.8488835,56.6801708 68.87809,57.0457372 L73.4603234,58.6733122 C74.1959039,58.9345849 75.0089188,58.5880239 75.3297942,57.8764193 L76.3235868,55.6724886 C76.6290193,54.9951319 76.3925254,54.1962475 75.7675885,53.7943082 L71.4068205,50.9896026 C70.5430159,50.4340313 70.1068763,49.406685 70.3071862,48.3993649 L71.0751646,44.5373479 C71.2867354,43.4733991 72.1603042,42.6672963 73.2377942,42.541739 L78.7808213,41.8958237 C79.1660971,41.8509285 79.4597662,41.5296226 79.469922,41.1418728 L79.4970842,40.1048125 C79.4980271,40.0688119 79.4976732,40.032789 79.4960232,39.9968139 L79.399773,37.8982444 C79.3660915,37.1638786 78.8051616,36.5621387 78.0749647,36.4770506 L72.9734721,35.8825863 C71.9380399,35.7619299 71.0861553,35.0114532 70.8359266,33.999493 L69.949458,30.4144893 C69.6927879,29.3764794 70.1246862,28.290151 71.0240082,27.711736 L75.2082923,25.0205392 C75.8506371,24.6074037 76.0800127,23.7775935 75.7410448,23.0932042 L74.5962609,20.781841 C74.2590431,20.1009851 73.466003,19.7797965 72.7500358,20.0341026 L67.9935591,21.7235676 C66.9965529,22.0776967 65.8845799,21.7658643 65.2170908,20.9449581 L63.0618583,18.2943623 C62.3921547,17.4707326 62.3156156,16.3139751 62.8709618,15.4092876 L65.5285562,11.0799296 C65.925509,10.4332731 65.7770495,9.59202802 65.1827302,9.1203071 L63.1570691,7.512507 C62.5563479,7.03570482 61.6927132,7.0888499 61.1549845,7.63570834 L57.6106096,11.2402609 C56.8616484,12.0019382 55.7114845,12.2035945 54.7480745,11.7421442 L51.857534,10.3576449 C50.9006639,9.8993271 50.3372979,8.88695513 50.4521851,7.83222458 L51.0076755,2.73249939 C51.0901869,1.97499679 50.5916578,1.27599114 49.8485833,1.10729436 L47.3388697,0.53752565 C46.5924257,0.368063922 45.8381205,0.787815559 45.588671,1.51146659 L43.9538304,6.25412719 C43.590691,7.30759185 42.5741769,7.99354315 41.4613457,7.9360768 C40.8649309,7.90526409 40.3769847,7.88991031 39.9987992,7.88991031 C39.6206175,7.88991031 39.1326774,7.90526378 38.5362708,7.93607587 C37.4234342,7.99356822 36.4068996,7.30760665 36.0437667,6.25412323 L34.4089274,1.51146659 C34.1594779,0.787815559 33.4051727,0.368063922 32.6587287,0.53752565 L30.1490151,1.10729436 C29.4059406,1.27599114 28.9074115,1.97499679 28.9899229,2.73249939 L29.5454134,7.83222458 C29.6603005,8.88695513 29.0969345,9.8993271 28.1400644,10.3576449 L25.2495239,11.7421442 C24.2861139,12.2035945 23.13595,12.0019382 22.3869888,11.2402609 L18.8426139,7.63570834 C18.3048852,7.0888499 17.4412506,7.03570482 16.8405293,7.512507 L14.8148682,9.1203071 C14.2205489,9.59202802 14.0720895,10.4332731 14.4690422,11.0799296 L17.1266367,15.4092876 C17.6819828,16.3139751 17.6054437,17.4707326 16.9357401,18.2943623 L14.7805076,20.9449581 C14.1130185,21.7658643 13.0010456,22.0776967 12.0040393,21.7235676 L7.24756261,20.0341026 C6.53159539,19.7797965 5.73855532,20.1009851 5.40133747,20.781841 L4.25655361,23.0932042 C3.91758577,23.7775935 4.1469613,24.6074037 4.78930615,25.0205392 L8.97359018,27.711736 C9.87291227,28.290151 10.3048105,29.3764794 10.0481405,30.4144893 L9.16167185,33.999493 C8.91144312,35.0114532 8.05955855,35.7619299 7.02412633,35.8825863 L1.9226337,36.4770506 C1.19243679,36.5621387 0.631506893,37.1638786 0.597825434,37.8982444 L0.501575193,39.9968139 C0.499925205,40.032789 0.499571322,40.0688119 0.500514232,40.1048125 L0.527676421,41.1418728 C0.53783218,41.5296226 0.831501275,41.8509285 1.21677716,41.8958237 L6.75980423,42.541739 C7.83729418,42.6672963 8.71086306,43.4733991 8.9224338,44.5373479 L9.69041226,48.3993649 C9.89072214,49.406685 9.45458253,50.4340313 8.59077794,50.9896026 L4.2300099,53.7943082 C3.60507307,54.1962475 3.36857908,54.9951319 3.67401161,55.6724886 L4.66780418,57.8764193 C4.98867967,58.5880239 5.80169453,58.9345849 6.53727507,58.6733122 L11.1195084,57.0457372 C12.148715,56.6801708 13.2961003,57.0250404 13.9532049,57.8974614 L16.4182114,61.1701871 C17.0364193,61.990966 17.0894435,63.106428 16.5518797,63.9821472 L13.8102748,68.4483625 C13.4208706,69.0827221 13.5555615,69.9066869 14.1266923,70.3840308 L15.8887282,71.8567181 C16.4883569,72.3578801 17.3722994,72.3146958 17.9202213,71.757471 L21.3844762,68.2343988 C22.1470597,67.4588679 23.3235608,67.265369 24.2943586,67.7558112 L28.0220367,69.6390154 C28.9517588,70.1087063 29.4928313,71.105635 29.3800384,72.1411399 L28.8157601,77.3215428 Z M40.0000488,44.4971424 C37.5147674,44.4971424 35.5000488,42.4824238 35.5000488,39.9971424 C35.5000488,37.5118611 37.5147674,35.4971424 40.0000488,35.4971424 C42.4853301,35.4971424 44.5000488,37.5118611 44.5000488,39.9971424 C44.5000488,42.4824238 42.4853301,44.4971424 40.0000488,44.4971424 Z M33.9497544,65.4545695 L33.7554794,65.7625181 L33.4027657,65.6721401 C21.7758396,62.6929003 13.5,52.1722258 13.5,40 C13.5,38.1344127 13.6928578,36.2934196 14.0721003,34.497657 L14.1474509,34.1408618 L14.5102062,34.1035904 C22.4857356,33.2841413 30.2915993,37.1845568 34.3708349,44.25 C38.2187373,50.9147625 37.9825223,59.0621599 33.9497544,65.4545695 Z M21.0730447,21.8888655 L20.9446339,21.58113 L21.1793868,21.3443145 C26.1233343,16.3569283 32.8357808,13.5 40,13.5 C47.1642192,13.5 53.8766657,16.3569283 58.8206132,21.3443145 L59.0553661,21.58113 L58.9269553,21.8888655 C55.7664508,29.4629893 48.3486388,34.5 40,34.5 C31.6513612,34.5 24.2335492,29.4629893 21.0730447,21.8888655 Z M65.9278997,34.497657 C66.3071422,36.2934196 66.5,38.1344127 66.5,40 C66.5,52.1722258 58.2241604,62.6929003 46.5972343,65.6721401 L46.2445206,65.7625181 L46.0502456,65.4545695 C42.0174777,59.0621599 41.7812627,50.9147625 45.6291651,44.25 C49.7084007,37.1845568 57.5142644,33.2841413 65.4897938,34.1035904 L65.8525491,34.1408618 L65.9278997,34.497657 Z" id="Combined-Shape" stroke-opacity="0.3" stroke="#FFFFFF" fill="url(#radialGradient-7)"></path>
            </g>
        </g>
    </g>
</svg>