<?xml version="1.0" encoding="utf-8"?>
<!-- Generator: Adobe Illustrator 16.0.0, SVG Export Plug-In . SVG Version: 6.00 Build 0)  -->
<!DOCTYPE svg PUBLIC "-//W3C//DTD SVG 1.1//EN" "http://www.w3.org/Graphics/SVG/1.1/DTD/svg11.dtd">
<svg version="1.1" id="图层_1" xmlns="http://www.w3.org/2000/svg" xmlns:xlink="http://www.w3.org/1999/xlink" x="0px" y="0px"
	 width="24px" height="24px" viewBox="4 2 24 24" enable-background="new 4 2 24 24" xml:space="preserve">
<filter  id="filter-3" y="-20.8%" x="-29.2%" width="158.3%" height="158.3%" filterUnits="objectBoundingBox">
	<feOffset  result="shadowOffsetOuter1" in="SourceAlpha" dy="2" dx="0"></feOffset>
	<feGaussianBlur  result="shadowBlurOuter1" in="shadowOffsetOuter1" stdDeviation="2"></feGaussianBlur>
	<feComposite  in2="SourceAlpha" result="shadowBlurOuter1" in="shadowBlurOuter1" operator="out"></feComposite>
	<feColorMatrix  values="0 0 0 0 0   0 0 0 0 0   0 0 0 0 0  0 0 0 0.05 0" in="shadowBlurOuter1" type="matrix"></feColorMatrix>
</filter>
<title>button_有图标 6备份</title>
<desc>Created with Sketch.</desc>
<g filter="url(#filter-3)">
	<path id="path-2_2_" d="M9,2h14c2.762,0,5,2.239,5,5v14c0,2.762-2.238,5-5,5H9c-2.761,0-5-2.238-5-5V7C4,4.239,6.239,2,9,2z"/>
</g>
<g>
	<g>
		<path id="path-2_1_" fill-opacity="0.08" d="M9,2h14c2.762,0,5,2.239,5,5v14c0,2.762-2.238,5-5,5H9c-2.761,0-5-2.238-5-5V7
			C4,4.239,6.239,2,9,2z"/>
	</g>
	
		<linearGradient id="SVGID_1_" gradientUnits="userSpaceOnUse" x1="-268.397" y1="419.96" x2="-268.397" y2="419.0034" gradientTransform="matrix(23 0 0 -23 6189.1406 9661.5625)">
		<stop  offset="0" style="stop-color:#E6E6E6"/>
		<stop  offset="1" style="stop-color:#E3E3E3"/>
	</linearGradient>
	<path fill="url(#SVGID_1_)" stroke="#000000" stroke-opacity="0.03" d="M9.5,2.5h13c2.762,0,5,2.239,5,5v13c0,2.762-2.238,5-5,5
		h-13c-2.761,0-5-2.238-5-5v-13C4.5,4.739,6.739,2.5,9.5,2.5z"/>
</g>
<g>
	<rect id="矩形_1_" x="13.542" y="18.302" fill="#536076" width="8.605" height="2.459"/>
	<path id="矩形_2_" fill="#536076" d="M11.083,18.302L11.083,18.302c0.679,0,1.229,0.55,1.229,1.229l0,0
		c0,0.68-0.55,1.229-1.229,1.229l0,0c-0.679,0-1.229-0.55-1.229-1.229l0,0C9.854,18.852,10.404,18.302,11.083,18.302z"/>
	<rect id="矩形_3_" x="13.542" y="12.771" fill="#536076" width="8.605" height="2.458"/>
	<path id="矩形_4_" fill="#536076" d="M11.083,12.771L11.083,12.771c0.679,0,1.229,0.55,1.229,1.229l0,0
		c0,0.679-0.55,1.229-1.229,1.229l0,0c-0.679,0-1.229-0.55-1.229-1.229l0,0C9.854,13.321,10.404,12.771,11.083,12.771z"/>
	<path id="矩形备份" fill="#536076" d="M11.083,7.239L11.083,7.239c0.679,0,1.229,0.55,1.229,1.229l0,0
		c0,0.679-0.55,1.229-1.229,1.229l0,0c-0.679,0-1.229-0.55-1.229-1.229l0,0C9.854,7.79,10.404,7.239,11.083,7.239z"/>
	<rect id="矩形_5_" x="13.542" y="7.239" fill="#536076" width="8.605" height="2.458"/>
</g>
</svg>
