<?xml version="1.0" encoding="utf-8"?>
<!-- Generator: Adobe Illustrator 16.0.0, SVG Export Plug-In . SVG Version: 6.00 Build 0)  -->
<!DOCTYPE svg PUBLIC "-//W3C//DTD SVG 1.1//EN" "http://www.w3.org/Graphics/SVG/1.1/DTD/svg11.dtd">
<svg version="1.1" id="图层_1" xmlns="http://www.w3.org/2000/svg" xmlns:xlink="http://www.w3.org/1999/xlink" x="0px" y="0px"
	 width="24px" height="24px" viewBox="0 0 24 24" enable-background="new 0 0 24 24" xml:space="preserve">
<filter  id="filter-3" y="-20.8%" x="-29.2%" width="158.3%" height="158.3%" filterUnits="objectBoundingBox">
	<feOffset  result="shadowOffsetOuter1" in="SourceAlpha" dy="2" dx="0"></feOffset>
	<feGaussianBlur  result="shadowBlurOuter1" in="shadowOffsetOuter1" stdDeviation="2"></feGaussianBlur>
	<feComposite  in2="SourceAlpha" result="shadowBlurOuter1" in="shadowBlurOuter1" operator="out"></feComposite>
	<feColorMatrix  values="0 0 0 0 0   0 0 0 0 0   0 0 0 0 0  0 0 0 0.05 0" in="shadowBlurOuter1" type="matrix"></feColorMatrix>
</filter>
<title>切片</title>
<desc>Created with Sketch.</desc>
<g id="Rectangle-175" transform="translate(12.000000, 12.000000) scale(-1, 1) translate(-12.000000, -12.000000) ">
	<g filter="url(#filter-3)">
		<path id="path-2_2_" d="M5,0h14c2.761,0,5,2.239,5,5v14c0,2.762-2.239,5-5,5H5c-2.762,0-5-2.238-5-5V5C0,2.239,2.238,0,5,0z"/>
	</g>
	<g>
		<path id="path-2_1_" fill-opacity="0.08" d="M5,0h14c2.761,0,5,2.239,5,5v14c0,2.762-2.239,5-5,5H5c-2.762,0-5-2.238-5-5V5
			C0,2.239,2.238,0,5,0z"/>
	</g>
	
		<linearGradient id="SVGID_1_" gradientUnits="userSpaceOnUse" x1="321.7769" y1="415.7861" x2="321.7769" y2="414.8296" gradientTransform="matrix(-23 0 0 -23 7412.8594 9563.5625)">
		<stop  offset="0" style="stop-color:#E6E6E6"/>
		<stop  offset="1" style="stop-color:#E3E3E3"/>
	</linearGradient>
	<path fill="url(#SVGID_1_)" stroke="#000000" stroke-opacity="0.03" d="M5.5,0.5h13c2.761,0,5,2.239,5,5v13c0,2.762-2.239,5-5,5
		h-13c-2.762,0-5-2.238-5-5v-13C0.5,2.739,2.738,0.5,5.5,0.5z"/>
</g>
<g>
	<path id="Fill-1" fill="#536076" d="M17.976,6.355c-0.03-0.073-0.075-0.14-0.133-0.198c-0.058-0.057-0.124-0.101-0.198-0.132
		c-0.073-0.03-0.153-0.045-0.23-0.045h-3.027c-0.336,0-0.606,0.271-0.606,0.605c0,0.335,0.271,0.605,0.606,0.604h1.564l-2.569,2.573
		c-0.236,0.237-0.236,0.62,0,0.855c0.236,0.237,0.619,0.237,0.855,0l2.572-2.572v1.566c0,0.335,0.271,0.605,0.604,0.605
		c0.168,0,0.319-0.067,0.429-0.177s0.178-0.261,0.178-0.429V6.585C18.021,6.507,18.004,6.429,17.976,6.355"/>
	<path id="Fill-3" fill="#536076" d="M18.021,13.204v2.408c0,1.331-1.077,2.408-2.408,2.408H8.388c-1.331,0-2.408-1.077-2.408-2.408
		V8.388c0-1.33,1.078-2.408,2.408-2.408h2.409c0.333,0,0.603,0.27,0.603,0.603s-0.27,0.603-0.603,0.603H8.388
		c-0.665,0-1.204,0.539-1.204,1.203v7.225c0,0.664,0.539,1.203,1.204,1.203h7.225c0.664,0,1.204-0.539,1.204-1.203v-2.408
		c0-0.334,0.269-0.604,0.603-0.604C17.751,12.601,18.021,12.872,18.021,13.204"/>
</g>
</svg>
