<?xml version="1.0" encoding="UTF-8"?>
<svg width="36px" height="36px" viewBox="0 0 36 36" version="1.1" xmlns="http://www.w3.org/2000/svg" xmlns:xlink="http://www.w3.org/1999/xlink">
    <title>导入</title>
    <g id="页面-1备份" stroke="none" stroke-width="1" fill="none" fill-rule="evenodd">
        <g id="按钮" transform="translate(-189.000000, -38.000000)" fill="#536076" fill-rule="nonzero">
            <g id="编组-4" transform="translate(189.000000, 38.000000)">
                <g id="导入" transform="translate(1.000000, 0.000000)">
                    <path d="M25,21.1785714 L25,23.3214286 C25,24.8214286 23.8214286,26 22.3214286,26 L12.6785714,26 C11.1785714,26 10,24.8214286 10,23.3214286 L10,13.6785714 C10,12.1785714 11.1785714,11 12.6785714,11 L14.8214286,11 C15.1428571,11 15.3571429,11.2142857 15.3571429,11.5357143 C15.3571429,11.8571429 15.1428571,12.0714286 14.8214286,12.0714286 L12.6785714,12.0714286 C11.8214286,12.0714286 11.0714286,12.8214286 11.0714286,13.6785714 L11.0714286,23.3214286 C11.0714286,24.1785714 11.8214286,24.9285714 12.6785714,24.9285714 L22.3214286,24.9285714 C23.1785714,24.9285714 23.9285714,24.1785714 23.9285714,23.3214286 L23.9285714,21.1785714 C23.9285714,20.8571429 24.1428571,20.6428571 24.4642857,20.6428571 C24.7857143,20.6428571 25,20.8571429 25,21.1785714 Z" id="路径"></path>
                    <path d="M19.0720215,12.0714286 L23.1434501,12.0714286 L17.1607143,18.0177176 C16.9464286,18.2320033 16.9464286,18.5534319 17.1607143,18.7677176 C17.2678571,18.8748605 17.375,18.8748605 17.5892857,18.8748605 C17.8035714,18.8748605 17.9107143,18.8748605 18.0178571,18.7677176 L23.8934501,12.8214286 L23.8934501,16.8928571 C23.8934501,17.2142857 24.1077358,17.4285714 24.4291643,17.4285714 C24.7505929,17.3214286 24.9648786,17.2142857 24.9648786,16.8928571 L24.9648786,11 L19.0720215,11 C18.7505929,11 18.5363072,11.2142857 18.5363072,11.5357143 C18.5363072,11.8571429 18.7505929,12.0714286 19.0720215,12.0714286 Z" id="路径" transform="translate(20.982439, 14.937430) rotate(-180.000000) translate(-20.982439, -14.937430) "></path>
                </g>
            </g>
        </g>
    </g>
</svg>