<?xml version="1.0" encoding="UTF-8"?>
<svg width="96px" height="96px" viewBox="0 0 96 96" version="1.1" xmlns="http://www.w3.org/2000/svg" xmlns:xlink="http://www.w3.org/1999/xlink">
    <title>apps/96/scanner</title>
    <defs>
        <filter x="-9.1%" y="-9.1%" width="118.2%" height="119.3%" filterUnits="objectBoundingBox" id="filter-1">
            <feOffset dx="0" dy="0" in="SourceAlpha" result="shadowOffsetOuter1"></feOffset>
            <feGaussianBlur stdDeviation="2" in="shadowOffsetOuter1" result="shadowBlurOuter1"></feGaussianBlur>
            <feColorMatrix values="0 0 0 0 0   0 0 0 0 0   0 0 0 0 0  0 0 0 0.2 0" type="matrix" in="shadowBlurOuter1" result="shadowMatrixOuter1"></feColorMatrix>
            <feMerge>
                <feMergeNode in="shadowMatrixOuter1"></feMergeNode>
                <feMergeNode in="SourceGraphic"></feMergeNode>
            </feMerge>
        </filter>
        <linearGradient x1="50%" y1="100%" x2="50%" y2="1.59918067%" id="linearGradient-2">
            <stop stop-color="#D1D1D1" offset="0%"></stop>
            <stop stop-color="#D1D1D1" offset="100%"></stop>
        </linearGradient>
        <rect id="path-3" x="2" y="0" width="84" height="88" rx="16"></rect>
        <filter x="-0.6%" y="-0.6%" width="101.2%" height="102.3%" filterUnits="objectBoundingBox" id="filter-5">
            <feOffset dx="0" dy="1" in="SourceAlpha" result="shadowOffsetOuter1"></feOffset>
            <feColorMatrix values="0 0 0 0 0.694117647   0 0 0 0 0.694117647   0 0 0 0 0.694117647  0 0 0 1 0" type="matrix" in="shadowOffsetOuter1"></feColorMatrix>
        </filter>
        <linearGradient x1="50%" y1="100%" x2="50%" y2="1.59918067%" id="linearGradient-6">
            <stop stop-color="#D1D1D1" offset="0%"></stop>
            <stop stop-color="#FEFFFF" offset="100%"></stop>
        </linearGradient>
        <path d="M18,0 L70,0 C78.836556,-1.623249e-15 86,7.163444 86,16 L86,70 C86,78.836556 78.836556,86 70,86 L18,86 C9.163444,86 2,78.836556 2,70 L2,16 C2,7.163444 9.163444,1.623249e-15 18,0 Z" id="path-7"></path>
        <filter x="-0.6%" y="-0.6%" width="101.2%" height="102.3%" filterUnits="objectBoundingBox" id="filter-8">
            <feOffset dx="0" dy="1" in="SourceAlpha" result="shadowOffsetOuter1"></feOffset>
            <feColorMatrix values="0 0 0 0 0.694117647   0 0 0 0 0.694117647   0 0 0 0 0.694117647  0 0 0 1 0" type="matrix" in="shadowOffsetOuter1"></feColorMatrix>
        </filter>
        <linearGradient x1="50%" y1="100%" x2="50%" y2="1.59918067%" id="linearGradient-9">
            <stop stop-color="#D1D1D1" offset="0%"></stop>
            <stop stop-color="#FEFFFF" offset="100%"></stop>
        </linearGradient>
        <path d="M18,0 L70,0 C78.836556,-1.623249e-15 86,7.163444 86,16 L86,68 C86,76.836556 78.836556,84 70,84 L18,84 C9.163444,84 2,76.836556 2,68 L2,16 C2,7.163444 9.163444,1.623249e-15 18,0 Z" id="path-10"></path>
        <filter x="-0.6%" y="-0.6%" width="101.2%" height="102.4%" filterUnits="objectBoundingBox" id="filter-11">
            <feOffset dx="0" dy="1" in="SourceAlpha" result="shadowOffsetOuter1"></feOffset>
            <feColorMatrix values="0 0 0 0 0.694117647   0 0 0 0 0.694117647   0 0 0 0 0.694117647  0 0 0 1 0" type="matrix" in="shadowOffsetOuter1"></feColorMatrix>
        </filter>
        <linearGradient x1="50%" y1="100%" x2="50%" y2="1.59918067%" id="linearGradient-12">
            <stop stop-color="#F5F6F7" offset="0%"></stop>
            <stop stop-color="#FFFFFF" offset="100%"></stop>
        </linearGradient>
        <path d="M18,0 L70,0 C78.836556,-1.623249e-15 86,7.163444 86,16 L86,66 C86,74.836556 78.836556,82 70,82 L18,82 C9.163444,82 2,74.836556 2,66 L2,16 C2,7.163444 9.163444,1.623249e-15 18,0 Z" id="path-13"></path>
        <filter x="-0.6%" y="-0.6%" width="101.2%" height="102.4%" filterUnits="objectBoundingBox" id="filter-14">
            <feOffset dx="0" dy="1" in="SourceAlpha" result="shadowOffsetOuter1"></feOffset>
            <feColorMatrix values="0 0 0 0 0.762509996   0 0 0 0 0.762509996   0 0 0 0 0.762509996  0 0 0 1 0" type="matrix" in="shadowOffsetOuter1"></feColorMatrix>
        </filter>
        <linearGradient x1="50%" y1="0.307391346%" x2="50%" y2="74.6918998%" id="linearGradient-15">
            <stop stop-color="#006AFF" stop-opacity="0.849858637" offset="0%"></stop>
            <stop stop-color="#307BF9" stop-opacity="0" offset="100%"></stop>
        </linearGradient>
        <linearGradient x1="100%" y1="50%" x2="0%" y2="50%" id="linearGradient-16">
            <stop stop-color="#565961" offset="0%"></stop>
            <stop stop-color="#565961" offset="2.22675732%"></stop>
            <stop stop-color="#56575B" offset="97.3376912%"></stop>
            <stop stop-color="#56585C" offset="100%"></stop>
        </linearGradient>
        <linearGradient x1="50%" y1="0%" x2="50%" y2="100%" id="linearGradient-17">
            <stop stop-color="#707277" offset="0%"></stop>
            <stop stop-color="#4E5054" offset="100%"></stop>
        </linearGradient>
        <path d="M4,30 L84,30 C86.209139,30 88,31.790861 88,34 L88,48 C88,50.209139 86.209139,52 84,52 L4,52 C1.790861,52 2.705415e-16,50.209139 0,48 L0,34 C-2.705415e-16,31.790861 1.790861,30 4,30 Z" id="path-18"></path>
        <filter x="-0.6%" y="-2.3%" width="101.1%" height="109.1%" filterUnits="objectBoundingBox" id="filter-19">
            <feOffset dx="0" dy="1" in="SourceAlpha" result="shadowOffsetOuter1"></feOffset>
            <feColorMatrix values="0 0 0 0 0.586015714   0 0 0 0 0.592673494   0 0 0 0 0.609317945  0 0 0 0.546518179 0" type="matrix" in="shadowOffsetOuter1"></feColorMatrix>
        </filter>
        <linearGradient x1="50%" y1="0%" x2="50%" y2="100%" id="linearGradient-20">
            <stop stop-color="#484B53" offset="0%"></stop>
            <stop stop-color="#252627" offset="100%"></stop>
        </linearGradient>
        <path d="M22,35 L66,35 C67.1045695,35 68,35.8954305 68,37 L68,45 C68,46.1045695 67.1045695,47 66,47 L22,47 C20.8954305,47 20,46.1045695 20,45 L20,37 C20,35.8954305 20.8954305,35 22,35 Z" id="path-21"></path>
        <filter x="-1.0%" y="-12.5%" width="102.1%" height="125.0%" filterUnits="objectBoundingBox" id="filter-23">
            <feOffset dx="0" dy="-1" in="SourceAlpha" result="shadowOffsetOuter1"></feOffset>
            <feColorMatrix values="0 0 0 0 0.222016708   0 0 0 0 0.222016708   0 0 0 0 0.222016708  0 0 0 1 0" type="matrix" in="shadowOffsetOuter1" result="shadowMatrixOuter1"></feColorMatrix>
            <feOffset dx="0" dy="1" in="SourceAlpha" result="shadowOffsetOuter2"></feOffset>
            <feColorMatrix values="0 0 0 0 0.463463371   0 0 0 0 0.472977341   0 0 0 0 0.492005279  0 0 0 1 0" type="matrix" in="shadowOffsetOuter2" result="shadowMatrixOuter2"></feColorMatrix>
            <feMerge>
                <feMergeNode in="shadowMatrixOuter1"></feMergeNode>
                <feMergeNode in="shadowMatrixOuter2"></feMergeNode>
            </feMerge>
        </filter>
        <linearGradient x1="100%" y1="50%" x2="0%" y2="50%" id="linearGradient-24">
            <stop stop-color="#45474F" offset="0%"></stop>
            <stop stop-color="#1164FF" offset="68.8705492%"></stop>
            <stop stop-color="#464950" offset="100%"></stop>
        </linearGradient>
    </defs>
    <g id="apps/96/scanner" stroke="none" stroke-width="1" fill="none" fill-rule="evenodd">
        <g id="编组-3" filter="url(#filter-1)" transform="translate(4.000000, 4.000000)">
            <mask id="mask-4" fill="white">
                <use xlink:href="#path-3"></use>
            </mask>
            <g id="矩形">
                <use fill="black" fill-opacity="1" filter="url(#filter-5)" xlink:href="#path-3"></use>
                <use fill="url(#linearGradient-2)" fill-rule="evenodd" xlink:href="#path-3"></use>
            </g>
            <g id="矩形" mask="url(#mask-4)">
                <use fill="black" fill-opacity="1" filter="url(#filter-8)" xlink:href="#path-7"></use>
                <use fill="url(#linearGradient-6)" fill-rule="evenodd" xlink:href="#path-7"></use>
            </g>
            <g id="矩形" mask="url(#mask-4)">
                <use fill="black" fill-opacity="1" filter="url(#filter-11)" xlink:href="#path-10"></use>
                <use fill="url(#linearGradient-9)" fill-rule="evenodd" xlink:href="#path-10"></use>
            </g>
            <g id="矩形" mask="url(#mask-4)">
                <use fill="black" fill-opacity="1" filter="url(#filter-14)" xlink:href="#path-13"></use>
                <use fill="url(#linearGradient-12)" fill-rule="evenodd" xlink:href="#path-13"></use>
            </g>
            <g id="编组" mask="url(#mask-4)" fill="#D1D1D1">
                <g transform="translate(12.000000, 10.000000)">
                    <rect id="矩形" x="0" y="0" width="20" height="4"></rect>
                    <rect id="矩形备份" x="0" y="16" width="10" height="4"></rect>
                    <rect id="矩形备份-2" x="44" y="0" width="20" height="4"></rect>
                    <rect id="矩形备份-9" x="44" y="16" width="20" height="4"></rect>
                    <rect id="矩形备份-3" x="24" y="0" width="14" height="4"></rect>
                    <rect id="矩形备份-10" x="24" y="16" width="14" height="4"></rect>
                    <rect id="矩形备份-4" x="0" y="8" width="6" height="4"></rect>
                    <rect id="矩形备份-7" x="44" y="8" width="6" height="4"></rect>
                    <rect id="矩形备份-8" x="54" y="8" width="10" height="4"></rect>
                    <rect id="矩形备份-6" x="12" y="8" width="28" height="4"></rect>
                </g>
            </g>
            <g id="编组-2" mask="url(#mask-4)" fill="#D1D1D1">
                <g transform="translate(12.000000, 54.000000)">
                    <rect id="矩形" x="0" y="12" width="18" height="10"></rect>
                    <rect id="矩形备份-14" x="0" y="2" width="18" height="8"></rect>
                    <rect id="矩形备份-13" x="46" y="12" width="18" height="10"></rect>
                    <rect id="矩形备份-11" x="20" y="18" width="24" height="4"></rect>
                    <rect id="矩形备份-16" x="20" y="6" width="44" height="4"></rect>
                    <rect id="矩形备份-18" x="20" y="0" width="44" height="4"></rect>
                    <rect id="矩形备份-12" x="20" y="12" width="24" height="4"></rect>
                    <rect id="矩形备份-17" x="20" y="0" width="44" height="2"></rect>
                </g>
            </g>
            <rect id="矩形" fill="url(#linearGradient-15)" mask="url(#mask-4)" x="2" y="52" width="84" height="28"></rect>
            <path d="M4,36 L84,36 C86.209139,36 88,37.790861 88,40 L88,52 C88,54.209139 86.209139,56 84,56 L4,56 C1.790861,56 2.705415e-16,54.209139 0,52 L0,40 C-2.705415e-16,37.790861 1.790861,36 4,36 Z" id="矩形" fill="url(#linearGradient-16)"></path>
            <g id="矩形">
                <use fill="black" fill-opacity="1" filter="url(#filter-19)" xlink:href="#path-18"></use>
                <use fill="url(#linearGradient-17)" fill-rule="evenodd" xlink:href="#path-18"></use>
            </g>
            <mask id="mask-22" fill="white">
                <use xlink:href="#path-21"></use>
            </mask>
            <g id="蒙版">
                <use fill="black" fill-opacity="1" filter="url(#filter-23)" xlink:href="#path-21"></use>
                <use fill="url(#linearGradient-20)" fill-rule="evenodd" xlink:href="#path-21"></use>
            </g>
            <rect id="矩形" fill="url(#linearGradient-24)" mask="url(#mask-22)" x="20" y="39" width="48" height="4"></rect>
        </g>
    </g>
</svg>