<?xml version="1.0" encoding="iso-8859-1"?>
<!-- Generator: Adobe Illustrator 18.1.1, SVG Export Plug-In . SVG Version: 6.00 Build 0)  -->
<!DOCTYPE svg PUBLIC "-//W3C//DTD SVG 1.1//EN" "http://www.w3.org/Graphics/SVG/1.1/DTD/svg11.dtd" [
	<!ENTITY ns_extend "http://ns.adobe.com/Extensibility/1.0/">
	<!ENTITY ns_ai "http://ns.adobe.com/AdobeIllustrator/10.0/">
	<!ENTITY ns_graphs "http://ns.adobe.com/Graphs/1.0/">
	<!ENTITY ns_vars "http://ns.adobe.com/Variables/1.0/">
	<!ENTITY ns_imrep "http://ns.adobe.com/ImageReplacement/1.0/">
	<!ENTITY ns_sfw "http://ns.adobe.com/SaveForWeb/1.0/">
	<!ENTITY ns_custom "http://ns.adobe.com/GenericCustomNamespace/1.0/">
	<!ENTITY ns_adobe_xpath "http://ns.adobe.com/XPath/1.0/">
]>
<svg version="1.1" id="&#x56FE;&#x5C42;_1" xmlns:x="&ns_extend;" xmlns:i="&ns_ai;" xmlns:graph="&ns_graphs;"
	 xmlns="http://www.w3.org/2000/svg" xmlns:xlink="http://www.w3.org/1999/xlink" x="0px" y="0px" viewBox="0 0 24 24"
	 enable-background="new 0 0 24 24" xml:space="preserve">
<metadata>
	<sfw  xmlns="&ns_sfw;">
		<slices></slices>
		<sliceSourceBounds  height="692" width="1378.5" x="21" y="-691.04" bottomLeftOrigin="true"></sliceSourceBounds>
	</sfw>
</metadata>
<g>
	<g>
		<path fill="#B5B5B6" d="M5.022,8.998c0,1.104,0.897,2.002,2,2.002c1.103,0,2-0.898,2-2.002c0-1.102-0.897-1.998-2-1.998
			C5.919,7,5.022,7.897,5.022,8.998z"/>
		<path fill="#B5B5B6" d="M20.696,4H3.304C2.584,4,2,4.454,2,5.174v14.652C2,20.546,2.584,21,3.304,21h7.263l4.416-11.22
			c-0.21-0.007-0.419,0.11-0.55,0.279l-3.639,4.739l-1.71-1.772c-0.133-0.139-0.323-0.205-0.515-0.19
			c-0.192,0.015-0.291,0.119-0.4,0.278L4,18.625V6h16v5.914l2,4.444V5.174C22,4.454,21.416,4,20.696,4z"/>
		<path fill="#B5B5B6" d="M16.348,11l-3.913,10h1.739l0.794-1.969l4.502-0.01L20.261,21H22l-3.913-10H16.348z M15.705,17
			l1.509-3.873L18.73,17H15.705z"/>
	</g>
</g>
</svg>
