<?xml version="1.0" encoding="iso-8859-1"?>
<!-- Generator: Adobe Illustrator 18.1.1, SVG Export Plug-In . SVG Version: 6.00 Build 0)  -->
<!DOCTYPE svg PUBLIC "-//W3C//DTD SVG 1.1//EN" "http://www.w3.org/Graphics/SVG/1.1/DTD/svg11.dtd" [
	<!ENTITY ns_extend "http://ns.adobe.com/Extensibility/1.0/">
	<!ENTITY ns_ai "http://ns.adobe.com/AdobeIllustrator/10.0/">
	<!ENTITY ns_graphs "http://ns.adobe.com/Graphs/1.0/">
	<!ENTITY ns_vars "http://ns.adobe.com/Variables/1.0/">
	<!ENTITY ns_imrep "http://ns.adobe.com/ImageReplacement/1.0/">
	<!ENTITY ns_sfw "http://ns.adobe.com/SaveForWeb/1.0/">
	<!ENTITY ns_custom "http://ns.adobe.com/GenericCustomNamespace/1.0/">
	<!ENTITY ns_adobe_xpath "http://ns.adobe.com/XPath/1.0/">
]>
<svg version="1.1" id="&#x56FE;&#x5C42;_1" xmlns:x="&ns_extend;" xmlns:i="&ns_ai;" xmlns:graph="&ns_graphs;"
	 xmlns="http://www.w3.org/2000/svg" xmlns:xlink="http://www.w3.org/1999/xlink" x="0px" y="0px" viewBox="0 0 64 64"
	 enable-background="new 0 0 64 64" xml:space="preserve">
<metadata>
	<sfw  xmlns="&ns_sfw;">
		<slices></slices>
		<sliceSourceBounds  height="776" width="16383" x="-8088" y="-784" bottomLeftOrigin="true"></sliceSourceBounds>
	</sfw>
</metadata>
<g>
	<g>
		<path fill="#B5B5B6" d="M28.992,51.014c-12.131,0-22-9.869-22-22s9.869-22,22-22s22,9.869,22,22S41.123,51.014,28.992,51.014z
			 M28.992,11.014c-9.925,0-18,8.075-18,18s8.075,18,18,18s18-8.075,18-18S38.917,11.014,28.992,11.014z"/>
	</g>
	<g>
		<path fill="#B5B5B6" d="M39.618,44.935l11.137,11.137c1.167,1.167,3.076,1.167,4.243,0l1.061-1.061
			c1.172-1.172,1.172-3.071,0-4.243L44.921,39.632L39.618,44.935z"/>
	</g>
	<path fill="#B5B5B6" d="M36,40h4l-9-23h-4l-9,23h4l1.945-4.969L34.031,35L36,40z M25.522,31l3.47-8.909L32.478,31H25.522z"/>
</g>
</svg>
