<?xml version="1.0" encoding="iso-8859-1"?>
<!-- Generator: Adobe Illustrator 18.1.1, SVG Export Plug-In . SVG Version: 6.00 Build 0)  -->
<!DOCTYPE svg PUBLIC "-//W3C//DTD SVG 1.1//EN" "http://www.w3.org/Graphics/SVG/1.1/DTD/svg11.dtd" [
	<!ENTITY ns_extend "http://ns.adobe.com/Extensibility/1.0/">
	<!ENTITY ns_ai "http://ns.adobe.com/AdobeIllustrator/10.0/">
	<!ENTITY ns_graphs "http://ns.adobe.com/Graphs/1.0/">
	<!ENTITY ns_vars "http://ns.adobe.com/Variables/1.0/">
	<!ENTITY ns_imrep "http://ns.adobe.com/ImageReplacement/1.0/">
	<!ENTITY ns_sfw "http://ns.adobe.com/SaveForWeb/1.0/">
	<!ENTITY ns_custom "http://ns.adobe.com/GenericCustomNamespace/1.0/">
	<!ENTITY ns_adobe_xpath "http://ns.adobe.com/XPath/1.0/">
]>
<svg version="1.1" id="&#x56FE;&#x5C42;_1" xmlns:x="&ns_extend;" xmlns:i="&ns_ai;" xmlns:graph="&ns_graphs;"
	 xmlns="http://www.w3.org/2000/svg" xmlns:xlink="http://www.w3.org/1999/xlink" x="0px" y="0px" viewBox="0 0 24 24"
	 enable-background="new 0 0 24 24" xml:space="preserve">
<metadata>
	<sfw  xmlns="&ns_sfw;">
		<slices></slices>
		<sliceSourceBounds  height="692" width="1378.5" x="21" y="-691.04" bottomLeftOrigin="true"></sliceSourceBounds>
	</sfw>
</metadata>
<g>
	<g>
		<g>
			<path fill="#B5B5B6" d="M10.81,19.622c-4.858,0-8.81-3.952-8.81-8.81s3.952-8.81,8.81-8.81s8.81,3.952,8.81,8.81
				S15.668,19.622,10.81,19.622z M10.81,3.604c-3.975,0-7.208,3.233-7.208,7.208s3.233,7.208,7.208,7.208s7.208-3.233,7.208-7.208
				S14.784,3.604,10.81,3.604z"/>
		</g>
		<g>
			<path fill="#B5B5B6" d="M15.065,17.188l4.46,4.46c0.467,0.467,1.232,0.467,1.699,0l0.425-0.425c0.469-0.469,0.469-1.23,0-1.699
				l-4.46-4.46L15.065,17.188z"/>
		</g>
		<path fill="#B5B5B6" d="M13.616,15.211h1.602l-3.604-9.21h-1.602l-3.604,9.21H8.01l0.779-1.99l4.039-0.012L13.616,15.211z
			 M9.42,11.607l1.39-3.567l1.396,3.567H9.42z"/>
	</g>
</g>
</svg>
