<?xml version="1.0" encoding="UTF-8"?>
<svg width="96px" height="96px" viewBox="0 0 96 96" version="1.1" xmlns="http://www.w3.org/2000/svg" xmlns:xlink="http://www.w3.org/1999/xlink">
    <!-- Generator: Sketch 58 (84663) - https://sketch.com -->
    <title>日历</title>
    <desc>Created with Sketch.</desc>
    <defs>
        <filter x="-4.4%" y="-4.8%" width="108.9%" height="109.5%" filterUnits="objectBoundingBox" id="filter-1">
            <feOffset dx="0" dy="1" in="SourceAlpha" result="shadowOffsetOuter1"></feOffset>
            <feGaussianBlur stdDeviation="0.5" in="shadowOffsetOuter1" result="shadowBlurOuter1"></feGaussianBlur>
            <feComposite in="shadowBlurOuter1" in2="SourceAlpha" operator="out" result="shadowBlurOuter1"></feComposite>
            <feColorMatrix values="0 0 0 0 0   0 0 0 0 0   0 0 0 0 0  0 0 0 0.15 0" type="matrix" in="shadowBlurOuter1" result="shadowMatrixOuter1"></feColorMatrix>
            <feMerge>
                <feMergeNode in="shadowMatrixOuter1"></feMergeNode>
                <feMergeNode in="SourceGraphic"></feMergeNode>
            </feMerge>
        </filter>
        <linearGradient x1="50%" y1="31.4694798%" x2="50%" y2="99.3850296%" id="linearGradient-2">
            <stop stop-color="#FFFFFF" offset="0%"></stop>
            <stop stop-color="#F3F3F3" offset="100%"></stop>
        </linearGradient>
    </defs>
    <g id="页面-1" stroke="none" stroke-width="1" fill="none" fill-rule="evenodd">
        <g id="日历-96px-2">
            <g id="deepin-calendar-32px">
                <g id="编组" filter="url(#filter-1)" transform="translate(3.000000, 6.000000)">
                    <rect id="Rectangle" fill="#EE3B67" x="0" y="0" width="90" height="84" rx="6"></rect>
                    <path d="M6,0 L84,0 C87.3137085,-6.08718376e-16 90,2.6862915 90,6 L90,42 L90,42 L0,42 L0,6 C-4.05812251e-16,2.6862915 2.6862915,6.08718376e-16 6,0 Z" id="Rectangle" fill="url(#linearGradient-2)"></path>
                    <path d="M30.1599998,42.0164992 C32.4183493,40.6817015 33.9865111,39.5543093 34.8462722,38.6634721 C36.1286479,37.3439026 36.7494676,35.88153 36.7494676,34.2212184 C36.7494676,32.2142749 36.1808433,30.6843241 35.0493984,29.5570949 C33.9102764,28.4222171 32.3797496,27.850408 30.3927773,27.850408 C27.4400896,27.850408 25.5145265,28.9209374 24.4302698,31.0944119 C23.8272009,32.3044452 23.4782822,34.0611187 23.4103893,36.3560439 C23.3920821,36.9748687 22.8970148,37.4668058 22.2925598,37.4668058 L17.3182652,37.4668058 C16.6935512,37.4668058 16.1899725,36.9426147 16.2000686,36.3028394 C16.2572384,32.6800795 16.9233692,29.6866916 18.2208606,27.3284187 C20.5545091,23.1108158 24.6772334,21 30.4199592,21 C35.1782726,21 38.7466382,22.342069 41.039863,25.0739085 C43.2676872,27.7278384 44.3953585,30.7175627 44.3953585,34.0001518 C44.3953585,37.4726673 43.1811605,40.4718589 40.781434,42.9315905 C39.4100409,44.3456739 36.395686,46.4566874 33.0625748,48.3474864 C33.02458,48.36904 32.9853916,48.3883082 32.9452088,48.4051931 C32.875333,48.4345551 32.733181,48.4974095 32.5292179,48.5927134 C32.1830284,48.7544743 31.7956709,48.9466888 31.3776587,49.1682377 C30.1827556,49.8015433 28.9881303,50.5396409 27.8786939,51.3712887 C25.8907114,52.8615059 24.4255162,54.4642136 23.6531488,56.1272727 L42.9585989,56.1272727 C43.5762424,56.1272727 44.0769415,56.6401102 44.0769415,57.2727273 L44.0769415,61.8545455 C44.0769415,62.4871625 43.5762424,63 42.9585989,63 L16.1183768,63 C15.4768357,63 14.9668022,62.4483779 15.0016889,61.7922562 C15.1378625,59.2312115 15.7112658,56.4839108 16.9020643,53.8303386 C18.5452609,50.1686434 21.1772683,47.1498459 24.9576125,45.0740708 L30.1599998,42.0164992 Z M50.0414353,27.8727273 C49.4237917,27.8727273 48.9230927,27.3598898 48.9230927,26.7272727 L48.9230927,22.1454545 C48.9230927,21.5128375 49.4237917,21 50.0414353,21 L76.8816574,21 C77.499301,21 78,21.5128375 78,22.1454545 L78,26.7272727 C78,27.0343441 77.8796259,27.3285574 77.6658903,27.5438898 C76.5589576,28.6590925 73.1482349,33.6533769 70.3966544,38.732686 C66.2081486,46.4645023 63.2804246,54.413546 62.2985699,62.0049729 C62.2249126,62.5744708 61.750789,63 61.189913,63 L56.0059291,63 C55.3161564,63 54.7908305,62.3666792 54.9022812,61.6694675 C55.6772859,56.8212046 57.1335544,51.1698835 59.2318688,45.5714407 C61.6491334,39.1220173 64.7641449,33.1267012 68.6213953,27.8727273 L50.0414353,27.8727273 Z" id="27" fill="#313131" fill-rule="nonzero"></path>
                </g>
            </g>
        </g>
    </g>
</svg>