<?xml version="1.0" encoding="iso-8859-1"?>
<!-- Generator: Adobe Illustrator 18.0.0, SVG Export Plug-In . SVG Version: 6.00 Build 0)  -->
<!DOCTYPE svg PUBLIC "-//W3C//DTD SVG 1.1//EN" "http://www.w3.org/Graphics/SVG/1.1/DTD/svg11.dtd">
<svg version="1.1" id="&#x56FE;&#x5C42;_1" xmlns="http://www.w3.org/2000/svg" xmlns:xlink="http://www.w3.org/1999/xlink" x="0px"
	 y="0px" viewBox="0 0 24 24" style="enable-background:new 0 0 24 24;" xml:space="preserve">
<g>
	<path style="fill:#B5B5B6;" d="M19.932,7.314c-0.514-1.994-2.74-3.471-4.918-3.471c-0.634,0-1.237,0.126-1.788,0.352
		c-0.617-0.961-2.309-2.009-3.893-2.028C6,2.125,3.875,4.429,3.875,7.62c-1.616,0.576-2.856,1.781-2.856,3.865
		C1.019,13.938,3,15.21,4,15.58V10h16v5.578c2-0.373,3.234-2.097,3.234-4.177C23.234,9.464,21.723,7.832,19.932,7.314z
		 M20.933,11.527c-0.332,0-0.601-0.271-0.601-0.606s0.269-0.606,0.601-0.606c0.332,0,0.601,0.271,0.601,0.606
		S21.265,11.527,20.933,11.527z"/>
	<circle style="fill:#B5B5B6;" cx="14.498" cy="17.524" r="1.5"/>
	<path style="fill:#B5B5B6;" d="M5,21c0,0.552,0.448,1,1,1h12c0.552,0,1-0.448,1-1V11H5V21z M17.854,20.15
		c0.195,0.195,0.195,0.512,0,0.707c-0.195,0.195-0.512,0.195-0.707,0l-1.266-1.266c-0.394,0.258-0.861,0.414-1.367,0.414
		c-1.386,0-2.514-1.128-2.514-2.514s1.128-2.514,2.514-2.514s2.514,1.128,2.514,2.514c0,0.519-0.163,0.999-0.434,1.4L17.854,20.15z
		 M7,13h10v1H7V13z M7,16h4v1H7V16z M7,19h4l0.5,1H7V19z"/>
</g>
</svg>
