<?xml version="1.0" encoding="iso-8859-1"?>
<!-- Generator: Adobe Illustrator 18.0.0, SVG Export Plug-In . SVG Version: 6.00 Build 0)  -->
<!DOCTYPE svg PUBLIC "-//W3C//DTD SVG 1.1//EN" "http://www.w3.org/Graphics/SVG/1.1/DTD/svg11.dtd">
<svg version="1.1" id="&#x56FE;&#x5C42;_1" xmlns="http://www.w3.org/2000/svg" xmlns:xlink="http://www.w3.org/1999/xlink" x="0px"
	 y="0px" viewBox="0 0 64 64" style="enable-background:new 0 0 64 64;" xml:space="preserve">
<g>
	<g>
		<path style="fill:#B5B5B6;" d="M25.83,11.782c3.688,0,7.197,1.442,9.93,3.686c1.291-0.366,2.677-0.552,4.041-0.552
			c3.024,0,7.199,0.927,9.199,2.515v-7.39c0-0.552-0.448-1-1-1H16c-0.552,0-1,0.448-1,1v5.523C18,13.353,22.016,11.782,25.83,11.782
			z"/>
	</g>
	<path style="fill:#B5B5B6;" d="M52.001,25.612c-1.284-4.908-6.839-8.543-12.278-8.543c-1.582,0-3.089,0.31-4.464,0.866
		c-2.36-2.443-5.7-3.977-9.416-3.977c-7.078,0-13.821,5.538-13.929,12.407c-4.035,1.418-7.177,5.17-7.177,9.589
		C4.737,40.922,9,45.049,13,45.959V33h38v12.956c5-0.919,8.659-5.162,8.659-10.283C59.659,30.906,56.471,26.889,52.001,25.612z
		 M54.5,35.985c-0.828,0-1.5-0.668-1.5-1.493C53,33.668,53.672,33,54.5,33s1.5,0.668,1.5,1.493C56,35.316,55.328,35.985,54.5,35.985
		z"/>
	<g>
		<path style="fill:#B5B5B6;" d="M15,35v21c0,0.552,0.448,1,1,1h32c0.552,0,1-0.448,1-1V35H15z M31,52H19v-2h11L31,52z M30,46H19v-2
			h12L30,46z M45.717,55.158c-0.403,0.403-1.061,0.403-1.464,0l-2.252-2.252c-0.979,0.695-2.172,1.108-3.462,1.108
			c-3.309,0-6-2.691-6-6s2.691-6,6-6s6,2.691,6,6c0,1.298-0.418,2.497-1.122,3.48l2.299,2.299
			C46.094,54.171,46.094,54.781,45.717,55.158z M45,40H19v-2h26V40z"/>
		<path style="fill:#B5B5B6;" d="M38.54,44.015c-2.206,0-4,1.795-4,4c0,2.206,1.794,4,4,4c2.205,0,4-1.794,4-4
			C42.54,45.809,40.745,44.015,38.54,44.015z"/>
	</g>
</g>
</svg>
