<?xml version="1.0" encoding="iso-8859-1"?>
<!-- Generator: Adobe Illustrator 18.0.0, SVG Export Plug-In . SVG Version: 6.00 Build 0)  -->
<!DOCTYPE svg PUBLIC "-//W3C//DTD SVG 1.1//EN" "http://www.w3.org/Graphics/SVG/1.1/DTD/svg11.dtd">
<svg version="1.1" id="&#x56FE;&#x5C42;_1" xmlns="http://www.w3.org/2000/svg" xmlns:xlink="http://www.w3.org/1999/xlink" x="0px"
	 y="0px" viewBox="0 0 64 64" style="enable-background:new 0 0 64 64;" xml:space="preserve">
<g>
	<g>
		<path style="fill:#B5B5B6;" d="M11,22h42c0.552,0,1-0.448,1-1V11c0-0.552-0.448-1-1-1H11c-0.552,0-1,0.448-1,1v10
			C10,21.552,10.448,22,11,22z M49.5,14.501c0.828,0,1.5,0.672,1.5,1.5s-0.672,1.5-1.5,1.5s-1.5-0.672-1.5-1.5
			S48.672,14.501,49.5,14.501z M44.5,14.501c0.828,0,1.5,0.672,1.5,1.5s-0.672,1.5-1.5,1.5s-1.5-0.672-1.5-1.5
			S43.672,14.501,44.5,14.501z M19,15h21c0.552,0,1,0.448,1,1c0,0.552-0.448,1-1,1H19c-0.552,0-1-0.448-1-1
			C18,15.448,18.448,15,19,15z M14.496,14.501c0.828,0,1.5,0.672,1.5,1.5s-0.672,1.5-1.5,1.5s-1.5-0.672-1.5-1.5
			S13.668,14.501,14.496,14.501z"/>
	</g>
	<g>
		<path style="fill:#B5B5B6;" d="M39,50.798V49H19c-0.552,0-1-0.448-1-1c0-0.552,0.448-1,1-1h20v-1.715l2.778-0.991l0.045-0.119
			L40.788,42H11c-0.552,0-1,0.448-1,1v10c0,0.552,0.448,1,1,1h29.826l0.997-2.093l-0.046-0.117L39,50.798z M14.496,49.55
			c-0.828,0-1.5-0.672-1.5-1.5s0.672-1.5,1.5-1.5s1.5,0.672,1.5,1.5S15.325,49.55,14.496,49.55z"/>
	</g>
	<g>
		<path style="fill:#B5B5B6;" d="M11,38h36.502l0.715-2H54v-9c0-0.552-0.448-1-1-1H11c-0.552,0-1,0.448-1,1v10
			C10,37.552,10.448,38,11,38z M49.5,30.524c0.828,0,1.5,0.672,1.5,1.5s-0.672,1.5-1.5,1.5s-1.5-0.672-1.5-1.5
			S48.672,30.524,49.5,30.524z M44.5,30.524c0.828,0,1.5,0.672,1.5,1.5s-0.672,1.5-1.5,1.5s-1.5-0.672-1.5-1.5
			S43.672,30.524,44.5,30.524z M19,31h21c0.552,0,1,0.448,1,1c0,0.552-0.448,1-1,1H19c-0.552,0-1-0.448-1-1
			C18,31.448,18.448,31,19,31z M14.496,30.524c0.828,0,1.5,0.672,1.5,1.5s-0.672,1.5-1.5,1.5s-1.5-0.672-1.5-1.5
			S13.668,30.524,14.496,30.524z"/>
	</g>
	<g>
		<path style="fill:#B5B5B6;" d="M59.535,46.178c-0.554-0.199-1.002-0.622-1.227-1.166l0-0.001
			c-0.226-0.546-0.211-1.161,0.042-1.695l0.663-1.394l-1.904-1.904l-1.394,0.662c-0.534,0.253-1.151,0.269-1.695,0.043h-0.001
			c-0.544-0.226-0.968-0.712-1.165-1.268l-0.518-1.495h-2.694l-0.517,1.495c-0.198,0.555-0.621,1.022-1.165,1.247l-0.002,0.01
			c-0.545,0.226-1.16,0.215-1.694-0.038l-1.394-0.66l-1.905,1.905l0.663,1.395c0.253,0.534,0.269,1.149,0.043,1.695v0.001
			c-0.226,0.544-0.671,0.967-1.226,1.166l-1.453,0.518v2.692l1.453,0.518c0.555,0.198,1,0.621,1.226,1.164l0,0.001
			c0.226,0.546,0.211,1.161-0.043,1.695l-0.664,1.394l1.905,1.904l1.394-0.662c0.533-0.253,1.149-0.269,1.694-0.043h0.002
			c0.544,0.225,0.967,0.632,1.165,1.187l0.517,1.415h2.694l0.514-1.405c0.2-0.561,0.628-0.991,1.176-1.22
			c0.541-0.225,1.151-0.199,1.679,0.052l1.404,0.672l1.904-1.902l-0.663-1.393c-0.253-0.533-0.268-1.148-0.043-1.693v-0.001
			c0.226-0.544,0.675-0.967,1.23-1.166l1.457-0.517v-2.692L59.535,46.178z M50.989,52.328c-2.367,0-4.286-1.918-4.286-4.286
			c0-2.367,1.918-4.286,4.286-4.286c2.366,0,4.286,1.918,4.286,4.286C55.275,50.41,53.355,52.328,50.989,52.328z"/>
	</g>
</g>
</svg>
