<?xml version="1.0" encoding="UTF-8"?>
<svg width="23px" height="23px" viewBox="0 0 23 23" version="1.1" xmlns="http://www.w3.org/2000/svg" xmlns:xlink="http://www.w3.org/1999/xlink">
    <!-- Generator: Sketch 58 (84663) - https://sketch.com -->
    <title>切片</title>
    <desc>Created with Sketch.</desc>
    <defs>
        <linearGradient x1="50%" y1="0%" x2="50%" y2="95.6533653%" id="linearGradient-1">
            <stop stop-color="#E6E6E6" offset="0%"></stop>
            <stop stop-color="#E3E3E3" offset="100%"></stop>
        </linearGradient>
        <rect id="path-2" x="0" y="0" width="24" height="24" rx="5"></rect>
        <filter x="-29.2%" y="-20.8%" width="158.3%" height="158.3%" filterUnits="objectBoundingBox" id="filter-3">
            <feOffset dx="0" dy="2" in="SourceAlpha" result="shadowOffsetOuter1"></feOffset>
            <feGaussianBlur stdDeviation="2" in="shadowOffsetOuter1" result="shadowBlurOuter1"></feGaussianBlur>
            <feComposite in="shadowBlurOuter1" in2="SourceAlpha" operator="out" result="shadowBlurOuter1"></feComposite>
            <feColorMatrix values="0 0 0 0 0   0 0 0 0 0   0 0 0 0 0  0 0 0 0.05 0" type="matrix" in="shadowBlurOuter1"></feColorMatrix>
        </filter>
    </defs>
    <g id="页面-1" stroke="none" stroke-width="1" fill="none" fill-rule="evenodd">
        <g id="button_有图标">
            <g id="button/安排">
                <g>
                    <g id="button/add">
                        <g id="编组-8">
                            <g id="Rectangle">
                                <use fill="black" fill-opacity="1" filter="url(#filter-3)" xlink:href="#path-2"></use>
                                <rect stroke-opacity="0.03" stroke="#000000" stroke-width="1" stroke-linejoin="square" fill="url(#linearGradient-1)" fill-rule="evenodd" x="0.5" y="0.5" width="23" height="23" rx="5"></rect>
                            </g>
                            <g id="安排会议-1" transform="translate(5.000000, 8.000000)" stroke="#536076">
                                <path d="M13.5,1.34167229 L9.49804176,3.67971942 L9.49804176,1.40067171 C9.49804342,0.907039914 9.08288983,0.501296352 8.56488386,0.5 L1.43684211,0.5 C0.916625808,0.5 0.5,0.906138354 0.5,1.4006734 L0.5,7.5993266 C0.5,8.09386165 0.916625808,8.5 1.43684211,8.5 L8.56488386,8.5 C9.08510016,8.5 9.50172597,8.09386165 9.50172597,7.5993266 L9.50172597,5.31987558 L13.5,7.65792272 L13.5,1.34167229 Z" id="Shape-2"></path>
                                <path d="M5.17143715,4.34517653 L5.17142681,4.34517654 L5.17142681,2.38768388 C5.17142681,2.49752814 5.08275846,2.57692308 5.00274334,2.57692308 C4.92432825,2.57692308 4.83664161,2.49922133 4.83664161,2.38768388 L4.83664161,4.34496488 L2.95963897,4.34496488 C3.09320873,4.34496488 3.17042481,4.44144935 3.17042481,4.5 C3.17042481,4.5579201 3.09401759,4.65384615 2.95963897,4.65384615 L4.83664556,4.65384615 L4.83660565,6.58207292 C4.83660565,6.47424785 4.92103231,6.39774975 5.00274334,6.39774975 C5.08603266,6.39774975 5.17139085,6.47587928 5.17139085,6.58208327 L5.17143076,4.65405864 L7.02900427,4.65167419 C6.88946633,4.6516746 6.82782357,4.58204617 6.82782357,4.5 C6.82782357,4.4327111 6.90387933,4.34279333 7.02836246,4.34279333 L5.33599979,4.34496529 L5.17143715,4.34517653 L5.17143716,4.34496488 L4.83664161,4.34496488 L4.83664161,4.65448838 L5.17143076,4.65405864 L5.17143715,4.34517653 Z" id="路径"></path>
                            </g>
                        </g>
                    </g>
                </g>
            </g>
        </g>
    </g>
</svg>