<?xml version="1.0" encoding="utf-8"?>
<!-- Generator: Adobe Illustrator 16.0.0, SVG Export Plug-In . SVG Version: 6.00 Build 0)  -->
<!DOCTYPE svg PUBLIC "-//W3C//DTD SVG 1.1//EN" "http://www.w3.org/Graphics/SVG/1.1/DTD/svg11.dtd">
<svg version="1.1" id="图层_1" xmlns="http://www.w3.org/2000/svg" xmlns:xlink="http://www.w3.org/1999/xlink" x="0px" y="0px"
	 width="24px" height="24px" viewBox="0 0 24 24" enable-background="new 0 0 24 24" xml:space="preserve">
<filter  id="filter-3" y="-20.8%" x="-29.2%" width="158.3%" height="158.3%" filterUnits="objectBoundingBox">
	<feOffset  result="shadowOffsetOuter1" in="SourceAlpha" dy="2" dx="0"></feOffset>
	<feGaussianBlur  result="shadowBlurOuter1" in="shadowOffsetOuter1" stdDeviation="2"></feGaussianBlur>
	<feComposite  in2="SourceAlpha" result="shadowBlurOuter1" in="shadowBlurOuter1" operator="out"></feComposite>
	<feColorMatrix  values="0 0 0 0 0   0 0 0 0 0   0 0 0 0 0  0 0 0 0.05 0" in="shadowBlurOuter1" type="matrix"></feColorMatrix>
</filter>
<g>
	<polygon id="path-4" fill="#FFFFFF" points="4,6 18,6 18,16 4,16 	"/>
</g>
<title>切片</title>
<desc>Created with Sketch.</desc>
<g filter="url(#filter-3)">
	<path id="path-2_2_" d="M19,0H5C2.239,0,0,2.239,0,5v14c0,2.762,2.239,5,5,5h14c2.762,0,5-2.238,5-5V5C24,2.239,21.762,0,19,0z"/>
</g>
<g>
	<g>
		<path id="path-2_1_" fill-opacity="0.08" d="M19,0H5C2.239,0,0,2.239,0,5v14c0,2.762,2.239,5,5,5h14c2.762,0,5-2.238,5-5V5
			C24,2.239,21.762,0,19,0z"/>
	</g>
	
		<linearGradient id="SVGID_1_" gradientUnits="userSpaceOnUse" x1="-297.7769" y1="415.7861" x2="-297.7769" y2="414.8296" gradientTransform="matrix(-23 0 0 -23 -6836.8594 9563.5625)">
		<stop  offset="0" style="stop-color:#E6E6E6"/>
		<stop  offset="1" style="stop-color:#E3E3E3"/>
	</linearGradient>
	<path fill="url(#SVGID_1_)" stroke="#000000" stroke-opacity="0.03" d="M18.5,0.5h-13c-2.761,0-5,2.239-5,5v13c0,2.762,2.239,5,5,5
		h13c2.762,0,5-2.238,5-5v-13C23.5,2.739,21.262,0.5,18.5,0.5z"/>
</g>
<g id="Clip-2">
</g>
<path id="Fill-1" fill="#536076" d="M14.104,9.443c0-1.094-0.931-1.979-2.078-1.979c-1.148,0-2.079,0.886-2.079,1.979
	s0.931,1.979,2.079,1.979C13.174,11.423,14.104,10.537,14.104,9.443z M15.241,13.139c0.328,0,0.594,0.267,0.594,0.594v1.106h1.216
	c0.313,0,0.565,0.254,0.565,0.566c0,0.313-0.252,0.565-0.565,0.565l-1.216-0.001v1.104c0,0.328-0.266,0.594-0.594,0.594
	s-0.594-0.266-0.594-0.594V15.97l-1.214,0.001c-0.313,0-0.565-0.252-0.565-0.565c0-0.313,0.253-0.566,0.565-0.566h1.214v-1.106
	C14.647,13.405,14.913,13.139,15.241,13.139z M11.938,6.333c1.853,0,3.354,1.442,3.354,3.223c0,1.015-0.487,1.92-1.25,2.511
	c0,0-0.207,0.144-0.653,0.318c-0.34,0.132-0.92,0.248-1.513,0.334c-2.169,0.314-4.296,1.977-4.296,4.289v0.039
	c0,0.33-0.268,0.597-0.598,0.597s-0.599-0.267-0.599-0.597v-0.039c0-2.232,1.427-4.146,3.451-4.941
	c-0.763-0.591-1.25-1.496-1.25-2.511C8.585,7.775,10.086,6.333,11.938,6.333z"/>
</svg>
