<?xml version="1.0" encoding="UTF-8"?>
<svg width="24px" height="22px" viewBox="0 0 24 22" version="1.1" xmlns="http://www.w3.org/2000/svg" xmlns:xlink="http://www.w3.org/1999/xlink">
    <title>形状</title>
    <g id="页面-1" stroke="none" stroke-width="1" fill="none" fill-rule="evenodd">
        <g id="icon-chat" fill="#A5A5A5" fill-rule="nonzero">
            <path d="M12,0 C5.662,0 0,4.226 0,10.007 C0,12.057 0.739,14.07 2.047,15.632 C2.102,17.462 1.024,20.088 0.054,22 C2.656,21.53 6.355,20.492 8.032,19.464 C17.268,21.711 24,16.059 24,10.007 C24,4.195 18.299,0 12,0 Z M7,11.5 C6.171,11.5 5.5,10.829 5.5,10 C5.5,9.171 6.171,8.5 7,8.5 C7.829,8.5 8.5,9.171 8.5,10 C8.5,10.829 7.829,11.5 7,11.5 Z M12,11.5 C11.171,11.5 10.5,10.829 10.5,10 C10.5,9.171 11.171,8.5 12,8.5 C12.829,8.5 13.5,9.171 13.5,10 C13.5,10.829 12.829,11.5 12,11.5 Z M17,11.5 C16.172,11.5 15.5,10.829 15.5,10 C15.5,9.171 16.172,8.5 17,8.5 C17.829,8.5 18.5,9.171 18.5,10 C18.5,10.829 17.829,11.5 17,11.5 Z" id="形状"></path>
        </g>
    </g>
</svg>