<?xml version="1.0" encoding="UTF-8"?>
<svg width="24px" height="24px" viewBox="0 0 24 24" version="1.1" xmlns="http://www.w3.org/2000/svg" xmlns:xlink="http://www.w3.org/1999/xlink">
    <title>历史记录</title>
    <g id="组件" stroke="none" stroke-width="1" fill="none" fill-rule="evenodd">
        <g id="add-chat-footer" transform="translate(-66.000000, -59.000000)" fill="#516078">
            <g id="chat-footer" transform="translate(-2.000000, 0.000000)">
                <g id="bg" transform="translate(2.000000, 0.000000)">
                    <g id="历史记录" transform="translate(66.000000, 59.000000)">
                        <path d="M20.4854822,3.51450225 C25.1715059,8.20129626 25.1715059,15.7994948 20.4854822,20.4854978 C15.798814,25.1715007 8.20048291,25.1715007 3.51451779,20.4854978 C-1.17150593,15.7988502 -1.17150593,8.20050525 3.51451779,3.51450225 C8.20133252,-1.17150075 15.7994585,-1.17150075 20.4854822,3.51450225 Z M4.51355725,4.51270996 C0.377971734,8.6481456 0.377971734,15.3519763 4.51273005,19.4867029 C8.64816785,23.6220794 15.3519725,23.6220794 19.4867013,19.4867029 C23.62208,15.3519763 23.62208,8.6481456 19.4867013,4.51350762 C15.3519725,0.377983353 8.64816785,0.377983353 4.51355725,4.51270996 Z M12.0048682,4.23529412 C12.3947162,4.23529412 12.7107505,4.55132841 12.7107505,4.94117647 L12.71,11.233 L19.0588235,11.233013 C19.4486716,11.233013 19.7647059,11.5490473 19.7647059,11.9388954 C19.7647059,12.3287434 19.4486716,12.6447777 19.0588235,12.6447777 L12,12.6447777 C11.6101519,12.6447777 11.2941176,12.3287434 11.2941176,11.9388954 L11.2941176,4.94117647 C11.2941176,4.55132841 11.6101519,4.23529412 12,4.23529412 L12.0048682,4.23529412 Z" id="形状结合"></path>
                    </g>
                </g>
            </g>
        </g>
    </g>
</svg>