<svg xmlns="http://www.w3.org/2000/svg" width="19" height="19" viewBox="0 0 19 19">
  <g fill="none" fill-rule="evenodd" transform="translate(-1 -1)">
    <path fill="#536076" d="M4.28571429,7.14285714 L4.28571429,15 C4.28571429,16.1320122 5.1634925,17.0590084 6.27553732,17.1374768 L6.42857143,17.1428571 L7.14223265,17.1427222 C7.54849987,17.683624 8.02976902,18.1649731 8.57060013,18.5713293 L6.42857143,18.5714286 C4.51975317,18.5714286 2.96069167,17.0739419 2.86209334,15.1896748 L2.85714286,15 L2.85714286,7.14285714 L4.28571429,7.14285714 Z M16.4285714,4.28571429 C16.8230605,4.28571429 17.1428571,4.60551089 17.1428571,5 C17.1428571,5.39448911 16.8230605,5.71428571 16.4285714,5.71428571 L2.14285714,5.71428571 C1.74836804,5.71428571 1.42857143,5.39448911 1.42857143,5 C1.42857143,4.60551089 1.74836804,4.28571429 2.14285714,4.28571429 L16.4285714,4.28571429 Z M10.7142857,1.42857143 C11.1087748,1.42857143 11.4285714,1.74836804 11.4285714,2.14285714 C11.4285714,2.53734625 11.1087748,2.85714286 10.7142857,2.85714286 L7.85714286,2.85714286 C7.46265375,2.85714286 7.14285714,2.53734625 7.14285714,2.14285714 C7.14285714,1.74836804 7.46265375,1.42857143 7.85714286,1.42857143 L10.7142857,1.42857143 Z"/>
    <circle cx="12.857" cy="12.857" r="5.714" stroke="#536076" stroke-width="1.429"/>
    <path fill="#536076" d="M12.8180581,8.53234384 C13.2125472,8.53234384 13.5323438,8.85214045 13.5323438,9.24662955 L13.5323438,12.1033438 L16.3894867,12.1037724 C16.7839758,12.1037724 17.1037724,12.423569 17.1037724,12.8180581 C17.1037724,13.2125472 16.7839758,13.5323438 16.3894867,13.5323438 L13.5323438,13.5323438 L13.5323438,16.3894867 C13.5323438,16.7839758 13.2125472,17.1037724 12.8180581,17.1037724 C12.423569,17.1037724 12.1037724,16.7839758 12.1037724,16.3894867 L12.1033438,13.5323438 L9.24662955,13.5323438 C8.85214045,13.5323438 8.53234384,13.2125472 8.53234384,12.8180581 C8.53234384,12.423569 8.85214045,12.1037724 9.24662955,12.1037724 L12.1033438,12.1033438 L12.1037724,9.24662955 C12.1037724,8.85214045 12.423569,8.53234384 12.8180581,8.53234384 Z" transform="rotate(45 12.818 12.818)"/>
  </g>
</svg>
