<?xml version="1.0" encoding="utf-8"?>
<!-- Generator: Adobe Illustrator 16.0.0, SVG Export Plug-In . SVG Version: 6.00 Build 0)  -->
<!DOCTYPE svg PUBLIC "-//W3C//DTD SVG 1.1//EN" "http://www.w3.org/Graphics/SVG/1.1/DTD/svg11.dtd">
<svg version="1.1" id="图层_1" xmlns="http://www.w3.org/2000/svg" xmlns:xlink="http://www.w3.org/1999/xlink" x="0px" y="0px"
	 width="24px" height="24px" viewBox="0 0 24 24" enable-background="new 0 0 24 24" xml:space="preserve">
<filter  id="filter-3" y="-20.8%" x="-29.2%" height="158.3%" width="158.3%" filterUnits="objectBoundingBox">
	<feOffset  result="shadowOffsetOuter1" in="SourceAlpha" dy="2" dx="0"></feOffset>
	<feGaussianBlur  result="shadowBlurOuter1" in="shadowOffsetOuter1" stdDeviation="2"></feGaussianBlur>
	<feComposite  in2="SourceAlpha" result="shadowBlurOuter1" in="shadowBlurOuter1" operator="out"></feComposite>
	<feColorMatrix  values="0 0 0 0 0   0 0 0 0 0   0 0 0 0 0  0 0 0 0.05 0" in="shadowBlurOuter1" type="matrix"></feColorMatrix>
</filter>
<title>切片</title>
<desc>Created with Sketch.</desc>
<g id="矩形">
	<g filter="url(#filter-3)">
		<path id="path-2_2_" d="M5,0h14c2.762,0,5,2.239,5,5v14c0,2.762-2.238,5-5,5H5c-2.761,0-5-2.238-5-5V5C0,2.239,2.239,0,5,0z"/>
	</g>
	<g>
		<path id="path-2_1_" fill-opacity="0.08" d="M5,0h14c2.762,0,5,2.239,5,5v14c0,2.762-2.238,5-5,5H5c-2.761,0-5-2.238-5-5V5
			C0,2.239,2.239,0,5,0z"/>
	</g>
	
		<linearGradient id="SVGID_1_" gradientUnits="userSpaceOnUse" x1="-272.2231" y1="415.7861" x2="-272.2231" y2="414.8296" gradientTransform="matrix(23 0 0 -23 6273.1406 9563.5625)">
		<stop  offset="0" style="stop-color:#E6E6E6"/>
		<stop  offset="1" style="stop-color:#E3E3E3"/>
	</linearGradient>
	<path fill="url(#SVGID_1_)" stroke="#000000" stroke-opacity="0.03" d="M5.5,0.5h13c2.762,0,5,2.239,5,5v13c0,2.762-2.238,5-5,5
		h-13c-2.761,0-5-2.238-5-5v-13C0.5,2.739,2.739,0.5,5.5,0.5z"/>
</g>
<g id="开始" transform="translate(7.000000, 7.000000)">
	<path id="Fill-1" fill="#536076" d="M5.432,8.57V3.073c0-0.291-0.135-0.524-0.438-0.524c-0.302,0-0.433,0.234-0.433,0.524V8.57
		c0,0.29,0.131,0.524,0.433,0.524C5.297,9.095,5.432,8.86,5.432,8.57z M7.184,8.57V3.073c0-0.291-0.135-0.524-0.438-0.524
		S6.312,2.782,6.312,3.073V8.57c0,0.29,0.132,0.524,0.435,0.524S7.184,8.86,7.184,8.57z M3.681,8.57V3.073
		c0-0.291-0.135-0.524-0.438-0.524c-0.302,0-0.434,0.234-0.434,0.524V8.57c0,0.29,0.132,0.524,0.434,0.524
		C3.546,9.095,3.681,8.86,3.681,8.57z M8.065,0.076v-0.421c0-0.67-0.553-1.217-1.25-1.217H3.22c-0.698,0-1.282,0.547-1.282,1.217
		v0.421h-2.963c-0.302,0-0.537,0.126-0.537,0.416c0,0.29,0.235,0.411,0.537,0.411h1.213v9.281c0,1.062,0.39,1.378,1.494,1.378h6.637
		c1.105,0,1.504-0.316,1.504-1.378V0.903h1.193c0.303,0,0.547-0.121,0.547-0.411c0-0.29-0.244-0.416-0.547-0.416H8.065z
		 M2.814-0.743H7.19v0.826H2.814V-0.743z M8.937,10.748H1.052v-9.85h7.884V10.748z"/>
</g>
</svg>
