<?xml version="1.0" encoding="utf-8"?>
<!-- Generator: Adobe Illustrator 16.0.0, SVG Export Plug-In . SVG Version: 6.00 Build 0)  -->
<!DOCTYPE svg PUBLIC "-//W3C//DTD SVG 1.1//EN" "http://www.w3.org/Graphics/SVG/1.1/DTD/svg11.dtd">
<svg version="1.1" id="图层_1" xmlns="http://www.w3.org/2000/svg" xmlns:xlink="http://www.w3.org/1999/xlink" x="0px" y="0px"
	 width="24px" height="24px" viewBox="0 0 24 24" enable-background="new 0 0 24 24" xml:space="preserve">
<filter  id="filter-3" y="-20.8%" x="-29.2%" width="158.3%" height="158.3%" filterUnits="objectBoundingBox">
	<feOffset  result="shadowOffsetOuter1" in="SourceAlpha" dy="2" dx="0"></feOffset>
	<feGaussianBlur  result="shadowBlurOuter1" in="shadowOffsetOuter1" stdDeviation="2"></feGaussianBlur>
	<feComposite  in2="SourceAlpha" result="shadowBlurOuter1" in="shadowBlurOuter1" operator="out"></feComposite>
	<feColorMatrix  values="0 0 0 0 0   0 0 0 0 0   0 0 0 0 0  0 0 0 0.05 0" in="shadowBlurOuter1" type="matrix"></feColorMatrix>
</filter>
<title>切片</title>
<desc>Created with Sketch.</desc>
<g id="矩形">
	<g filter="url(#filter-3)">
		<path id="path-2_2_" d="M5,0h14c2.762,0,5,2.239,5,5v14c0,2.762-2.238,5-5,5H5c-2.761,0-5-2.238-5-5V5C0,2.239,2.239,0,5,0z"/>
	</g>
	<g>
		<path id="path-2_1_" fill-opacity="0.08" d="M5,0h14c2.762,0,5,2.239,5,5v14c0,2.762-2.238,5-5,5H5c-2.761,0-5-2.238-5-5V5
			C0,2.239,2.239,0,5,0z"/>
	</g>
	
		<linearGradient id="SVGID_1_" gradientUnits="userSpaceOnUse" x1="-272.2231" y1="415.7861" x2="-272.2231" y2="414.8296" gradientTransform="matrix(23 0 0 -23 6273.1406 9563.5625)">
		<stop  offset="0" style="stop-color:#E6E6E6"/>
		<stop  offset="1" style="stop-color:#E3E3E3"/>
	</linearGradient>
	<path fill="url(#SVGID_1_)" stroke="#000000" stroke-opacity="0.03" d="M5.5,0.5h13c2.762,0,5,2.239,5,5v13c0,2.762-2.238,5-5,5
		h-13c-2.761,0-5-2.238-5-5v-13C0.5,2.739,2.739,0.5,5.5,0.5z"/>
</g>
<g id="解散" transform="translate(6.000000, 5.000000)">
	<g id="编组">
		<path id="Fill-1" fill="#536076" d="M7.448,11.937c-0.236,0-0.45,0.151-0.54,0.389c-0.091,0.235-0.042,0.506,0.127,0.688
			l1.525,1.72c0.115,0.125,0.264,0.185,0.414,0.185c0.152,0,0.302-0.06,0.415-0.185c0.229-0.246,0.229-0.646,0-0.89l-0.525-0.677
			h4.126c0.324,0,0.598-0.257,0.598-0.606c0-0.348-0.273-0.623-0.598-0.623H7.448z M13.188,10.712c0.236,0,0.452-0.152,0.542-0.388
			c0.09-0.237,0.042-0.508-0.127-0.688l-1.729-1.818c-0.229-0.246-0.601-0.194-0.827,0.052c-0.229,0.247-0.229,0.594,0,0.838
			l0.727,0.792H7.395c-0.324,0-0.585,0.263-0.585,0.603s0.261,0.61,0.585,0.61H13.188z M3.135,3.37c0-1.659,1.31-3.062,3-3.062
			c1.691,0,3.125,1.403,3.125,3.062c0,1.659-1.376,3.062-3.065,3.062C4.51,6.432,3.135,5.028,3.135,3.37z M1.907,3.247
			c0,1.108,0.108,2.31,1.708,3.555c-3.293,0.886-5.389,3.28-5.389,6.579c0,0.21,0.377,0.399,0.606,0.399s0.575-0.189,0.575-0.399
			c0-3.588,2.825-5.725,6.744-5.725c2.787,0,4.333-2.396,4.333-4.41c0-2.014-1.357-4.164-4.333-4.164
			C3.401-0.917,1.907,1.443,1.907,3.247z"/>
	</g>
</g>
</svg>
