<?xml version="1.0" encoding="utf-8"?>
<!-- Generator: Adobe Illustrator 16.0.0, SVG Export Plug-In . SVG Version: 6.00 Build 0)  -->
<!DOCTYPE svg PUBLIC "-//W3C//DTD SVG 1.1//EN" "http://www.w3.org/Graphics/SVG/1.1/DTD/svg11.dtd">
<svg version="1.1" id="图层_1" xmlns="http://www.w3.org/2000/svg" xmlns:xlink="http://www.w3.org/1999/xlink" x="0px" y="0px"
	 width="24px" height="24px" viewBox="0 0 24 24" enable-background="new 0 0 24 24" xml:space="preserve">
<title>5</title>
<desc>Created with Sketch.</desc>
<g id="Rectangle-175" transform="translate(12.000000, 12.000000) scale(-1, 1) translate(-12.000000, -12.000000) ">
	
		<linearGradient id="矩形_1_" gradientUnits="userSpaceOnUse" x1="321.7769" y1="415.7861" x2="321.7769" y2="414.8296" gradientTransform="matrix(-23 0 0 -23 7412.8594 9563.5625)">
		<stop  offset="0" style="stop-color:#E6E6E6"/>
		<stop  offset="1" style="stop-color:#E3E3E3"/>
	</linearGradient>
	<path id="矩形" fill="url(#矩形_1_)" stroke="#000000" stroke-opacity="0.03" d="M5.5,0.5h13c2.761,0,5,2.239,5,5v13
		c0,2.762-2.239,5-5,5h-13c-2.762,0-5-2.238-5-5v-13C0.5,2.739,2.738,0.5,5.5,0.5z"/>
</g>
<g id="Fill-1-Clipped" transform="translate(4.000000, 6.000000)">
	<g id="path-4">
	</g>
	<defs>
		<filter id="Adobe_OpacityMaskFilter" filterUnits="userSpaceOnUse" x="2.041" y="-0.542" width="11.292" height="12.028">
			<feColorMatrix  type="matrix" values="1 0 0 0 0  0 1 0 0 0  0 0 1 0 0  0 0 0 1 0"/>
		</filter>
	</defs>
	<mask maskUnits="userSpaceOnUse" x="2.041" y="-0.542" width="11.292" height="12.028" id="mask-3">
		<g filter="url(#Adobe_OpacityMaskFilter)">
			<polygon id="path-2" fill="#FFFFFF" points="-1.792,-2.379 15.854,-2.379 15.854,12.745 -1.792,12.745 			"/>
		</g>
	</mask>
	<path id="Fill-1" mask="url(#mask-3)" fill="#536076" d="M9.803,2.758c0-1.16-0.936-2.101-2.09-2.101
		c-1.154,0-2.089,0.94-2.089,2.101c0,1.161,0.936,2.101,2.089,2.101C8.867,4.859,9.803,3.919,9.803,2.758z M12.237,9.085
		c0.593,0,1.096,0.536,1.096,1.2c0,0.663-0.503,1.2-1.125,1.2l0,0h-1.332c-0.623,0-1.125-0.537-1.125-1.2
		c0-0.664,0.502-1.2,1.125-1.2l0,0H12.237z M7.625-0.542c1.863,0,3.372,1.531,3.372,3.42c0,1.077-0.49,2.038-1.258,2.665
		c0,0-0.207,0.152-0.657,0.338C8.74,6.02,8.158,6.143,7.562,6.234c-2.179,0.333-4.318,2.097-4.318,4.552v0.073l0,0
		c0,0.333-0.269,0.601-0.602,0.601c-0.332,0-0.601-0.268-0.601-0.601v-0.073l0,0c0-2.37,1.434-4.399,3.469-5.244
		C4.743,4.915,4.253,3.955,4.253,2.877C4.253,0.989,5.763-0.542,7.625-0.542z M12.437,9.951c-0.158,0-0.298,0.121-0.298,0.334
		s0.153,0.322,0.298,0.322c0.146,0,0.3-0.086,0.3-0.322C12.736,10.047,12.597,9.951,12.437,9.951z M12.208,6.084
		c0.622,0,1.125,0.536,1.125,1.199c0,0.664-0.503,1.201-1.125,1.201l0,0h-1.332c-0.623,0-1.125-0.537-1.125-1.201
		c0-0.663,0.502-1.199,1.125-1.199l0,0H12.208z M11.957,6.654h-0.869c-0.394,0-0.753,0.261-0.753,0.599
		c0,0.34,0.327,0.657,0.753,0.657l0,0h0.869c0.427,0,0.756-0.317,0.756-0.657C12.713,6.915,12.384,6.654,11.957,6.654L11.957,6.654z
		 M10.942,6.963c0.175,0,0.3,0.118,0.3,0.325c0,0.208-0.125,0.322-0.302,0.322c-0.118,0-0.298-0.112-0.298-0.322
		S10.766,6.963,10.942,6.963z"/>
</g>
</svg>
