<?xml version="1.0" encoding="utf-8"?>
<!-- Generator: Adobe Illustrator 16.0.0, SVG Export Plug-In . SVG Version: 6.00 Build 0)  -->
<!DOCTYPE svg PUBLIC "-//W3C//DTD SVG 1.1//EN" "http://www.w3.org/Graphics/SVG/1.1/DTD/svg11.dtd">
<svg version="1.1" id="图层_1" xmlns="http://www.w3.org/2000/svg" xmlns:xlink="http://www.w3.org/1999/xlink" x="0px" y="0px"
	 width="24px" height="24px" viewBox="0 0 24 24" enable-background="new 0 0 24 24" xml:space="preserve">
<filter  id="filter-3" y="-20.8%" x="-29.2%" width="158.3%" height="158.3%" filterUnits="objectBoundingBox">
	<feOffset  result="shadowOffsetOuter1" in="SourceAlpha" dy="2" dx="0"></feOffset>
	<feGaussianBlur  result="shadowBlurOuter1" in="shadowOffsetOuter1" stdDeviation="2"></feGaussianBlur>
	<feComposite  in2="SourceAlpha" result="shadowBlurOuter1" in="shadowBlurOuter1" operator="out"></feComposite>
	<feColorMatrix  values="0 0 0 0 0   0 0 0 0 0   0 0 0 0 0  0 0 0 0.05 0" in="shadowBlurOuter1" type="matrix"></feColorMatrix>
</filter>
<title>切片</title>
<desc>Created with Sketch.</desc>
<g filter="url(#filter-3)">
	<path id="path-2_2_" d="M19,0H5C2.239,0,0,2.239,0,5v14c0,2.762,2.239,5,5,5h14c2.762,0,5-2.238,5-5V5C24,2.239,21.762,0,19,0z"/>
</g>
<g>
	<path id="path-2_1_" fill-opacity="0.08" d="M19,0H5C2.239,0,0,2.239,0,5v14c0,2.762,2.239,5,5,5h14c2.762,0,5-2.238,5-5V5
		C24,2.239,21.762,0,19,0z"/>
</g>
<linearGradient id="SVGID_1_" gradientUnits="userSpaceOnUse" x1="-297.7769" y1="415.7861" x2="-297.7769" y2="414.8296" gradientTransform="matrix(-23 0 0 -23 -6836.8594 9563.5625)">
	<stop  offset="0" style="stop-color:#E6E6E6"/>
	<stop  offset="1" style="stop-color:#E3E3E3"/>
</linearGradient>
<path fill="url(#SVGID_1_)" stroke="#000000" stroke-opacity="0.03" d="M18.5,0.5h-13c-2.761,0-5,2.239-5,5v13c0,2.762,2.239,5,5,5
	h13c2.762,0,5-2.238,5-5v-13C23.5,2.739,21.262,0.5,18.5,0.5z"/>
<path id="形状结合" fill="#536076" d="M17.66,7.472c0.626,0,1.132,0.451,1.132,1.006v7.043c0,0.555-0.506,1.006-1.132,1.006
	H6.34c-0.625,0-1.132-0.451-1.132-1.006V8.478c0-0.555,0.507-1.006,1.132-1.006H17.66z M17.66,7.975H6.34
	c-0.313,0-0.566,0.226-0.566,0.503v7.043c0,0.277,0.253,0.504,0.566,0.504h11.32c0.313,0,0.565-0.227,0.565-0.504V8.478
	C18.226,8.201,17.973,7.975,17.66,7.975z M9.736,13.51v2.012H6.34V13.51H9.736z M13.698,13.51v2.012h-3.396V13.51H13.698z
	 M17.66,13.51v2.012h-3.396V13.51H17.66z M9.736,10.994v2.012H6.34v-2.012H9.736z M13.698,10.994v2.012h-3.396v-2.012H13.698z
	 M17.66,10.994v2.012h-3.396v-2.012H17.66z M9.736,8.478v2.013H6.34V8.478H9.736z M13.698,8.478v2.013h-3.396V8.478H13.698z
	 M17.66,8.478v2.013h-3.396V8.478H17.66z"/>
</svg>
