<?xml version="1.0" encoding="utf-8"?>
<!-- Generator: Adobe Illustrator 16.0.0, SVG Export Plug-In . SVG Version: 6.00 Build 0)  -->
<!DOCTYPE svg PUBLIC "-//W3C//DTD SVG 1.1//EN" "http://www.w3.org/Graphics/SVG/1.1/DTD/svg11.dtd">
<svg version="1.1" id="图层_1" xmlns="http://www.w3.org/2000/svg" xmlns:xlink="http://www.w3.org/1999/xlink" x="0px" y="0px"
	 width="24px" height="24px" viewBox="0 0 24 24" enable-background="new 0 0 24 24" xml:space="preserve">
<filter  id="filter-3" y="-20.8%" x="-29.2%" width="158.3%" height="158.3%" filterUnits="objectBoundingBox">
	<feOffset  result="shadowOffsetOuter1" in="SourceAlpha" dy="2" dx="0"></feOffset>
	<feGaussianBlur  result="shadowBlurOuter1" in="shadowOffsetOuter1" stdDeviation="2"></feGaussianBlur>
	<feComposite  in2="SourceAlpha" result="shadowBlurOuter1" in="shadowBlurOuter1" operator="out"></feComposite>
	<feColorMatrix  values="0 0 0 0 0   0 0 0 0 0   0 0 0 0 0  0 0 0 0.05 0" in="shadowBlurOuter1" type="matrix"></feColorMatrix>
</filter>
<title>切片</title>
<desc>Created with Sketch.</desc>
<g id="Rectangle-175">
	<g filter="url(#filter-3)">
		<path id="path-2_2_" d="M5,0h14c2.762,0,5,2.239,5,5v14c0,2.762-2.238,5-5,5H5c-2.762,0-5-2.238-5-5V5C0,2.239,2.238,0,5,0z"/>
	</g>
	<g>
		<path id="path-2_1_" fill-opacity="0.08" d="M5,0h14c2.762,0,5,2.239,5,5v14c0,2.762-2.238,5-5,5H5c-2.762,0-5-2.238-5-5V5
			C0,2.239,2.238,0,5,0z"/>
	</g>
	
		<linearGradient id="SVGID_1_" gradientUnits="userSpaceOnUse" x1="-272.2231" y1="415.7861" x2="-272.2231" y2="414.8296" gradientTransform="matrix(23 0 0 -23 6273.1406 9563.5625)">
		<stop  offset="0" style="stop-color:#E6E6E6"/>
		<stop  offset="1" style="stop-color:#E3E3E3"/>
	</linearGradient>
	<path fill="url(#SVGID_1_)" stroke="#000000" stroke-opacity="0.03" d="M5.5,0.5h13c2.762,0,5,2.239,5,5v13c0,2.762-2.238,5-5,5
		h-13c-2.762,0-5-2.238-5-5v-13C0.5,2.739,2.738,0.5,5.5,0.5z"/>
</g>
<linearGradient id="形状结合_1_" gradientUnits="userSpaceOnUse" x1="-255.6138" y1="396.0098" x2="-255.6138" y2="394.8115" gradientTransform="matrix(10 0 0 -10.5 2568.1406 4163.8047)">
	<stop  offset="0" style="stop-color:#FF4949"/>
	<stop  offset="0.9905" style="stop-color:#D10000"/>
</linearGradient>
<path id="形状结合" fill="url(#形状结合_1_)" d="M15.719,7.506c0.195,0,0.369,0.097,0.479,0.246l-0.002-0.023
	c1.109,1.119,1.797,2.676,1.797,4.399c0,3.403-2.682,6.163-5.992,6.163c-3.309,0-5.992-2.76-5.992-6.163
	c0-1.724,0.688-3.282,1.798-4.4C7.916,7.594,8.083,7.506,8.27,7.506c0.331,0,0.6,0.276,0.6,0.616c0,0.144-0.048,0.276-0.128,0.38
	l0.013-0.001c-0.951,0.901-1.548,2.193-1.548,3.627c0,2.723,2.146,4.93,4.794,4.93c2.646,0,4.792-2.207,4.792-4.93
	c0-1.378-0.549-2.625-1.436-3.52c-0.041-0.027-0.076-0.062-0.105-0.101c0-0.002-0.004-0.004-0.006-0.007
	c-0.078-0.103-0.125-0.235-0.125-0.379C15.121,7.782,15.389,7.506,15.719,7.506z M12,5.708c0.331,0,0.599,0.268,0.599,0.599v3.595
	c0,0.331-0.268,0.599-0.599,0.599s-0.6-0.268-0.6-0.599V6.308C11.401,5.977,11.669,5.708,12,5.708z M16.195,8.501
	c0-0.004-0.004-0.002-0.006,0.001L16.195,8.501l0.002-0.007L16.195,8.501z"/>
</svg>
