<?xml version="1.0" encoding="UTF-8"?>
<svg width="234px" height="234px" viewBox="0 0 234 234" version="1.1" xmlns="http://www.w3.org/2000/svg" xmlns:xlink="http://www.w3.org/1999/xlink">
    <!-- Generator: Sketch 56.2 (81672) - https://sketch.com -->
    <title>maganifier</title>
    <desc>Created with Sketch.</desc>
    <defs>
        <linearGradient x1="50%" y1="0%" x2="50%" y2="100%" id="linearGradient-1">
            <stop stop-color="#F7F7F7" offset="0%"></stop>
            <stop stop-color="#F6F6F6" offset="100%"></stop>
        </linearGradient>
        <path d="M117,213 C172.78076,213 218,167.78076 218,112 C218,56.2192403 172.78076,11 117,11 C61.2192403,11 16,56.2192403 16,112 C16,167.78076 61.2192403,213 117,213 Z M117,221 C56.8009623,221 8,172.199038 8,112 C8,51.8009623 56.8009623,3 117,3 C177.199038,3 226,51.8009623 226,112 C226,172.199038 177.199038,221 117,221 Z" id="path-2"></path>
        <filter x="-6.7%" y="-4.4%" width="113.3%" height="113.3%" filterUnits="objectBoundingBox" id="filter-3">
            <feOffset dx="0" dy="5" in="SourceAlpha" result="shadowOffsetOuter1"></feOffset>
            <feGaussianBlur stdDeviation="4" in="shadowOffsetOuter1" result="shadowBlurOuter1"></feGaussianBlur>
            <feComposite in="shadowBlurOuter1" in2="SourceAlpha" operator="out" result="shadowBlurOuter1"></feComposite>
            <feColorMatrix values="0 0 0 0 0   0 0 0 0 0   0 0 0 0 0  0 0 0 0.1 0" type="matrix" in="shadowBlurOuter1"></feColorMatrix>
        </filter>
        <linearGradient x1="50%" y1="0%" x2="50%" y2="44.5863861%" id="linearGradient-4">
            <stop stop-color="#FFFFFF" stop-opacity="0.4" offset="0%"></stop>
            <stop stop-color="#FFFFFF" stop-opacity="0" offset="100%"></stop>
        </linearGradient>
        <filter x="-5.0%" y="-5.0%" width="110.1%" height="110.1%" filterUnits="objectBoundingBox" id="filter-5">
            <feGaussianBlur stdDeviation="3" in="SourceGraphic"></feGaussianBlur>
        </filter>
    </defs>
    <g id="page" stroke="none" stroke-width="1" fill="none" fill-rule="evenodd">
        <g id="6-放大镜" transform="translate(-347.000000, -424.000000)">
            <g id="放大镜" transform="translate(347.000000, 424.000000)">
                <g id="Oval" fill-rule="nonzero">
                    <use fill="black" fill-opacity="1" filter="url(#filter-3)" xlink:href="#path-2"></use>
                    <path stroke-opacity="0.5" stroke="#FFFFFF" stroke-width="1" d="M117,213.5 C60.9430979,213.5 15.5,168.056902 15.5,112 C15.5,55.9430979 60.9430979,10.5 117,10.5 C173.056902,10.5 218.5,55.9430979 218.5,112 C218.5,168.056902 173.056902,213.5 117,213.5 Z M117,220.5 C176.922895,220.5 225.5,171.922895 225.5,112 C225.5,52.0771046 176.922895,3.5 117,3.5 C57.0771046,3.5 8.5,52.0771046 8.5,112 C8.5,171.922895 57.0771046,220.5 117,220.5 Z" stroke-linejoin="square" fill="url(#linearGradient-1)" fill-rule="evenodd"></path>
                    <path stroke-opacity="0.05" stroke="#000000" stroke-width="1" d="M117,212.5 C172.504617,212.5 217.5,167.504617 217.5,112 C217.5,56.4953826 172.504617,11.5 117,11.5 C61.4953826,11.5 16.5,56.4953826 16.5,112 C16.5,167.504617 61.4953826,212.5 117,212.5 Z M117,221.5 C56.5248199,221.5 7.5,172.47518 7.5,112 C7.5,51.5248199 56.5248199,2.5 117,2.5 C177.47518,2.5 226.5,51.5248199 226.5,112 C226.5,172.47518 177.47518,221.5 117,221.5 Z"></path>
                </g>
                <path d="M117.5,202 C166.929485,202 207,161.929485 207,112.5 C207,63.0705149 166.929485,23 117.5,23 C68.0705149,23 28,63.0705149 28,112.5 C28,161.929485 68.0705149,202 117.5,202 Z" id="Path" fill="url(#linearGradient-4)" filter="url(#filter-5)"></path>
            </g>
        </g>
    </g>
</svg>