<?xml version="1.0" encoding="UTF-8"?>
<svg width="44px" height="44px" viewBox="0 0 44 44" version="1.1" xmlns="http://www.w3.org/2000/svg" xmlns:xlink="http://www.w3.org/1999/xlink">
    <title>button/partition</title>
    <defs>
        <linearGradient x1="50%" y1="0%" x2="50%" y2="95.6533653%" id="linearGradient-1">
            <stop stop-color="#E6E6E6" offset="0%"></stop>
            <stop stop-color="#E3E3E3" offset="100%"></stop>
        </linearGradient>
        <rect id="path-2" x="0" y="0" width="36" height="36" rx="8"></rect>
        <filter x="-19.4%" y="-13.9%" width="138.9%" height="138.9%" filterUnits="objectBoundingBox" id="filter-3">
            <feOffset dx="0" dy="2" in="SourceAlpha" result="shadowOffsetOuter1"></feOffset>
            <feGaussianBlur stdDeviation="2" in="shadowOffsetOuter1" result="shadowBlurOuter1"></feGaussianBlur>
            <feComposite in="shadowBlurOuter1" in2="SourceAlpha" operator="out" result="shadowBlurOuter1"></feComposite>
            <feColorMatrix values="0 0 0 0 0   0 0 0 0 0   0 0 0 0 0  0 0 0 0.05 0" type="matrix" in="shadowBlurOuter1"></feColorMatrix>
        </filter>
    </defs>
    <g id="组件" stroke="none" stroke-width="1" fill="none" fill-rule="evenodd">
        <g id="headbar/light" transform="translate(-56.000000, -5.000000)">
            <g id="button/partition" transform="translate(60.000000, 7.000000)">
                <g id="Rectangle-9">
                    <use fill="black" fill-opacity="1" filter="url(#filter-3)" xlink:href="#path-2"></use>
                    <use fill-opacity="0.08" fill="#000000" fill-rule="evenodd" xlink:href="#path-2"></use>
                    <rect stroke-opacity="0.03" stroke="#000000" stroke-width="1" stroke-linejoin="square" fill="url(#linearGradient-1)" fill-rule="evenodd" x="0.5" y="0.5" width="35" height="35" rx="8"></rect>
                </g>
                <path d="M11.9658359,14.2683282 C12.0045414,14.2876809 12.0359259,14.3190654 12.0552786,14.3577709 L13.7316718,17.7105573 C13.7810697,17.809353 13.7410248,17.9294876 13.6422291,17.9788854 C13.614458,17.992771 13.5838354,18 13.5527864,18 L12.3763932,18 C12.3763932,21.3137085 15.0626847,24 18.3763932,24 C19.5044208,24 20.559743,23.6887108 21.4611428,23.1473493 L21.4699742,23.140988 C21.7066745,22.9987642 22.0138531,23.0753524 22.1560769,23.3120526 C22.2983008,23.5487528 22.2217125,23.8559315 21.9850123,23.9981553 L21.971299,24.0061076 L21.971299,24.0061076 L21.9720078,24.0071976 C20.9210905,24.6375793 19.6910658,25 18.3763932,25 C14.5104,25 11.3763932,21.8659932 11.3763932,18 L10.2,18 C10.0895431,18 10,17.9104569 10,17.8 C10,17.768951 10.007229,17.7383284 10.0211146,17.7105573 L11.6975078,14.3577709 C11.7469056,14.2589752 11.8670402,14.2189303 11.9658359,14.2683282 Z M18.3763932,11 C22.1618449,11 25.2454919,14.0047834 25.3723342,17.7593502 L25.3763932,18 L26.5527864,18 C26.5838354,18 26.614458,18.007229 26.6422291,18.0211146 C26.7410248,18.0705124 26.7810697,18.190647 26.7316718,18.2894427 L26.7316718,18.2894427 L25.0552786,21.6422291 C25.0359259,21.6809346 25.0045414,21.7123191 24.9658359,21.7316718 C24.8670402,21.7810697 24.7469056,21.7410248 24.6975078,21.6422291 L24.6975078,21.6422291 L23.0211146,18.2894427 C23.007229,18.2616716 23,18.231049 23,18.2 C23,18.0895431 23.0895431,18 23.2,18 L23.2,18 L24.3763932,18 C24.3763932,14.6862915 21.6901017,12 18.3763932,12 C17.0134374,12 15.7566246,12.4544521 14.7492171,13.2200937 C14.5231312,13.3908995 14.2096297,13.3468397 14.043443,13.1263026 C13.8957216,12.9302696 13.9141208,12.6607832 14.0749234,12.4865994 L14.1243932,12.441 L14.1235893,12.4395407 C15.3024269,11.5365677 16.776749,11 18.3763932,11 Z" id="形状结合" fill="#536076"></path>
            </g>
        </g>
    </g>
</svg>