<?xml version="1.0" encoding="UTF-8" standalone="no"?>
<svg width="24px" height="23px" viewBox="0 0 24 23" version="1.1" xmlns="http://www.w3.org/2000/svg" xmlns:xlink="http://www.w3.org/1999/xlink" xmlns:sketch="http://www.bohemiancoding.com/sketch/ns">
    <!-- Generator: Sketch 3.4.4 (17249) - http://www.bohemiancoding.com/sketch -->
    <title>set_normal</title>
    <desc>Created with Sketch.</desc>
    <defs>
        <linearGradient x1="50%" y1="0%" x2="50%" y2="100%" id="linearGradient-1">
            <stop stop-color="#FFFFFF" offset="0%"></stop>
            <stop stop-color="#FBFBFB" offset="100%"></stop>
        </linearGradient>
        <filter x="-50%" y="-50%" width="200%" height="200%" filterUnits="objectBoundingBox" id="filter-2">
            <feOffset dx="0" dy="1" in="SourceAlpha" result="shadowOffsetOuter1"></feOffset>
            <feGaussianBlur stdDeviation="0" in="shadowOffsetOuter1" result="shadowBlurOuter1"></feGaussianBlur>
            <feColorMatrix values="0 0 0 0 0   0 0 0 0 0   0 0 0 0 0  0 0 0 0.014 0" in="shadowBlurOuter1" type="matrix" result="shadowMatrixOuter1"></feColorMatrix>
            <feMorphology radius="1" in="SourceAlpha" operator="dilate" result="shadowSpreadInner1"></feMorphology>
            <feOffset dx="0" dy="1" in="shadowSpreadInner1" result="shadowOffsetInner1"></feOffset>
            <feGaussianBlur stdDeviation="0" in="shadowOffsetInner1" result="shadowBlurInner1"></feGaussianBlur>
            <feComposite in="shadowBlurInner1" in2="SourceAlpha" operator="arithmetic" k2="-1" k3="1" result="shadowInnerInner1"></feComposite>
            <feColorMatrix values="0 0 0 0 1   0 0 0 0 1   0 0 0 0 1  0 0 0 0.7 0" in="shadowInnerInner1" type="matrix" result="shadowMatrixInner1"></feColorMatrix>
            <feOffset dx="0" dy="1" in="SourceAlpha" result="shadowOffsetInner2"></feOffset>
            <feGaussianBlur stdDeviation="0" in="shadowOffsetInner2" result="shadowBlurInner2"></feGaussianBlur>
            <feComposite in="shadowBlurInner2" in2="SourceAlpha" operator="arithmetic" k2="-1" k3="1" result="shadowInnerInner2"></feComposite>
            <feColorMatrix values="0 0 0 0 1   0 0 0 0 1   0 0 0 0 1  0 0 0 0.410235507 0" in="shadowInnerInner2" type="matrix" result="shadowMatrixInner2"></feColorMatrix>
            <feMerge>
                <feMergeNode in="shadowMatrixOuter1"></feMergeNode>
                <feMergeNode in="SourceGraphic"></feMergeNode>
                <feMergeNode in="shadowMatrixInner1"></feMergeNode>
                <feMergeNode in="shadowMatrixInner2"></feMergeNode>
            </feMerge>
        </filter>
    </defs>
    <g id="Page-1" stroke="none" stroke-width="1" fill="none" fill-rule="evenodd" sketch:type="MSPage">
        <g id="打印1" sketch:type="MSArtboardGroup" transform="translate(-889.000000, -663.000000)">
            <g id="Group" sketch:type="MSLayerGroup" transform="translate(432.000000, 547.000000)">
                <g id="Rectangle-68-+-Line-Copy-+-Group-2" transform="translate(33.000000, 97.000000)" sketch:type="MSShapeGroup">
                    <g id="set_normal" transform="translate(425.000000, 20.000000)">
                        <rect id="Rectangle-9" stroke-opacity="0.15" stroke="#000000" fill="url(#linearGradient-1)" filter="url(#filter-2)" x="0" y="0" width="22" height="20" rx="2"></rect>
                        <path d="M18,10.942 L18,9.058 L16.981,8.695 C16.593,8.557 16.28,8.26 16.122,7.88 L16.122,7.879 C15.964,7.497 15.975,7.066 16.152,6.693 L16.616,5.717 L15.283,4.384 L14.307,4.848 C13.934,5.025 13.502,5.036 13.121,4.878 L13.12,4.878 C12.74,4.719 12.443,4.408 12.304,4.019 L11.942,3 L10.057,3 L9.695,4.019 C9.557,4.407 9.26,4.72 8.88,4.878 L8.879,4.878 C8.497,5.036 8.066,5.025 7.693,4.848 L6.717,4.384 L5.383,5.717 L5.847,6.693 C6.025,7.066 6.036,7.497 5.878,7.879 L5.878,7.88 C5.719,8.26 5.407,8.557 5.019,8.695 L4,9.058 L4,10.942 L5.019,11.305 C5.407,11.443 5.719,11.74 5.878,12.12 L5.878,12.121 C6.036,12.503 6.025,12.934 5.847,13.307 L5.383,14.283 L6.717,15.616 L7.693,15.152 C8.066,14.975 8.497,14.964 8.879,15.122 L8.88,15.122 C9.26,15.28 9.557,15.593 9.695,15.981 L10.057,17 L11.942,17 L12.302,15.988 C12.442,15.596 12.742,15.28 13.125,15.12 C13.504,14.963 13.931,14.974 14.301,15.15 L15.283,15.616 L16.616,14.283 L16.152,13.307 C15.975,12.934 15.964,12.503 16.122,12.121 C16.28,11.74 16.593,11.443 16.981,11.304 L18,10.942 L18,10.942 Z M11,14 C8.79066667,14 7,12.2106667 7,10 C7,7.79066667 8.79066667,6 11,6 C13.208,6 15,7.79066667 15,10 C15,12.2106667 13.208,14 11,14 L11,14 Z" fill="#404040"></path>
                    </g>
                </g>
            </g>
        </g>
    </g>
</svg>