<?xml version="1.0" encoding="UTF-8"?>
<svg width="44px" height="44px" viewBox="0 0 44 44" version="1.1" xmlns="http://www.w3.org/2000/svg" xmlns:xlink="http://www.w3.org/1999/xlink">
    <title>文件夹icon备份</title>
    <defs>
        <linearGradient x1="50%" y1="0%" x2="50%" y2="95.6533653%" id="linearGradient-1">
            <stop stop-color="#E6E6E6" offset="0%"></stop>
            <stop stop-color="#E3E3E3" offset="100%"></stop>
        </linearGradient>
        <rect id="path-2" x="0" y="0" width="36" height="36" rx="8"></rect>
        <filter x="-19.4%" y="-13.9%" width="138.9%" height="138.9%" filterUnits="objectBoundingBox" id="filter-3">
            <feOffset dx="0" dy="2" in="SourceAlpha" result="shadowOffsetOuter1"></feOffset>
            <feGaussianBlur stdDeviation="2" in="shadowOffsetOuter1" result="shadowBlurOuter1"></feGaussianBlur>
            <feComposite in="shadowBlurOuter1" in2="SourceAlpha" operator="out" result="shadowBlurOuter1"></feComposite>
            <feColorMatrix values="0 0 0 0 0   0 0 0 0 0   0 0 0 0 0  0 0 0 0.05 0" type="matrix" in="shadowBlurOuter1"></feColorMatrix>
        </filter>
    </defs>
    <g id="页面-1" stroke="none" stroke-width="1" fill="none" fill-rule="evenodd">
        <g id="下载-新建下载输入正确备份" transform="translate(-466.000000, -860.000000)">
            <g id="对话框-12" transform="translate(414.000000, 333.000000)">
                <g id="文件夹icon备份" transform="translate(56.000000, 529.000000)">
                    <g id="button/add">
                        <g id="Rectangle">
                            <use fill="black" fill-opacity="1" filter="url(#filter-3)" xlink:href="#path-2"></use>
                            <rect stroke-opacity="0.03" stroke="#000000" stroke-width="1" stroke-linejoin="square" fill="url(#linearGradient-1)" fill-rule="evenodd" x="0.5" y="0.5" width="35" height="35" rx="8"></rect>
                        </g>
                        <g id="Line-2-+-Line-3" transform="translate(13.000000, 13.000000)" fill="#000000" opacity="0">
                            <path d="M6,0 L6,5 L11,5 L11,6 L6,6 L6,11 L5,11 L5,6 L0,6 L0,5 L5,5 L5,0 L6,0 Z" id="Combined-Shape"></path>
                        </g>
                    </g>
                    <g id="形状结合" transform="translate(10.833333, 10.000000)" fill="#536076">
                        <path d="M6,2 L7,3 L13,3 C14.1045695,3 15,3.8954305 15,5 L15,12 C15,13.1045695 14.1045695,14 13,14 L3,14 C1.8954305,14 1,13.1045695 1,12 L1,3.5 C1,2.67157288 1.67157288,2 2.5,2 L6,2 Z M5.36685552,6 L4,6 L4,11 L5.13314448,11 L5.13314448,9.28629032 C5.13314448,8.78897849 5.03399433,8.04301075 4.97025496,7.55241935 L4.99858357,7.55241935 L5.42351275,8.74865591 L6.1388102,10.5766129 L6.83286119,10.5766129 L7.54107649,8.74865591 L7.98016997,7.55241935 L8.00849858,7.55241935 C7.94475921,8.04301075 7.84560907,8.78897849 7.84560907,9.28629032 L7.84560907,11 L9,11 L9,6 L7.62606232,6 L6.81869688,8.15725806 C6.71954674,8.44623656 6.63456091,8.76209677 6.52832861,9.07123656 L6.49291785,9.07123656 C6.39376771,8.76209677 6.30878187,8.44623656 6.20254958,8.15725806 L5.36685552,6 Z M11.1474359,6 L10,6 L10,11 L13,11 L13,9.99193548 L11.1474359,9.99193548 L11.1474359,6 Z"></path>
                    </g>
                </g>
            </g>
        </g>
    </g>
</svg>