<?xml version="1.0" encoding="iso-8859-1"?>
<!-- Generator: Adobe Illustrator 18.0.0, SVG Export Plug-In . SVG Version: 6.00 Build 0)  -->
<!DOCTYPE svg PUBLIC "-//W3C//DTD SVG 1.1//EN" "http://www.w3.org/Graphics/SVG/1.1/DTD/svg11.dtd">
<svg version="1.1" id="&#x56FE;&#x5C42;_1" xmlns="http://www.w3.org/2000/svg" xmlns:xlink="http://www.w3.org/1999/xlink" x="0px"
	 y="0px" viewBox="0 0 64 64" style="enable-background:new 0 0 64 64;" xml:space="preserve">
<g>
	<path style="fill:#B5B5B6;" d="M55,9H9c-1.654,0-3,1.347-3,3.001v34.034C6,47.67,7.346,49,9,49h17v5h-9.081c-0.552,0-1,0.447-1,1
		s0.448,1,1,1h30.028c0.553,0,1-0.447,1-1s-0.447-1-1-1H38v-5h17c1.654,0,3-1.33,3-2.965V12.001C58,10.347,56.654,9,55,9z M56,46
		c0,0.552-0.448,1-1,1H9c-0.552,0-1-0.448-1-1V12.001C8,11.45,8.45,11,9.001,11H55c0.552,0,1,0.448,1,1V46z"/>
	<circle style="fill:#B5B5B6;" cx="31.979" cy="27.042" r="4.5"/>
	<path style="fill:#B5B5B6;" d="M10,40h44V13H10V40z M22,25.824l1.453-0.518c0.555-0.199,0.999-0.622,1.226-1.166V24.14
		c0.226-0.546,0.21-1.162-0.043-1.695l-0.663-1.395l1.905-1.905l1.394,0.66c0.534,0.253,1.149,0.264,1.694,0.038l0.002-0.01
		c0.544-0.226,0.967-0.737,1.165-1.292L30.649,17h2.694l0.505,1.54C34.045,19.096,34,19.604,35,19.83v0.011
		c1,0.226,1.175,0.216,1.708-0.037l1.401-0.66l1.907,1.905l-0.661,1.395c-0.253,0.534-0.267,1.149-0.041,1.695l0.001,0.001
		c0.226,0.544,0.673,0.967,1.228,1.166L42,25.824v2.692l-1.457,0.517c-0.555,0.199-1.003,0.622-1.23,1.166V30.2
		c-0.225,0.545-0.21,1.16,0.043,1.693l0.663,1.393l-1.904,1.902l-1.404-0.672c-0.528-0.251-1.165-0.334-1.696-0.099
		c-0.544,0.24-0.958,0.662-1.159,1.222L33.343,37h-2.694l-0.517-1.569c0,0-0.324-0.976-1.054-1.254
		c-0.656-0.25-1.273-0.109-1.806,0.144l-1.394,0.768l-1.905-1.852l0.793-1.273c0.254-0.534,0.422-1.225,0.234-1.776
		s-0.831-0.958-1.386-1.156L22,28.516V25.824z"/>
</g>
</svg>
