<?xml version="1.0" encoding="iso-8859-1"?>
<!-- Generator: Adobe Illustrator 18.0.0, SVG Export Plug-In . SVG Version: 6.00 Build 0)  -->
<!DOCTYPE svg PUBLIC "-//W3C//DTD SVG 1.1//EN" "http://www.w3.org/Graphics/SVG/1.1/DTD/svg11.dtd">
<svg version="1.1" id="&#x56FE;&#x5C42;_1" xmlns="http://www.w3.org/2000/svg" xmlns:xlink="http://www.w3.org/1999/xlink" x="0px"
	 y="0px" viewBox="0 0 24 24" style="enable-background:new 0 0 24 24;" xml:space="preserve">
<g>
	<path style="fill:#B5B5B6;" d="M20.987,3H3.063C2.51,3,2,3.448,2,4v14c0,0.552,0.51,1,1.063,1H9v2H5.359
		c-0.212,0-0.385,0.29-0.385,0.5c0,0.21,0.172,0.5,0.385,0.5h13.25c0.213,0,0.385-0.29,0.385-0.5c0-0.21-0.172-0.5-0.385-0.5H15v-2
		h5.987C21.54,19,22,18.552,22,18V4C22,3.448,21.54,3,20.987,3z M21,18H3V4h18V18z"/>
	<path style="fill:#B5B5B6;" d="M20,5H4v11h16V5z M16,11.669l-0.583,0.207c-0.222,0.079-0.401,0.249-0.492,0.466v0
		c-0.09,0.218-0.084,0.464,0.017,0.677l0.265,0.557l-0.762,0.761l-0.562-0.269c-0.211-0.101-0.466-0.133-0.679-0.04
		c-0.217,0.096-0.383,0.233-0.463,0.458L12.537,15H11.46l-0.207-0.597c0,0-0.13-0.375-0.422-0.486
		c-0.263-0.1-0.509-0.036-0.723,0.065l-0.558,0.311l-0.762-0.739l0.317-0.508c0.102-0.214,0.169-0.49,0.094-0.71
		c-0.075-0.22-0.333-0.383-0.555-0.462L8,11.669v-1.077l0.581-0.207c0.222-0.079,0.4-0.249,0.49-0.466v0
		C9.162,9.7,9.156,9.454,9.054,9.24L8.789,8.682L9.551,7.92l0.664,0.264c0.597,0.207,1.003-0.003,1.113-0.528L11.46,7h1.078
		l0.135,0.656c0.109,0.5,0.75,0.75,1.172,0.547l0.55-0.283l0.788,0.762L14.93,9.281c-0.101,0.214-0.305,0.86,0.486,1.145L16,10.592
		V11.669z"/>
	<circle style="fill:#B5B5B6;" cx="12.016" cy="11.078" r="1.5"/>
</g>
</svg>
