<?xml version="1.0" encoding="UTF-8" standalone="no"?>
<svg width="24px" height="24px" viewBox="0 0 24 24" version="1.1" xmlns="http://www.w3.org/2000/svg" xmlns:xlink="http://www.w3.org/1999/xlink">
    <!-- Generator: Sketch 3.8.3 (29802) - http://www.bohemiancoding.com/sketch -->
    <title>云扫描测试-24px</title>
    <desc>Created with Sketch.</desc>
    <defs></defs>
    <g id="Page-1" stroke="none" stroke-width="1" fill="none" fill-rule="evenodd">
        <g id="云扫描测试-24px" fill="#B5B5B6">
            <path d="M20.914,12.3615388 C20.582,12.3615388 20.313,12.0905388 20.313,11.7555388 C20.313,11.4205388 20.582,11.1485388 20.914,11.1485388 C21.246,11.1485388 21.515,11.4205388 21.515,11.7555388 C21.515,12.0905388 21.246,12.3615388 20.914,12.3615388 M19.913,6.14753884 C19.399,4.15353884 17.173,2.67753884 14.995,2.67753884 C14.361,2.67753884 13.758,2.80353884 13.207,3.02953884 C12.59,2.06853884 10.898,1.02053884 9.314,1.00053884 C5.981,0.95953884 3.856,3.26253884 3.856,6.45453884 C2.239,7.03053884 1,8.23453884 1,10.3195388 C1,12.7715388 2.981,14.4135388 4.981,14.4135388 L4.981,9.83453884 C4.981,8.72953884 5.876,7.83453884 6.981,7.83453884 L16.981,7.83453884 C18.085,7.83453884 18.981,8.72953884 18.981,9.83453884 L18.981,14.4125388 C21.668,14.4125388 23.215,12.3155388 23.215,10.2345388 C23.215,8.29853884 21.704,6.66653884 19.913,6.14753884" id="Fill-3"></path>
            <path d="M17,15 L17,16 L17,17 L16,17 L16,16 L8,16 L8,17 L7,17 L7,16 L7,15 L7,14 L8,14 L8,15 L16,15 L16,14 L17,14 L17,15 Z M14.5,20 L9.5,20 C9.224,20 9,19.776 9,19.5 L9,17 L15,17 L15,19.5 C15,19.776 14.776,20 14.5,20 L14.5,20 Z M9.5,11 L14.5,11 C14.776,11 15,11.224 15,11.5 L15,14 L9,14 L9,11.5 C9,11.224 9.224,11 9.5,11 L9.5,11 Z M17,9 L7,9 C6.448,9 6,9.448 6,10 L6,21 C6,21.552 6.448,22 7,22 L17,22 C17.552,22 18,21.552 18,21 L18,10 C18,9.448 17.552,9 17,9 L17,9 Z" id="Fill-7"></path>
        </g>
    </g>
</svg>