<?xml version="1.0" encoding="UTF-8" standalone="no"?>
<svg width="64px" height="64px" viewBox="0 0 64 64" version="1.1" xmlns="http://www.w3.org/2000/svg" xmlns:xlink="http://www.w3.org/1999/xlink">
    <!-- Generator: Sketch 3.8.3 (29802) - http://www.bohemiancoding.com/sketch -->
    <title>云扫描测试-64px</title>
    <desc>Created with Sketch.</desc>
    <defs></defs>
    <g id="Page-1" stroke="none" stroke-width="1" fill="none" fill-rule="evenodd">
        <g id="云扫描测试-64px" fill="#B5B5B6">
            <path d="M53.763,32.025 C52.935,32.025 52.263,31.357 52.263,30.532 C52.263,29.708 52.935,29.04 53.763,29.04 C54.591,29.04 55.263,29.708 55.263,30.532 C55.263,31.357 54.591,32.025 53.763,32.025 L53.763,32.025 Z M51.264,17.653 C49.98,12.745 44.425,9.11 38.986,9.11 C37.404,9.11 35.897,9.42 34.522,9.976 C32.162,7.533 28.821,6 25.106,6 C18.028,6 11.285,11.538 11.177,18.407 C7.142,19.825 4,23.576 4,27.995 C4,32.962 8.596,38 13.263,38 L13.263,27.04 C13.263,25.936 14.158,25.04 15.263,25.04 L47.263,25.04 C48.368,25.04 49.263,25.936 49.263,27.04 L49.263,37.996 C54.263,37.077 58.922,32.834 58.922,27.713 C58.922,22.947 55.734,18.929 51.264,17.653 L51.264,17.653 Z" id="Fill-1"></path>
            <path d="M46,45 L44,45 L44,43 L20,43 L20,45 L18,45 L18,39 L20,39 L20,41 L44,41 L44,39 L46,39 L46,45 Z M41,54 L23,54 C22.448,54 22,53.552 22,53 L22,45 L42,45 L42,53 C42,53.552 41.552,54 41,54 L41,54 Z M23,31 L41,31 C41.552,31 42,31.448 42,32 L42,39 L22,39 L22,32 C22,31.448 22.448,31 23,31 L23,31 Z M47,27 L17,27 C16.448,27 16,27.448 16,28 L16,57 C16,57.552 16.448,58 17,58 L47,58 C47.552,58 48,57.552 48,57 L48,28 C48,27.448 47.552,27 47,27 L47,27 Z" id="Fill-5"></path>
        </g>
    </g>
</svg>