<?xml version="1.0" encoding="iso-8859-1"?>
<!-- Generator: Adobe Illustrator 18.0.0, SVG Export Plug-In . SVG Version: 6.00 Build 0)  -->
<!DOCTYPE svg PUBLIC "-//W3C//DTD SVG 1.1//EN" "http://www.w3.org/Graphics/SVG/1.1/DTD/svg11.dtd">
<svg version="1.1" id="&#x56FE;&#x5C42;_1" xmlns="http://www.w3.org/2000/svg" xmlns:xlink="http://www.w3.org/1999/xlink" x="0px"
	 y="0px" viewBox="0 0 24 24" style="enable-background:new 0 0 24 24;" xml:space="preserve">
<g>
	<path style="fill:#B5B5B6;" d="M22.323,17.682c-0.249-0.089-0.451-0.28-0.552-0.524l0,0c-0.102-0.246-0.095-0.523,0.019-0.763
		l0.298-0.627l-0.857-0.857l-0.627,0.298c-0.24,0.114-0.518,0.121-0.763,0.019h0c-0.245-0.102-0.435-0.32-0.524-0.57l-0.233-0.673
		h-1.212l-0.233,0.673c-0.089,0.25-0.279,0.46-0.524,0.561l-0.001,0.005c-0.245,0.102-0.522,0.097-0.762-0.017l-0.627-0.297
		l-0.857,0.857l0.299,0.628c0.114,0.24,0.121,0.517,0.019,0.763v0c-0.102,0.245-0.302,0.435-0.552,0.525l-0.654,0.233v1.211
		l0.654,0.233c0.25,0.089,0.45,0.279,0.552,0.524l0,0c0.102,0.246,0.095,0.523-0.019,0.763l-0.299,0.627l0.857,0.857l0.627-0.298
		c0.24-0.114,0.517-0.121,0.762-0.019h0.001c0.245,0.101,0.435,0.284,0.524,0.534l0.233,0.637h1.212l0.231-0.632
		c0.09-0.252,0.282-0.446,0.529-0.549c0.244-0.101,0.518-0.09,0.755,0.024l0.632,0.302l0.857-0.856l-0.299-0.627
		c-0.114-0.24-0.121-0.516-0.019-0.762v0c0.102-0.245,0.304-0.435,0.553-0.525l0.656-0.233v-1.211L22.323,17.682z M18.478,20.543
		c-1.117,0-2.022-0.905-2.022-2.022c0-1.117,0.905-2.022,2.022-2.022c1.117,0,2.022,0.905,2.022,2.022
		C20.5,19.638,19.594,20.543,18.478,20.543z"/>
</g>
<path style="fill:#B5B5B6;" d="M0.972,3v3c0,0.552,0.448,1,1,1h17.966c0.552,0,1-0.448,1-1V3c0-0.552-0.448-1-1-1H1.972
	C1.419,2,0.972,2.448,0.972,3z M2.979,5.012h-1v-1h1V5.012z M15,5H4V4h11V5z M16.971,5.012h-1v-1h1V5.012z M19.938,5.012h-1v-1h1
	V5.012z"/>
<path style="fill:#B5B5B6;" d="M16.821,14l0.337-1h3.78v-3c0-0.552-0.448-1-1-1H1.972c-0.552,0-1,0.448-1,1v3c0,0.552,0.448,1,1,1
	H16.821z M18.938,11.012h1v1h-1V11.012z M15.971,11.012h1v1h-1V11.012z M2.979,12.012h-1v-1h1V12.012z M4,12v-1h11v1H4z"/>
<path style="fill:#B5B5B6;" d="M14.262,20.217l-0.619-0.149l-0.664-0.236V19H3.972v-1h9.008v-0.79l1.318-0.47l-0.334-0.544L13.87,16
	H1.972c-0.552,0-1,0.448-1,1v3c0,0.552,0.448,1,1,1H13.89L14.262,20.217z M2.979,19.043h-1v-1h1V19.043z"/>
</svg>
