<?xml version="1.0" encoding="UTF-8"?>
<svg width="24px" height="24px" viewBox="0 0 24 24" version="1.1" xmlns="http://www.w3.org/2000/svg" xmlns:xlink="http://www.w3.org/1999/xlink">
    <!-- Generator: Sketch 58 (84663) - https://sketch.com -->
    <title>deepin-mail-24px</title>
    <desc>Created with Sketch.</desc>
    <defs>
        <filter x="-83.3%" y="-39.1%" width="261.1%" height="200.0%" filterUnits="objectBoundingBox" id="filter-1">
            <feOffset dx="0" dy="1" in="SourceAlpha" result="shadowOffsetOuter1"></feOffset>
            <feGaussianBlur stdDeviation="0.5" in="shadowOffsetOuter1" result="shadowBlurOuter1"></feGaussianBlur>
            <feComposite in="shadowBlurOuter1" in2="SourceAlpha" operator="out" result="shadowBlurOuter1"></feComposite>
            <feColorMatrix values="0 0 0 0 0   0 0 0 0 0   0 0 0 0 0  0 0 0 0.2 0" type="matrix" in="shadowBlurOuter1" result="shadowMatrixOuter1"></feColorMatrix>
            <feMerge>
                <feMergeNode in="shadowMatrixOuter1"></feMergeNode>
                <feMergeNode in="SourceGraphic"></feMergeNode>
            </feMerge>
        </filter>
        <linearGradient x1="50%" y1="0%" x2="50%" y2="100%" id="linearGradient-2">
            <stop stop-color="#080030" offset="0%"></stop>
            <stop stop-color="#002F48" offset="100%"></stop>
        </linearGradient>
        <path d="M1.75433021,0 C0.785440388,0 0,0.7641109 0,1.70668946 L0,16.5928142 C0,17.5353928 0.785440388,18.2995037 1.75433021,18.2995037 L12.3777742,18.2995037 C13.3466641,18.2995037 14.1321045,17.5353928 14.1321045,16.5928142 L14.1321045,1.70668946 C14.1321045,0.7641109 13.3466641,0 12.3777742,0 L1.75433021,0 Z" id="path-3"></path>
        <linearGradient x1="8.68155965%" y1="70.2095504%" x2="71.2944657%" y2="41.9361365%" id="linearGradient-5">
            <stop stop-color="#00499C" offset="0%"></stop>
            <stop stop-color="#000A72" offset="100%"></stop>
        </linearGradient>
        <ellipse id="path-6" cx="12.0366224" cy="0.521506842" rx="4.28836273" ry="4.17190758"></ellipse>
        <filter x="-17.5%" y="-18.0%" width="135.0%" height="136.0%" filterUnits="objectBoundingBox" id="filter-7">
            <feOffset dx="3" dy="1" in="SourceAlpha" result="shadowOffsetInner1"></feOffset>
            <feComposite in="shadowOffsetInner1" in2="SourceAlpha" operator="arithmetic" k2="-1" k3="1" result="shadowInnerInner1"></feComposite>
            <feColorMatrix values="0 0 0 0 1   0 0 0 0 1   0 0 0 0 1  0 0 0 0.1 0" type="matrix" in="shadowInnerInner1"></feColorMatrix>
        </filter>
        <linearGradient x1="3.38077148%" y1="52.9367532%" x2="74.0374777%" y2="56.3407762%" id="linearGradient-8">
            <stop stop-color="#00807D" offset="0%"></stop>
            <stop stop-color="#0013AE" offset="100%"></stop>
        </linearGradient>
        <linearGradient x1="50%" y1="0%" x2="50%" y2="100%" id="linearGradient-9">
            <stop stop-color="#FAD961" offset="0%"></stop>
            <stop stop-color="#F76B1C" offset="100%"></stop>
        </linearGradient>
        <ellipse id="path-10" cx="5.40915268" cy="3.36598928" rx="1.10599078" ry="1.07485124"></ellipse>
        <linearGradient x1="50%" y1="0%" x2="50%" y2="100%" id="linearGradient-11">
            <stop stop-color="#FAD961" offset="0%"></stop>
            <stop stop-color="#F76B1C" offset="100%"></stop>
        </linearGradient>
        <linearGradient x1="30.0727141%" y1="9.97410732%" x2="80.5342614%" y2="64.4288828%" id="linearGradient-12">
            <stop stop-color="#004940" offset="0%"></stop>
            <stop stop-color="#001D3C" offset="100%"></stop>
        </linearGradient>
        <ellipse id="path-13" cx="2.09541785" cy="18.0624819" rx="2.53403252" ry="2.46521812"></ellipse>
        <filter x="-19.7%" y="-20.3%" width="139.5%" height="140.6%" filterUnits="objectBoundingBox" id="filter-14">
            <feOffset dx="2" dy="1" in="SourceAlpha" result="shadowOffsetInner1"></feOffset>
            <feComposite in="shadowOffsetInner1" in2="SourceAlpha" operator="arithmetic" k2="-1" k3="1" result="shadowInnerInner1"></feComposite>
            <feColorMatrix values="0 0 0 0 1   0 0 0 0 1   0 0 0 0 1  0 0 0 0.1 0" type="matrix" in="shadowInnerInner1"></feColorMatrix>
        </filter>
        <linearGradient x1="31.2638194%" y1="60.9315613%" x2="58.8512881%" y2="100%" id="linearGradient-15">
            <stop stop-color="#33B8EC" offset="0%"></stop>
            <stop stop-color="#B5DEFF" offset="100%"></stop>
        </linearGradient>
        <linearGradient x1="92.5126261%" y1="1.08621765%" x2="50%" y2="100%" id="linearGradient-16">
            <stop stop-color="#0D98CF" offset="49.6225718%"></stop>
            <stop stop-color="#7ADAFF" offset="100%"></stop>
        </linearGradient>
        <linearGradient x1="36.4606109%" y1="58.7057175%" x2="8.73015394%" y2="100%" id="linearGradient-17">
            <stop stop-color="#00B7FF" offset="0%"></stop>
            <stop stop-color="#87CAFF" offset="100%"></stop>
        </linearGradient>
        <polygon id="path-18" points="4.75120294 6.84055944 3.52092016 8.86118184 11.6570244 0.0376483598"></polygon>
        <filter x="-6.1%" y="-5.7%" width="112.3%" height="111.3%" filterUnits="objectBoundingBox" id="filter-19">
            <feOffset dx="1" dy="1" in="SourceAlpha" result="shadowOffsetInner1"></feOffset>
            <feComposite in="shadowOffsetInner1" in2="SourceAlpha" operator="arithmetic" k2="-1" k3="1" result="shadowInnerInner1"></feComposite>
            <feColorMatrix values="0 0 0 0 1   0 0 0 0 1   0 0 0 0 1  0 0 0 0.5 0" type="matrix" in="shadowInnerInner1"></feColorMatrix>
        </filter>
        <filter x="-87.5%" y="-95.5%" width="275.0%" height="290.9%" filterUnits="objectBoundingBox" id="filter-20">
            <feOffset dx="0" dy="2" in="SourceAlpha" result="shadowOffsetOuter1"></feOffset>
            <feGaussianBlur stdDeviation="1.5" in="shadowOffsetOuter1" result="shadowBlurOuter1"></feGaussianBlur>
            <feColorMatrix values="0 0 0 0 0   0 0 0 0 0   0 0 0 0 0  0 0 0 0.2 0" type="matrix" in="shadowBlurOuter1" result="shadowMatrixOuter1"></feColorMatrix>
            <feMerge>
                <feMergeNode in="shadowMatrixOuter1"></feMergeNode>
                <feMergeNode in="SourceGraphic"></feMergeNode>
            </feMerge>
        </filter>
        <linearGradient x1="98.2475456%" y1="35.3641625%" x2="10.4235407%" y2="62.5048214%" id="linearGradient-21">
            <stop stop-color="#6DB4FF" offset="0%"></stop>
            <stop stop-color="#D5FFFD" offset="100%"></stop>
        </linearGradient>
        <linearGradient x1="70.6643938%" y1="3.1102325%" x2="50%" y2="94.7721121%" id="linearGradient-22">
            <stop stop-color="#57A2FF" offset="0%"></stop>
            <stop stop-color="#D3F9FF" offset="100%"></stop>
        </linearGradient>
    </defs>
    <g id="deepin-mail-24px" stroke="none" stroke-width="1" fill="none" fill-rule="evenodd">
        <g id="编组-2备份-3" filter="url(#filter-1)" transform="translate(3.000000, 1.000000)">
            <path d="M14.7317415,0.722254335 C14.7735184,0.670995369 14.8110054,0.615688394 14.8435594,0.556778251 L14.568645,0.679485061 C14.6234937,0.692115593 14.6778805,0.706383743 14.7317415,0.722254335 Z M15.4137522,1.02612181 C15.4384949,1.04131932 15.4630215,1.05690235 15.4873234,1.07286605 L15.3828383,0.927636585 C15.3916687,0.96113704 15.4019994,0.993989616 15.4137522,1.02612181 Z M16.1851898,1.72175576 C16.2179612,1.73000228 16.2512987,1.7367927 16.2851272,1.74205747 L16.1312868,1.65480069 C16.1495991,1.67683987 16.1675686,1.69916127 16.1851898,1.72175576 Z M16.5784455,2.4070492 C16.6005281,2.46226014 16.6209159,2.51827007 16.6395595,2.57499924 L16.749292,2.28206301 C16.6879451,2.31854015 16.6308234,2.36046091 16.5784455,2.4070492 Z M16.7822608,4.21070396 C16.8351685,4.23987377 16.8908793,4.26495848 16.9490256,4.28548906 L16.7822608,4.04975211 L16.7822608,4.21070396 Z M16.7822608,4.84953003 L16.7822608,5.01048189 L16.9490256,4.77474494 C16.8908793,4.79527552 16.8351685,4.82036023 16.7822608,4.84953003 Z M16.7822608,6.79861864 C16.8351685,6.82778844 16.8908793,6.85287315 16.9490256,6.87340373 L16.7822608,6.63766678 L16.7822608,6.79861864 Z M16.7822608,7.43744471 L16.7822608,7.59839656 L16.9490256,7.36265961 C16.8908793,7.38319019 16.8351685,7.40827491 16.7822608,7.43744471 Z M16.7822608,9.38653331 C16.8351685,9.41570311 16.8908793,9.44078783 16.9490256,9.4613184 L16.7822608,9.22558146 L16.7822608,9.38653331 Z M16.7822608,10.0253594 L16.7822608,10.1863112 L16.9490256,9.95057428 C16.8908793,9.97110486 16.8351685,9.99618958 16.7822608,10.0253594 Z M16.7822608,11.974448 C16.8351685,12.0036178 16.8908793,12.0287025 16.9490256,12.0492331 L16.7822608,11.8134961 L16.7822608,11.974448 Z M16.7822608,12.6132741 L16.7822608,12.7742259 L16.9490256,12.538489 C16.8908793,12.5590195 16.8351685,12.5841042 16.7822608,12.6132741 Z M16.7822608,14.5623627 C16.8351685,14.5915325 16.8908793,14.6166172 16.9490256,14.6371477 L16.7822608,14.4014108 L16.7822608,14.5623627 Z M16.7822608,15.2011887 L16.7822608,15.3621406 L16.9490256,15.1264036 C16.8908793,15.1469342 16.8351685,15.1720189 16.7822608,15.2011887 Z M16.7822608,17.1502773 C16.8351685,17.1794471 16.8908793,17.2045318 16.9490256,17.2250624 L16.7822608,16.9893255 L16.7822608,17.1502773 Z M16.7822608,17.7891034 L16.7822608,17.9500552 L16.9490256,17.7143183 C16.8908793,17.7348489 16.8351685,17.7599336 16.7822608,17.7891034 Z M16.5779268,19.5932092 C16.6299256,19.6396665 16.6866029,19.6815349 16.7474472,19.7180546 L16.6384639,19.4260699 C16.6200465,19.4824481 16.5998511,19.5381869 16.5779268,19.5932092 Z M16.229844,20.2211768 C16.2107787,20.2472085 16.1912623,20.2729373 16.1713025,20.2983508 L16.3433172,20.2039807 C16.3049007,20.2077786 16.2670412,20.2135436 16.229844,20.2211768 Z M15.3929646,20.9841547 C15.3820907,21.0198036 15.3729449,21.0562373 15.3656274,21.0933616 L15.4729593,20.9332135 C15.4466039,20.9506513 15.4199347,20.9676339 15.3929646,20.9841547 Z M14.7608441,21.2690948 C14.7035136,21.2867556 14.6454623,21.3026347 14.5867751,21.3166892 L14.8707713,21.4524512 C14.8397654,21.3872495 14.8028633,21.3259448 14.7608441,21.2690948 Z M12.8951756,21.3947066 C12.8659919,21.447544 12.8408838,21.5031822 12.8203192,21.5612546 L13.0559794,21.3947066 L12.8951756,21.3947066 Z M12.2555278,21.3947066 L12.094724,21.3947066 L12.3303843,21.5612546 C12.3098197,21.5031822 12.2847116,21.447544 12.2555278,21.3947066 Z M10.3072609,21.3947066 C10.2780772,21.447544 10.2529691,21.5031822 10.2324045,21.5612546 L10.4680648,21.3947066 L10.3072609,21.3947066 Z M9.66761316,21.3947066 L9.50680932,21.3947066 L9.74246959,21.5612546 C9.721905,21.5031822 9.69679689,21.447544 9.66761316,21.3947066 Z M7.71934626,21.3947066 C7.69016253,21.447544 7.66505442,21.5031822 7.64448983,21.5612546 L7.8801501,21.3947066 L7.71934626,21.3947066 Z M7.07969849,21.3947066 L6.91889465,21.3947066 L7.15455492,21.5612546 C7.13399033,21.5031822 7.10888222,21.447544 7.07969849,21.3947066 Z M5.13143159,21.3947066 C5.10224786,21.447544 5.07713975,21.5031822 5.05657516,21.5612546 L5.29223543,21.3947066 L5.13143159,21.3947066 Z M4.49178381,21.3947066 L4.33097998,21.3947066 L4.56664024,21.5612546 C4.54607566,21.5031822 4.52096755,21.447544 4.49178381,21.3947066 Z M2.62538728,21.2678186 C2.58356191,21.3239483 2.54672821,21.384424 2.51564233,21.4486999 L2.79770838,21.3141324 C2.73973099,21.3005547 2.68226585,21.2851024 2.62538728,21.2678186 Z M1.99256853,20.9854709 C1.96500349,20.9688403 1.93769236,20.9517271 1.91064676,20.9341381 L2.01987125,21.0966146 C2.01261603,21.0587954 2.0034797,21.0217167 1.99256853,20.9854709 Z M1.15599627,20.219648 C1.08279436,20.2044758 1.00709555,20.1965267 0.929735696,20.1965267 L0.912307589,20.6959185 L1.56365637,20.7414363 L1.2156569,20.2983508 C1.19530919,20.2724433 1.17541972,20.246205 1.15599627,20.219648 Z M0.808480803,19.5926941 C0.786398085,19.5374595 0.766022553,19.4814735 0.747399967,19.4248081 L0.63783503,19.7176446 C0.699111725,19.6811445 0.756164788,19.6392383 0.808480803,19.5926941 Z M0.606200135,17.7899341 C0.553434358,17.7607362 0.497870304,17.7356043 0.439873349,17.7150051 L0.606200135,17.950587 L0.606200135,17.7899341 Z M0.606200135,17.1494466 L0.606200135,16.9887938 L0.439873349,17.2243756 C0.497870304,17.2037764 0.553434358,17.1786445 0.606200135,17.1494466 Z M0.606200135,15.2020194 C0.553434358,15.1728215 0.497870304,15.1476896 0.439873349,15.1270905 L0.606200135,15.3626723 L0.606200135,15.2020194 Z M0.606200135,14.561532 L0.606200135,14.4008791 L0.439873349,14.6364609 C0.497870304,14.6158617 0.553434358,14.5907298 0.606200135,14.561532 Z M0.606200135,12.6141047 C0.553434358,12.5849069 0.497870304,12.559775 0.439873349,12.5391758 L0.606200135,12.7747576 L0.606200135,12.6141047 Z M0.606200135,11.9736173 L0.606200135,11.8129644 L0.439873349,12.0485462 C0.497870304,12.0279471 0.553434358,12.0028152 0.606200135,11.9736173 Z M0.606200135,10.0261901 C0.553434358,9.99699218 0.497870304,9.9718603 0.439873349,9.95126113 L0.606200135,10.1868429 L0.606200135,10.0261901 Z M0.606200135,9.38570263 L0.606200135,9.22504974 L0.439873349,9.46063156 C0.497870304,9.44003238 0.553434358,9.4149005 0.606200135,9.38570263 Z M0.606200135,7.43827539 C0.553434358,7.40907751 0.497870304,7.38394563 0.439873349,7.36334645 L0.606200135,7.59892827 L0.606200135,7.43827539 Z M0.606200135,6.79778796 L0.606200135,6.63713507 L0.439873349,6.87271689 C0.497870304,6.85211771 0.553434358,6.82698583 0.606200135,6.79778796 Z M0.606200135,4.85036071 C0.553434358,4.82116284 0.497870304,4.79603096 0.439873349,4.77543178 L0.606200135,5.0110136 L0.606200135,4.85036071 Z M0.606200135,4.20987328 L0.606200135,4.0492204 L0.439873349,4.28480222 C0.497870304,4.26420304 0.553434358,4.23907116 0.606200135,4.20987328 Z M0.809346892,2.40687955 C0.757473526,2.36049921 0.700939452,2.31868683 0.640252463,2.2821975 L0.749191077,2.573709 C0.76747738,2.51743297 0.787545708,2.46179818 0.809346892,2.40687955 Z M1.2012681,1.71993054 C1.21909006,1.6968551 1.23727647,1.67403286 1.25582151,1.6514727 L1.09942186,1.74000675 C1.13390062,1.73488623 1.16787597,1.72816929 1.2012681,1.71993054 Z M1.97412094,1.02677004 C1.98583313,0.994926294 1.99614424,0.962373994 2.00497726,0.929185121 L1.90143726,1.07331516 C1.92542992,1.05742385 1.94966066,1.04190731 1.97412094,1.02677004 Z M2.65516959,0.721931698 C2.70910822,0.705951993 2.76363284,0.691548358 2.81868097,0.678753879 L2.54319739,0.556028669 C2.57579387,0.615100418 2.6133325,0.670549862 2.65516959,0.721931698 Z M4.46338988,0.605546677 C4.49332738,0.557270521 4.51977921,0.506359584 4.54234967,0.453110254 L4.31217289,0.605546677 L4.46338988,0.605546677 Z M5.15982552,0.605546677 L5.31104252,0.605546677 L5.08086574,0.453110254 C5.1034362,0.506359584 5.12988803,0.557270521 5.15982552,0.605546677 Z M7.05130456,0.605546677 C7.08124205,0.557270521 7.10769388,0.506359584 7.13026434,0.453110254 L6.90008756,0.605546677 L7.05130456,0.605546677 Z M7.7477402,0.605546677 L7.89895719,0.605546677 L7.66878041,0.453110254 C7.69135087,0.506359584 7.7178027,0.557270521 7.7477402,0.605546677 Z M9.63921923,0.605546677 C9.66915672,0.557270521 9.69560856,0.506359584 9.71817901,0.453110254 L9.48800224,0.605546677 L9.63921923,0.605546677 Z M10.3356549,0.605546677 L10.4868719,0.605546677 L10.2566951,0.453110254 C10.2792655,0.506359584 10.3057174,0.557270521 10.3356549,0.605546677 Z M12.2271339,0.605546677 C12.2570714,0.557270521 12.2835232,0.506359584 12.3060937,0.453110254 L12.0759169,0.605546677 L12.2271339,0.605546677 Z M12.9235695,0.605546677 L13.0747865,0.605546677 L12.8446098,0.453110254 C12.8671802,0.506359584 12.893632,0.557270521 12.9235695,0.605546677 Z M13.9172334,1.49509029 C15.0081812,1.49509029 15.8925098,2.37993661 15.8925098,3.47137672 L15.8925098,18.5284306 C15.8925098,19.6198708 15.0081812,20.5047171 13.9172334,20.5047171 L3.46972602,20.5047171 C2.3787782,20.5047171 1.49444957,19.6198708 1.49444957,18.5284306 L1.49444957,3.47137672 C1.49444957,2.37993661 2.3787782,1.49509029 3.46972602,1.49509029 L13.9172334,1.49509029 Z" id="形状结合" stroke="#FFFFFF" stroke-width="0.5" fill="#F3F3F3" fill-rule="nonzero"></path>
            <g id="编组" transform="translate(1.774194, 1.774194)">
                <mask id="mask-4" fill="white">
                    <use xlink:href="#path-3"></use>
                </mask>
                <use id="蒙版" fill="url(#linearGradient-2)" fill-rule="nonzero" xlink:href="#path-3"></use>
                <g id="椭圆形" opacity="0.5" mask="url(#mask-4)">
                    <use fill="url(#linearGradient-5)" fill-rule="evenodd" xlink:href="#path-6"></use>
                    <use fill="black" fill-opacity="1" filter="url(#filter-7)" xlink:href="#path-6"></use>
                </g>
                <ellipse id="椭圆形" stroke="url(#linearGradient-8)" stroke-width="1.06451613" opacity="0.5" mask="url(#mask-4)" transform="translate(12.945783, 2.704127) rotate(11.000000) translate(-12.945783, -2.704127) " cx="12.9457829" cy="2.70412661" rx="9.05509942" ry="3.74933091"></ellipse>
                <g id="椭圆形" mask="url(#mask-4)">
                    <use fill="url(#linearGradient-9)" fill-rule="evenodd" xlink:href="#path-10"></use>
                    <ellipse stroke="#070935" stroke-width="1.06451613" cx="5.40915268" cy="3.36598928" rx="1.63824885" ry="1.6071093"></ellipse>
                    <use stroke="#000000" stroke-width="0.5" xlink:href="#path-10"></use>
                </g>
                <ellipse id="椭圆形" fill="url(#linearGradient-11)" mask="url(#mask-4)" cx="12.6002115" cy="17.3781571" rx="1" ry="1"></ellipse>
                <g id="椭圆形" mask="url(#mask-4)">
                    <use fill="url(#linearGradient-12)" fill-rule="evenodd" xlink:href="#path-13"></use>
                    <use fill="black" fill-opacity="1" filter="url(#filter-14)" xlink:href="#path-13"></use>
                </g>
            </g>
            <g id="编组-4" transform="translate(8.446219, 13.976772) rotate(-28.000000) translate(-8.446219, -13.976772) translate(2.446219, 7.976772)">
                <path d="M8.05898905,3.41623925 L11.8806957,0.313114612 L11.3961596,-0.202892829 L8.05898905,3.41623925 Z M4.03455822,7.78069911 L3.26005535,8.62064066 L3.87215585,8.91161995 L4.03455822,7.78069911 Z M4.21283811,6.53921203 L4.23258043,6.40173255 L4.10501605,6.62676069 L4.21283811,6.53921203 Z" id="路径-2" stroke="url(#linearGradient-16)" stroke-width="0.709677419" fill="url(#linearGradient-15)"></path>
                <g id="路径-2">
                    <use fill="url(#linearGradient-17)" fill-rule="evenodd" xlink:href="#path-18"></use>
                    <use fill="black" fill-opacity="1" filter="url(#filter-19)" xlink:href="#path-18"></use>
                </g>
                <g id="编组-5" filter="url(#filter-20)" transform="translate(0.000000, 0.047748)">
                    <polygon id="路径-2" fill="url(#linearGradient-21)" points="3.88134474 6.30354645 11.6509455 1.37586205e-12 0 5.68201129"></polygon>
                    <polygon id="路径-2" fill="url(#linearGradient-22)" points="4.75120294 6.79281145 11.6509455 -1.24903374e-12 8.75630065 10.4329367"></polygon>
                </g>
            </g>
        </g>
    </g>
</svg>