<?xml version="1.0" encoding="UTF-8"?>
<svg width="32px" height="32px" viewBox="0 0 32 32" version="1.1" xmlns="http://www.w3.org/2000/svg" xmlns:xlink="http://www.w3.org/1999/xlink">
    <title>筛选</title>
    <g id="筛选" stroke="none" stroke-width="1" fill="none" fill-rule="evenodd">
        <path d="M20.6534629,8 C20.8949174,8 21.1296473,8.07954269 21.3213418,8.22635372 C21.8024246,8.59483208 21.8934278,9.28320537 21.5245678,9.76381106 L16.9324421,15.7472432 L16.9324421,22.7566328 C16.9324423,22.8862706 16.902176,23.0141182 16.8440531,23.1299962 L16.8341303,23.1491929 C16.6170887,23.5552061 16.1117143,23.7086083 15.7052813,23.4917958 L13.6659034,22.4038591 C13.1655285,22.1369174 12.8530374,21.6162962 12.8530374,21.0495914 L12.8530374,15.7706189 L8.22770856,9.76529948 C8.08465833,9.57959304 8.00492232,9.3529119 8.0002099,9.11854459 L8,9.09659999 C8,8.49096736 8.49144441,8 9.09764952,8 L20.6534629,8 Z M24.3360902,21.2468447 C24.651329,21.2468447 24.9068786,21.5021653 24.9068786,21.8170797 C24.9068786,22.1275099 24.6585803,22.3800063 24.3495622,22.387143 L24.3360902,22.3872957 L18.8915982,22.3872957 C18.5763593,22.3872957 18.3208288,22.1320133 18.3208288,21.8170797 C18.3208288,21.5066496 18.5691272,21.2541532 18.8781261,21.2469974 L18.8915982,21.2468447 L24.3360902,21.2468447 L24.3360902,21.2468447 Z M20.5644823,9.14041285 L9.18678273,9.14041285 L13.9945761,15.3826385 L13.9945761,21.0496105 C13.9946128,21.1953881 14.0749948,21.3292774 14.2036413,21.3978426 L15.7909034,22.2445795 L15.7909034,15.3604649 L20.5644823,9.14041285 Z M24.3360902,18.1763952 C24.651329,18.1763952 24.9068786,18.4316777 24.9068786,18.7466112 C24.9068786,19.0570414 24.6585803,19.3095378 24.3495622,19.3166936 L24.3360902,19.3168463 L18.8915982,19.3168463 C18.5763593,19.3168463 18.3208288,19.0615257 18.3208288,18.7466112 C18.3208288,18.4361811 18.5691272,18.1836847 18.8781261,18.1765479 L18.8915982,18.1763952 L24.3360902,18.1763952 L24.3360902,18.1763952 Z M24.3360902,15.1059267 C24.651329,15.1059267 24.9068786,15.3612282 24.9068786,15.6761618 C24.9068786,15.9865919 24.6585803,16.2390883 24.3495622,16.2462251 L24.3360902,16.2463777 L18.8915982,16.2463777 C18.5763593,16.2463777 18.3208288,15.9910762 18.3208288,15.6761618 C18.3208288,15.3657316 18.5691272,15.1132352 18.8781261,15.1060794 L18.8915982,15.1059267 L24.3360902,15.1059267 L24.3360902,15.1059267 Z" id="形状" stroke="#E3E3E3" stroke-width="0.2" fill="#536076" fill-rule="nonzero"></path>
    </g>
</svg>