<?xml version="1.0" encoding="UTF-8"?>
<svg width="32px" height="32px" viewBox="0 0 32 32" version="1.1" xmlns="http://www.w3.org/2000/svg" xmlns:xlink="http://www.w3.org/1999/xlink">
    <title>帮助</title>
    <g id="帮助" stroke="none" stroke-width="1" fill="none" fill-rule="evenodd">
        <g id="清除" transform="translate(6.000000, 6.000000)">
            <circle stroke-opacity="0.05" stroke="#000000" fill="#FFFFFF" cx="10" cy="10" r="10.5"></circle>
            <path d="M10.615894,12.0331126 L10.615894,11.807947 C10.615894,11.4900662 10.6821192,11.1986755 10.8278146,10.9337748 C10.9470199,10.6953642 11.1324503,10.4569536 11.384106,10.2450331 C12.0066225,9.70198675 12.3774834,9.35761589 12.4966887,9.21192053 C12.8278146,8.78807947 13,8.24503311 13,7.59602649 C13,6.8013245 12.7350993,6.16556291 12.205298,5.70198675 C11.6754967,5.22516556 10.986755,5 10.1390728,5 C9.1589404,5 8.39072848,5.2781457 7.83443709,5.84768212 C7.2781457,6.40397351 7,7.1589404 7,8.12582781 L8.39072848,8.12582781 C8.39072848,7.54304636 8.50993377,7.09271523 8.74834437,6.77483444 C9.01324503,6.39072848 9.45033113,6.20529801 10.0463576,6.20529801 C10.5231788,6.20529801 10.9072848,6.33774834 11.1721854,6.60264901 C11.4238411,6.86754967 11.5562914,7.22516556 11.5562914,7.68874172 C11.5562914,8.03311258 11.4238411,8.35099338 11.1854305,8.65562914 L10.9602649,8.90728477 C10.1390728,9.63576159 9.63576159,10.1788079 9.46357616,10.5496689 C9.2781457,10.8940397 9.1986755,11.3178808 9.1986755,11.807947 L9.1986755,12.0331126 L10.615894,12.0331126 Z M9.90066225,14.6423841 C10.1655629,14.6423841 10.4039735,14.5496689 10.589404,14.3774834 C10.7748344,14.192053 10.8807947,13.9668874 10.8807947,13.6887417 C10.8807947,13.410596 10.7880795,13.1854305 10.602649,13.013245 C10.4172185,12.8278146 10.1788079,12.7483444 9.90066225,12.7483444 C9.63576159,12.7483444 9.39735099,12.8278146 9.21192053,13.013245 C9.02649007,13.1854305 8.93377483,13.410596 8.93377483,13.6887417 C8.93377483,13.9536424 9.02649007,14.1788079 9.21192053,14.3642384 C9.39735099,14.5496689 9.63576159,14.6423841 9.90066225,14.6423841 Z" id="？" fill="#536076" fill-rule="nonzero"></path>
        </g>
    </g>
</svg>