<?xml version="1.0" encoding="UTF-8"?>
<svg width="36px" height="36px" viewBox="0 0 36 36" version="1.1" xmlns="http://www.w3.org/2000/svg" xmlns:xlink="http://www.w3.org/1999/xlink">
    <title>删除 </title>
    <g id="页面-1备份" stroke="none" stroke-width="1" fill="none" fill-rule="evenodd">
        <g id="按钮" transform="translate(-235.000000, -38.000000)" fill="#FF5736">
            <g id="编组-5" transform="translate(235.000000, 38.000000)">
                <g id="删除-" transform="translate(1.000000, 0.000000)">
                    <path d="M18,10 L15,10 L14,10 L14,11 L15,11 L18,11 L19,11 L19,10 L18,10 Z M9,13 L10,13 L23,13 L24,13 L24,12 L23,12 L10,12 L9,12 L9,13 Z M11,15 L11,26 L12,26 L21,26 L22,26 L22,15 L22,14 L21,14 L21,15 L21,25 L12,25 L12,15 L12,14 L11,14 L11,15 Z M14,16 L14,23 L14,24 L15,24 L15,23 L15,16 L15,15 L14,15 L14,16 Z M16,16 L16,23 L16,24 L17,24 L17,23 L17,16 L17,15 L16,15 L16,16 Z M18,16 L18,23 L18,24 L19,24 L19,23 L19,16 L19,15 L18,15 L18,16 Z" id="line34500"></path>
                </g>
            </g>
        </g>
    </g>
</svg>