<?xml version="1.0" encoding="UTF-8" standalone="no"?>
<!-- Created with Inkscape (http://www.inkscape.org/) -->

<svg
   xmlns:dc="http://purl.org/dc/elements/1.1/"
   xmlns:cc="http://creativecommons.org/ns#"
   xmlns:rdf="http://www.w3.org/1999/02/22-rdf-syntax-ns#"
   xmlns:svg="http://www.w3.org/2000/svg"
   xmlns="http://www.w3.org/2000/svg"
   xmlns:xlink="http://www.w3.org/1999/xlink"
   xmlns:sodipodi="http://sodipodi.sourceforge.net/DTD/sodipodi-0.dtd"
   xmlns:inkscape="http://www.inkscape.org/namespaces/inkscape"
   width="13mm"
   height="13mm"
   viewBox="0 0 13 13"
   version="1.1"
   id="svg8"
   inkscape:version="0.92.4 (5da689c313, 2019-01-14)"
   sodipodi:docname="1.svg">
  <defs
     id="defs2">
    <linearGradient
       id="linearGradient-1"
       y2="68"
       x2="34"
       y1="0"
       x1="34"
       gradientUnits="userSpaceOnUse">
      <stop
         id="stop70"
         offset="0%"
         stop-color="#FFBF7D" />
      <stop
         id="stop72"
         offset="100%"
         stop-color="#FF5959" />
    </linearGradient>
    <linearGradient
       id="linearGradient-2"
       y2="45.608601"
       x2="35.328236"
       y1="17.11311"
       x1="35.328236"
       gradientTransform="scale(0.94874462,1.0540244)"
       gradientUnits="userSpaceOnUse">
      <stop
         id="stop75"
         offset="0%"
         stop-color="#FFFFFF" />
      <stop
         id="stop77"
         offset="100%"
         stop-opacity="0.6"
         stop-color="#FFFFFF" />
    </linearGradient>
    <path
       id="path-3"
       d="m 29,31.072581 h -5 c -2.328571,0 -4,-1.671429 -4,-4 v -5 c 0,-2.328572 1.671429,-4 4,-4 h 5 c 2.328571,0 4,1.671428 4,4 v 5 c 0,2.328571 -1.671429,4 -4,4 z m 0,17 h -5 c -2.328571,0 -4,-1.671429 -4,-4 v -5 c 0,-2.328572 1.671429,-4 4,-4 h 5 c 2.328571,0 4,1.671428 4,4 v 5 c 0,2.328571 -1.671429,4 -4,4 z m 9.333333,-17.866667 -3.466666,-3.466667 c -1.202151,-1.118279 -1.202151,-3.215053 0,-4.333333 l 3.466666,-3.466667 c 1.11828,-1.20215 3.215054,-1.20215 4.333334,0 l 3.466666,3.466667 c 1.202151,1.11828 1.202151,3.215054 0,4.333333 l -3.466666,3.466667 c -1.11828,1.20215 -3.298925,1.20215 -4.333334,0 z M 43,48.072581 h -5 c -2.328571,0 -4,-1.671429 -4,-4 v -5 c 0,-2.328572 1.671429,-4 4,-4 h 5 c 2.328571,0 4,1.671428 4,4 v 5 c 0,2.328571 -1.671429,4 -4,4 z"
       inkscape:connector-curvature="0" />
    <filter
       id="filter-4"
       filterUnits="objectBoundingBox"
       height="1.0669999"
       width="1.0369999"
       y="-0.017000001"
       x="-0.017999999">
      <feOffset
         id="feOffset81"
         result="shadowOffsetOuter1"
         in="SourceAlpha"
         dy="1"
         dx="0" />
      <feColorMatrix
         id="feColorMatrix83"
         in="shadowOffsetOuter1"
         type="matrix"
         values="0 0 0 0 0.784313725   0 0 0 0 0.0392156863   0 0 0 0 0.0392156863  0 0 0 0.2 0" />
    </filter>
    <linearGradient
       id="linearGradient-1-3"
       y2="66.661125"
       x2="34"
       y1="0"
       x1="34"
       gradientUnits="userSpaceOnUse">
      <stop
         id="stop166"
         offset="0%"
         stop-color="#FFCB52" />
      <stop
         id="stop168"
         offset="100%"
         stop-color="#FF7B02" />
    </linearGradient>
    <linearGradient
       id="linearGradient-2-6"
       y2="45.729568"
       x2="35.895809"
       y1="16.798616"
       x1="35.895809"
       gradientTransform="scale(0.93325653,1.0715168)"
       gradientUnits="userSpaceOnUse">
      <stop
         id="stop171"
         offset="0%"
         stop-color="#FFFFFF" />
      <stop
         id="stop173"
         offset="100%"
         stop-opacity="0.6"
         stop-color="#FFFFFF" />
    </linearGradient>
    <path
       id="path-3-7"
       d="m 43.4,18 c 1.988225,0 3.6,1.611775 3.6,3.6 v 18.9 c 0,2.414273 -1.901237,4.384489 -4.288164,4.495102 L 42.5,45 H 24.9 c -0.458821,0 -0.837452,0.343337 -0.892988,0.787106 L 24,45.9 v 0.2 c 0,0.458821 0.343337,0.837452 0.787106,0.892988 L 24.9,47 45.38699,47.000419 C 45.75243,47.239006 46,47.488287 46,48 c 0,0.666667 -0.416667,1 -1.25,1 H 23.6 C 21.611775,49 20,47.388225 20,45.4 V 21.6 C 20,19.611775 21.611775,18 23.6,18 Z M 40,23 H 26 v 4 h 14 z"
       inkscape:connector-curvature="0" />
    <filter
       id="filter-4-5"
       filterUnits="objectBoundingBox"
       height="1.0650001"
       width="1.0369999"
       y="-0.016000001"
       x="-0.018999999">
      <feOffset
         id="feOffset177"
         result="shadowOffsetOuter1"
         in="SourceAlpha"
         dy="1"
         dx="0" />
      <feColorMatrix
         id="feColorMatrix179"
         in="shadowOffsetOuter1"
         type="matrix"
         values="0 0 0 0 0.934103261   0 0 0 0 0.459443539   0 0 0 0 0.00720868561  0 0 0 1 0" />
    </filter>
    <linearGradient
       id="linearGradient-1-35"
       y2="66.661126"
       x2="34"
       y1="0"
       x1="34"
       gradientUnits="userSpaceOnUse">
      <stop
         id="stop333"
         offset="0%"
         stop-color="#FFDF24" />
      <stop
         id="stop335"
         offset="100%"
         stop-color="#FFB533" />
    </linearGradient>
    <linearGradient
       id="linearGradient-2-62"
       y2="50.361287"
       x2="31.264094"
       y1="21.430335"
       x1="31.264094"
       gradientTransform="scale(1.0715168,0.93325653)"
       gradientUnits="userSpaceOnUse">
      <stop
         id="stop338"
         offset="0%"
         stop-color="#FFFFFF" />
      <stop
         id="stop340"
         offset="100%"
         stop-opacity="0.6"
         stop-color="#FFFFFF" />
    </linearGradient>
    <path
       id="path-3-9"
       d="M44.5714286,20 C47.017261,20 49,22.0147186 49,24.5 L49,42.5 C49,44.9852814 47.017261,47 44.5714286,47 L22.4285714,47 C19.982739,47 18,44.9852814 18,42.5 L18,24.5 C18,22.0147186 19.982739,20 22.4285714,20 L44.5714286,20 Z M36.4263956,32.4081961 L32.744934,37.5812183 C32.416566,38.0426262 31.8191632,38.0530061 31.4325612,37.6285187 L29.0554766,35.01849 C28.4656928,34.6179533 27.4874813,34.6729347 27.0026818,35.1338696 L20.2537979,41.5505362 C19.6156731,42.1572489 20.2542852,43 21.3521565,43 L45.6481387,43 C46.6973126,43 47.3453581,42.2226977 46.8055627,41.6117168 L38.7069018,32.4450501 C38.1970932,31.8680106 36.9760425,31.8482779 36.4263956,32.4081961 Z M26.75,23 C24.6789322,23 23,24.6789322 23,26.75 C23,28.8210678 24.6789322,30.5 26.75,30.5 C28.8210678,30.5 30.5,28.8210678 30.5,26.75 C30.5,24.6789322 28.8210678,23 26.75,23 Z" />
    <filter
       id="filter-4-1"
       filterUnits="objectBoundingBox"
       height="107.4%"
       width="103.2%"
       y="-1.9%"
       x="-1.6%">
      <feOffset
         id="feOffset344"
         result="shadowOffsetOuter1"
         in="SourceAlpha"
         dy="1"
         dx="0" />
      <feColorMatrix
         id="feColorMatrix346"
         in="shadowOffsetOuter1"
         type="matrix"
         values="0 0 0 0 0.784313725   0 0 0 0 0.0392156863   0 0 0 0 0.0392156863  0 0 0 0.2 0" />
    </filter>
    <linearGradient
       id="linearGradient-1-2"
       y2="68"
       x2="34"
       y1="1.6152456"
       x1="34"
       gradientUnits="userSpaceOnUse">
      <stop
         id="stop408"
         offset="0%"
         stop-color="#C165DD" />
      <stop
         id="stop410"
         offset="100%"
         stop-color="#794FED" />
    </linearGradient>
    <linearGradient
       id="linearGradient-2-7"
       y2="48.176412"
       x2="34.072691"
       y1="18.68065"
       x1="34.072691"
       gradientTransform="scale(0.98319208,1.0170953)"
       gradientUnits="userSpaceOnUse">
      <stop
         id="stop413"
         offset="0%"
         stop-color="#FFFFFF" />
      <stop
         id="stop415"
         offset="100%"
         stop-opacity="0.6"
         stop-color="#FFFFFF" />
    </linearGradient>
    <path
       id="path-3-0"
       d="M43.8571429,19 C46.1451796,19 48,21.2385762 48,24 L48,44 C48,46.7614238 46.1451796,49 43.8571429,49 L23.1428571,49 C20.8548204,49 19,46.7614238 19,44 L19,24 C19,21.2385762 20.8548204,19 23.1428571,19 L43.8571429,19 Z M26,42 L21,42 L21,45.2 C21,46.1941125 21.8058875,47 22.8,47 L22.8,47 L26,47 L26,42 Z M46,42 L41,42 L41,47 L44.2,47 C45.1941125,47 46,46.1941125 46,45.2 L46,45.2 L46,42 Z M26,35 L21,35 L21,40 L26,40 L26,35 Z M46,35 L41,35 L41,40 L46,40 L46,35 Z M26,28 L21,28 L21,33 L26,33 L26,28 Z M46,28 L41,28 L41,33 L46,33 L46,28 Z M26,21 L22.8,21 C21.8058875,21 21,21.8058875 21,22.8 L21,22.8 L21,26 L26,26 L26,21 Z M44.2,21 L41,21 L41,26 L46,26 L46,22.8 C46,21.8058875 45.1941125,21 44.2,21 L44.2,21 Z" />
    <filter
       id="filter-4-9"
       filterUnits="objectBoundingBox"
       height="106.7%"
       width="103.4%"
       y="-1.7%"
       x="-1.7%">
      <feOffset
         id="feOffset419"
         result="shadowOffsetOuter1"
         in="SourceAlpha"
         dy="1"
         dx="0" />
      <feColorMatrix
         id="feColorMatrix421"
         in="shadowOffsetOuter1"
         type="matrix"
         values="0 0 0 0 0.37968714   0 0 0 0 0.173917205   0 0 0 0 0.867272418  0 0 0 1 0" />
    </filter>
    <linearGradient
       id="linearGradient-1-36"
       y2="83.243615"
       x2="34"
       y1="17.358413"
       x1="34"
       gradientUnits="userSpaceOnUse">
      <stop
         id="stop483"
         offset="0%"
         stop-color="#48D5FF" />
      <stop
         id="stop485"
         offset="100%"
         stop-color="#0056FF" />
    </linearGradient>
    <linearGradient
       id="linearGradient-2-0"
       y2="100%"
       x2="50%"
       y1="0%"
       x1="50%">
      <stop
         id="stop488"
         offset="0%"
         stop-color="#FFFFFF" />
      <stop
         id="stop490"
         offset="100%"
         stop-opacity="0.6"
         stop-color="#FFFFFF" />
    </linearGradient>
    <path
       id="path-3-6"
       d="M18,23.7 C18,22.2088312 19.2088312,21 20.7,21 L29.2614342,21 C30.3202216,21 31.2812943,21.6188475 31.7194237,22.5827321 L32.818,25 L45.4,25 C47.3882251,25 49,26.6117749 49,28.6 L49.0008186,35.2013041 C47.4416013,33.2436067 45.1079623,32 42.5,32 C37.8055796,32 34,36.0294373 34,41 C34,43.3053753 34.81864,45.4082996 36.1649114,47.0006464 L21.6,47 C19.6117749,47 18,45.3882251 18,43.4 L18,23.7 Z" />
    <filter
       id="filter-4-2"
       filterUnits="objectBoundingBox"
       height="107.7%"
       width="103.2%"
       y="-1.9%"
       x="-1.6%">
      <feOffset
         id="feOffset494"
         result="shadowOffsetOuter1"
         in="SourceAlpha"
         dy="1"
         dx="0" />
      <feColorMatrix
         id="feColorMatrix496"
         in="shadowOffsetOuter1"
         type="matrix"
         values="0 0 0 0 0.0520936224   0 0 0 0 0.444268892   0 0 0 0 0.947944973  0 0 0 1 0" />
    </filter>
    <path
       id="path-6"
       d="M43.4230683,34 C43.6940361,33.9999486 43.934656,34.1732 44.0205934,34.4301792 C44.2755315,35.1925217 44.7161437,35.7183282 45.3424301,36.0075986 C45.9568103,36.2913699 46.6314483,36.338876 47.3663441,36.150117 C47.6405605,36.0797084 47.9280742,36.2008495 48.0692,36.4462788 L48.9292299,37.9419418 C49.0696379,38.1861444 49.0308804,38.4938798 48.8342982,38.6956339 C48.3158563,39.2277156 48.0566354,39.8463544 48.0566354,40.5515505 C48.0566354,41.2358534 48.3007238,41.7961174 48.7889005,42.2323424 C49.0067944,42.4270405 49.0622054,42.7460132 48.9227454,43.0027933 L48.0631149,44.5855839 C47.9252006,44.839539 47.6321886,44.9670899 47.3523373,44.8950008 C46.5642379,44.6919879 45.8942688,44.7399311 45.3424301,45.0388302 C44.7796021,45.3436816 44.3466462,45.8668478 44.0435623,46.6083289 C43.9467774,46.8452193 43.7162982,47 43.460399,47 L41.6769703,47 C41.4054347,46.9999379 41.1644561,46.8259413 41.0790236,46.5681956 C40.8542535,45.8900747 40.441527,45.3802862 39.8408443,45.0388302 C39.2282159,44.6905838 38.4963599,44.6377932 37.6452763,44.8804586 C37.3642085,44.9606151 37.0649262,44.836923 36.922446,44.5817298 L36.0645701,43.0452063 C35.9135517,42.7748224 35.9814872,42.4347871 36.2247743,42.2431484 C36.7366089,41.8399733 36.9925262,41.2761073 36.9925262,40.5515505 C36.9925262,39.7982779 36.7469643,39.1741555 36.2558405,38.6791833 C36.061182,38.4829572 36.0171347,38.1827673 36.1472425,37.9389056 L36.929519,36.472682 C37.0685971,36.2119523 37.3702108,36.082946 37.6548239,36.1624326 C38.5708064,36.4182475 39.2994799,36.3666362 39.8408443,36.0075986 C40.3653658,35.6597314 40.7320148,35.1398787 40.9407913,34.4480405 C41.0210177,34.182018 41.2660705,34 41.5439271,34 L43.4230683,34 Z M42.4781824,38.3333333 C41.2439835,38.3333333 40.2434677,39.303383 40.2434677,40.5 C40.2434677,41.696617 41.2439835,42.6666667 42.4781824,42.6666667 C43.7123812,42.6666667 44.712897,41.696617 44.712897,40.5 C44.712897,39.303383 43.7123812,38.3333333 42.4781824,38.3333333 Z" />
    <filter
       id="filter-7"
       filterUnits="objectBoundingBox"
       height="115.4%"
       width="107.7%"
       y="-3.8%"
       x="-3.8%">
      <feOffset
         id="feOffset505"
         result="shadowOffsetOuter1"
         in="SourceAlpha"
         dy="1"
         dx="0" />
      <feColorMatrix
         id="feColorMatrix507"
         in="shadowOffsetOuter1"
         type="matrix"
         values="0 0 0 0 0.0520936224   0 0 0 0 0.444268892   0 0 0 0 0.947944973  0 0 0 1 0" />
    </filter>
    <linearGradient
       inkscape:collect="always"
       xlink:href="#linearGradient-2-0"
       id="linearGradient560"
       x1="30.680018"
       y1="22.930515"
       x2="30.680018"
       y2="51.321382"
       gradientTransform="scale(1.0919293,0.91581023)"
       gradientUnits="userSpaceOnUse" />
    <linearGradient
       inkscape:collect="always"
       xlink:href="#linearGradient-2-0"
       id="linearGradient562"
       x1="42.452274"
       y1="34.037282"
       x2="42.452274"
       y2="47.051537"
       gradientTransform="scale(1.0010965,0.99890468)"
       gradientUnits="userSpaceOnUse" />
  </defs>
  <sodipodi:namedview
     id="base"
     pagecolor="#ffffff"
     bordercolor="#666666"
     borderopacity="1.0"
     inkscape:pageopacity="0.0"
     inkscape:pageshadow="2"
     inkscape:zoom="3.0117001"
     inkscape:cx="23.375892"
     inkscape:cy="40.395519"
     inkscape:document-units="mm"
     inkscape:current-layer="layer1"
     showgrid="false"
     inkscape:window-width="1920"
     inkscape:window-height="972"
     inkscape:window-x="0"
     inkscape:window-y="0"
     inkscape:window-maximized="1"
     showguides="false" />
  <metadata
     id="metadata5">
    <rdf:RDF>
      <cc:Work
         rdf:about="">
        <dc:format>image/svg+xml</dc:format>
        <dc:type
           rdf:resource="http://purl.org/dc/dcmitype/StillImage" />
        <dc:title></dc:title>
      </cc:Work>
    </rdf:RDF>
  </metadata>
  <g
     inkscape:label="Layer 1"
     inkscape:groupmode="layer"
     id="layer1"
     transform="translate(0,-284)">
    <g
       id="页面-1备份"
       transform="matrix(0.18676471,0,0,0.18676471,0.14075605,284.33495)"
       style="fill:none;fill-rule:evenodd;stroke:none;stroke-width:1">
      <g
         transform="translate(-1453,-502)"
         id="1-首页-ANDROID-手机">
        <g
           transform="translate(1092,325)"
           id="编组-5">
          <g
             transform="translate(361,177)"
             id="编组">
            <g
               id="文件管理">
              <path
                 style="fill:url(#linearGradient-1-36)"
                 id="Rectangle"
                 d="m 23.074967,0 h 21.850066 c 8.023669,0 10.933245,0.8354305 13.866578,2.4041943 2.933334,1.5687639 5.235431,3.870861 6.804195,6.8041944 C 67.164569,12.141722 68,15.051298 68,23.074967 v 21.850066 c 0,8.023669 -0.835431,10.933245 -2.404194,13.866578 -1.568764,2.933334 -3.870861,5.235431 -6.804195,6.804195 C 55.858278,67.164569 52.948702,68 44.925033,68 H 23.074967 C 15.051298,68 12.141722,67.164569 9.2083887,65.595806 6.2750553,64.027042 3.9729582,61.724945 2.4041943,58.791611 0.8354305,55.858278 0,52.948702 0,44.925033 V 23.074967 C 0,15.051298 0.8354305,12.141722 2.4041943,9.2083887 3.9729582,6.2750553 6.2750553,3.9729582 9.2083887,2.4041943 12.141722,0.8354305 15.051298,0 23.074967,0 Z"
                 inkscape:connector-curvature="0" />
              <g
                 id="形状结合"
                 style="fill-rule:nonzero">
                <use
                   style="fill:#000000;fill-opacity:1;filter:url(#filter-4-2)"
                   id="use513"
                   xlink:href="#path-3-6"
                   x="0"
                   y="0"
                   width="100%"
                   height="100%" />
                <use
                   style="fill:url(#linearGradient560)"
                   id="use515"
                   xlink:href="#path-3-6"
                   x="0"
                   y="0"
                   width="100%"
                   height="100%" />
              </g>
              <g
                 id="形状结合备份"
                 style="fill-rule:nonzero">
                <use
                   id="use518"
                   xlink:href="#path-6"
                   style="fill:#000000;fill-opacity:1;filter:url(#filter-7)"
                   x="0"
                   y="0"
                   width="100%"
                   height="100%" />
                <use
                   style="fill:url(#linearGradient562)"
                   id="use520"
                   xlink:href="#path-6"
                   x="0"
                   y="0"
                   width="100%"
                   height="100%" />
              </g>
            </g>
          </g>
        </g>
      </g>
    </g>
  </g>
</svg>
