<?xml version="1.0" encoding="UTF-8"?>
<svg width="16px" height="16px" viewBox="0 0 16 16" version="1.1" xmlns="http://www.w3.org/2000/svg" xmlns:xlink="http://www.w3.org/1999/xlink">
    <title>音乐</title>
    <g id="页面-1备份" stroke="none" stroke-width="1" fill="none" fill-rule="evenodd">
        <g id="按钮" transform="translate(-291.000000, -100.000000)" fill="#536076">
            <g id="音乐" transform="translate(291.000000, 100.000000)">
                <path d="M2.7982063,12.1824433 C3.21407868,12.1824433 3.64007664,12.0753493 4.02991179,11.87173 C4.88914029,11.4229219 5.37299876,10.604217 5.31152197,9.85244575 C5.31369174,9.83624075 5.3209243,9.82285401 5.3209243,9.80664901 L5.3209243,4.63161671 L13.2767437,6.5578983 L13.2767437,11.5286067 C12.9787621,11.3426014 12.6164107,11.229871 12.2092174,11.229871 C11.7926217,11.229871 11.3666238,11.3376695 10.9775119,11.5405843 C10.4632767,11.8097282 10.0611461,12.2183761 9.84633902,12.6925486 C9.61779003,13.1963128 9.62357608,13.7141683 9.86297392,14.1495897 C10.1558927,14.682241 10.7598117,15 11.477282,15 C11.8931544,15 12.3191523,14.8929061 12.7089875,14.6892867 C13.568216,14.2404786 14.0520745,13.4217737 13.9905977,12.6700025 C13.9927674,12.654502 14,12.6411153 14,12.6249103 L14,3.47612958 C14,3.31478412 13.887172,3.17387106 13.7266091,3.1344154 L5.04753342,1.01015095 C4.93976823,0.984786603 4.82477048,1.00733269 4.73653321,1.07356183 C4.64829594,1.13979097 4.59766799,1.24336208 4.59766799,1.35186514 L4.59766799,8.71034537 C4.2996864,8.52434012 3.93733499,8.41160967 3.53014168,8.41160967 C3.11354605,8.41160967 2.68754808,8.51940816 2.29843619,8.72232298 C1.78420096,8.99146693 1.38207045,9.40011482 1.16726333,9.87428728 C0.938714332,10.3780515 0.944500382,10.895907 1.18389822,11.3313284 C1.47681703,11.8646843 2.08073604,12.1824433 2.7982063,12.1824433 L2.7982063,12.1824433 Z" id="Shape"></path>
            </g>
        </g>
    </g>
</svg>