<?xml version="1.0" encoding="UTF-8"?>
<svg width="16px" height="16px" viewBox="0 0 16 16" version="1.1" xmlns="http://www.w3.org/2000/svg" xmlns:xlink="http://www.w3.org/1999/xlink">
    <title>照片</title>
    <g id="页面-1备份" stroke="none" stroke-width="1" fill="none" fill-rule="evenodd">
        <g id="按钮" transform="translate(-230.000000, -100.000000)" fill="#536076" fill-rule="nonzero">
            <g id="照片" transform="translate(230.000000, 100.000000)">
                <path d="M13,2 C14.1045695,2 15,2.89543049 15,4 L15,12 C15,13.1045695 14.1045695,14 13,14 L3,14 C1.89543053,14 1,13.1045695 1,12 L1,4 C1,2.89543049 1.89543053,2 3,2 L13,2 Z M9.30062029,7.18554367 L7.66441512,9.53691742 C7.51847379,9.74664825 7.25296142,9.75136642 7.08113832,9.55841759 L6.02465628,8.37204092 C5.76253013,8.18997875 5.32776948,8.21497034 5.11230302,8.42448617 L2.11279908,11.3411528 C1.82918803,11.6169313 2.11301563,12 2.60095843,12 L13.3991728,12 C13.8654723,12 14.1534925,11.6466808 13.9135834,11.3689622 L10.3141786,7.20229551 C10.087597,6.94000484 9.5449078,6.93103542 9.30062029,7.18554367 Z M4.5,4 C3.67157287,4 3,4.67157287 3,5.5 C3,6.32842713 3.67157287,7 4.5,7 C5.32842713,7 6,6.32842713 6,5.5 C6,4.67157287 5.32842713,4 4.5,4 Z" id="形状"></path>
            </g>
        </g>
    </g>
</svg>