<?xml version="1.0" encoding="UTF-8"?>
<svg width="18px" height="18px" viewBox="0 0 18 18" version="1.1" xmlns="http://www.w3.org/2000/svg" xmlns:xlink="http://www.w3.org/1999/xlink">
    <title>编组 4</title>
    <g id="浅色主题12-10" stroke="none" stroke-width="1" fill="none" fill-rule="evenodd">
        <g id="[1-1-1]-查看照片备份" transform="translate(-620.000000, -869.000000)" fill="#000000">
            <g id="编组-4" transform="translate(620.000000, 869.000000)">
                <path d="M2.99253976,5.5067062e-14 C1.33980569,5.5067062e-14 5.32907052e-15,1.35292554 5.32907052e-15,2.99253976 L5.32907052e-15,15.0074602 C5.32907052e-15,16.6601943 1.35292554,18 2.99253976,18 L15.0074602,18 C16.6601943,18 18,16.6470745 18,15.0074602 L18,2.99253976 C18,1.33980569 16.6470745,5.5067062e-14 15.0074602,5.5067062e-14 L2.99253976,5.5067062e-14 Z M15.0059397,1 C16.1072288,1 17,1.89451376 17,2.99406028 L17,15.0059397 C17,16.1072288 16.1054862,17 15.0059397,17 L2.99406028,17 C1.8927712,17 1,16.1054862 1,15.0059397 L1,2.99406028 C1,1.8927712 1.89451376,1 2.99406028,1 L15.0059397,1 Z" id="rect34584"></path>
                <path d="M3,10.07 L7.929,15 L4,15 C3.44771525,15 3,14.5522847 3,14 L3,10.07 Z M15,10.07 L15,14 C15,14.5522847 14.5522847,15 14,15 L10.07,15 L15,10.07 Z M7.929,3 L3,7.929 L3,4 C3,3.44771525 3.44771525,3 4,3 L7.929,3 Z M14,3 C14.5522847,3 15,3.44771525 15,4 L15,7.929 L10.07,3 L14,3 Z" id="Combined-Shape"></path>
            </g>
        </g>
    </g>
</svg>