<?xml version="1.0" encoding="UTF-8"?>
<svg width="96px" height="96px" viewBox="0 0 96 96" version="1.1" xmlns="http://www.w3.org/2000/svg" xmlns:xlink="http://www.w3.org/1999/xlink">
    <!-- Generator: Sketch 58 (84663) - https://sketch.com -->
    <title>欢迎</title>
    <desc>Created with Sketch.</desc>
    <defs>
        <filter x="-4.8%" y="-4.6%" width="109.5%" height="109.2%" filterUnits="objectBoundingBox" id="filter-1">
            <feOffset dx="0" dy="1" in="SourceAlpha" result="shadowOffsetOuter1"></feOffset>
            <feGaussianBlur stdDeviation="0.5" in="shadowOffsetOuter1" result="shadowBlurOuter1"></feGaussianBlur>
            <feComposite in="shadowBlurOuter1" in2="SourceAlpha" operator="out" result="shadowBlurOuter1"></feComposite>
            <feColorMatrix values="0 0 0 0 0   0 0 0 0 0   0 0 0 0 0  0 0 0 0.15 0" type="matrix" in="shadowBlurOuter1" result="shadowMatrixOuter1"></feColorMatrix>
            <feMerge>
                <feMergeNode in="shadowMatrixOuter1"></feMergeNode>
                <feMergeNode in="SourceGraphic"></feMergeNode>
            </feMerge>
        </filter>
        <linearGradient x1="42.15262%" y1="0%" x2="42.1526194%" y2="100%" id="linearGradient-2">
            <stop stop-color="#00D8A5" offset="0%"></stop>
            <stop stop-color="#0058FF" offset="100%"></stop>
        </linearGradient>
    </defs>
    <g id="页面-1" stroke="none" stroke-width="1" fill="none" fill-rule="evenodd">
        <g id="欢迎-96px-2">
            <g id="dde-introduction-32px">
                <g id="编组" filter="url(#filter-1)" transform="translate(6.000000, 4.978565)">
                    <circle id="Mask" fill="url(#linearGradient-2)" cx="42" cy="43.0214353" r="42"></circle>
                    <path d="M31.478692,70.3608115 L65.2267015,70.6169451 C65.2300219,70.6169661 65.2300219,70.6169661 65.2333422,70.6169703 C65.7165914,70.6169703 66.1083422,70.2252194 66.1083422,69.7419703 L66.1083422,23.7282374 C66.1083422,19.1028527 62.358727,15.3532374 57.7333422,15.3532374 L39.7230418,15.3532374 C39.7113068,15.3532429 39.7113068,15.3532429 39.6995718,15.3532703 C35.0742052,15.3662325 31.3351126,19.1263408 31.3480747,23.7517074 L31.478692,70.3608115 Z" id="Rectangle" stroke="#373737" stroke-width="0.75" fill="#404040" transform="translate(48.715914, 42.989865) rotate(-315.000000) translate(-48.715914, -42.989865) "></path>
                    <path d="M16.5968183,24.5793432 L61.3468183,24.5793432 C62.0371742,24.5793432 62.5968183,25.1389873 62.5968183,25.8293432 L62.5968183,59.9599335 C62.5968183,60.6502895 62.0371742,61.2099335 61.3468183,61.2099335 L16.5968183,61.2099335 C11.7643267,61.2099335 7.84681829,57.2924251 7.84681829,52.4599335 L7.84681829,33.3293432 C7.84681829,28.4968516 11.7643267,24.5793432 16.5968183,24.5793432 Z" id="Rectangle-13" fill="#FFFFFF" transform="translate(35.221818, 42.894638) rotate(-315.000000) translate(-35.221818, -42.894638) "></path>
                    <path d="M42.9477973,47.9167629 L42.9477973,49.7351886 L63.3864992,49.7351886 L63.3864992,47.9167629 L42.9477973,47.9167629 Z" id="Rectangle-2" stroke="#373737" stroke-width="0.875" fill="#606060" transform="translate(53.167148, 48.825976) rotate(-315.000000) translate(-53.167148, -48.825976) "></path>
                    <path d="M37.3640334,53.6303817 L37.3640334,55.4488075 L57.8027353,55.4488075 L57.8027353,53.6303817 L37.3640334,53.6303817 Z" id="Rectangle-2" stroke="#373737" stroke-width="0.875" fill="#606060" transform="translate(47.583384, 54.539595) rotate(-315.000000) translate(-47.583384, -54.539595) "></path>
                    <path d="M20.8638997,56.2337752 L31.2904092,56.2086024 L31.0421575,44.4583759 C31.0210412,43.4589012 30.2047651,42.6596888 29.2050675,42.6596888 L22.6602202,42.6596888 C22.6569958,42.6596907 22.6569958,42.6596907 22.6537714,42.6597001 C21.6389544,42.6632617 20.81917,43.4888207 20.8227316,44.5036376 L20.8638997,56.2337752 Z" id="Rectangle-14" stroke="#373737" stroke-width="0.875" fill="#404040" transform="translate(26.057225, 49.447259) rotate(-315.000000) translate(-26.057225, -49.447259) "></path>
                    <path d="M26.5962352,61.8459874 L36.6209061,61.7334325 L36.6209061,50.1658914 C36.6209061,49.1510682 35.7982294,48.3283914 34.7834061,48.3283914 L28.7448856,48.3283914 C27.749082,48.3283914 26.9344974,49.121609 26.9080345,50.1170609 L26.5962352,61.8459874 Z" id="Rectangle-14" stroke="#373737" stroke-width="0.875" fill="#404040" transform="translate(31.602611, 55.089726) rotate(-315.000000) translate(-31.602611, -55.089726) "></path>
                    <path d="M32.5380871,67.595429 L42.1919333,67.595429 L42.1919333,56.0327725 C42.1919333,55.0179493 41.3692565,54.1952725 40.3544333,54.1952725 L34.3755871,54.1952725 C33.3607639,54.1952725 32.5380871,55.0179493 32.5380871,56.0327725 L32.5380871,67.595429 Z" id="Rectangle-14" stroke="#373737" stroke-width="0.875" fill="#404040" transform="translate(37.365010, 60.895351) rotate(-315.000000) translate(-37.365010, -60.895351) "></path>
                    <path d="M38.0447553,73.4995019 L47.4125438,73.4995019 C47.8612751,73.4995019 48.2250438,73.1357332 48.2250438,72.6870019 L48.2250438,61.9368453 C48.2250438,60.9220221 47.402367,60.0993453 46.3875438,60.0993453 L39.8822553,60.0993453 C38.8674321,60.0993453 38.0447553,60.9220221 38.0447553,61.9368453 L38.0447553,73.4995019 Z" id="Rectangle-14" stroke="#373737" stroke-width="0.875" fill="#404040" transform="translate(43.134900, 66.799424) rotate(-315.000000) translate(-43.134900, -66.799424) "></path>
                    <path d="M43.7623732,23.589384 L43.7623732,33.8694832 C43.7623732,39.3893157 39.6376888,43.8640241 34.5496328,43.8640241 L34.5496328,23.589384 L34.5496328,23.589384" id="Rectangle-15" stroke="#373737" stroke-width="0.875" fill="#404040" transform="translate(39.156003, 33.726704) rotate(-315.000000) translate(-39.156003, -33.726704) "></path>
                </g>
                <g id="Group" transform="translate(6.000000, 15.000000)"></g>
            </g>
        </g>
    </g>
</svg>