<?xml version="1.0" encoding="UTF-8"?>
<svg width="44px" height="44px" viewBox="0 0 44 44" version="1.1" xmlns="http://www.w3.org/2000/svg" xmlns:xlink="http://www.w3.org/1999/xlink">
    <title>文件夹icon</title>
    <defs>
        <linearGradient x1="50%" y1="0%" x2="50%" y2="95.6533653%" id="linearGradient-1">
            <stop stop-color="#E6E6E6" offset="0%"></stop>
            <stop stop-color="#E3E3E3" offset="100%"></stop>
        </linearGradient>
        <rect id="path-2" x="0" y="0" width="36" height="36" rx="8"></rect>
        <filter x="-19.4%" y="-13.9%" width="138.9%" height="138.9%" filterUnits="objectBoundingBox" id="filter-3">
            <feOffset dx="0" dy="2" in="SourceAlpha" result="shadowOffsetOuter1"></feOffset>
            <feGaussianBlur stdDeviation="2" in="shadowOffsetOuter1" result="shadowBlurOuter1"></feGaussianBlur>
            <feComposite in="shadowBlurOuter1" in2="SourceAlpha" operator="out" result="shadowBlurOuter1"></feComposite>
            <feColorMatrix values="0 0 0 0 0   0 0 0 0 0   0 0 0 0 0  0 0 0 0.05 0" type="matrix" in="shadowBlurOuter1"></feColorMatrix>
        </filter>
    </defs>
    <g id="页面-1" stroke="none" stroke-width="1" fill="none" fill-rule="evenodd">
        <g id="下载-新建下载输入正确备份" transform="translate(-420.000000, -860.000000)">
            <g id="对话框-12" transform="translate(414.000000, 333.000000)">
                <g id="文件夹icon" transform="translate(10.000000, 529.000000)">
                    <g id="button/add">
                        <g id="Rectangle">
                            <use fill="black" fill-opacity="1" filter="url(#filter-3)" xlink:href="#path-2"></use>
                            <rect stroke-opacity="0.03" stroke="#000000" stroke-width="1" stroke-linejoin="square" fill="url(#linearGradient-1)" fill-rule="evenodd" x="0.5" y="0.5" width="35" height="35" rx="8"></rect>
                        </g>
                        <g id="Line-2-+-Line-3" transform="translate(13.000000, 13.000000)" fill="#000000" opacity="0">
                            <path d="M6,0 L6,5 L11,5 L11,6 L6,6 L6,11 L5,11 L5,6 L0,6 L0,5 L5,5 L5,0 L6,0 Z" id="Combined-Shape"></path>
                        </g>
                    </g>
                    <g id="list_icon_cancel/normal_dark" transform="translate(10.833333, 10.000000)" fill="#536076">
                        <path d="M16.25,5 L16.25,12 C16.25,13.1045695 15.3545695,14 14.25,14 L3.08333333,14 C1.97876383,14 1.08333333,13.1045695 1.08333333,12 L1.08333333,3.5 C1.08333333,2.67157288 1.75490621,2 2.58333333,2 L6.5,2 L6.5,2 L7.58333333,3 L14.25,3 C15.3545695,3 16.25,3.8954305 16.25,5 Z M6.07756224,6 C7.43661956,6 8.12061017,6.62439816 8.12061017,7.55539816 C8.12061017,8.1013036 7.97867476,8.65629965 7.32875,8.84288078 C7.96575,8.96888078 8.39884622,9.48211705 8.39884622,10.182117 C8.39884622,11.204117 7.43491667,11.8304662 6.19883333,11.8304662 L6.19883333,11.8304662 L4.33333333,11.8304662 L4.33333333,11.6784662 L4.34856224,6 Z M13.6418484,6 L13.6418484,7 L11.9166667,7 L11.9166667,11.5035692 L10.8333333,11.5035692 L10.8333333,7 L9.18984317,7 L9.18984317,6 L13.6418484,6 Z M6.06074447,9.45364959 L5.43421415,9.45364959 L5.43421415,10.9859244 L5.9865,10.9859244 C6.84941113,10.9859244 7.25369356,10.655914 7.25369356,10.2128637 C7.25369356,9.7311549 6.84941113,9.45364959 6.06074447,9.45364959 L6.06074447,9.45364959 Z M5.9865,7.02431492 L5.43421415,7.02431492 L5.43421415,8.54274321 L5.9865,8.54274321 C6.77516667,8.54274321 7.18874022,8.22657935 7.18874022,7.78352906 C7.18874022,7.30182024 6.77516667,7.02431492 5.9865,7.02431492 L5.9865,7.02431492 Z" id="形状结合"></path>
                    </g>
                </g>
            </g>
        </g>
    </g>
</svg>