<svg xmlns="http://www.w3.org/2000/svg" width="20" height="17" viewBox="0 0 20 17">
  <g fill="none" fill-rule="evenodd" transform="translate(1 1)">
    <path stroke="#536076" stroke-linecap="round" stroke-linejoin="round" stroke-width="1.636" d="M0,14.7272727 L0,0.818181818 C-1.66360337e-16,0.366312477 0.366312477,3.05051656e-16 0.818181818,0 L7.84291618,0 C8.05991149,8.19002974e-16 8.26801923,0.0862010512 8.42145809,0.239639906 L9.81818182,1.63636364 L9.81818182,1.63636364 L17.1818182,1.63636364 C17.6336875,1.63636364 18,2.00267611 18,2.45454545 L18,14.7272727 L18,14.7272727 L0,14.7272727 Z"/>
    <path fill="#536076" d="M9.79025263,5.72727273 L9.79025263,4.09090909 L16.5149598,4.09090909 L16.5149598,5.72727273 L13.9090909,5.72727273 L13.9090909,13.0967496 L12.2727273,13.0967496 L12.2727273,5.72727273 L9.79025263,5.72727273 Z"/>
    <path fill="#536076" fill-rule="nonzero" d="M2.45454545,13.631672 L5.27236364,13.631672 C7.13945455,13.631672 8.59546003,12.606737 8.59546003,10.9343733 C8.59546003,9.7889188 7.94127273,8.94907765 6.97909091,8.74289583 C7.96079544,8.43758124 8.17518739,7.52940589 8.17518739,6.63610609 C8.17518739,5.11265154 7.14202675,4.09090909 5.08918493,4.09090909 L2.47754857,4.09090909 L2.45454545,13.3829447 L2.45454545,13.631672 Z M4.11741438,8.25176161 L4.11741438,5.76706078 L4.95163636,5.76706078 C6.14290909,5.76706078 6.76760761,6.22116039 6.76760761,7.0094112 C6.76760761,7.73440258 6.14290909,8.25176161 4.95163636,8.25176161 L4.11741438,8.25176161 Z M4.11741438,12.2496945 L4.11741438,9.74233569 C3.95414421,9.74233569 4.26960003,9.74233569 5.06378185,9.74233569 C6.25505458,9.74233569 6.86571895,10.1964353 6.86571895,10.9846861 C6.86571895,11.7096775 6.25505458,12.2496945 4.95163636,12.2496945 L4.11741438,12.2496945 Z"/>
  </g>
</svg>
