<?xml version="1.0" encoding="UTF-8" standalone="no"?>
<!-- Created with Inkscape (http://www.inkscape.org/) -->

<svg
   xmlns:dc="http://purl.org/dc/elements/1.1/"
   xmlns:cc="http://creativecommons.org/ns#"
   xmlns:rdf="http://www.w3.org/1999/02/22-rdf-syntax-ns#"
   xmlns:svg="http://www.w3.org/2000/svg"
   xmlns="http://www.w3.org/2000/svg"
   xmlns:xlink="http://www.w3.org/1999/xlink"
   xmlns:sodipodi="http://sodipodi.sourceforge.net/DTD/sodipodi-0.dtd"
   xmlns:inkscape="http://www.inkscape.org/namespaces/inkscape"
   width="48"
   height="48"
   id="svg2"
   version="1.1"
   inkscape:version="0.49 r12742"
   sodipodi:docname="help-browser.svg">
  <defs
     id="defs4">
    <linearGradient
       gradientTransform="translate(-1.8847656e-6,1.9961484e-4)"
       inkscape:collect="always"
       xlink:href="#linearGradient4678"
       id="linearGradient7861"
       x1="30.296669"
       y1="1049.4602"
       x2="30.296669"
       y2="1007.3235"
       gradientUnits="userSpaceOnUse" />
    <linearGradient
       inkscape:collect="always"
       id="linearGradient4678">
      <stop
         style="stop-color:#0a7fe7;stop-opacity:1"
         offset="0"
         id="stop4680" />
      <stop
         style="stop-color:#50bffc;stop-opacity:1"
         offset="1"
         id="stop4682" />
    </linearGradient>
  </defs>
  <sodipodi:namedview
     id="base"
     pagecolor="#ffffff"
     bordercolor="#666666"
     borderopacity="1.0"
     inkscape:pageopacity="0.0"
     inkscape:pageshadow="2"
     inkscape:zoom="5.785908"
     inkscape:cx="12.526281"
     inkscape:cy="36.95731"
     inkscape:document-units="px"
     inkscape:current-layer="layer1"
     showgrid="false"
     inkscape:window-width="1366"
     inkscape:window-height="718"
     inkscape:window-x="0"
     inkscape:window-y="23"
     inkscape:window-maximized="1">
    <inkscape:grid
       type="xygrid"
       id="grid3850"
       empspacing="5"
       visible="true"
       enabled="true"
       snapvisiblegridlinesonly="true" />
  </sodipodi:namedview>
  <metadata
     id="metadata7">
    <rdf:RDF>
      <cc:Work
         rdf:about="">
        <dc:format>image/svg+xml</dc:format>
        <dc:type
           rdf:resource="http://purl.org/dc/dcmitype/StillImage" />
        <dc:title />
      </cc:Work>
    </rdf:RDF>
  </metadata>
  <g
     inkscape:label="Capa 1"
     inkscape:groupmode="layer"
     id="layer1"
     transform="translate(0,-1004.3622)">
    <g
       id="layer1-6"
       inkscape:label="Capa 1"
       transform="translate(0,4.7900391e-5)">
      <rect
         ry="6.2786646"
         y="1006.1622"
         x="1.8000183"
         height="44.399963"
         width="44.399963"
         id="rect5263-5"
         style="fill:#000000;fill-opacity:0.01960784;stroke:none" />
      <rect
         style="fill:#000000;fill-opacity:0.03921569;stroke:none"
         id="rect5261-9"
         width="43.799973"
         height="43.799973"
         x="2.1000061"
         y="1006.4623"
         ry="6.1938181" />
      <rect
         ry="6.1089716"
         y="1006.7626"
         x="2.3999939"
         height="43.199982"
         width="43.199982"
         id="rect5259-3"
         style="fill:#000000;fill-opacity:0.07843137;stroke:none" />
      <rect
         style="fill:#000000;fill-opacity:0.15686275;stroke:none"
         id="rect5257-8"
         width="42.599991"
         height="42.599991"
         x="2.7000122"
         y="1007.0624"
         ry="6.0241251" />
      <rect
         ry="5.9392786"
         y="1007.3622"
         x="3"
         height="42"
         width="42"
         id="rect5237-1"
         style="fill:url(#linearGradient7861);fill-opacity:1;stroke:none" />
      <path
         id="rect5265-2"
         d="m 2.9999971,1040.9248 0,2.5 c 0,3.2904 2.64714,5.9375 5.9375,5.9375 l 30.1249999,0 c 3.29036,0 5.9375,-2.6471 5.9375,-5.9375 l 0,-2.5 c 0,3.2904 -2.64714,5.9375 -5.9375,5.9375 l -30.1249999,0 c -3.29036,0 -5.9375,-2.6471 -5.9375,-5.9375 z"
         style="fill:#000000;fill-opacity:0.11764706;stroke:none"
         inkscape:connector-curvature="0" />
      <path
         id="path5252-0"
         d="m 2.9999971,1042.9248 0,0.5 c 0,3.2904 2.64714,5.9375 5.9375,5.9375 l 30.1249999,0 c 3.29036,0 5.9375,-2.6471 5.9375,-5.9375 l 0,-0.5 c 0,3.2904 -2.64714,5.9375 -5.9375,5.9375 l -30.1249999,0 c -3.29036,0 -5.9375,-2.6471 -5.9375,-5.9375 z"
         style="fill:#000000;fill-opacity:0.09803922;stroke:none"
         inkscape:connector-curvature="0" />
    </g>
    <path
       style="fill:#000000;fill-opacity:0.49803922;stroke-width:0.2;stroke-linejoin:round"
       inkscape:connector-curvature="0"
       d="m 23.480012,1036.1622 c 1.43599,0 2.600043,1.1638 2.600043,2.6 0,1.4362 -1.164053,2.6 -2.600043,2.6 -1.435925,0 -2.599982,-1.1638 -2.599982,-2.6 0,-1.4362 1.164057,-2.6 2.599982,-2.6 z m 0.520024,-20.8 c 4.595007,0 8.319961,2.9721 8.319961,7.28 0,1.56 -1.039981,4.16 -3.119936,5.2 -2.080024,1.04 -3.120006,2.4366 -3.120006,4.16 l 0,2.08 -5.200025,0 0,-1.56 c 0,-3.537 3.120006,-5.72 4.159982,-6.76 2.080025,-2.08 2.080025,-2.3686 2.080025,-3.12 0,-1.7234 -1.39691,-3.12 -3.120001,-3.12 -1.723162,0 -3.120006,1.3966 -3.120006,3.12 l 0,1.56 -5.200027,0 0,-1.04 c 1e-6,-4.3079 3.725021,-7.8 8.320033,-7.8 z"
       id="path829" />
  </g>
</svg>
