<?xml version="1.0" encoding="UTF-8"?>
<svg width="24px" height="24px" viewBox="0 0 24 24" version="1.1" xmlns="http://www.w3.org/2000/svg" xmlns:xlink="http://www.w3.org/1999/xlink">
    <title>表情</title>
    <g id="组件" stroke="none" stroke-width="1" fill="none" fill-rule="evenodd">
        <g id="add-chat-footer" transform="translate(-10.000000, -59.000000)" fill="#516078">
            <g id="chat-footer" transform="translate(-2.000000, 0.000000)">
                <g id="bg" transform="translate(2.000000, 0.000000)">
                    <g id="表情" transform="translate(10.000000, 59.000000)">
                        <path d="M18.3435146,14.7563276 C17.8515691,17.595834 15.1979818,19.7647059 11.9980201,19.7647059 C8.80824924,19.7647059 6.16114711,17.6093795 5.65715776,14.783153 C5.58906361,14.4020201 5.87556858,14.0631173 6.20816449,14.1412031 C8.4043166,14.6559317 15.639899,14.6389334 17.8066363,14.12872 C18.1308941,14.0522278 18.4081346,14.3839595 18.3435146,14.7563276 Z M8.47545639,7.05882353 C9.25784111,7.05882353 9.89208925,7.69089212 9.89208925,8.47058824 C9.89208925,9.25028435 9.25784111,9.88235294 8.47545639,9.88235294 C7.69307166,9.88235294 7.05882353,9.25028435 7.05882353,8.47058824 C7.05882353,7.69089212 7.69307166,7.05882353 8.47545639,7.05882353 Z M15.5634888,7.05882353 C16.3458736,7.05882353 16.9801217,7.69089212 16.9801217,8.47058824 C16.9801217,9.25028435 16.3458736,9.88235294 15.5634888,9.88235294 C14.7811041,9.88235294 14.146856,9.25028435 14.146856,8.47058824 C14.146856,7.69089212 14.7811041,7.05882353 15.5634888,7.05882353 Z M19.4867013,19.4867029 C23.62208,15.3519763 23.62208,8.6481456 19.4867013,4.51350762 C15.3519725,0.377983353 8.64816785,0.377983353 4.51355725,4.51270996 C0.377971734,8.6481456 0.377971734,15.3519763 4.51273005,19.4867029 C8.64816785,23.6220794 15.3519725,23.6220794 19.4867013,19.4867029 Z M3.51451779,3.51450225 C8.20133252,-1.17150075 15.7994585,-1.17150075 20.4854822,3.51450225 C25.1715059,8.20129626 25.1715059,15.7994948 20.4854822,20.4854978 C15.798814,25.1715007 8.20048291,25.1715007 3.51451779,20.4854978 C-1.17150593,15.7988502 -1.17150593,8.20050525 3.51451779,3.51450225 Z" id="Fill-1"></path>
                    </g>
                </g>
            </g>
        </g>
    </g>
</svg>