<?xml version="1.0" encoding="UTF-8"?>
<svg width="24px" height="21px" viewBox="0 0 24 21" version="1.1" xmlns="http://www.w3.org/2000/svg" xmlns:xlink="http://www.w3.org/1999/xlink">
    <title>好友推荐2</title>
    <g id="组件" stroke="none" stroke-width="1" fill="none" fill-rule="evenodd">
        <g id="add-chat-footer" transform="translate(-130.000000, -61.000000)" fill="#536076">
            <g id="chat-footer" transform="translate(-2.000000, 0.000000)">
                <g id="bg" transform="translate(2.000000, 0.000000)">
                    <g id="好友推荐2" transform="translate(130.000000, 61.000000)">
                        <path d="M21.75,0 C22.9926407,-6.73072709e-16 24,1.00735931 24,2.25 L24,19.4955647 C24,20.2802816 23.3992023,20.9246746 22.632499,20.9938519 L22.4955647,21 L1.7527421,21 C0.833130004,21 0.0789311452,20.2917817 0.00581028951,19.39101 L0,19.2472579 L0,2.25 C-1.52179594e-16,1.00735931 1.00735931,2.28983499e-16 2.25,0 L21.75,0 Z M22.5,1.5 L1.5,1.5 L1.5,19.5 L22.5,19.5 L22.5,1.5 Z M11.25,16.5 C11.6642136,16.5 12,16.8357864 12,17.25 C12,17.6642136 11.6642136,18 11.25,18 L3.75,18 C3.33578644,18 3,17.6642136 3,17.25 C3,16.8357864 3.33578644,16.5 3.75,16.5 L11.25,16.5 Z M11.25,12 C11.6642136,12 12,12.3357864 12,12.75 C12,13.1642136 11.6642136,13.5 11.25,13.5 L3.75,13.5 C3.33578644,13.5 3,13.1642136 3,12.75 C3,12.3357864 3.33578644,12 3.75,12 L11.25,12 Z M18.75,3 C19.9926407,3 21,4.00735931 21,5.25 L21,8.25 C21,9.49264069 19.9926407,10.5 18.75,10.5 L15.75,10.5 C14.5073593,10.5 13.5,9.49264069 13.5,8.25 L13.5,5.25 C13.5,4.00735931 14.5073593,3 15.75,3 L18.75,3 Z M19.5,4.5 L15,4.5 L15,9 L19.5,9 L19.5,4.5 Z" id="形状结合"></path>
                    </g>
                </g>
            </g>
        </g>
    </g>
</svg>