<svg xmlns="http://www.w3.org/2000/svg" xmlns:xlink="http://www.w3.org/1999/xlink" width="24" height="24" viewBox="0 0 24 24">
  <defs>
    <filter id="24-a" width="122.7%" height="122.7%" x="-11.4%" y="-11.4%" filterUnits="objectBoundingBox">
      <feOffset in="SourceAlpha" result="shadowOffsetOuter1"/>
      <feGaussianBlur in="shadowOffsetOuter1" result="shadowBlurOuter1" stdDeviation=".5"/>
      <feColorMatrix in="shadowBlurOuter1" result="shadowMatrixOuter1" values="0 0 0 0 0   0 0 0 0 0   0 0 0 0 0  0 0 0 0.15 0"/>
      <feMerge>
        <feMergeNode in="shadowMatrixOuter1"/>
        <feMergeNode in="SourceGraphic"/>
      </feMerge>
    </filter>
    <linearGradient id="24-b" x1="25.966%" x2="52.599%" y1="6.401%" y2="82.47%">
      <stop offset="0%" stop-color="#2AA13A"/>
      <stop offset="100%" stop-color="#007463"/>
    </linearGradient>
    <path id="24-c" d="M11,0 C17.0751322,0 22,4.92486775 22,11 C22,17.0751322 17.0751322,22 11,22 C9.28156609,22 7.65516695,21.6059523 6.20623103,20.9032854 L2.90273209,21.3515384 C2.7819372,21.3679368 2.65902338,21.3579658 2.5424511,21.3223117 C2.09683776,21.1860191 1.84608377,20.7142911 1.98237638,20.2686778 L1.98237638,20.2686778 L2.63238492,18.140562 C0.991039804,16.2190008 5.32907052e-15,13.7252353 5.32907052e-15,11 C5.32907052e-15,4.92486775 4.92486775,0 11,0 Z"/>
    <filter id="24-d" width="104.5%" height="104.5%" x="-2.3%" y="-2.3%" filterUnits="objectBoundingBox">
      <feOffset dy="1" in="SourceAlpha" result="shadowOffsetInner1"/>
      <feComposite in="shadowOffsetInner1" in2="SourceAlpha" k2="-1" k3="1" operator="arithmetic" result="shadowInnerInner1"/>
      <feColorMatrix in="shadowInnerInner1" result="shadowMatrixInner1" values="0 0 0 0 1   0 0 0 0 1   0 0 0 0 1  0 0 0 0.202059659 0"/>
      <feOffset dy="-1" in="SourceAlpha" result="shadowOffsetInner2"/>
      <feComposite in="shadowOffsetInner2" in2="SourceAlpha" k2="-1" k3="1" operator="arithmetic" result="shadowInnerInner2"/>
      <feColorMatrix in="shadowInnerInner2" result="shadowMatrixInner2" values="0 0 0 0 0   0 0 0 0 0   0 0 0 0 0  0 0 0 0.08 0"/>
      <feMerge>
        <feMergeNode in="shadowMatrixInner1"/>
        <feMergeNode in="shadowMatrixInner2"/>
      </feMerge>
    </filter>
    <linearGradient id="24-e" x1="50%" x2="72.769%" y1="11.707%" y2="81.613%">
      <stop offset="0%" stop-color="#F4F4F4"/>
      <stop offset="100%" stop-color="#FFF" stop-opacity=".668"/>
    </linearGradient>
    <linearGradient id="24-f" x1="50%" x2="50%" y1="0%" y2="100%">
      <stop offset="0%" stop-color="#FFF" stop-opacity=".502"/>
      <stop offset="100%" stop-color="#FFF" stop-opacity=".197"/>
    </linearGradient>
  </defs>
  <g fill="none" fill-rule="evenodd" filter="url(#24-a)" transform="translate(1 1)">
    <use fill="url(#24-b)" xlink:href="#24-c"/>
    <use fill="#000" filter="url(#24-d)" xlink:href="#24-c"/>
    <path fill="url(#24-e)" fill-rule="nonzero" stroke="url(#24-f)" d="M11.2171178,6.29769445 C12.2489064,6.29769445 13.0405984,6.65779021 13.6519096,7.16552086 C14.6653847,8.00727278 15.2014563,9.2345236 15.5391408,9.98767181 C15.7416609,10.4393585 16.0240315,11.0577604 16.2077703,11.7644635 C16.3812124,11.2558784 16.4816747,10.7154878 16.4977082,10.1570912 L16.4998605,13.8578176 C15.9553861,14.7282464 15.3640327,15.500179 14.6649212,16.1072882 C15.3982641,15.3751363 15.7955591,14.7866451 16.0705415,14.1339803 L16.0705415,14.1339803 L16.2731451,13.6531048 L15.7840613,13.4712078 L15.4983052,10.4252188 C14.4284927,10.5096191 12.8732574,10.1992335 11.664697,9.64282 C10.8930506,9.28755894 10.2273914,8.84753379 10.0601407,8.29751611 L10.0601407,8.29751611 L9.62918668,6.88028892 L9.11309604,8.268779 C8.90955776,8.81637835 7.82121191,9.55248717 7.04461606,9.9044177 C7.16872111,8.96576783 7.55699185,7.99997499 8.31445002,7.30354138 C8.98112159,6.69058014 9.93202868,6.29769445 11.2171178,6.29769445 Z M7.15252562,6.1864912 C6.27839617,7.18471463 5.80679957,8.56801205 6.02262211,10.1842048 L6.376,10.175 L6.49991595,13.0711627 L5.5,13.5 L5.5,10 C5.5,8.48121694 6.11560847,7.10621694 7.1109127,6.1109127 C7.86657265,5.35525275 8.84109788,4.81845808 9.93124481,4.60377224 C8.82994177,4.82423568 7.85768813,5.38122175 7.15252562,6.1864912 Z"/>
  </g>
</svg>
