<?xml version="1.0" encoding="UTF-8"?>
<svg width="30px" height="30px" viewBox="0 0 30 30" version="1.1" xmlns="http://www.w3.org/2000/svg" xmlns:xlink="http://www.w3.org/1999/xlink">
    <!-- Generator: Sketch 44.1 (41455) - http://www.bohemiancoding.com/sketch -->
    <title>pen_</title>
    <desc>Created with Sketch.</desc>
    <defs></defs>
    <g id="Page-1" stroke="none" stroke-width="1" fill="none" fill-rule="evenodd">
        <path d="M11.8896467,15.5883723 L9.2265625,18.2667501 C8.34765175,18.2488954 7.38086612,18.4899477 6.32617187,18.9899139 C5.27147762,19.48988 4.48047212,20.6237157 3.953125,22.3914554 C3.54882599,23.319962 2.95557017,23.8467051 2.17333967,23.9716966 C1.39110951,24.0966881 1,24.159183 1,24.159183 C2.10742727,25.4090991 3.2412052,26.2170682 4.4013655,26.5831151 C5.5615285,26.9491618 6.64257475,27.0741515 7.64453125,26.9580879 C8.64648775,26.8420242 9.52099075,26.5786532 10.2680672,26.1679664 C11.0151404,25.7572796 11.5380831,25.4001662 11.8369157,25.0966153 C12.3642595,24.560937 12.6938485,23.9850914 12.8256827,23.3690624 C12.9575204,22.7530304 12.997072,22.1771852 12.9443342,21.6415096 L15.3964844,19.177402 L11.8896467,15.5883723 Z M10.6767595,23.918129 C10.4658186,24.1145445 10.1010756,24.3466681 9.58252037,24.6145073 C9.06396175,24.8823464 8.47510187,25.0966146 7.81591712,25.2573179 C7.15673575,25.4180213 6.48437837,25.4805162 5.79882812,25.4448044 C5.11327787,25.4090926 4.49804912,25.1769687 3.953125,24.7484262 C3.953125,24.7484262 4.1025376,24.5966529 4.4013655,24.2931019 C4.70019812,23.989551 4.99023212,23.5342322 5.27148437,22.927131 C5.95703462,21.0879656 6.92821787,20.1014415 8.18505775,19.9675209 C9.441901,19.8336037 10.0703125,19.7666417 10.0703125,19.7666417 L11.2568342,20.9719134 C11.2568342,20.9719134 11.344726,21.2888517 11.5205095,21.9227384 C11.6962896,22.5566252 11.4150441,23.2217474 10.6767595,23.918129 Z M27.2617188,3.7231603 C26.769529,3.24104886 26.1806691,3 25.4951155,3 C24.8095653,3 24.2207054,3.24104886 23.7285156,3.7231603 L13.1025408,14.383104 L16.609375,17.9721303 L27.2617188,7.25861901 C27.7539085,6.77650758 28,6.18727132 28,5.49088966 C28,4.79450799 27.7539085,4.20527173 27.2617188,3.7231603 Z" fill="#000000"></path>
    </g>
</svg>