<?xml version="1.0" encoding="UTF-8"?>
<svg width="24px" height="24px" viewBox="0 0 24 24" version="1.1" xmlns="http://www.w3.org/2000/svg" xmlns:xlink="http://www.w3.org/1999/xlink">
    <title>apps/24/deepin-app-store</title>
    <defs>
        <filter x="-10.9%" y="-11.4%" width="121.7%" height="122.7%" filterUnits="objectBoundingBox" id="filter-1">
            <feOffset dx="0" dy="0" in="SourceAlpha" result="shadowOffsetOuter1"></feOffset>
            <feGaussianBlur stdDeviation="0.5" in="shadowOffsetOuter1" result="shadowBlurOuter1"></feGaussianBlur>
            <feColorMatrix values="0 0 0 0 0   0 0 0 0 0   0 0 0 0 0  0 0 0 0.2 0" type="matrix" in="shadowBlurOuter1" result="shadowMatrixOuter1"></feColorMatrix>
            <feMerge>
                <feMergeNode in="shadowMatrixOuter1"></feMergeNode>
                <feMergeNode in="SourceGraphic"></feMergeNode>
            </feMerge>
        </filter>
        <linearGradient x1="50%" y1="0%" x2="50%" y2="100%" id="linearGradient-2">
            <stop stop-color="#FFE6C4" offset="0%"></stop>
            <stop stop-color="#FFFAF3" offset="100%"></stop>
        </linearGradient>
        <path d="M0,0 L20,0 L20,9 C20,11.209139 18.209139,13 16,13 L4,13 C1.790861,13 2.705415e-16,11.209139 0,9 L0,0 L0,0 Z" id="path-3"></path>
        <filter x="-5.0%" y="-7.7%" width="110.0%" height="115.4%" filterUnits="objectBoundingBox" id="filter-5">
            <feGaussianBlur stdDeviation="0.5" in="SourceAlpha" result="shadowBlurInner1"></feGaussianBlur>
            <feOffset dx="0" dy="-1" in="shadowBlurInner1" result="shadowOffsetInner1"></feOffset>
            <feComposite in="shadowOffsetInner1" in2="SourceAlpha" operator="arithmetic" k2="-1" k3="1" result="shadowInnerInner1"></feComposite>
            <feColorMatrix values="0 0 0 0 1   0 0 0 0 0.895092713   0 0 0 0 0.823678068  0 0 0 1 0" type="matrix" in="shadowInnerInner1"></feColorMatrix>
        </filter>
        <path d="M3.125,1 L7.375,1 C7.72017797,1 8,1.27982203 8,1.625 L8,7 L8,7 L2.5,7 L2.5,1.625 C2.5,1.27982203 2.77982203,1 3.125,1 Z" id="path-6"></path>
        <filter x="-36.4%" y="-16.7%" width="172.7%" height="166.7%" filterUnits="objectBoundingBox" id="filter-7">
            <feOffset dx="0" dy="1" in="SourceAlpha" result="shadowOffsetOuter1"></feOffset>
            <feGaussianBlur stdDeviation="0.5" in="shadowOffsetOuter1" result="shadowBlurOuter1"></feGaussianBlur>
            <feColorMatrix values="0 0 0 0 1   0 0 0 0 0.903486691   0 0 0 0 0.821267626  0 0 0 1 0" type="matrix" in="shadowBlurOuter1"></feColorMatrix>
        </filter>
        <linearGradient x1="50%" y1="0%" x2="50%" y2="91.7398158%" id="linearGradient-8">
            <stop stop-color="#37A2FE" offset="0%"></stop>
            <stop stop-color="#36A4FF" offset="100%"></stop>
        </linearGradient>
        <rect id="path-9" x="3" y="2" width="4.5" height="4.5" rx="0.5"></rect>
        <filter x="-33.3%" y="-33.3%" width="166.7%" height="166.7%" filterUnits="objectBoundingBox" id="filter-10">
            <feOffset dx="0" dy="0" in="SourceAlpha" result="shadowOffsetInner1"></feOffset>
            <feComposite in="shadowOffsetInner1" in2="SourceAlpha" operator="arithmetic" k2="-1" k3="1" result="shadowInnerInner1"></feComposite>
            <feColorMatrix values="0 0 0 0 1   0 0 0 0 1   0 0 0 0 1  0 0 0 0.498572716 0" type="matrix" in="shadowInnerInner1" result="shadowMatrixInner1"></feColorMatrix>
            <feGaussianBlur stdDeviation="1" in="SourceAlpha" result="shadowBlurInner2"></feGaussianBlur>
            <feOffset dx="0" dy="1" in="shadowBlurInner2" result="shadowOffsetInner2"></feOffset>
            <feComposite in="shadowOffsetInner2" in2="SourceAlpha" operator="arithmetic" k2="-1" k3="1" result="shadowInnerInner2"></feComposite>
            <feColorMatrix values="0 0 0 0 0   0 0 0 0 0.632053391   0 0 0 0 0.840358126  0 0 0 1 0" type="matrix" in="shadowInnerInner2" result="shadowMatrixInner2"></feColorMatrix>
            <feMerge>
                <feMergeNode in="shadowMatrixInner1"></feMergeNode>
                <feMergeNode in="shadowMatrixInner2"></feMergeNode>
            </feMerge>
        </filter>
        <linearGradient x1="50%" y1="0%" x2="50%" y2="91.7398158%" id="linearGradient-11">
            <stop stop-color="#6EE3F4" offset="0%"></stop>
            <stop stop-color="#17B5FF" offset="100%"></stop>
        </linearGradient>
        <linearGradient x1="50%" y1="0%" x2="50%" y2="100%" id="linearGradient-12">
            <stop stop-color="#FFF7F7" offset="0%"></stop>
            <stop stop-color="#FFF8F5" offset="100%"></stop>
        </linearGradient>
        <path d="M12.25,12 L17.25,12 C17.3880712,12 17.5,12.1119288 17.5,12.25 L17.5,13 L17.5,13 L12,13 L12,12.25 C12,12.1119288 12.1119288,12 12.25,12 Z" id="path-13"></path>
        <filter x="-63.6%" y="-250.0%" width="227.3%" height="800.0%" filterUnits="objectBoundingBox" id="filter-14">
            <feOffset dx="0" dy="1" in="SourceAlpha" result="shadowOffsetOuter1"></feOffset>
            <feGaussianBlur stdDeviation="1" in="shadowOffsetOuter1" result="shadowBlurOuter1"></feGaussianBlur>
            <feColorMatrix values="0 0 0 0 0.739470993   0 0 0 0 0.41692202   0 0 0 0 0  0 0 0 0.597012607 0" type="matrix" in="shadowBlurOuter1"></feColorMatrix>
        </filter>
        <filter x="-36.4%" y="-100.0%" width="172.7%" height="500.0%" filterUnits="objectBoundingBox" id="filter-15">
            <feOffset dx="0" dy="0" in="SourceAlpha" result="shadowOffsetInner1"></feOffset>
            <feComposite in="shadowOffsetInner1" in2="SourceAlpha" operator="arithmetic" k2="-1" k3="1" result="shadowInnerInner1"></feComposite>
            <feColorMatrix values="0 0 0 0 1   0 0 0 0 1   0 0 0 0 1  0 0 0 1 0" type="matrix" in="shadowInnerInner1"></feColorMatrix>
        </filter>
        <linearGradient x1="50%" y1="0%" x2="50%" y2="100%" id="linearGradient-16">
            <stop stop-color="#FFF7F7" offset="0%"></stop>
            <stop stop-color="#FFF7F3" offset="100%"></stop>
        </linearGradient>
        <path d="M2.25,7 L8.25,7 C8.38807119,7 8.5,7.11192881 8.5,7.25 L8.5,7.5 L8.5,7.5 L2,7.5 L2,7.25 C2,7.11192881 2.11192881,7 2.25,7 Z" id="path-17"></path>
        <filter x="-30.8%" y="-200.0%" width="161.5%" height="900.0%" filterUnits="objectBoundingBox" id="filter-18">
            <feOffset dx="0" dy="1" in="SourceAlpha" result="shadowOffsetOuter1"></feOffset>
            <feGaussianBlur stdDeviation="0.5" in="shadowOffsetOuter1" result="shadowBlurOuter1"></feGaussianBlur>
            <feColorMatrix values="0 0 0 0 0.969117096   0 0 0 0 0.865803389   0 0 0 0 0.778143274  0 0 0 1 0" type="matrix" in="shadowBlurOuter1"></feColorMatrix>
        </filter>
        <filter x="-15.4%" y="0.0%" width="130.8%" height="500.0%" filterUnits="objectBoundingBox" id="filter-19">
            <feOffset dx="0" dy="0" in="SourceAlpha" result="shadowOffsetInner1"></feOffset>
            <feComposite in="shadowOffsetInner1" in2="SourceAlpha" operator="arithmetic" k2="-1" k3="1" result="shadowInnerInner1"></feComposite>
            <feColorMatrix values="0 0 0 0 1   0 0 0 0 1   0 0 0 0 1  0 0 0 1 0" type="matrix" in="shadowInnerInner1"></feColorMatrix>
        </filter>
        <filter x="-187.5%" y="-75.0%" width="475.0%" height="250.0%" filterUnits="objectBoundingBox" id="filter-20">
            <feGaussianBlur stdDeviation="2.5" in="SourceGraphic"></feGaussianBlur>
        </filter>
        <filter x="-115.4%" y="-214.3%" width="330.8%" height="528.6%" filterUnits="objectBoundingBox" id="filter-21">
            <feGaussianBlur stdDeviation="2.5" in="SourceGraphic"></feGaussianBlur>
        </filter>
        <linearGradient x1="50%" y1="0%" x2="50%" y2="100%" id="linearGradient-22">
            <stop stop-color="#FFFFFF" offset="0%"></stop>
            <stop stop-color="#FEF4EF" offset="100%"></stop>
        </linearGradient>
        <linearGradient x1="46.4498939%" y1="0%" x2="53.4345358%" y2="100%" id="linearGradient-23">
            <stop stop-color="#FF6F31" offset="0%"></stop>
            <stop stop-color="#FF4900" offset="100%"></stop>
        </linearGradient>
        <path d="M3.24749178,0 L5.5,0 L5.5,0 L4.4798248,10 L0,10 L1.27050542,1.69746913 C1.41991776,0.72108559 2.25974239,1.95780346e-15 3.24749178,0 Z" id="path-24"></path>
        <linearGradient x1="47.066028%" y1="0%" x2="52.8384593%" y2="100%" id="linearGradient-26">
            <stop stop-color="#FF6F31" offset="0%"></stop>
            <stop stop-color="#FF4900" offset="100%"></stop>
        </linearGradient>
        <path d="M17.5,0 L20.1697102,0 C21.1953363,2.5568475e-16 22.0547352,0.775831001 22.1592907,1.79611384 L23,10 L23,10 L18.5,10 L17.5,0 Z" id="path-27"></path>
        <linearGradient x1="46.8136813%" y1="0%" x2="54.1958961%" y2="100%" id="linearGradient-29">
            <stop stop-color="#FFFFFF" offset="0%"></stop>
            <stop stop-color="#FFF3EF" offset="100%"></stop>
        </linearGradient>
        <linearGradient x1="50%" y1="0%" x2="50%" y2="100%" id="linearGradient-30">
            <stop stop-color="#FF300C" offset="0%"></stop>
            <stop stop-color="#FF5010" offset="100%"></stop>
        </linearGradient>
        <linearGradient x1="50%" y1="0%" x2="50%" y2="77.3457831%" id="linearGradient-31">
            <stop stop-color="#FFDFC0" offset="0%"></stop>
            <stop stop-color="#FFFFFF" offset="100%"></stop>
        </linearGradient>
        <linearGradient x1="50%" y1="0%" x2="50%" y2="100%" id="linearGradient-32">
            <stop stop-color="#FF300C" offset="0%"></stop>
            <stop stop-color="#FF5010" offset="100%"></stop>
        </linearGradient>
    </defs>
    <g id="apps/24/deepin-app-store" stroke="none" stroke-width="1" fill="none" fill-rule="evenodd">
        <g id="编组-21" filter="url(#filter-1)" transform="translate(0.500000, 1.000000)">
            <g id="矩形-3" transform="translate(1.500000, 9.000000)">
                <mask id="mask-4" fill="white">
                    <use xlink:href="#path-3"></use>
                </mask>
                <g id="蒙版">
                    <use fill="url(#linearGradient-2)" fill-rule="evenodd" xlink:href="#path-3"></use>
                    <use fill="black" fill-opacity="1" filter="url(#filter-5)" xlink:href="#path-3"></use>
                </g>
                <g id="矩形" mask="url(#mask-4)">
                    <use fill="black" fill-opacity="1" filter="url(#filter-7)" xlink:href="#path-6"></use>
                    <use fill="#63CDFE" fill-rule="evenodd" xlink:href="#path-6"></use>
                </g>
                <g id="矩形" mask="url(#mask-4)">
                    <use fill="url(#linearGradient-8)" fill-rule="evenodd" xlink:href="#path-9"></use>
                    <use fill="black" fill-opacity="1" filter="url(#filter-10)" xlink:href="#path-9"></use>
                </g>
                <path d="M13,6 L16.5,6 C16.7761424,6 17,6.22385763 17,6.5 L17,12 L17,12 L12.5,12 L12.5,6.5 C12.5,6.22385763 12.7238576,6 13,6 Z" id="矩形" fill="url(#linearGradient-11)" mask="url(#mask-4)"></path>
                <g id="矩形" mask="url(#mask-4)">
                    <use fill="black" fill-opacity="1" filter="url(#filter-14)" xlink:href="#path-13"></use>
                    <use fill="url(#linearGradient-12)" fill-rule="evenodd" xlink:href="#path-13"></use>
                    <use fill="black" fill-opacity="1" filter="url(#filter-15)" xlink:href="#path-13"></use>
                </g>
                <g id="矩形" mask="url(#mask-4)">
                    <use fill="black" fill-opacity="1" filter="url(#filter-18)" xlink:href="#path-17"></use>
                    <use fill="url(#linearGradient-16)" fill-rule="evenodd" xlink:href="#path-17"></use>
                    <use fill="black" fill-opacity="1" filter="url(#filter-19)" xlink:href="#path-17"></use>
                </g>
                <rect id="矩形" fill="#FFD2B3" filter="url(#filter-20)" mask="url(#mask-4)" x="20.5" y="6" width="4" height="10" rx="1"></rect>
                <ellipse id="椭圆形" fill="#FFE4D2" filter="url(#filter-21)" mask="url(#mask-4)" cx="16.5834406" cy="14.3246484" rx="3.25" ry="1.75"></ellipse>
                <circle id="椭圆形" fill="url(#linearGradient-22)" mask="url(#mask-4)" cx="13.5" cy="8.5" r="1"></circle>
            </g>
            <g id="编组-20">
                <mask id="mask-25" fill="white">
                    <use xlink:href="#path-24"></use>
                </mask>
                <use id="矩形" fill="url(#linearGradient-23)" xlink:href="#path-24"></use>
                <polygon id="矩形备份-40" fill="url(#linearGradient-26)" points="10 0 13 0 14 10 9 10"></polygon>
                <mask id="mask-28" fill="white">
                    <use xlink:href="#path-27"></use>
                </mask>
                <use id="矩形备份-55" fill="url(#linearGradient-23)" xlink:href="#path-27"></use>
                <polygon id="矩形备份-19" fill="url(#linearGradient-29)" points="5.52476963 0 10 0 9 10 4.5 10"></polygon>
                <polygon id="矩形备份-47" fill="url(#linearGradient-29)" points="13 0 17.5 0 18.5 10 14 10"></polygon>
            </g>
            <g id="编组" transform="translate(0.000000, 10.000000)">
                <path d="M18.5,0 L23,0 L23,0.25 C23,1.49264069 21.9926407,2.5 20.75,2.5 C19.5073593,2.5 18.5,1.49264069 18.5,0.25 L18.5,0 L18.5,0 Z" id="矩形" fill="url(#linearGradient-30)"></path>
                <path d="M0,0 L4.5,0 L4.5,0.25 C4.5,1.49264069 3.49264069,2.5 2.25,2.5 C1.00735931,2.5 1.52179594e-16,1.49264069 0,0.25 L0,0 L0,0 Z" id="矩形备份-8" fill="url(#linearGradient-30)"></path>
                <path d="M14,0 L18.5,0 L18.5,0.25 C18.5,1.49264069 17.4926407,2.5 16.25,2.5 C15.0073593,2.5 14,1.49264069 14,0.25 L14,0 L14,0 Z" id="矩形备份-5" fill="url(#linearGradient-31)"></path>
                <path d="M4.5,0 L9,0 L9,0.25 C9,1.49264069 7.99264069,2.5 6.75,2.5 C5.50735931,2.5 4.5,1.49264069 4.5,0.25 L4.5,0 L4.5,0 Z" id="矩形备份-7" fill="url(#linearGradient-31)"></path>
                <path d="M9,0 L14,0 C14,1.38071187 12.8807119,2.5 11.5,2.5 C10.1192881,2.5 9,1.38071187 9,0 L9,0 L9,0 Z" id="矩形备份-6" fill="url(#linearGradient-32)"></path>
            </g>
        </g>
    </g>
</svg>