<svg xmlns="http://www.w3.org/2000/svg" width="18" height="18" viewBox="0 0 18 18">
  <path fill="#536076" fill-rule="evenodd" d="M2.85714286,5.71428571 L2.85714286,13.5714286 C2.85714286,14.7548959 3.81653268,15.7142857 5,15.7142857 L5,15.7142857 L12.1428571,15.7142857 C13.3263245,15.7142857 14.2857143,14.7548959 14.2857143,13.5714286 L14.2857143,13.5714286 L14.2857143,5.71428571 L15.7142857,5.71428571 L15.7142857,13.5714286 C15.7142857,15.5438741 14.1153027,17.1428571 12.1428571,17.1428571 L12.1428571,17.1428571 L5,17.1428571 C3.02755446,17.1428571 1.42857143,15.5438741 1.42857143,13.5714286 L1.42857143,13.5714286 L1.42857143,5.71428571 L2.85714286,5.71428571 Z M6.42857143,5.71428571 C6.82306054,5.71428571 7.14285714,6.03408232 7.14285714,6.42857143 L7.14285714,13.5714286 C7.14285714,13.9659177 6.82306054,14.2857143 6.42857143,14.2857143 C6.03408232,14.2857143 5.71428571,13.9659177 5.71428571,13.5714286 L5.71428571,6.42857143 C5.71428571,6.03408232 6.03408232,5.71428571 6.42857143,5.71428571 Z M10.7142857,5.71428571 C11.1087748,5.71428571 11.4285714,6.03408232 11.4285714,6.42857143 L11.4285714,13.5714286 C11.4285714,13.9659177 11.1087748,14.2857143 10.7142857,14.2857143 C10.3197966,14.2857143 10,13.9659177 10,13.5714286 L10,6.42857143 C10,6.03408232 10.3197966,5.71428571 10.7142857,5.71428571 Z M16.4285714,2.85714286 C16.8230605,2.85714286 17.1428571,3.17693946 17.1428571,3.57142857 C17.1428571,3.96591768 16.8230605,4.28571429 16.4285714,4.28571429 L0.714285714,4.28571429 C0.319796607,4.28571429 4.83109822e-17,3.96591768 0,3.57142857 C-4.83109822e-17,3.17693946 0.319796607,2.85714286 0.714285714,2.85714286 L16.4285714,2.85714286 Z M10.7142857,0 C11.1087748,-7.73219897e-16 11.4285714,0.319796607 11.4285714,0.714285714 C11.4285714,1.10877482 11.1087748,1.42857143 10.7142857,1.42857143 L6.42857143,1.42857143 C6.03408232,1.42857143 5.71428571,1.10877482 5.71428571,0.714285714 C5.71428571,0.319796607 6.03408232,7.24664733e-17 6.42857143,0 L10.7142857,0 Z" transform="translate(.429 .429)"/>
</svg>
