<?xml version="1.0" encoding="UTF-8"?>
<svg width="14px" height="14px" viewBox="0 0 14 14" version="1.1" xmlns="http://www.w3.org/2000/svg" xmlns:xlink="http://www.w3.org/1999/xlink">
    <!-- Generator: Sketch 58 (84663) - https://sketch.com -->
    <title>形状结合</title>
    <desc>Created with Sketch.</desc>
    <g id="病毒查杀" stroke="none" stroke-width="1" fill="none" fill-rule="evenodd">
        <path d="M9.1,0 C9.48659932,-7.10171439e-17 9.8,0.313400675 9.8,0.7 L9.799,1.399 L12.6,1.4 C13.3731986,1.4 14,2.02680135 14,2.8 L14,12.6 C14,13.3731986 13.3731986,14 12.6,14 L1.4,14 C0.62680135,14 6.80707848e-16,13.3731986 0,12.6 L0,2.8 C-9.46895252e-17,2.02680135 0.62680135,1.4 1.4,1.4 L4.199,1.399 L4.2,0.7 C4.2,0.313400675 4.51340068,7.10171439e-17 4.9,0 L9.1,0 Z M4.886,2.099 L1.4,2.1 C1.04561729,2.1 0.75274177,2.36334362 0.706390175,2.70501415 L0.7,2.8 L0.7,12.6 C0.7,12.9543827 0.963343623,13.2472582 1.30501415,13.2936098 L1.4,13.3 L12.6,13.3 C12.9543827,13.3 13.2472582,13.0366564 13.2936098,12.6949859 L13.3,12.6 L13.3,2.8 C13.3,2.41340068 12.9865993,2.1 12.6,2.1 L9.11420957,2.09985865 C9.10948438,2.09995273 9.10474771,2.1 9.1,2.1 L4.9,2.1 L4.886,2.099 Z M7,4.9 C7.19329966,4.9 7.35,5.05670034 7.35,5.25 L7.35,7.35 L9.45,7.35 C9.64329966,7.35 9.8,7.50670034 9.8,7.7 C9.8,7.89329966 9.64329966,8.05 9.45,8.05 L7.349,8.05 L7.35,10.15 C7.35,10.3432997 7.19329966,10.5 7,10.5 C6.80670034,10.5 6.65,10.3432997 6.65,10.15 L6.649,8.05 L4.55,8.05 C4.35670034,8.05 4.2,7.89329966 4.2,7.7 C4.2,7.50670034 4.35670034,7.35 4.55,7.35 L6.65,7.35 L6.65,5.25 C6.65,5.05670034 6.80670034,4.9 7,4.9 Z M11.2,4.2 C11.5865993,4.2 11.9,4.51340068 11.9,4.9 C11.9,5.28659932 11.5865993,5.6 11.2,5.6 C10.8134007,5.6 10.5,5.28659932 10.5,4.9 C10.5,4.51340068 10.8134007,4.2 11.2,4.2 Z M9.1,0.7 L4.9,0.7 L4.899,1.399 L9.099,1.399 L9.1,0.7 Z" id="形状结合" fill="#536076"></path>
    </g>
</svg>