<?xml version="1.0" encoding="iso-8859-1"?>
<!-- Generator: Adobe Illustrator 18.0.0, SVG Export Plug-In . SVG Version: 6.00 Build 0)  -->
<!DOCTYPE svg PUBLIC "-//W3C//DTD SVG 1.1//EN" "http://www.w3.org/Graphics/SVG/1.1/DTD/svg11.dtd">
<svg version="1.1" id="&#x56FE;&#x5C42;_1" xmlns="http://www.w3.org/2000/svg" xmlns:xlink="http://www.w3.org/1999/xlink" x="0px"
	 y="0px" viewBox="0 0 20 20" enable-background="new 0 0 20 20" xml:space="preserve">
<g>
	<path opacity="0.1" fill="#FFFFFF" d="M15.7,19.5H4.3c-2.09,0-3.8-1.71-3.8-3.8V4.3c0-2.09,1.71-3.8,3.8-3.8h11.4
		c2.09,0,3.8,1.71,3.8,3.8v11.4C19.5,17.79,17.79,19.5,15.7,19.5z"/>
	<path fill="none" stroke="#CBCBCB" stroke-miterlimit="10" d="M15.5,19.5h-11c-2.209,0-4-1.791-4-4v-11c0-2.209,1.791-4,4-4h11
		c2.209,0,4,1.791,4,4v11C19.5,17.709,17.709,19.5,15.5,19.5z"/>
	<path d="M13,9.5C13,7.015,11.433,5,9.5,5S6,7.015,6,9.5S7.567,14,9.5,14c0.748,0,1.438-0.308,2.007-0.822l0.833,0.812l0.643-0.716
		l-0.855-0.832C12.664,11.651,13,10.631,13,9.5z M9.5,13C8.145,13,7,11.397,7,9.5S8.145,6,9.5,6S12,7.603,12,9.5
		c0,0.842-0.234,1.617-0.604,2.228L10.648,11l-0.643,0.716l0.778,0.757C10.404,12.8,9.967,13,9.5,13z"/>
</g>
</svg>
