<?xml version="1.0" encoding="UTF-8"?>
<svg width="36px" height="36px" viewBox="0 0 36 36" version="1.1" xmlns="http://www.w3.org/2000/svg" xmlns:xlink="http://www.w3.org/1999/xlink">
    <!-- Generator: Sketch 58 (84663) - https://sketch.com -->
    <title>setting_normal_light</title>
    <desc>Created with Sketch.</desc>
    <g id="light" stroke="none" stroke-width="1" fill="none" fill-rule="evenodd">
        <g id="按钮规范new" transform="translate(-108.000000, -49.000000)" fill="#414D68" fill-rule="nonzero">
            <g id="编组-9" transform="translate(108.000000, 49.000000)">
                <polygon id="Line" points="13.1427699 21 13.6152104 21 14 20 13.1427699 20 11.4724405 20 11 20 11 21 11.4724405 21"></polygon>
                <polygon id="Triangle" points="13.2804625 15.4029744 12.4280823 15.4029744 13.4954372 17.957305 14 16.9683735 13.2804625 15.0199329 12.8542724 14 12.4280823 15.0199329 8 26 8.85238011 26"></polygon>
                <polygon id="Triangle" points="26.0328042 26 27 26 19.5 10 12 26 12.9671958 26 19.4960344 12.554243"></polygon>
                <rect id="Rectangle" x="7" y="25" width="3" height="1"></rect>
                <rect id="Rectangle" x="11" y="25" width="3" height="1"></rect>
                <rect id="Rectangle" x="25" y="25" width="3" height="1"></rect>
                <polygon id="Line" points="25 23 24.3761408 22 14.5022772 22 14 23"></polygon>
            </g>
        </g>
    </g>
</svg>