<svg width="96" height="96" xmlns="http://www.w3.org/2000/svg" xmlns:xlink="http://www.w3.org/1999/xlink">
 <!-- Generator: Sketch 42 (36781) - http://www.bohemiancoding.com/sketch -->
 <title>deepin-presentation-assistant</title>
 <desc>Created with Sketch.</desc>
 <defs>
  <circle r="21" cy="21" cx="21" id="path-1"/>
  <filter id="filter-2" filterUnits="objectBoundingBox" height="200%" width="200%" y="-50%" x="-50%">
   <feGaussianBlur stdDeviation="1"/>
  </filter>
  <rect height="5" width="2" y="29" x="20" id="path-4"/>
  <mask height="5" width="2" y="0" x="0" maskUnits="objectBoundingBox" maskContentUnits="userSpaceOnUse" id="mask-5">
   <use id="svg_1" xlink:href="#path-4"/>
  </mask>
  <linearGradient id="linearGradient-3" y2="100%" x2="50%" y1="0%" x1="50%">
   <stop offset="0%" stop-color="#70C5FE"/>
   <stop offset="100%" stop-color="#0B9DFE"/>
  </linearGradient>
 </defs>
 <g>
  <title>background</title>
  <rect fill="none" id="canvas_background" height="98" width="98" y="-1" x="-1"/>
 </g>
 <g>
  <title>Layer 1</title>
  <g fill-rule="evenodd" fill="none" id="Page-1">
   <g stroke="null" id="deepin-presentation-assistant">
    <g stroke="null" id="Group">
     <g stroke="null" id="Oval-4">
      <use transform="matrix(2.1666667461395264,0,0,2.1666667461395264,-3.500000238418579,-3.500000238418579) " stroke="null" id="svg_2" x="3" y="3" xlink:href="#path-1" filter="url(#filter-2)" fill="black"/>
      <use transform="matrix(2.1666667461395264,0,0,2.1666667461395264,-3.500000238418579,-3.500000238418579) " stroke="null" id="svg_3" x="3" y="3" xlink:href="#path-1" fill-rule="evenodd" fill="#D8D8D8" fill-opacity="0"/>
     </g>
     <circle stroke="null" r="45.500002" cy="48.500002" cx="48.500002" fill="url(#linearGradient-3)" id="Oval-4"/>
     <path stroke="null" fill="#FFFFFF" id="Combined-Shape" d="m22.500001,28.999914c0,-1.196563 0.969518,-2.16658 2.168162,-2.16658l47.663678,0c1.19743,0 2.168162,0.985205 2.168162,2.16658l0,32.500175c0,1.196563 -0.969518,2.16658 -2.168162,2.16658l-47.663678,0c-1.19743,0 -2.168162,-0.985205 -2.168162,-2.16658l0,-32.500175zm19.500001,4.33342c-7.179705,0 -13,5.820295 -13,13c0,7.179705 5.820295,13 13,13c7.179705,0 13,-5.820295 13,-13l-13,0l0,-13zm15.036667,8.670762l-10.703334,0l0,-10.703334c5.582547,0.69615 10.007205,5.120787 10.703334,10.703334zm2.296667,-2.170762l8.666667,0l0,2.166667l-8.666667,0l0,-2.166667zm0,4.333333l8.666667,0l0,2.166667l-8.666667,0l0,-2.166667zm0,4.333333l8.666667,0l0,2.166667l-8.666667,0l0,-2.166667zm0,4.333333l8.666667,0l0,2.166667l-8.666667,0l0,-2.166667z"/>
     <path stroke="#FFFFFF" id="Path-6" d="m27.916668,27.916668l0,-6.479699c0,-1.20783 0.975195,-2.186968 2.18569,-2.186968l9.730977,0"/>
     <rect stroke="null" rx="1" height="6.5" width="10.833334" y="16" x="36.583335" fill="#FFFFFF" id="Rectangle-2"/>
     <use transform="matrix(2.1666667461395264,0,0,2.1666667461395264,-3.500000238418579,-3.500000238418579) " stroke="#FFFFFF" x="3" y="3" xlink:href="#path-4" stroke-width="2" mask="url(#mask-5)" id="Rectangle-20"/>
     <path stroke="#FFFFFF" id="Path-10" d="m37.666668,77.750003l21.666667,0"/>
    </g>
   </g>
  </g>
 </g>
</svg>