<?xml version="1.0" encoding="UTF-8"?>
<svg width="68px" height="68px" viewBox="0 0 68 68" version="1.1" xmlns="http://www.w3.org/2000/svg" xmlns:xlink="http://www.w3.org/1999/xlink">
    <!-- Generator: Sketch 56.2 (81672) - https://sketch.com -->
    <title>circlebutton_voice</title>
    <desc>Created with Sketch.</desc>
    <defs>
        <linearGradient x1="50%" y1="0%" x2="50%" y2="100%" id="linearGradient-1">
            <stop stop-color="#FD5E5E" offset="0%"></stop>
            <stop stop-color="#ED5656" offset="100%"></stop>
        </linearGradient>
        <circle id="path-2" cx="34" cy="34" r="24"></circle>
        <filter x="-22.9%" y="-14.6%" width="145.8%" height="145.8%" filterUnits="objectBoundingBox" id="filter-3">
            <feOffset dx="0" dy="4" in="SourceAlpha" result="shadowOffsetOuter1"></feOffset>
            <feGaussianBlur stdDeviation="3" in="shadowOffsetOuter1" result="shadowBlurOuter1"></feGaussianBlur>
            <feColorMatrix values="0 0 0 0 0.97254902   0 0 0 0 0.17254902   0 0 0 0 0.277440324  0 0 0 0.4 0" type="matrix" in="shadowBlurOuter1"></feColorMatrix>
        </filter>
        <linearGradient x1="50%" y1="41.4361479%" x2="50%" y2="100%" id="linearGradient-4">
            <stop stop-color="#FFFFFF" offset="0%"></stop>
            <stop stop-color="#FFFFFF" offset="34.0878783%"></stop>
            <stop stop-color="#F3F3F3" offset="62.7017222%"></stop>
            <stop stop-color="#FFFFFF" offset="100%"></stop>
        </linearGradient>
    </defs>
    <g id="页面-1" stroke="none" stroke-width="1" fill="none" fill-rule="evenodd">
        <g id="按钮状态" transform="translate(-61.000000, -120.000000)">
            <g id="circlebutton_voice_normal" transform="translate(61.000000, 120.000000)">
                <g id="椭圆形">
                    <use fill="black" fill-opacity="1" filter="url(#filter-3)" xlink:href="#path-2"></use>
                    <use fill="url(#linearGradient-1)" fill-rule="evenodd" xlink:href="#path-2"></use>
                </g>
                <path d="M42,36.531248 L42,35.031248 L41,35.031248 L41,36.531248 C41,37.427088 40.828128,38.26562 40.484376,39.046876 C40.140624,39.828128 39.671876,40.515624 39.078124,41.109376 C38.484372,41.703128 37.791672,42.166664 37,42.5 C36.208328,42.833336 35.364588,43 34.468752,43 L34.468752,43 C33.572912,43 32.73438,42.833336 31.953124,42.5 C31.171872,42.166664 30.484378,41.703128 29.8906248,41.109376 C29.296872,40.515624 28.8333348,39.828128 28.5,39.046876 C28.1666652,38.26562 28,37.427088 28,36.531248 L28,35.031248 L27,35.031248 L27,36.531248 C27,37.468756 27.166665,38.359372 27.5,39.203124 C27.8333348,40.04688 28.2864556,40.791664 28.8593752,41.4375 C29.4322944,42.083336 30.1093712,42.624996 30.8906248,43.0625 C31.67188,43.500004 32.510412,43.781248 33.406248,43.906248 L33.406248,46.90625 C31.989576,47.0312508 30.8072964,47.2968728 29.8593752,47.7031248 C28.9114536,48.1093772 28.4375,48.531248 28.4375,48.96875 C28.4375,48.9895834 29.0781184,49 30.3593752,49 L34.578124,49 L38.796876,49 C40.078132,49 40.718752,48.9895834 40.718752,48.96875 C40.718752,48.5104144 40.20834,48.0729188 39.1875,47.65625 C38.16666,47.2395812 36.906256,46.9895836 35.406248,46.90625 L35.406248,43.906248 C36.32292,43.802084 37.182288,43.53646 37.984376,43.109376 C38.786464,42.682288 39.484372,42.140628 40.078124,41.484376 C40.671876,40.82812 41.140624,40.078128 41.484376,39.234376 C41.828128,38.39062 42,37.489588 42,36.531248 Z M34.468752,41.9375 C35.989592,41.9375 37.29166,41.406256 38.375,40.343752 C39.45834,39.281244 40,37.989592 40,36.468752 L40,35.031248 L29,35.031248 L29,36.468752 C29,37.989592 29.5312448,39.281244 30.59375,40.343752 C31.656256,41.406256 32.947908,41.9375 34.468752,41.9375 Z M29,31 L33,31 L33,30 L29,30 L29,25.468752 C29,23.968744 29.5312448,22.682296 30.59375,21.609376 C31.656256,20.536452 32.947908,20 34.468752,20 C35.989592,20 37.29166,20.536452 38.375,21.609376 C39.45834,22.682296 40,23.968744 40,25.468752 L40,30 L39,30 L38,30 L36,30 L36,31 L38,31 L39,31 L40,31 L40,32 L37,32 L36,32 L36,33 L37,33 L40,33 L40,34.0625 L29,34.0625 L29,33 L32,33 L32,32 L29,32 L29,31 Z M32,22 L32,23 L33,23 L33,22 L32,22 Z M31,24 L31,25 L32,25 L32,24 L31,24 Z M32,32 L32,33 L33,33 L33,32 L32,32 Z M38,28 L38,29 L39,29 L39,28 L38,28 Z M36,28 L36,29 L37,29 L37,28 L36,28 Z M34,28 L34,29 L35,29 L35,28 L34,28 Z M32,28 L32,29 L33,29 L33,28 L32,28 Z M30,28 L30,29 L31,29 L31,28 L30,28 Z M38,26 L38,27 L39,27 L39,26 L38,26 Z M36,26 L36,27 L37,27 L37,26 L36,26 Z M34,26 L34,27 L35,27 L35,26 L34,26 Z M32,26 L32,27 L33,27 L33,26 L32,26 Z M30,26 L30,27 L31,27 L31,26 L30,26 Z M34,22 L34,23 L35,23 L35,22 L34,22 Z M33,24 L33,25 L34,25 L34,24 L33,24 Z M36,22 L36,23 L37,23 L37,22 L36,22 Z M35,24 L35,25 L36,25 L36,24 L35,24 Z M37,24 L37,25 L38,25 L38,24 L37,24 Z" id="Page-1" fill="url(#linearGradient-4)"></path>
            </g>
        </g>
    </g>
</svg>