<?xml version="1.0" encoding="UTF-8"?>
<svg width="96px" height="96px" viewBox="0 0 96 96" version="1.1" xmlns="http://www.w3.org/2000/svg" xmlns:xlink="http://www.w3.org/1999/xlink">
    <!-- Generator: Sketch 56.2 (81672) - https://sketch.com -->
    <title>deepin-movie-96px</title>
    <desc>Created with Sketch.</desc>
    <defs>
        <filter x="-13.6%" y="-13.6%" width="127.3%" height="127.3%" filterUnits="objectBoundingBox" id="filter-1">
            <feOffset dx="0" dy="2" in="SourceAlpha" result="shadowOffsetOuter1"></feOffset>
            <feGaussianBlur stdDeviation="2" in="shadowOffsetOuter1" result="shadowBlurOuter1"></feGaussianBlur>
            <feComposite in="shadowBlurOuter1" in2="SourceAlpha" operator="out" result="shadowBlurOuter1"></feComposite>
            <feColorMatrix values="0 0 0 0 0   0 0 0 0 0   0 0 0 0 0  0 0 0 0.2 0" type="matrix" in="shadowBlurOuter1" result="shadowMatrixOuter1"></feColorMatrix>
            <feMerge>
                <feMergeNode in="shadowMatrixOuter1"></feMergeNode>
                <feMergeNode in="SourceGraphic"></feMergeNode>
            </feMerge>
        </filter>
        <linearGradient x1="50%" y1="2.37536127%" x2="50%" y2="100%" id="linearGradient-2">
            <stop stop-color="#3E3E3E" offset="0%"></stop>
            <stop stop-color="#0F0F0F" offset="100%"></stop>
        </linearGradient>
        <linearGradient x1="40.7675756%" y1="0%" x2="50%" y2="100%" id="linearGradient-3">
            <stop stop-color="#B0FAFF" offset="0%"></stop>
            <stop stop-color="#0D96C2" offset="100%"></stop>
        </linearGradient>
    </defs>
    <g id="deepin-movie-96px" stroke="none" stroke-width="1" fill="none" fill-rule="evenodd">
        <g id="7-movie" filter="url(#filter-1)" transform="translate(4.000000, 4.000000)">
            <circle id="Oval" stroke="url(#linearGradient-3)" stroke-width="4" fill="url(#linearGradient-2)" cx="44" cy="44" r="42"></circle>
            <path d="M36.5824118,63.1103799 C32.9470461,65.1982037 30,63.4867104 30,59.2786432 L30,28.7164798 C30,24.5124463 32.9635684,22.8064082 36.5824118,24.8847431 L63.2796681,40.2172221 C66.9150337,42.3050459 66.8985115,45.699566 63.2796681,47.7779009 L36.5824118,63.1103799 Z" id="Path-359" fill="#FF006B"></path>
            <path d="M54,34.8878237 L54,53.1072994 L42,59.9990093 L42,27.9961137 L54,34.8878237 Z M30,59.2786432 L30,28.7164798 L30,59.2786432 Z" id="Combined-Shape" fill="#FFB600"></path>
            <path d="M42,27.9961137 L42,59.9990093 L36.5824118,63.1103799 C32.9470461,65.1982037 30,63.4867104 30,59.2786432 L30,28.7164798 C30,24.5124463 32.9635684,22.8064082 36.5824118,24.8847431 L42,27.9961137 Z" id="Combined-Shape" fill="#1473FF"></path>
            <path d="M36.0843909,62.2432149 L62.7816473,46.9107359 C65.7376186,45.2130944 65.7412819,42.7841325 62.7816473,41.0843872 L36.0843909,25.7519082 C33.1269531,24.0534245 31,25.2873038 31,28.7164798 L31,59.2786432 C31,62.7177005 33.1155014,63.9482753 36.0843909,62.2432149 Z" id="Path-359" stroke-opacity="0.3" stroke="#FFFFFF" stroke-width="2"></path>
        </g>
    </g>
</svg>