<svg xmlns="http://www.w3.org/2000/svg" xmlns:xlink="http://www.w3.org/1999/xlink" width="24" height="24" viewBox="0 0 24 24">
  <defs>
    <linearGradient id="输入法-托盘-light-24p-c" x1="50.202%" x2="69.235%" y1=".95%" y2="90.54%">
      <stop offset="0%" stop-color="#08A8FF"/>
      <stop offset="100%" stop-color="#0010C7"/>
    </linearGradient>
    <path id="输入法-托盘-light-24p-b" d="M13,21 L13,15 L18,15 L18,16 L20,16 L20,6 L13,6 L13,3 L11,3 L11,6 L4,6 L4,16 L6,16 L6,15 L11,15 L11,21 L13,21 Z M18,12 L13,12 L13,9 L18,9 L18,12 Z M11,12 L6,12 L6,9 L11,9 L11,12 Z"/>
    <filter id="输入法-托盘-light-24p-a" width="225%" height="211.1%" x="-62.5%" y="-27.8%" filterUnits="objectBoundingBox">
      <feOffset dy="5" in="SourceAlpha" result="shadowOffsetOuter1"/>
      <feGaussianBlur in="shadowOffsetOuter1" result="shadowBlurOuter1" stdDeviation="2.5"/>
      <feColorMatrix in="shadowBlurOuter1" values="0 0 0 0 0   0 0 0 0 0.0841307462   0 0 0 0 0.249745245  0 0 0 0.1 0"/>
    </filter>
  </defs>
  <g fill="none" fill-rule="evenodd">
    <rect width="22" height="22" x="1" y="1" fill="#FFF" rx="4"/>
    <g fill-rule="nonzero">
      <use fill="#000" filter="url(#输入法-托盘-light-24p-a)" xlink:href="#输入法-托盘-light-24p-b"/>
      <use fill="url(#输入法-托盘-light-24p-c)" xlink:href="#输入法-托盘-light-24p-b"/>
    </g>
  </g>
</svg>
