<?xml version="1.0" encoding="UTF-8"?>
<svg width="30px" height="30px" viewBox="0 0 30 30" version="1.1" xmlns="http://www.w3.org/2000/svg" xmlns:xlink="http://www.w3.org/1999/xlink">
    <!-- Generator: Sketch 44.1 (41455) - http://www.bohemiancoding.com/sketch -->
    <title>tool_rotate</title>
    <desc>Created with Sketch.</desc>
    <defs></defs>
    <g id="Page-1" stroke="none" stroke-width="1" fill="none" fill-rule="evenodd">
        <g id="Group" fill="#000000">
            <path d="M9.58166549,5.4674669 C5.51645687,7.80633683 3.3799831,12.4721341 4.26593773,17.0779039 C5.15189235,21.6833594 8.86730761,25.2256065 13.5101624,25.8895225 C16.1972543,26.2737295 18.8579467,25.647527 21.0355911,24.2412823 C21.2756771,24.0907948 21.4161484,23.8227034 21.4032253,23.5396474 C21.3903023,23.2565913 21.2259867,23.0024151 20.9731869,22.8744305 C20.7203872,22.7464459 20.4182614,22.7644774 20.1824787,22.9216216 C18.3153427,24.1271987 16.0404287,24.6632029 13.7342439,24.3333663 C9.74933374,23.7637342 6.57007974,20.7331345 5.80967988,16.7802809 C5.04928001,12.8272702 6.87508825,8.83466018 10.3642221,6.82704111 C13.7072158,4.90380616 17.846123,5.2392998 20.8577088,7.59435513 L18.1476745,10.2889897 L24.439398,10.3109893 L24.455112,4.01926579 L21.9844017,6.47771917 C20.2742484,5.09143117 18.2407013,4.25827554 16.1376983,4.05305086 C15.5807946,3.99805191 15.0188624,3.98548072 14.4588159,4.01690869 C12.7756906,4.1083641 11.1060794,4.59015496 9.58166549,5.4674669 Z M15.0262479,13.4288016 C14.1607837,13.4355459 13.4637045,14.140845 13.4671061,15.0063289 C13.4704815,15.8717941 14.173033,16.5716057 15.0385049,16.5715992 C15.9051998,16.5716006 16.6082568,15.8698794 16.6099036,15.0031861 C16.6115629,14.13777 15.9131787,13.4339061 15.0477761,13.4288016 L15.0257765,13.4288016 L15.0262479,13.4288016 Z" id="tool_rotate"></path>
        </g>
    </g>
</svg>