<?xml version="1.0" encoding="iso-8859-1"?>
<!-- Generator: Adobe Illustrator 18.1.1, SVG Export Plug-In . SVG Version: 6.00 Build 0)  -->
<!DOCTYPE svg PUBLIC "-//W3C//DTD SVG 1.1//EN" "http://www.w3.org/Graphics/SVG/1.1/DTD/svg11.dtd" [
	<!ENTITY ns_extend "http://ns.adobe.com/Extensibility/1.0/">
	<!ENTITY ns_ai "http://ns.adobe.com/AdobeIllustrator/10.0/">
	<!ENTITY ns_graphs "http://ns.adobe.com/Graphs/1.0/">
	<!ENTITY ns_vars "http://ns.adobe.com/Variables/1.0/">
	<!ENTITY ns_imrep "http://ns.adobe.com/ImageReplacement/1.0/">
	<!ENTITY ns_sfw "http://ns.adobe.com/SaveForWeb/1.0/">
	<!ENTITY ns_custom "http://ns.adobe.com/GenericCustomNamespace/1.0/">
	<!ENTITY ns_adobe_xpath "http://ns.adobe.com/XPath/1.0/">
]>
<svg version="1.1" id="&#x56FE;&#x5C42;_1" xmlns:x="&ns_extend;" xmlns:i="&ns_ai;" xmlns:graph="&ns_graphs;"
	 xmlns="http://www.w3.org/2000/svg" xmlns:xlink="http://www.w3.org/1999/xlink" x="0px" y="0px" viewBox="0 0 30 20"
	 enable-background="new 0 0 30 20" xml:space="preserve">
<metadata>
	<sfw  xmlns="&ns_sfw;">
		<slices></slices>
		<sliceSourceBounds  width="16383" height="633" y="-188" x="-8121" bottomLeftOrigin="true"></sliceSourceBounds>
	</sfw>
</metadata>
<g>
	<path opacity="0.1" fill="#FFFFFF" d="M25.667,19.5H4.333c-2.108,0-3.833-1.725-3.833-3.833V4.333C0.5,2.225,2.225,0.5,4.333,0.5
		h21.334c2.108,0,3.833,1.725,3.833,3.833v11.334C29.5,17.775,27.775,19.5,25.667,19.5z"/>
	<path fill="none" stroke="#CBCBCB" stroke-miterlimit="10" d="M25.5,19.5h-21c-2.209,0-4-1.791-4-4v-11c0-2.209,1.791-4,4-4h21
		c2.209,0,4,1.791,4,4v11C29.5,17.709,27.709,19.5,25.5,19.5z"/>
	<g>
		<path d="M11,14H6V5h5v1H7v3h3v1H7v3h4V14z"/>
		<path d="M17,14h-1v-3.36c0-1.214-0.456-1.821-1.343-1.821c-0.459,0-0.877,0.171-1.173,0.513S13,10.106,13,10.63V14h-1V8h1v1h0.09
			c0.445-1,1.091-1.081,1.939-1.081c0.648,0,1.133,0.225,1.472,0.64c0.338,0.415,0.5,1.037,0.5,1.831V14z"/>
		<path d="M23.969,14H23.01v-1.064h-0.022c-0.442,0.727-1.128,1.091-2.06,1.091c-0.767,0-1.377-0.259-1.829-0.776
			c-0.453-0.518-0.679-1.216-0.679-2.095c0-0.949,0.256-1.709,0.767-2.282c0.511-0.573,1.179-0.859,2.005-0.859
			c0.825,0,1.338,0.4,1.797,0.914h0.022V5h0.959V14z M22.906,10.475c0-0.46-0.16-0.846-0.479-1.156
			c-0.32-0.31-0.713-0.465-1.18-0.465c-0.57,0-1.019,0.202-1.347,0.605c-0.329,0.403-0.493,0.953-0.493,1.649
			c0,0.641,0.158,1.147,0.474,1.519c0.316,0.372,0.737,0.558,1.263,0.558c0.519,0,0.942-0.183,1.271-0.548
			c0.329-0.365,0.493-0.82,0.493-1.363V10.475z"/>
	</g>
</g>
</svg>
