<?xml version="1.0" encoding="UTF-8" standalone="no"?>
<!-- Generator: Adobe Illustrator 18.1.1, SVG Export Plug-In . SVG Version: 6.00 Build 0)  -->

<svg
   xmlns:ns="&amp;ns_sfw;"
   xmlns:dc="http://purl.org/dc/elements/1.1/"
   xmlns:cc="http://creativecommons.org/ns#"
   xmlns:rdf="http://www.w3.org/1999/02/22-rdf-syntax-ns#"
   xmlns:svg="http://www.w3.org/2000/svg"
   xmlns="http://www.w3.org/2000/svg"
   xmlns:sodipodi="http://sodipodi.sourceforge.net/DTD/sodipodi-0.dtd"
   xmlns:inkscape="http://www.inkscape.org/namespaces/inkscape"
   version="1.1"
   id="图层_1"
   x="0px"
   y="0px"
   viewBox="0 0 30 20"
   enable-background="new 0 0 30 20"
   xml:space="preserve"
   sodipodi:docname="End.svg"
   width="30"
   height="20"
   inkscape:version="0.92.1 r15371"><defs
     id="defs21" /><sodipodi:namedview
     pagecolor="#ffffff"
     bordercolor="#666666"
     borderopacity="1"
     objecttolerance="10"
     gridtolerance="10"
     guidetolerance="10"
     inkscape:pageopacity="0"
     inkscape:pageshadow="2"
     inkscape:window-width="836"
     inkscape:window-height="480"
     id="namedview19"
     showgrid="false"
     fit-margin-top="0"
     fit-margin-left="0"
     fit-margin-right="0"
     fit-margin-bottom="0"
     inkscape:zoom="10.7"
     inkscape:cx="15"
     inkscape:cy="10"
     inkscape:window-x="0"
     inkscape:window-y="0"
     inkscape:window-maximized="0"
     inkscape:current-layer="图层_1" /><metadata
     id="metadata2"><ns:sfw><ns:slices /><ns:sliceSourceBounds
         width="16383"
         height="633"
         y="-188"
         x="-8121"
         bottomLeftOrigin="true" /></ns:sfw><rdf:RDF><cc:Work
         rdf:about=""><dc:format>image/svg+xml</dc:format><dc:type
           rdf:resource="http://purl.org/dc/dcmitype/StillImage" /><dc:title></dc:title></cc:Work></rdf:RDF></metadata><g
     id="g16"><path
       d="M 25.667,19.5 H 4.333 C 2.225,19.5 0.5,17.775 0.5,15.667 V 4.333 C 0.5,2.225 2.225,0.5 4.333,0.5 h 21.334 c 2.108,0 3.833,1.725 3.833,3.833 v 11.334 c 0,2.108 -1.725,3.833 -3.833,3.833 z"
       id="path4"
       inkscape:connector-curvature="0"
       style="opacity:0.1;fill:#ffffff" /><path
       stroke-miterlimit="10"
       d="m 25.5,19.5 h -21 c -2.209,0 -4,-1.791 -4,-4 v -11 c 0,-2.209 1.791,-4 4,-4 h 21 c 2.209,0 4,1.791 4,4 v 11 c 0,2.209 -1.791,4 -4,4 z"
       id="path6"
       inkscape:connector-curvature="0"
       style="fill:none;stroke:#cbcbcb;stroke-miterlimit:10" /><g
       id="g14"><path
         d="M 11,14 H 6 V 5 h 5 V 6 H 7 v 3 h 3 v 1 H 7 v 3 h 4 z"
         id="path8"
         inkscape:connector-curvature="0" /><path
         d="M 17,14 H 16 V 10.64 C 16,9.426 15.544,8.819 14.657,8.819 14.198,8.819 13.78,8.99 13.484,9.332 13.188,9.674 13,10.106 13,10.63 V 14 H 12 V 8 h 1 v 1 h 0.09 c 0.445,-1 1.091,-1.081 1.939,-1.081 0.648,0 1.133,0.225 1.472,0.64 0.338,0.415 0.5,1.037 0.5,1.831 V 14 Z"
         id="path10"
         inkscape:connector-curvature="0" /><path
         d="M 23.969,14 H 23.01 v -1.064 h -0.022 c -0.442,0.727 -1.128,1.091 -2.06,1.091 -0.767,0 -1.377,-0.259 -1.829,-0.776 -0.453,-0.518 -0.679,-1.216 -0.679,-2.095 0,-0.949 0.256,-1.709 0.767,-2.282 0.511,-0.573 1.179,-0.859 2.005,-0.859 0.825,0 1.338,0.4 1.797,0.914 h 0.022 V 5 h 0.959 v 9 z m -1.063,-3.525 c 0,-0.46 -0.16,-0.846 -0.479,-1.156 -0.32,-0.31 -0.713,-0.465 -1.18,-0.465 -0.57,0 -1.019,0.202 -1.347,0.605 -0.329,0.403 -0.493,0.953 -0.493,1.649 0,0.641 0.158,1.147 0.474,1.519 0.316,0.372 0.737,0.558 1.263,0.558 0.519,0 0.942,-0.183 1.271,-0.548 0.329,-0.365 0.493,-0.82 0.493,-1.363 v -0.799 z"
         id="path12"
         inkscape:connector-curvature="0" /></g></g></svg>