<?xml version="1.0" encoding="iso-8859-1"?>
<!-- Generator: Adobe Illustrator 18.1.1, SVG Export Plug-In . SVG Version: 6.00 Build 0)  -->
<!DOCTYPE svg PUBLIC "-//W3C//DTD SVG 1.1//EN" "http://www.w3.org/Graphics/SVG/1.1/DTD/svg11.dtd" [
	<!ENTITY ns_extend "http://ns.adobe.com/Extensibility/1.0/">
	<!ENTITY ns_ai "http://ns.adobe.com/AdobeIllustrator/10.0/">
	<!ENTITY ns_graphs "http://ns.adobe.com/Graphs/1.0/">
	<!ENTITY ns_vars "http://ns.adobe.com/Variables/1.0/">
	<!ENTITY ns_imrep "http://ns.adobe.com/ImageReplacement/1.0/">
	<!ENTITY ns_sfw "http://ns.adobe.com/SaveForWeb/1.0/">
	<!ENTITY ns_custom "http://ns.adobe.com/GenericCustomNamespace/1.0/">
	<!ENTITY ns_adobe_xpath "http://ns.adobe.com/XPath/1.0/">
]>
<svg version="1.1" id="&#x56FE;&#x5C42;_1" xmlns:x="&ns_extend;" xmlns:i="&ns_ai;" xmlns:graph="&ns_graphs;"
	 xmlns="http://www.w3.org/2000/svg" xmlns:xlink="http://www.w3.org/1999/xlink" x="0px" y="0px" viewBox="0 0 30 20"
	 enable-background="new 0 0 30 20" xml:space="preserve">
<metadata>
	<sfw  xmlns="&ns_sfw;">
		<slices></slices>
		<sliceSourceBounds  width="16383" height="633" y="-188" x="-8121" bottomLeftOrigin="true"></sliceSourceBounds>
	</sfw>
</metadata>
<g>
	<path opacity="0.1" fill="#FFFFFF" d="M25.667,19.5H4.333c-2.108,0-3.833-1.725-3.833-3.833V4.333C0.5,2.225,2.225,0.5,4.333,0.5
		h21.334c2.108,0,3.833,1.725,3.833,3.833v11.334C29.5,17.775,27.775,19.5,25.667,19.5z"/>
	<path fill="none" stroke="#CBCBCB" stroke-miterlimit="10" d="M25.5,19.5h-21c-2.209,0-4-1.791-4-4v-11c0-2.209,1.791-4,4-4h21
		c2.209,0,4,1.791,4,4v11C29.5,17.709,27.709,19.5,25.5,19.5z"/>
	<g>
		<path d="M8,14H7v-4H4v4H3V5h1v4h3V5h1V14z"/>
		<path d="M8.5,11.078c0-0.945,0.233-1.69,0.7-2.237c0.466-0.546,1.099-0.82,1.898-0.82c0.759,0,1.354,0.263,1.786,0.789
			c0.431,0.526,0.647,1.252,0.647,2.18c0,0.903-0.23,1.632-0.69,2.187c-0.46,0.555-1.078,0.833-1.852,0.833
			c-0.756,0-1.36-0.269-1.811-0.807S8.5,11.957,8.5,11.078z M9.415,11.047c0,0.658,0.147,1.177,0.441,1.557
			c0.294,0.379,0.69,0.569,1.187,0.569c0.512,0,0.902-0.185,1.171-0.556c0.268-0.371,0.402-0.902,0.402-1.595
			c0-0.696-0.134-1.231-0.402-1.603c-0.268-0.372-0.658-0.558-1.171-0.558c-0.503,0-0.9,0.195-1.191,0.584
			C9.56,9.833,9.415,10.367,9.415,11.047z"/>
		<path d="M20.99,14.027h-0.824v-3.442c0-0.65-0.078-1.116-0.235-1.396s-0.528-0.42-0.886-0.42c-0.303,0-0.562,0.182-0.777,0.547
			c-0.216,0.365-0.324,0.797-0.324,1.296v3.415H17.12v-3.55c0-1.138-0.527-1.707-1.207-1.707c-0.314,0-0.475,0.173-0.681,0.52
			c-0.206,0.347-0.309,0.79-0.309,1.328v3.41H14V8.032h0.824v0.949h0.017c0.331-0.726,1-1.09,1.636-1.09
			c0.782,0,1.227,0.849,1.32,1.225c0.345-0.817,0.973-1.225,1.66-1.225c1.023,0,1.534,1.156,1.534,2.439V14.027z"/>
		<path d="M26.622,11.113h-4.065c0.018,0.62,0.187,1.098,0.509,1.436c0.322,0.338,0.772,0.507,1.35,0.507
			c0.651,0,1.248-0.208,1.791-0.625v0.919c-0.511,0.361-1.189,0.541-2.032,0.541c-0.84,0-1.496-0.266-1.967-0.798
			s-0.706-1.271-0.706-2.216c0-0.889,0.258-1.623,0.775-2.2c0.516-0.578,1.158-0.867,1.925-0.867c0.76,0,1.353,0.244,1.78,0.733
			c0.427,0.488,0.641,1.172,0.641,2.051V11.113z M25.592,10.288c-0.004-0.525-0.128-0.931-0.373-1.218
			c-0.245-0.287-0.59-0.431-1.035-0.431c-0.41,0-0.764,0.152-1.063,0.457c-0.299,0.305-0.488,0.702-0.565,1.192H25.592z"/>
	</g>
</g>
</svg>
