<?xml version="1.0" encoding="UTF-8" standalone="no"?>
<!-- Generator: Adobe Illustrator 18.1.1, SVG Export Plug-In . SVG Version: 6.00 Build 0)  -->

<svg
   xmlns:ns="&amp;ns_sfw;"
   xmlns:dc="http://purl.org/dc/elements/1.1/"
   xmlns:cc="http://creativecommons.org/ns#"
   xmlns:rdf="http://www.w3.org/1999/02/22-rdf-syntax-ns#"
   xmlns:svg="http://www.w3.org/2000/svg"
   xmlns="http://www.w3.org/2000/svg"
   xmlns:sodipodi="http://sodipodi.sourceforge.net/DTD/sodipodi-0.dtd"
   xmlns:inkscape="http://www.inkscape.org/namespaces/inkscape"
   version="1.1"
   id="图层_1"
   x="0px"
   y="0px"
   viewBox="0 0 24 24"
   enable-background="new 0 0 24 24"
   xml:space="preserve"
   sodipodi:docname="power_normal.svg"
   inkscape:version="0.92.1 r15371"><defs
     id="defs11" /><sodipodi:namedview
     pagecolor="#ffffff"
     bordercolor="#666666"
     borderopacity="1"
     objecttolerance="10"
     gridtolerance="10"
     guidetolerance="10"
     inkscape:pageopacity="0"
     inkscape:pageshadow="2"
     inkscape:window-width="836"
     inkscape:window-height="480"
     id="namedview9"
     showgrid="false"
     inkscape:zoom="9.8333333"
     inkscape:cx="12"
     inkscape:cy="12"
     inkscape:window-x="0"
     inkscape:window-y="0"
     inkscape:window-maximized="0"
     inkscape:current-layer="图层_1" /><metadata
     id="metadata2"><ns:sfw><ns:slices /><ns:sliceSourceBounds
         width="921"
         height="16845"
         y="-8451"
         x="-57"
         bottomLeftOrigin="true" /></ns:sfw><rdf:RDF><cc:Work
         rdf:about=""><dc:format>image/svg+xml</dc:format><dc:type
           rdf:resource="http://purl.org/dc/dcmitype/StillImage" /></cc:Work></rdf:RDF></metadata><polygon
     fill="none"
     stroke="#B4B4B4"
     stroke-width="1.033"
     stroke-linecap="round"
     stroke-linejoin="round"
     stroke-miterlimit="10"
     points="  10.93,16.46 3.544,9.719 9.962,12.214 11.416,8.541 18.489,15.166 12.317,12.758 "
     id="polygon4"
     style="stroke:#1e1e1e;stroke-opacity:1" /><path
     fill="none"
     stroke="#B4B4B4"
     stroke-linecap="round"
     stroke-linejoin="round"
     stroke-miterlimit="10"
     d="M22,10.5h-1.5v-4  c0-0.552-0.448-1-1-1h-17c-0.552,0-1,0.448-1,1v12c0,0.552,0.448,1,1,1h17c0.552,0,1-0.448,1-1v-4H22c0.276,0,0.5-0.224,0.5-0.5v-3  C22.5,10.724,22.276,10.5,22,10.5z"
     id="path6"
     style="stroke:#1e1e1e;stroke-opacity:1" /></svg>