<?xml version="1.0" encoding="UTF-8"?>
<svg width="16px" height="16px" viewBox="0 0 16 16" version="1.1" xmlns="http://www.w3.org/2000/svg" xmlns:xlink="http://www.w3.org/1999/xlink">
    <!-- Generator: Sketch 48.2 (47327) - http://www.bohemiancoding.com/sketch -->
    <title>red_deepin</title>
    <desc>Created with Sketch.</desc>
    <defs>
        <path d="M14.9996971,8.00015143 C14.9996971,11.8660739 11.8657711,15 7.99984857,15 C4.13392606,15 1,11.8660739 1,8.00015143 C1,4.13422891 4.13392606,1 7.99984857,1 C11.8657711,1 14.9996971,4.13422891 14.9996971,8.00015143 Z M2.14028744,10.675745 C2.96009777,12.459942 4.5741249,13.8036033 6.52985312,14.2533962 C8.212765,13.8498895 10.322599,12.6981798 11.2959707,10.7830201 C11.2959707,10.7830201 13.1863537,7.68647313 9.98797703,4.89922689 C9.98797703,4.89922689 10.8105101,6.19197331 10.8355591,7.49343243 C10.8355591,7.49343243 11.0305057,9.20438831 9.51749139,10.2727828 C7.18466675,11.9197548 3.49021094,11.0691778 2.14028744,10.675745 Z M3.00665625,3.93620159 C3.40308396,6.01227393 4.29177906,7.76352604 4.8828811,8.40009747 C5.64687572,9.22290279 6.772175,10.0963507 8.21603226,9.73531829 C9.66043407,9.37428591 9.95421532,7.79565411 9.95421532,7.79565411 C10.2733179,6.45226513 9.81916852,4.85702476 9.79466406,4.82353533 C9.7701596,4.78977363 9.55343126,4.75220012 9.55343126,4.75220012 C9.77996138,6.86775187 9.22343786,7.80382226 9.22343786,7.80382226 C8.41370158,9.46250196 7.22550752,8.94954192 7.22550752,8.94954192 C5.90335574,8.27594153 5.96570598,6.37684585 5.96570598,6.37684585 C5.92540976,5.05659998 6.44844385,2.8737971 7.45394355,1.60310469 C5.66375658,1.74659192 4.08076843,2.62494069 3.00665625,3.93620159 Z M10.4859621,2.09264935 C9.71407161,2.71996354 8.40090481,4.05954071 8.40090481,4.05954071 C6.4528002,5.86443036 6.83071344,7.38425145 6.83071344,7.38425145 C7.14110327,8.97949182 8.10712355,7.90483509 8.10712355,7.90483509 C9.1226973,6.85522737 9.04700575,4.76472463 9.04700575,4.76472463 C8.63587535,4.83170349 8.37558353,5.05877815 8.37558353,5.05877815 C8.32521325,6.45226513 7.50240792,7.31700032 7.50240792,7.31700032 C7.18330539,7.66986455 6.95677527,7.33388117 6.95677527,7.33388117 C6.78905585,7.0817575 7.12449469,6.90559765 7.12449469,6.90559765 C7.59443579,6.49419499 7.73547257,5.79227833 7.72948259,5.52899152 C7.72267579,5.26488789 7.86344031,5.19300814 7.86344031,5.19300814 C8.52669437,4.68059265 9.1902207,4.37837097 9.1902207,4.37837097 C10.0800049,3.92503845 11.6668048,3.84934689 11.6668048,3.84934689 C12.0972665,3.8637773 12.5086692,3.8425401 12.8378458,3.81367929 C12.2007298,3.07364459 11.3972558,2.48063664 10.4859621,2.09264935 Z" id="path-1"></path>
    </defs>
    <g id="输入激活码" stroke="none" stroke-width="1" fill="none" fill-rule="evenodd" transform="translate(-1142.000000, -1018.000000)">
        <g id="Group-2" transform="translate(1142.000000, 1018.000000)">
            <g id="Fill-4">
                <use fill="#FFFFFF" xlink:href="#path-1"></use>
                <use fill="#FF5656" xlink:href="#path-1"></use>
            </g>
        </g>
    </g>
</svg>