<?xml version="1.0" encoding="iso-8859-1"?>
<!-- Generator: Adobe Illustrator 18.0.0, SVG Export Plug-In . SVG Version: 6.00 Build 0)  -->
<!DOCTYPE svg PUBLIC "-//W3C//DTD SVG 1.1//EN" "http://www.w3.org/Graphics/SVG/1.1/DTD/svg11.dtd">
<svg version="1.1" id="&#x56FE;&#x5C42;_1" xmlns="http://www.w3.org/2000/svg" xmlns:xlink="http://www.w3.org/1999/xlink" x="0px"
	 y="0px" viewBox="0 0 20 20" enable-background="new 0 0 20 20" xml:space="preserve">
<g>
	<path opacity="0.1" fill="#FFFFFF" d="M15.7,19.5H4.3c-2.09,0-3.8-1.71-3.8-3.8V4.3c0-2.09,1.71-3.8,3.8-3.8h11.4
		c2.09,0,3.8,1.71,3.8,3.8v11.4C19.5,17.79,17.79,19.5,15.7,19.5z"/>
	<path fill="none" stroke="#CBCBCB" stroke-miterlimit="10" d="M15.5,19.5h-11c-2.209,0-4-1.791-4-4v-11c0-2.209,1.791-4,4-4h11
		c2.209,0,4,1.791,4,4v11C19.5,17.709,17.709,19.5,15.5,19.5z"/>
	<g>
		<path fill="#0F0F0F" d="M9.732,9.224l1.178-3.9c-0.727-0.478-2.511-1.381-4.438-0.326l-1.1,3.875
			C6.316,8.497,7.933,8.174,9.732,9.224z"/>
		<path fill="#0F0F0F" d="M10.457,9.718c0,0,2.18,1.606,4.463-0.071l1.079-3.732c0,0-2.421,1.484-4.385-0.025L10.457,9.718z"/>
		<path fill="#0F0F0F" d="M12.63,11.262c-1.211,0-2.124-0.5-2.43-0.692l-1.18,3.906c0.687,0.423,2.649,1.401,4.468,0.129
			l1.097-3.797C13.886,11.141,13.223,11.262,12.63,11.262z"/>
		<path fill="#0F0F0F" d="M9.481,10.054C7.274,8.655,5.406,9.736,5.065,9.959l-1.064,3.748c0,0,2.314-1.095,4.303,0.24L9.481,10.054
			z"/>
	</g>
</g>
</svg>
