<svg xmlns="http://www.w3.org/2000/svg" xmlns:xlink="http://www.w3.org/1999/xlink" width="96" height="96" viewBox="0 0 96 96">
  <defs>
    <linearGradient id="输入法-托盘-light-96p-c" x1="50.255%" x2="74.344%" y1=".95%" y2="90.54%">
      <stop offset="0%" stop-color="#08A8FF"/>
      <stop offset="100%" stop-color="#0010C7"/>
    </linearGradient>
    <path id="输入法-托盘-light-96p-b" d="M54,88 L54,62 L76,62 L76,68 L88,68 L88,18 L53,18 L53,8 L43,8 L43,18 L8,18 L8,68 L20,68 L20,62 L43,62 L43,88 L54,88 Z M75,48 L53,48 L53,32 L75,32 L75,48 Z M43,48 L20,48 L20,32 L43,32 L43,48 Z"/>
    <filter id="输入法-托盘-light-96p-a" width="150%" height="150%" x="-25%" y="-12.5%" filterUnits="objectBoundingBox">
      <feOffset dy="10" in="SourceAlpha" result="shadowOffsetOuter1"/>
      <feGaussianBlur in="shadowOffsetOuter1" result="shadowBlurOuter1" stdDeviation="5"/>
      <feColorMatrix in="shadowBlurOuter1" values="0 0 0 0 0   0 0 0 0 0.0841307462   0 0 0 0 0.249745245  0 0 0 0.1 0"/>
    </filter>
  </defs>
  <g fill="none" fill-rule="evenodd">
    <path fill="#FFF" d="M17,1 L79,1 C87.836556,1 95,8.163444 95,17 L95,79 C95,87.836556 87.836556,95 79,95 L17,95 C8.163444,95 1,87.836556 1,79 L1,17 C1,8.163444 8.163444,1 17,1 Z"/>
    <g fill-rule="nonzero">
      <use fill="#000" filter="url(#输入法-托盘-light-96p-a)" xlink:href="#输入法-托盘-light-96p-b"/>
      <use fill="url(#输入法-托盘-light-96p-c)" xlink:href="#输入法-托盘-light-96p-b"/>
    </g>
  </g>
</svg>
