<?xml version="1.0" encoding="UTF-8"?>
<svg width="18px" height="19px" viewBox="0 0 18 19" version="1.1" xmlns="http://www.w3.org/2000/svg" xmlns:xlink="http://www.w3.org/1999/xlink">
    <!-- Generator: Sketch 58 (84663) - https://sketch.com -->
    <title>formatting备份</title>
    <desc>Created with Sketch.</desc>
    <g id="组件" stroke="none" stroke-width="1" fill="none" fill-rule="evenodd">
        <g id="formatting备份" transform="translate(10.428203, 8.794229) rotate(30.000000) translate(-10.428203, -8.794229) translate(2.428203, -0.205771)" fill="#536076">
            <rect id="矩形" x="0.367346939" y="6.01968481" width="14.6938776" height="2.93877551" rx="1.46938776"></rect>
            <path d="M7.71428571,0.142133788 C8.93156639,0.142133788 9.91836735,1.12893475 9.91836735,2.34621542 L9.91836735,8.22376644 C9.91836735,8.48140948 9.87416097,8.72872757 9.79291937,8.95854955 L5.63565206,8.95854955 C5.55441046,8.72872757 5.51020408,8.48140948 5.51020408,8.22376644 L5.51020408,2.34621542 C5.51020408,1.12893475 6.49700504,0.142133788 7.71428571,0.142133788 Z M7.71428571,1.61152154 C7.30852549,1.61152154 6.97959184,1.9404552 6.97959184,2.34621542 C6.97959184,2.75197564 7.30852549,3.0809093 7.71428571,3.0809093 C8.12004594,3.0809093 8.44897959,2.75197564 8.44897959,2.34621542 C8.44897959,1.9404552 8.12004594,1.61152154 7.71428571,1.61152154 Z" id="形状结合"></path>
            <path d="M14.0217339,9.73124984 L14.7809752,15.6958865 C14.8450562,16.1990413 14.4890858,16.6588529 13.9859267,16.7229003 C13.8836768,16.7359157 13.7799654,16.7316254 13.6791399,16.7102093 C13.4491769,16.6613632 13.2220655,16.630726 12.997806,16.6182976 L12.2142857,14.3313286 L12.2134658,16.7316685 C11.8047791,16.9324446 11.643545,17.318523 10.5733641,17.3482113 C9.10669548,17.3888986 9.12458325,16.7736563 7.90142681,16.7901217 C6.67827038,16.8065872 6.23631685,17.6944614 5.31934753,17.5145816 C4.40237821,17.3347019 3.77556186,16.7766198 2.5600317,16.6634962 C2.26882412,16.6363949 1.99589935,16.6353901 1.74125738,16.6604819 C1.23650059,16.7102216 0.786994046,16.3413554 0.737256634,15.8365984 C0.730361445,15.766623 0.7315254,15.6960872 0.74072562,15.6263774 L1.50401991,9.84291976 L14.0217339,9.73124984 Z" id="形状结合"></path>
        </g>
    </g>
</svg>