<?xml version="1.0" encoding="UTF-8"?>
<svg width="15px" height="20px" viewBox="0 0 15 20" version="1.1" xmlns="http://www.w3.org/2000/svg" xmlns:xlink="http://www.w3.org/1999/xlink">
    <!-- Generator: Sketch 58 (84663) - https://sketch.com -->
    <title>Space to adjus备份</title>
    <desc>Created with Sketch.</desc>
    <defs>
        <rect id="path-1" x="7" y="0" width="1" height="19"></rect>
        <mask id="mask-2" maskContentUnits="userSpaceOnUse" maskUnits="objectBoundingBox" x="0" y="0" width="1" height="19" fill="white">
            <use xlink:href="#path-1"></use>
        </mask>
    </defs>
    <g id="组件" stroke="none" stroke-width="1" fill="none" fill-rule="evenodd">
        <g id="Space-to-adjus备份" transform="translate(0.856406, 0.794229)">
            <path d="M6,2 L6,14.571 L1.88888889,14.5714286 C1.43573217,14.5714286 1.06177602,14.9105265 1.00692571,15.3488171 L1,15.4603175 L1,15.968254 C1,16.4214107 1.33909794,16.7953668 1.77738856,16.8502172 L1.88888889,16.8571429 L6,16.857 L6,18 L1.77777778,18 C0.795938223,18 -1.01803938e-16,17.2040618 0,16.2222222 L0,3.77777778 C-1.20240667e-16,2.79593822 0.795938223,2 1.77777778,2 L6,2 Z" id="形状结合" fill="#536076"></path>
            <path d="M12.6761229,2 C13.40728,2 14,2.79593822 14,3.77777778 L14,16.2222222 C14,17.2040618 13.40728,18 12.6761229,18 L9,18 L9,16.857 L12.4869976,16.8571429 C12.8244548,16.8571429 13.1029328,16.5180449 13.1437787,16.0797543 L13.1489362,15.968254 L13.1489362,15.4603175 C13.1489362,14.9693977 12.8525762,14.5714286 12.4869976,14.5714286 L9,14.571 L9,2 L12.6761229,2 Z M13,3.78651212 C13,3.35213347 12.7045381,3 12.3400673,3 L9,3 L9,13.6898034 L12.1245791,13.6901443 C12.3937797,13.6901443 12.6474786,13.7692455 12.8702048,13.9090095 L13,14 L13,3.78651212 Z" id="形状结合" fill="#4E6078" fill-rule="nonzero"></path>
            <use id="矩形" stroke="#536076" mask="url(#mask-2)" stroke-width="2" stroke-dasharray="1" xlink:href="#path-1"></use>
        </g>
    </g>
</svg>