<?xml version="1.0" encoding="UTF-8"?>
<svg width="15px" height="15px" viewBox="0 0 15 15" version="1.1" xmlns="http://www.w3.org/2000/svg" xmlns:xlink="http://www.w3.org/1999/xlink">
    <!-- Generator: Sketch 58 (84663) - https://sketch.com -->
    <title>uninstall备份</title>
    <desc>Created with Sketch.</desc>
    <g id="组件" stroke="none" stroke-width="1" fill="none" fill-rule="evenodd">
        <path d="M13.1064065,6.04422863 L13.1064065,13.2386731 C13.1064065,14.0977827 12.4099605,14.7942286 11.5508509,14.7942286 L4.16196202,14.7942286 C3.30285241,14.7942286 2.60640646,14.0977827 2.60640646,13.2386731 L2.60640646,6.04422863 L13.1064065,6.04422863 Z M5.73508612,8.29790829 C5.61304728,8.41994713 5.59561316,8.60697901 5.68278376,8.7475873 L5.73508612,8.81350699 L7.33361885,10.4116862 L5.79401168,11.9512933 C5.64756507,12.0977399 5.64756507,12.3351768 5.79401168,12.4816234 C5.91953735,12.6071491 6.111913,12.6250813 6.25653866,12.5354201 L6.32434177,12.4816234 L7.86394893,10.9420162 L9.46212811,12.540549 C9.60450676,12.6829276 9.83534816,12.6829276 9.9777268,12.540549 C10.0997656,12.4185101 10.1171998,12.2314783 10.0300292,12.09087 L9.9777268,12.0249503 L8.37942978,10.4265354 L9.91880124,8.88716394 C10.0652478,8.74071733 10.0652478,8.50328047 9.91880124,8.35683386 C9.79327557,8.23130819 9.60089992,8.21337595 9.45627426,8.30303714 L9.38847115,8.35683386 L7.84909969,9.89620532 L6.25068481,8.29790829 C6.10830616,8.15552964 5.87746477,8.15552964 5.73508612,8.29790829 Z M14.1064065,3.41922863 C14.52062,3.41922863 14.8564065,3.75501507 14.8564065,4.16922863 C14.8564065,4.5834422 14.52062,4.91922863 14.1064065,4.91922863 L1.60640646,4.91922863 C1.1921929,4.91922863 0.856406461,4.5834422 0.856406461,4.16922863 C0.856406461,3.75501507 1.1921929,3.41922863 1.60640646,3.41922863 L14.1064065,3.41922863 Z M10.6064065,0.794228634 C11.02062,0.794228634 11.3564065,1.13001507 11.3564065,1.54422863 C11.3564065,1.9584422 11.02062,2.29422863 10.6064065,2.29422863 L5.10640646,2.29422863 C4.6921929,2.29422863 4.35640646,1.9584422 4.35640646,1.54422863 C4.35640646,1.13001507 4.6921929,0.794228634 5.10640646,0.794228634 L10.6064065,0.794228634 Z" id="uninstall备份" fill="#536076"></path>
    </g>
</svg>