<?xml version="1.0" encoding="UTF-8"?>
<svg width="32px" height="32px" viewBox="0 0 32 32" version="1.1" xmlns="http://www.w3.org/2000/svg" xmlns:xlink="http://www.w3.org/1999/xlink">
    <title>button/删除- light备份</title>
    <g id="button/删除--light备份" stroke="none" stroke-width="1" fill="none" fill-rule="evenodd">
        <g id="编组" transform="translate(2.000000, 2.000000)" fill="#536076">
            <rect id="矩形" x="0" y="4" width="26" height="2" rx="1"></rect>
            <rect id="矩形备份" x="8" y="0" width="10" height="2" rx="1"></rect>
            <path d="M24,8 L24,23 C24,25.7614237 21.5315311,28 18.4949032,28 L18.4949032,28 L7.49830108,28 C4.46167324,28 2,25.7614237 2,23 L2,23 L2,8 L24,8 Z M7,10 C6.44771525,10 6,10.4477153 6,11 L6,11 L6,25 C6,25.5522847 6.44771525,26 7,26 C7.55228475,26 8,25.5522847 8,25 L8,25 L8,11 C8,10.4477153 7.55228475,10 7,10 Z M13,10 C12.4477153,10 12,10.4477153 12,11 L12,11 L12,25 C12,25.5522847 12.4477153,26 13,26 C13.5522847,26 14,25.5522847 14,25 L14,25 L14,11 C14,10.4477153 13.5522847,10 13,10 Z M19,10 C18.4477153,10 18,10.4477153 18,11 L18,11 L18,25 C18,25.5522847 18.4477153,26 19,26 C19.5522847,26 20,25.5522847 20,25 L20,25 L20,11 C20,10.4477153 19.5522847,10 19,10 Z" id="形状结合"></path>
        </g>
    </g>
</svg>