<?xml version="1.0" encoding="UTF-8"?>
<svg width="14px" height="14px" viewBox="0 0 14 14" version="1.1" xmlns="http://www.w3.org/2000/svg" xmlns:xlink="http://www.w3.org/1999/xlink">
    <!-- Generator: Sketch 58 (84663) - https://sketch.com -->
    <title>形状</title>
    <desc>Created with Sketch.</desc>
    <g id="病毒查杀" stroke="none" stroke-width="1" fill="none" fill-rule="evenodd">
        <path d="M0.616450109,0.105766118 L1.90640789,1.39511389 C2.17125039,1.06931669 2.57522201,0.861162074 3.02781075,0.861162074 L7.22752553,0.861162074 C7.31372611,0.861162074 7.39708322,0.891997876 7.46253157,0.948096468 L12.2905127,5.086366 C12.3705548,5.15497354 12.4166192,5.25513309 12.4166148,5.3605548 L12.4163414,11.9057345 L12.4163414,11.9057345 L13.8942339,13.3835499 C14.0352554,13.5245714 14.0352554,13.7532124 13.8942339,13.8942339 C13.7532124,14.0352554 13.5245714,14.0352554 13.3835499,13.8942339 L12.3479678,12.8579171 C12.161467,13.4398212 11.6160202,13.8610542 10.9721892,13.8610542 L3.02781075,13.8610542 C2.23007274,13.8610542 1.5833783,13.2143597 1.5833783,12.4166217 L1.5833783,2.30559453 C1.5833783,2.23849968 1.58795294,2.17247329 1.59680733,2.10781027 L0.105766118,0.616450109 C-0.0352553725,0.475428619 -0.0352553725,0.246787608 0.105766118,0.105766118 C0.246787608,-0.0352553725 0.475428619,-0.0352553725 0.616450109,0.105766118 Z M2.3053142,2.81592107 L2.30559453,12.4166217 C2.30559453,12.7870001 2.58439902,13.0922602 2.94358508,13.133979 L3.02781075,13.1388379 L10.9721892,13.1388379 C11.3425676,13.1388379 11.6478277,12.8600334 11.6895466,12.5008474 L11.6944055,12.4166217 L11.6941251,12.204732 L9.73908582,10.2496927 L3.38891887,10.249973 C3.18948436,10.249973 3.02781075,10.0882994 3.02781075,9.88886491 C3.02781075,9.6894304 3.18948436,9.52775679 3.38891887,9.52775679 L9.01686959,9.52747646 L6.85022091,7.36082778 L3.38891887,7.36110811 C3.18948436,7.36110811 3.02781075,7.1994345 3.02781075,7 C3.02781075,6.8005655 3.18948436,6.63889189 3.38891887,6.63889189 L6.12800468,6.63861155 L2.3053142,2.81592107 Z M7,1.5833783 L3.02781075,1.5833783 L3.02781075,1.5833783 C2.77424403,1.5833783 2.55119812,1.71405347 2.42234259,1.91173426 L7.14921843,6.63861155 L9.16664868,6.63889189 C9.36608318,6.63889189 9.52775679,6.8005655 9.52775679,7 C9.52775679,7.1994345 9.36608318,7.36110811 9.16664868,7.36110811 L7.87143465,7.36082778 L10.0380833,9.52747646 L10.6110811,9.52775679 C10.8105156,9.52775679 10.9721892,9.6894304 10.9721892,9.88886491 C10.9721892,10.0436965 10.8747446,10.1757688 10.7378375,10.2270994 L11.6941251,11.1835183 L11.6943886,5.55556755 C11.6944148,5.35613304 11.5327488,5.19445187 11.3333143,5.19444253 C11.3333086,5.19444253 11.333303,5.19444253 11.3332974,5.19445943 L8.08332434,5.19445943 L8.08332434,5.19445943 C7.71294598,5.19445943 7.40768589,4.91565494 7.36596699,4.55646888 L7.36110811,4.47224321 L7.36110811,1.94448641 C7.36110811,1.74505191 7.1994345,1.5833783 7,1.5833783 Z M8.08332434,2.30559453 L8.08332434,4.11113509 C8.08332434,4.3105696 8.24499795,4.47224321 8.44443245,4.47224321 L10.6110811,4.47224321 L8.08332434,2.30559453 Z" id="形状" fill="#536076"></path>
    </g>
</svg>