<?xml version="1.0" encoding="UTF-8"?>
<svg width="12px" height="13px" viewBox="0 0 12 13" version="1.1" xmlns="http://www.w3.org/2000/svg" xmlns:xlink="http://www.w3.org/1999/xlink">
    <!-- Generator: Sketch 58 (84663) - https://sketch.com -->
    <title>形状结合</title>
    <desc>Created with Sketch.</desc>
    <g id="病毒查杀" stroke="none" stroke-width="1" fill="none" fill-rule="evenodd">
        <path d="M6,0 C7.74000921,0 9.48001842,0.368569439 11.2200276,1.10570832 C11.692146,1.30571611 12,1.77708164 12,2.29994897 L12,6.61753434 C12,8.78061583 10.8640138,10.7768289 9.02552408,11.8444356 L7.90556319,12.4947942 C6.75410784,13.1634416 5.34510555,13.1686842 4.18892861,12.508623 L3.02552408,11.8444356 C1.15761489,10.7780465 0,8.76073068 0,6.57201052 L0,2.29995755 C0,1.77708756 0.307848014,1.3057196 0.77996848,1.10570997 C2.51997899,0.368569989 4.25998949,0 6,0 Z M6,0.646271749 C4.4550006,0.646271749 2.90754596,0.952236939 1.35445451,1.56648596 L1.02156176,1.70283023 L0.953279332,1.73679216 C0.756254994,1.85022939 0.631578947,2.06466166 0.631578947,2.29995755 L0.631578947,6.57201052 C0.631578947,8.52644376 1.6652794,10.3278203 3.3332422,11.28006 L4.49664673,11.9442474 C5.46012751,12.4942984 6.63429609,12.4899296 7.59384221,11.9327234 L8.7138031,11.2823648 C10.3545922,10.3295624 11.3684211,8.54801053 11.3684211,6.61753434 L11.3684211,2.29994897 C11.3684211,2.03851523 11.2144941,1.80283272 10.9784345,1.70282864 C9.31352903,0.997506773 7.65535526,0.646271749 6,0.646271749 Z M9.48869798,4.55337014 C9.61202144,4.6766936 9.61202144,4.87664044 9.48869798,4.9999639 L5.82244351,8.66621837 C5.69912005,8.78954183 5.49917321,8.78954183 5.37584975,8.66621837 L5.3742283,8.66459575 L3.14536205,6.43573066 C3.02066833,6.31103694 3.02066833,6.10886847 3.14536205,5.98417475 L3.15078927,5.97874752 C3.275483,5.8540538 3.47765146,5.8540538 3.60234518,5.97874752 L5.60902636,7.98518265 L9.04210422,4.55337014 C9.16542768,4.43004668 9.36537452,4.43004668 9.48869798,4.55337014 Z" id="形状结合" fill="#536076"></path>
    </g>
</svg>