<?xml version="1.0" encoding="UTF-8"?>
<svg width="96px" height="96px" viewBox="0 0 96 96" version="1.1" xmlns="http://www.w3.org/2000/svg" xmlns:xlink="http://www.w3.org/1999/xlink">
    <!-- Generator: Sketch 58 (84663) - https://sketch.com -->
    <title>deepin-camera/96</title>
    <desc>Created with Sketch.</desc>
    <defs>
        <filter x="-14.6%" y="-14.8%" width="129.3%" height="133.3%" filterUnits="objectBoundingBox" id="filter-1">
            <feOffset dx="0" dy="2" in="SourceAlpha" result="shadowOffsetOuter1"></feOffset>
            <feGaussianBlur stdDeviation="2" in="shadowOffsetOuter1" result="shadowBlurOuter1"></feGaussianBlur>
            <feColorMatrix values="0 0 0 0 0   0 0 0 0 0   0 0 0 0 0  0 0 0 0.2 0" type="matrix" in="shadowBlurOuter1" result="shadowMatrixOuter1"></feColorMatrix>
            <feMerge>
                <feMergeNode in="shadowMatrixOuter1"></feMergeNode>
                <feMergeNode in="SourceGraphic"></feMergeNode>
            </feMerge>
        </filter>
        <linearGradient x1="47.8497614%" y1="3.02297477%" x2="47.8497614%" y2="71.398678%" id="linearGradient-2">
            <stop stop-color="#E6E6E6" offset="0%"></stop>
            <stop stop-color="#BDBDB6" offset="100%"></stop>
        </linearGradient>
        <path d="M13.7621463,2.24323801 L14.0196078,1.5 C14.3306318,0.602138406 15.1764581,1.74550001e-16 16.1266641,0 L24.3469183,0 C25.371153,-6.10713332e-16 26.3065611,0.581507934 26.7598039,1.5 L27.1905158,2.37283333 C27.3800217,2.75686507 27.7711262,3 28.1993701,3 L29,3 L29,3 L29,9 L11,9 L11,3 L12.6991196,3 C13.1785061,3 13.6052322,2.69621636 13.7621463,2.24323801 Z" id="path-3"></path>
        <filter x="-5.6%" y="-11.1%" width="111.1%" height="122.2%" filterUnits="objectBoundingBox" id="filter-4">
            <feOffset dx="0" dy="-2" in="SourceAlpha" result="shadowOffsetInner1"></feOffset>
            <feComposite in="shadowOffsetInner1" in2="SourceAlpha" operator="arithmetic" k2="-1" k3="1" result="shadowInnerInner1"></feComposite>
            <feColorMatrix values="0 0 0 0 0.129698822   0 0 0 0 0.129698822   0 0 0 0 0.129698822  0 0 0 0.3 0" type="matrix" in="shadowInnerInner1"></feColorMatrix>
        </filter>
        <linearGradient x1="47.8497614%" y1="7.49431566%" x2="49.9642249%" y2="91.1369331%" id="linearGradient-5">
            <stop stop-color="#F3F3F3" offset="0%"></stop>
            <stop stop-color="#BDBDB6" offset="100%"></stop>
        </linearGradient>
        <path d="M82,14 L82,70 C82,76.0751322 77.0751322,81 71,81 L11,81 C4.92486775,81 7.43989126e-16,76.0751322 0,70 L0,14 C-7.43989126e-16,7.92486775 4.92486775,3 11,3 L71,3 C77.0751322,3 82,7.92486775 82,14 Z" id="path-6"></path>
        <filter x="-1.2%" y="-1.3%" width="102.4%" height="102.6%" filterUnits="objectBoundingBox" id="filter-7">
            <feOffset dx="0" dy="-2" in="SourceAlpha" result="shadowOffsetInner1"></feOffset>
            <feComposite in="shadowOffsetInner1" in2="SourceAlpha" operator="arithmetic" k2="-1" k3="1" result="shadowInnerInner1"></feComposite>
            <feColorMatrix values="0 0 0 0 0.129698822   0 0 0 0 0.129698822   0 0 0 0 0.129698822  0 0 0 0.3 0" type="matrix" in="shadowInnerInner1"></feColorMatrix>
        </filter>
        <linearGradient x1="50%" y1="1.9723437%" x2="50%" y2="95.7530632%" id="linearGradient-8">
            <stop stop-color="#B8B8B8" stop-opacity="0.706710282" offset="0%"></stop>
            <stop stop-color="#A3A3A3" stop-opacity="0.755707427" offset="52.3746517%"></stop>
            <stop stop-color="#707070" stop-opacity="0.349653764" offset="100%"></stop>
        </linearGradient>
        <rect id="path-9" x="7" y="10" width="11" height="7" rx="2"></rect>
        <filter x="-31.8%" y="-35.7%" width="163.6%" height="200.0%" filterUnits="objectBoundingBox" id="filter-10">
            <feOffset dx="0" dy="1" in="SourceAlpha" result="shadowOffsetOuter1"></feOffset>
            <feGaussianBlur stdDeviation="1" in="shadowOffsetOuter1" result="shadowBlurOuter1"></feGaussianBlur>
            <feComposite in="shadowBlurOuter1" in2="SourceAlpha" operator="out" result="shadowBlurOuter1"></feComposite>
            <feColorMatrix values="0 0 0 0 0   0 0 0 0 0   0 0 0 0 0  0 0 0 0.0778313483 0" type="matrix" in="shadowBlurOuter1"></feColorMatrix>
        </filter>
        <linearGradient x1="50%" y1="0.854492188%" x2="50%" y2="100%" id="linearGradient-11">
            <stop stop-color="#FFFFFF" offset="0%"></stop>
            <stop stop-color="#FFFFFF" stop-opacity="0.676950735" offset="100%"></stop>
        </linearGradient>
        <radialGradient cx="50.2767254%" cy="17.5532874%" fx="50.2767254%" fy="17.5532874%" r="93.1172462%" id="radialGradient-12">
            <stop stop-color="#FE8C6C" offset="0%"></stop>
            <stop stop-color="#EC3E3E" offset="100%"></stop>
        </radialGradient>
        <circle id="path-13" cx="4.5" cy="4.5" r="3.5"></circle>
        <filter x="-50.0%" y="-35.7%" width="200.0%" height="200.0%" filterUnits="objectBoundingBox" id="filter-14">
            <feOffset dx="0" dy="1" in="SourceAlpha" result="shadowOffsetOuter1"></feOffset>
            <feGaussianBlur stdDeviation="1" in="shadowOffsetOuter1" result="shadowBlurOuter1"></feGaussianBlur>
            <feColorMatrix values="0 0 0 0 0   0 0 0 0 0   0 0 0 0 0  0 0 0 0.26133632 0" type="matrix" in="shadowBlurOuter1"></feColorMatrix>
        </filter>
        <filter x="-20.8%" y="-20.8%" width="141.7%" height="141.7%" filterUnits="objectBoundingBox" id="filter-15">
            <feOffset dx="0" dy="1" in="SourceAlpha" result="shadowOffsetOuter1"></feOffset>
            <feGaussianBlur stdDeviation="2" in="shadowOffsetOuter1" result="shadowBlurOuter1"></feGaussianBlur>
            <feColorMatrix values="0 0 0 0 0   0 0 0 0 0   0 0 0 0 0  0 0 0 0.3 0" type="matrix" in="shadowBlurOuter1" result="shadowMatrixOuter1"></feColorMatrix>
            <feMerge>
                <feMergeNode in="shadowMatrixOuter1"></feMergeNode>
                <feMergeNode in="SourceGraphic"></feMergeNode>
            </feMerge>
        </filter>
        <linearGradient x1="50%" y1="0%" x2="50%" y2="106.422466%" id="linearGradient-16">
            <stop stop-color="#0F0E12" offset="0%"></stop>
            <stop stop-color="#2A272D" offset="100%"></stop>
        </linearGradient>
        <linearGradient x1="50%" y1="3.4695271%" x2="50%" y2="99.5812336%" id="linearGradient-17">
            <stop stop-color="#777777" offset="0%"></stop>
            <stop stop-color="#3D3D3D" offset="40.4098831%"></stop>
            <stop stop-color="#383838" offset="74.0343641%"></stop>
            <stop stop-color="#343434" offset="100%"></stop>
        </linearGradient>
        <linearGradient x1="50%" y1="1.70676491%" x2="50%" y2="99.8682662%" id="linearGradient-18">
            <stop stop-color="#FFFFFF" offset="0%"></stop>
            <stop stop-color="#D7D7D7" offset="32.7551355%"></stop>
            <stop stop-color="#D6D6D6" offset="75.9314904%"></stop>
            <stop stop-color="#CCCCCC" offset="100%"></stop>
        </linearGradient>
        <radialGradient cx="50%" cy="91.444257%" fx="50%" fy="91.444257%" r="23.2623198%" gradientTransform="translate(0.500000,0.914443),rotate(90.000000),scale(1.000000,1.927773),translate(-0.500000,-0.914443)" id="radialGradient-19">
            <stop stop-color="#7066AE" offset="0%"></stop>
            <stop stop-color="#232327" offset="100%"></stop>
        </radialGradient>
        <linearGradient x1="50%" y1="2.70518056%" x2="50%" y2="96.190119%" id="linearGradient-20">
            <stop stop-color="#9CEAB0" stop-opacity="0.020301232" offset="0%"></stop>
            <stop stop-color="#736FD8" stop-opacity="0.0890362079" offset="100%"></stop>
        </linearGradient>
        <path d="M30,7.6875 C42.3228535,7.6875 52.3125,17.6771465 52.3125,30 C52.3125,42.3228535 42.3228535,52.3125 30,52.3125 C17.6771465,52.3125 7.6875,42.3228535 7.6875,30 C7.6875,17.6771465 17.6771465,7.6875 30,7.6875 Z M30,13.125 C20.6801948,13.125 13.125,20.6801948 13.125,30 C13.125,39.3198052 20.6801948,46.875 30,46.875 C39.3198052,46.875 46.875,39.3198052 46.875,30 C46.875,20.6801948 39.3198052,13.125 30,13.125 Z" id="path-21"></path>
        <radialGradient cx="50%" cy="91.2430015%" fx="50%" fy="91.2430015%" r="23.4635754%" gradientTransform="translate(0.500000,0.912430),rotate(90.000000),scale(1.000000,1.571760),translate(-0.500000,-0.912430)" id="radialGradient-22">
            <stop stop-color="#8784DE" offset="0%"></stop>
            <stop stop-color="#232129" offset="100%"></stop>
        </radialGradient>
        <circle id="path-23" cx="30" cy="30" r="14.0625"></circle>
        <linearGradient x1="50%" y1="-27.0066935%" x2="60.5062747%" y2="100%" id="linearGradient-24">
            <stop stop-color="#5B0386" offset="0%"></stop>
            <stop stop-color="#9F28A1" offset="17.0101139%"></stop>
            <stop stop-color="#622C81" offset="39.318933%"></stop>
            <stop stop-color="#71BDD2" offset="74.0890347%"></stop>
            <stop stop-color="#5A38AA" offset="100%"></stop>
        </linearGradient>
        <linearGradient x1="50.2631322%" y1="3.69813292%" x2="57.1152703%" y2="100%" id="linearGradient-25">
            <stop stop-color="#CD66E0" offset="0%"></stop>
            <stop stop-color="#1F296C" offset="43.5095872%"></stop>
            <stop stop-color="#6BD9F6" offset="100%"></stop>
        </linearGradient>
        <linearGradient x1="50%" y1="1.45956503%" x2="50%" y2="85.7580236%" id="linearGradient-26">
            <stop stop-color="#FFFFFF" stop-opacity="0.900376967" offset="0%"></stop>
            <stop stop-color="#FFFFFF" stop-opacity="0" offset="100%"></stop>
        </linearGradient>
        <filter x="-62.1%" y="-47.2%" width="224.3%" height="194.4%" filterUnits="objectBoundingBox" id="filter-27">
            <feGaussianBlur stdDeviation="2.625" in="SourceGraphic"></feGaussianBlur>
        </filter>
    </defs>
    <g id="deepin-camera/96" stroke="none" stroke-width="1" fill="none" fill-rule="evenodd">
        <g id="编组-2" filter="url(#filter-1)" transform="translate(7.000000, 6.000000)">
            <g id="路径">
                <use fill="url(#linearGradient-2)" fill-rule="evenodd" xlink:href="#path-3"></use>
                <use fill="black" fill-opacity="1" filter="url(#filter-4)" xlink:href="#path-3"></use>
            </g>
            <g id="路径">
                <use fill="url(#linearGradient-5)" fill-rule="evenodd" xlink:href="#path-6"></use>
                <use fill="black" fill-opacity="1" filter="url(#filter-7)" xlink:href="#path-6"></use>
            </g>
            <rect id="矩形" fill="#FFFFFF" x="6" y="9" width="13" height="9" rx="3"></rect>
            <g id="矩形" opacity="0.58041908">
                <use fill="black" fill-opacity="1" filter="url(#filter-10)" xlink:href="#path-9"></use>
                <use fill="url(#linearGradient-8)" fill-rule="evenodd" xlink:href="#path-9"></use>
            </g>
            <rect id="矩形" fill="url(#linearGradient-11)" opacity="0.683134934" x="8" y="11" width="9" height="3" rx="1"></rect>
            <g id="编组" transform="translate(67.000000, 9.000000)">
                <circle id="椭圆形" fill-opacity="0.08" fill="#000000" cx="4.5" cy="4.5" r="4.5"></circle>
                <g id="椭圆形">
                    <use fill="black" fill-opacity="1" filter="url(#filter-14)" xlink:href="#path-13"></use>
                    <use fill="url(#radialGradient-12)" fill-rule="evenodd" xlink:href="#path-13"></use>
                </g>
            </g>
            <g id="编组-6" filter="url(#filter-15)" transform="translate(11.000000, 13.250000)">
                <g id="Group-6">
                    <ellipse id="Oval备份-8" fill="url(#linearGradient-16)" cx="30.1431034" cy="30.2068966" rx="17.3155172" ry="17.1724138"></ellipse>
                    <path d="M30,-1 C47.1208272,-1 61,12.8791728 61,30 C61,47.1208272 47.1208272,61 30,61 C12.8791728,61 -1,47.1208272 -1,30 C-1,12.8791728 12.8791728,-1 30,-1 Z M29.625,10.375 C18.9935186,10.375 10.375,18.9935186 10.375,29.625 C10.375,40.2564814 18.9935186,48.875 29.625,48.875 C40.2564814,48.875 48.875,40.2564814 48.875,29.625 C48.875,18.9935186 40.2564814,10.375 29.625,10.375 Z" id="形状结合" stroke="url(#linearGradient-18)" stroke-width="2" fill="url(#linearGradient-17)"></path>
                    <g id="形状结合备份">
                        <use fill="url(#radialGradient-19)" fill-rule="evenodd" xlink:href="#path-21"></use>
                        <path stroke-opacity="0.166060014" stroke="#000000" stroke-width="1" d="M30,7.1875 C42.5989959,7.1875 52.8125,17.4010041 52.8125,30 C52.8125,42.5989959 42.5989959,52.8125 30,52.8125 C17.4010041,52.8125 7.1875,42.5989959 7.1875,30 C7.1875,17.4010041 17.4010041,7.1875 30,7.1875 Z M30,13.625 C20.9563372,13.625 13.625,20.9563372 13.625,30 C13.625,39.0436628 20.9563372,46.375 30,46.375 C39.0436628,46.375 46.375,39.0436628 46.375,30 C46.375,20.9563372 39.0436628,13.625 30,13.625 Z"></path>
                        <path stroke="url(#linearGradient-20)" stroke-width="1" d="M30,8.1875 C17.9532889,8.1875 8.1875,17.9532889 8.1875,30 C8.1875,42.0467111 17.9532889,51.8125 30,51.8125 C42.0467111,51.8125 51.8125,42.0467111 51.8125,30 C51.8125,17.9532889 42.0467111,8.1875 30,8.1875 Z M30,12.625 C39.5959475,12.625 47.375,20.4040525 47.375,30 C47.375,39.5959475 39.5959475,47.375 30,47.375 C20.4040525,47.375 12.625,39.5959475 12.625,30 C12.625,20.4040525 20.4040525,12.625 30,12.625 Z" stroke-linejoin="square"></path>
                    </g>
                    <g id="Oval">
                        <use fill="url(#radialGradient-22)" fill-rule="evenodd" xlink:href="#path-23"></use>
                        <circle stroke-opacity="0.229362434" stroke="#100F0F" stroke-width="1" cx="30" cy="30" r="14.5625"></circle>
                        <circle stroke-opacity="0.0396941925" stroke="#FFFFFF" stroke-width="1" stroke-linejoin="square" cx="30" cy="30" r="13.5625"></circle>
                    </g>
                    <circle id="Oval" stroke-opacity="0.602936858" stroke="#080808" fill="url(#linearGradient-24)" cx="30" cy="30" r="10.8125"></circle>
                    <circle id="Oval" stroke="url(#linearGradient-25)" stroke-width="2.06896552" fill-opacity="0.779921738" fill="#0A0611" cx="30" cy="30" r="5.34051724"></circle>
                </g>
            </g>
            <g id="编组-12" transform="translate(27.312500, 29.437500)">
                <path d="M12.9375,12.375 C17.8045094,12.375 21.75,9.60476189 21.75,6.1875 C21.75,2.77023811 17.8045094,0 12.9375,0 C8.07049064,0 4.125,2.77023811 4.125,6.1875 C4.125,9.60476189 8.07049064,12.375 12.9375,12.375 Z" id="椭圆形" fill="url(#linearGradient-26)" opacity="0.457738416"></path>
                <path d="M10.9071578,10.1112804 C9.38580748,3.7454268 10.0108075,0.375 12.7821578,0 C7.13047812,0.889756297 0.969657786,2.05011478 0.219657786,9.05208442 C-0.280342214,13.7200642 0.926858823,16.2652027 3.8412609,16.6875 C8.05185882,12.7270518 10.2821578,10.6409032 10.5321578,10.4290541 C10.7821578,10.217205 10.9071578,10.1112804 10.9071578,10.1112804 Z" id="路径-3" fill="#59AAFF" opacity="0.521017942" filter="url(#filter-27)"></path>
            </g>
        </g>
    </g>
</svg>