<?xml version="1.0" encoding="UTF-8"?>
<svg width="96px" height="96px" viewBox="0 0 96 96" version="1.1" xmlns="http://www.w3.org/2000/svg" xmlns:xlink="http://www.w3.org/1999/xlink">
    <!-- Generator: Sketch 56.2 (81672) - https://sketch.com -->
    <title>deepin-screenshot&amp;record-96px</title>
    <desc>Created with Sketch.</desc>
    <defs>
        <filter x="-13.6%" y="-16.2%" width="127.3%" height="132.4%" filterUnits="objectBoundingBox" id="filter-1">
            <feOffset dx="0" dy="2" in="SourceAlpha" result="shadowOffsetOuter1"></feOffset>
            <feGaussianBlur stdDeviation="2" in="shadowOffsetOuter1" result="shadowBlurOuter1"></feGaussianBlur>
            <feComposite in="shadowBlurOuter1" in2="SourceAlpha" operator="out" result="shadowBlurOuter1"></feComposite>
            <feColorMatrix values="0 0 0 0 0   0 0 0 0 0   0 0 0 0 0  0 0 0 0.2 0" type="matrix" in="shadowBlurOuter1" result="shadowMatrixOuter1"></feColorMatrix>
            <feMerge>
                <feMergeNode in="shadowMatrixOuter1"></feMergeNode>
                <feMergeNode in="SourceGraphic"></feMergeNode>
            </feMerge>
        </filter>
        <linearGradient x1="50%" y1="0%" x2="50%" y2="96.1072977%" id="linearGradient-2">
            <stop stop-color="#F0EDFF" offset="0%"></stop>
            <stop stop-color="#BBA7F6" offset="100%"></stop>
        </linearGradient>
        <path d="M76,41 L76,51 L66,51 L66,41 L76,41 Z M10.1515043,51.0490343 L-7.10542736e-15,51.0490343 L-7.10542736e-15,41.0490343 L10.1515043,41.0490343 L10.1515043,51.0490343 Z M66,0 L76,0 L76,10 L66,10 L66,0 Z M10,0 L10,10 L-7.10542736e-15,10 L-7.10542736e-15,0 L10,0 Z" id="path-3"></path>
        <linearGradient x1="39.2766806%" y1="15.3036106%" x2="39.2766806%" y2="105.982476%" id="linearGradient-5">
            <stop stop-color="#6B6386" offset="0%"></stop>
            <stop stop-color="#302B42" offset="72.1020361%"></stop>
            <stop stop-color="#72639E" offset="100%"></stop>
        </linearGradient>
        <linearGradient x1="50%" y1="0%" x2="50%" y2="100%" id="linearGradient-6">
            <stop stop-color="#FFFFFF" stop-opacity="0.15" offset="0%"></stop>
            <stop stop-color="#000000" stop-opacity="0.328238225" offset="100%"></stop>
        </linearGradient>
        <circle id="path-7" cx="24" cy="24" r="24"></circle>
        <filter x="-8.3%" y="-4.2%" width="116.7%" height="116.7%" filterUnits="objectBoundingBox" id="filter-8">
            <feOffset dx="0" dy="2" in="SourceAlpha" result="shadowOffsetOuter1"></feOffset>
            <feGaussianBlur stdDeviation="1" in="shadowOffsetOuter1" result="shadowBlurOuter1"></feGaussianBlur>
            <feComposite in="shadowBlurOuter1" in2="SourceAlpha" operator="out" result="shadowBlurOuter1"></feComposite>
            <feColorMatrix values="0 0 0 0 0   0 0 0 0 0   0 0 0 0 0  0 0 0 0.3 0" type="matrix" in="shadowBlurOuter1"></feColorMatrix>
        </filter>
        <radialGradient cx="50%" cy="91.2430015%" fx="50%" fy="91.2430015%" r="23.4635754%" gradientTransform="translate(0.500000,0.912430),rotate(90.000000),scale(1.000000,1.571760),translate(-0.500000,-0.912430)" id="radialGradient-9">
            <stop stop-color="#8462FF" offset="0%"></stop>
            <stop stop-color="#232129" offset="100%"></stop>
        </radialGradient>
        <circle id="path-10" cx="24" cy="24" r="16"></circle>
        <radialGradient cx="50%" cy="50%" fx="50%" fy="50%" r="50%" id="radialGradient-11">
            <stop stop-color="#F53E84" offset="0%"></stop>
            <stop stop-color="#4F2CA2" offset="100%"></stop>
        </radialGradient>
        <linearGradient x1="100%" y1="27.8491143%" x2="0%" y2="67.6686712%" id="linearGradient-12">
            <stop stop-color="#4B003F" offset="0%"></stop>
            <stop stop-color="#33036D" offset="14.5887885%"></stop>
            <stop stop-color="#C30B9D" offset="51.4479904%"></stop>
            <stop stop-color="#591A85" offset="80.60535%"></stop>
            <stop stop-color="#470437" offset="100%"></stop>
        </linearGradient>
        <linearGradient x1="50%" y1="0%" x2="50%" y2="50%" id="linearGradient-13">
            <stop stop-color="#FFEEEE" stop-opacity="0.850033967" offset="0%"></stop>
            <stop stop-color="#FF578A" stop-opacity="0.7" offset="100%"></stop>
        </linearGradient>
    </defs>
    <g id="deepin-screenshot&amp;record-96px" stroke="none" stroke-width="1" fill="none" fill-rule="evenodd">
        <g id="9-screenshot" filter="url(#filter-1)" transform="translate(4.000000, 11.000000)">
            <g id="Group-9">
                <path d="M19.6220454,6.5573015 L20.5488251,4.59026467 C21.8690552,1.78815192 24.6882386,-1.77635684e-15 27.7857931,-1.77635684e-15 L60.2142069,-1.77635684e-15 C63.3117614,-1.77635684e-15 66.1309448,1.78815192 67.4511749,4.59026467 L68.3779546,6.5573015 C69.3681271,8.65888606 71.4825147,10 73.8056805,10 L78,10 C83.5228475,10 88,14.4771525 88,20 L88,64 C88,69.5228475 83.5228475,74 78,74 L10,74 C4.4771525,74 0,69.5228475 0,64 L0,20 C0,14.4771525 4.4771525,10 10,10 L14.1943195,10 C16.5174853,10 18.6318729,8.65888606 19.6220454,6.5573015 Z" id="Path" fill="url(#linearGradient-2)"></path>
                <g id="框" transform="translate(6.000000, 17.000000)">
                    <mask id="mask-4" fill="white">
                        <use xlink:href="#path-3"></use>
                    </mask>
                    <g id="Mask"></g>
                    <path d="M3,0.5 C1.61928813,0.5 0.5,1.61928813 0.5,3 L0.5,48 C0.5,49.3807119 1.61928813,50.5 3,50.5 L73,50.5 C74.3807119,50.5 75.5,49.3807119 75.5,48 L75.5,3 C75.5,1.61928813 74.3807119,0.5 73,0.5 L3,0.5 Z" id="Rectangle" stroke-opacity="0.4" stroke="#000000" mask="url(#mask-4)"></path>
                </g>
                <circle id="Oval" stroke="#D51818" fill="#FF5555" cx="74" cy="24" r="2.5"></circle>
                <g id="Group-6" transform="translate(20.000000, 18.000000)">
                    <g id="Oval">
                        <use fill="black" fill-opacity="1" filter="url(#filter-8)" xlink:href="#path-7"></use>
                        <circle stroke="url(#linearGradient-6)" stroke-width="1" stroke-linejoin="square" fill="url(#linearGradient-5)" fill-rule="evenodd" cx="24" cy="24" r="23.5"></circle>
                    </g>
                    <g id="Oval">
                        <use fill="url(#radialGradient-9)" fill-rule="evenodd" xlink:href="#path-10"></use>
                        <circle stroke="#000000" stroke-width="1" cx="24" cy="24" r="16.5"></circle>
                        <circle stroke-opacity="0.05" stroke="#FFFFFF" stroke-width="1" stroke-linejoin="square" cx="24" cy="24" r="15.5"></circle>
                    </g>
                    <circle id="Oval" stroke="#080808" fill="url(#radialGradient-11)" cx="24" cy="24" r="10.5"></circle>
                    <circle id="Oval" fill="url(#linearGradient-12)" cx="24" cy="24" r="7"></circle>
                    <circle id="Oval" fill="#38000E" cx="24" cy="24" r="5"></circle>
                    <ellipse id="Oval" fill="url(#linearGradient-13)" opacity="0.5" cx="23" cy="18" rx="9" ry="8"></ellipse>
                </g>
            </g>
        </g>
    </g>
</svg>