<?xml version="1.0" encoding="UTF-8"?>
<svg width="16px" height="16px" viewBox="0 0 16 16" version="1.1" xmlns="http://www.w3.org/2000/svg" xmlns:xlink="http://www.w3.org/1999/xlink">
    <title>list_icon_delete/normal</title>
    <g id="list_icon_delete/normal" stroke="none" stroke-width="1" fill="none" fill-rule="evenodd">
        <g id="button/刷新备份-2" transform="translate(2.000000, 1.000000)" fill="#536076">
            <path d="M11,4 L11,12 C11,13.1045695 10.1045695,14 9,14 L3,14 C1.8954305,14 1,13.1045695 1,12 L1,4 L11,4 Z M4.5,5 C4.25454011,5 4.05039163,5.17687516 4.00805567,5.41012437 L4,5.5 L4,12.5 C4,12.7761424 4.22385763,13 4.5,13 C4.74545989,13 4.94960837,12.8231248 4.99194433,12.5898756 L5,12.5 L5,5.5 C5,5.22385763 4.77614237,5 4.5,5 Z M7.5,5 C7.25454011,5 7.05039163,5.17687516 7.00805567,5.41012437 L7,5.5 L7,12.5 C7,12.7761424 7.22385763,13 7.5,13 C7.74545989,13 7.94960837,12.8231248 7.99194433,12.5898756 L8,12.5 L8,5.5 C8,5.22385763 7.77614237,5 7.5,5 Z M11.5,2 C11.7761424,2 12,2.22385763 12,2.5 C12,2.77614237 11.7761424,3 11.5,3 L0.5,3 C0.223857625,3 3.38176876e-17,2.77614237 0,2.5 C-3.38176876e-17,2.22385763 0.223857625,2 0.5,2 L11.5,2 Z M7.5,0 C7.77614237,-5.07265313e-17 8,0.223857625 8,0.5 C8,0.776142375 7.77614237,1 7.5,1 L4.5,1 C4.22385763,1 4,0.776142375 4,0.5 C4,0.223857625 4.22385763,5.07265313e-17 4.5,0 L7.5,0 Z" id="形状结合"></path>
        </g>
    </g>
</svg>