<?xml version="1.0" encoding="UTF-8"?>
<svg width="16px" height="16px" viewBox="0 0 16 16" version="1.1" xmlns="http://www.w3.org/2000/svg" xmlns:xlink="http://www.w3.org/1999/xlink">
    <title>list_icon_again/normal</title>
    <g id="list_icon_again/normal" stroke="none" stroke-width="1" fill="none" fill-rule="evenodd">
        <path d="M5,6.09787618 C5,6.37401855 4.77614237,6.59787618 4.5,6.59787618 C4.40629014,6.59787618 4.31446633,6.57154146 4.23500053,6.52187533 L1.67839864,4.92399915 C1.44423038,4.77764399 1.3730438,4.4691688 1.51939896,4.23500053 C1.55963931,4.17061596 1.61401408,4.1162412 1.67839864,4.07600085 L4.23500053,2.47812467 C4.4691688,2.3317695 4.77764399,2.40295609 4.92399915,2.63712435 C4.97366528,2.71659015 5,2.80841396 5,2.90212382 L4.99933119,3.99905689 L10,4 C12.3439487,4 14,6.09717393 14,8.5 C14,10.8321547 12.4399309,12.8763724 10.2050092,12.9946031 L10,13 L2,13 C1.72385763,13 1.5,12.7761424 1.5,12.5 C1.5,12.2545401 1.67687516,12.0503916 1.91012437,12.0080557 L2,12 L10,12 C11.7329634,12 13,10.3954627 13,8.5 C13,6.66989807 11.8188387,5.11100367 10.1775772,5.00566982 L10,5 L4.99933119,4.99905689 L5,6.09787618 Z" id="形状结合" fill="#536076"></path>
    </g>
</svg>