<?xml version="1.0" encoding="UTF-8"?>
<svg width="16px" height="16px" viewBox="0 0 16 16" version="1.1" xmlns="http://www.w3.org/2000/svg" xmlns:xlink="http://www.w3.org/1999/xlink">
    <title>list_icon_cancel/normalnormal_light</title>
    <g id="list_icon_cancel/normalnormal_light" stroke="none" stroke-width="1" fill="none" fill-rule="evenodd">
        <path d="M3,5 L3,11.5 C3,12.2796961 3.59488808,12.9204487 4.35553999,12.9931334 L4.5,13 L6.25761415,13.0005473 C6.57101461,13.3799315 6.93432402,13.716567 7.33748757,14.000399 L4.5,14 C3.1745166,14 2.08996133,12.9684641 2.00531768,11.6643757 L2,11.5 L2,5 L3,5 Z M10.5,5 C12.9852814,5 15,7.01471863 15,9.5 C15,11.9852814 12.9852814,14 10.5,14 C8.01471863,14 6,11.9852814 6,9.5 C6,7.01471863 8.01471863,5 10.5,5 Z M8.62132034,7.62132034 C8.44775399,7.7948867 8.42846884,8.0643111 8.56346489,8.25917924 L8.62132034,8.32842712 L10.0355339,9.74264069 L8.62132034,11.1568542 C8.4260582,11.3521164 8.4260582,11.6686989 8.62132034,11.863961 C8.7948867,12.0375274 9.0643111,12.0568125 9.25917924,11.9218165 L9.32842712,11.863961 L10.7426407,10.4497475 L12.1568542,11.863961 C12.3521164,12.0592232 12.6686989,12.0592232 12.863961,11.863961 C13.0375274,11.6903947 13.0568125,11.4209703 12.9218165,11.2261021 L12.863961,11.1568542 L11.4497475,9.74264069 L12.863961,8.32842712 C13.0592232,8.13316498 13.0592232,7.81658249 12.863961,7.62132034 C12.6903947,7.44775399 12.4209703,7.42846884 12.2261021,7.56346489 L12.1568542,7.62132034 L10.7426407,9.03553391 L9.32842712,7.62132034 C9.13316498,7.4260582 8.81658249,7.4260582 8.62132034,7.62132034 Z M12.5,3 C12.7761424,3 13,3.22385763 13,3.5 C13,3.77614237 12.7761424,4 12.5,4 L1.5,4 C1.22385763,4 1,3.77614237 1,3.5 C1,3.22385763 1.22385763,3 1.5,3 L12.5,3 Z M8.5,1 C8.77614237,1 9,1.22385763 9,1.5 C9,1.77614237 8.77614237,2 8.5,2 L5.5,2 C5.22385763,2 5,1.77614237 5,1.5 C5,1.22385763 5.22385763,1 5.5,1 L8.5,1 Z" id="形状结合" fill="#536076"></path>
    </g>
</svg>