<?xml version="1.0" encoding="UTF-8"?>
<svg width="16px" height="16px" viewBox="0 0 16 16" version="1.1" xmlns="http://www.w3.org/2000/svg" xmlns:xlink="http://www.w3.org/1999/xlink">
    <title>电子书</title>
    <g id="页面-1备份" stroke="none" stroke-width="1" fill="none" fill-rule="evenodd">
        <g id="按钮" transform="translate(-166.000000, -100.000000)" fill="#536076">
            <g id="电子书" transform="translate(166.000000, 100.000000)">
                <g id="日志备份" transform="translate(2.000000, 1.000000)">
                    <path d="M10,0 C11.1045695,-2.02906125e-16 12,0.8954305 12,2 L12,10 C12,11.0543618 11.1841222,11.9181651 10.1492623,11.9945143 L10,12 L2.5,12 C2.22385763,12 2,12.2238576 2,12.5 C2,12.7454599 2.17687516,12.9496084 2.41012437,12.9919443 L2.5,13 L11,13 C11.2485281,13.2485281 11.273381,13.6360303 11.0745584,13.9123532 L11,14 L2,14 C0.8954305,14 1.3527075e-16,13.1045695 0,12 L0,2 C-1.3527075e-16,0.8954305 0.8954305,2.02906125e-16 2,0 L10,0 Z M9,2 L3,2 L3,4 L9,4 L9,2 Z" id="形状结合"></path>
                </g>
            </g>
        </g>
    </g>
</svg>