<?xml version="1.0" encoding="iso-8859-1"?>
<!-- Generator: Adobe Illustrator 18.0.0, SVG Export Plug-In . SVG Version: 6.00 Build 0)  -->
<!DOCTYPE svg PUBLIC "-//W3C//DTD SVG 1.1//EN" "http://www.w3.org/Graphics/SVG/1.1/DTD/svg11.dtd">
<svg version="1.1" id="&#x56FE;&#x5C42;_1" xmlns="http://www.w3.org/2000/svg" xmlns:xlink="http://www.w3.org/1999/xlink" x="0px"
	 y="0px" viewBox="0 0 12 12" enable-background="new 0 0 12 12" xml:space="preserve">
<g>
	<g>
		<circle fill="#3C8BF2" cx="5.016" cy="1.016" r="1.016"/>
		<path fill="#3C8BF2" d="M9,1H7.03c0,0.005,0.002,0.01,0.002,0.016c0,1.111-0.904,2.016-2.016,2.016S3,2.127,3,1.016
			C3,1.01,3.002,1.005,3.002,1H1v8h8V1z M8,7H2V6h6V7z M8,5H2V4h6V5z"/>
		<polygon fill="#3C8BF2" points="10,3 10,10 3,10 3,11 10,11 11,11 11,10 11,3 		"/>
	</g>
</g>
</svg>
