<?xml version="1.0" encoding="UTF-8"?>
<svg width="96px" height="96px" viewBox="0 0 96 96" version="1.1" xmlns="http://www.w3.org/2000/svg" xmlns:xlink="http://www.w3.org/1999/xlink">
    <title>apps/96/deepin-app-store</title>
    <defs>
        <filter x="-11.4%" y="-11.9%" width="122.8%" height="123.9%" filterUnits="objectBoundingBox" id="filter-1">
            <feOffset dx="0" dy="0" in="SourceAlpha" result="shadowOffsetOuter1"></feOffset>
            <feGaussianBlur stdDeviation="2.5" in="shadowOffsetOuter1" result="shadowBlurOuter1"></feGaussianBlur>
            <feColorMatrix values="0 0 0 0 0   0 0 0 0 0   0 0 0 0 0  0 0 0 0.2 0" type="matrix" in="shadowBlurOuter1" result="shadowMatrixOuter1"></feColorMatrix>
            <feMerge>
                <feMergeNode in="shadowMatrixOuter1"></feMergeNode>
                <feMergeNode in="SourceGraphic"></feMergeNode>
            </feMerge>
        </filter>
        <linearGradient x1="50%" y1="0%" x2="50%" y2="100%" id="linearGradient-2">
            <stop stop-color="#FFE6C4" offset="0%"></stop>
            <stop stop-color="#FFFAF3" offset="100%"></stop>
        </linearGradient>
        <path d="M0,0 L80,0 L80,36 C80,44.836556 72.836556,52 64,52 L16,52 C7.163444,52 1.082166e-15,44.836556 0,36 L0,0 L0,0 Z" id="path-3"></path>
        <filter x="-4.4%" y="-6.7%" width="108.8%" height="113.5%" filterUnits="objectBoundingBox" id="filter-5">
            <feGaussianBlur stdDeviation="2.5" in="SourceAlpha" result="shadowBlurInner1"></feGaussianBlur>
            <feOffset dx="0" dy="-2" in="shadowBlurInner1" result="shadowOffsetInner1"></feOffset>
            <feComposite in="shadowOffsetInner1" in2="SourceAlpha" operator="arithmetic" k2="-1" k3="1" result="shadowInnerInner1"></feComposite>
            <feColorMatrix values="0 0 0 0 1   0 0 0 0 0.895092713   0 0 0 0 0.823678068  0 0 0 1 0" type="matrix" in="shadowInnerInner1"></feColorMatrix>
        </filter>
        <path d="M12.5,4 L29.5,4 C30.8807119,4 32,5.11928813 32,6.5 L32,28 L32,28 L10,28 L10,6.5 C10,5.11928813 11.1192881,4 12.5,4 Z" id="path-6"></path>
        <filter x="-18.2%" y="-8.3%" width="136.4%" height="133.3%" filterUnits="objectBoundingBox" id="filter-7">
            <feOffset dx="0" dy="2" in="SourceAlpha" result="shadowOffsetOuter1"></feOffset>
            <feGaussianBlur stdDeviation="1" in="shadowOffsetOuter1" result="shadowBlurOuter1"></feGaussianBlur>
            <feColorMatrix values="0 0 0 0 1   0 0 0 0 0.903486691   0 0 0 0 0.821267626  0 0 0 1 0" type="matrix" in="shadowBlurOuter1"></feColorMatrix>
        </filter>
        <linearGradient x1="50%" y1="0%" x2="50%" y2="91.7398158%" id="linearGradient-8">
            <stop stop-color="#37A2FE" offset="0%"></stop>
            <stop stop-color="#36A4FF" offset="100%"></stop>
        </linearGradient>
        <rect id="path-9" x="12" y="8" width="18" height="18" rx="2"></rect>
        <filter x="-22.2%" y="-22.2%" width="144.4%" height="144.4%" filterUnits="objectBoundingBox" id="filter-10">
            <feOffset dx="0" dy="0" in="SourceAlpha" result="shadowOffsetInner1"></feOffset>
            <feComposite in="shadowOffsetInner1" in2="SourceAlpha" operator="arithmetic" k2="-1" k3="1" result="shadowInnerInner1"></feComposite>
            <feColorMatrix values="0 0 0 0 1   0 0 0 0 1   0 0 0 0 1  0 0 0 0.498572716 0" type="matrix" in="shadowInnerInner1" result="shadowMatrixInner1"></feColorMatrix>
            <feGaussianBlur stdDeviation="3" in="SourceAlpha" result="shadowBlurInner2"></feGaussianBlur>
            <feOffset dx="0" dy="2" in="shadowBlurInner2" result="shadowOffsetInner2"></feOffset>
            <feComposite in="shadowOffsetInner2" in2="SourceAlpha" operator="arithmetic" k2="-1" k3="1" result="shadowInnerInner2"></feComposite>
            <feColorMatrix values="0 0 0 0 0   0 0 0 0 0.632053391   0 0 0 0 0.840358126  0 0 0 1 0" type="matrix" in="shadowInnerInner2" result="shadowMatrixInner2"></feColorMatrix>
            <feMerge>
                <feMergeNode in="shadowMatrixInner1"></feMergeNode>
                <feMergeNode in="shadowMatrixInner2"></feMergeNode>
            </feMerge>
        </filter>
        <linearGradient x1="50%" y1="0%" x2="50%" y2="91.7398158%" id="linearGradient-11">
            <stop stop-color="#6EE3F4" offset="0%"></stop>
            <stop stop-color="#17B5FF" offset="100%"></stop>
        </linearGradient>
        <linearGradient x1="50%" y1="0%" x2="50%" y2="100%" id="linearGradient-12">
            <stop stop-color="#FFF7F7" offset="0%"></stop>
            <stop stop-color="#FFF8F5" offset="100%"></stop>
        </linearGradient>
        <path d="M49,48 L69,48 C69.5522847,48 70,48.4477153 70,49 L70,52 L70,52 L48,52 L48,49 C48,48.4477153 48.4477153,48 49,48 Z" id="path-13"></path>
        <filter x="-45.5%" y="-200.0%" width="190.9%" height="600.0%" filterUnits="objectBoundingBox" id="filter-14">
            <feOffset dx="0" dy="2" in="SourceAlpha" result="shadowOffsetOuter1"></feOffset>
            <feGaussianBlur stdDeviation="3" in="shadowOffsetOuter1" result="shadowBlurOuter1"></feGaussianBlur>
            <feColorMatrix values="0 0 0 0 0.739470993   0 0 0 0 0.41692202   0 0 0 0 0  0 0 0 0.597012607 0" type="matrix" in="shadowBlurOuter1"></feColorMatrix>
        </filter>
        <filter x="-31.8%" y="-125.0%" width="163.6%" height="450.0%" filterUnits="objectBoundingBox" id="filter-15">
            <feOffset dx="0" dy="2" in="SourceAlpha" result="shadowOffsetInner1"></feOffset>
            <feComposite in="shadowOffsetInner1" in2="SourceAlpha" operator="arithmetic" k2="-1" k3="1" result="shadowInnerInner1"></feComposite>
            <feColorMatrix values="0 0 0 0 1   0 0 0 0 1   0 0 0 0 1  0 0 0 1 0" type="matrix" in="shadowInnerInner1"></feColorMatrix>
        </filter>
        <linearGradient x1="50%" y1="0%" x2="50%" y2="100%" id="linearGradient-16">
            <stop stop-color="#FFF7F7" offset="0%"></stop>
            <stop stop-color="#FFF7F3" offset="100%"></stop>
        </linearGradient>
        <path d="M9,28 L33,28 C33.5522847,28 34,28.4477153 34,29 L34,30 L34,30 L8,30 L8,29 C8,28.4477153 8.44771525,28 9,28 Z" id="path-17"></path>
        <filter x="-32.7%" y="-325.0%" width="165.4%" height="950.0%" filterUnits="objectBoundingBox" id="filter-18">
            <feOffset dx="0" dy="2" in="SourceAlpha" result="shadowOffsetOuter1"></feOffset>
            <feGaussianBlur stdDeviation="2.5" in="shadowOffsetOuter1" result="shadowBlurOuter1"></feGaussianBlur>
            <feColorMatrix values="0 0 0 0 0.969117096   0 0 0 0 0.865803389   0 0 0 0 0.778143274  0 0 0 1 0" type="matrix" in="shadowBlurOuter1"></feColorMatrix>
        </filter>
        <filter x="-23.1%" y="-200.0%" width="146.2%" height="700.0%" filterUnits="objectBoundingBox" id="filter-19">
            <feOffset dx="0" dy="2" in="SourceAlpha" result="shadowOffsetInner1"></feOffset>
            <feComposite in="shadowOffsetInner1" in2="SourceAlpha" operator="arithmetic" k2="-1" k3="1" result="shadowInnerInner1"></feComposite>
            <feColorMatrix values="0 0 0 0 1   0 0 0 0 1   0 0 0 0 1  0 0 0 1 0" type="matrix" in="shadowInnerInner1"></feColorMatrix>
        </filter>
        <filter x="-187.5%" y="-75.0%" width="475.0%" height="250.0%" filterUnits="objectBoundingBox" id="filter-20">
            <feGaussianBlur stdDeviation="10" in="SourceGraphic"></feGaussianBlur>
        </filter>
        <filter x="-115.4%" y="-214.3%" width="330.8%" height="528.6%" filterUnits="objectBoundingBox" id="filter-21">
            <feGaussianBlur stdDeviation="10" in="SourceGraphic"></feGaussianBlur>
        </filter>
        <linearGradient x1="50%" y1="0%" x2="50%" y2="100%" id="linearGradient-22">
            <stop stop-color="#FFFFFF" offset="0%"></stop>
            <stop stop-color="#FEF4EF" offset="100%"></stop>
        </linearGradient>
        <linearGradient x1="46.4498939%" y1="0%" x2="53.4345358%" y2="100%" id="linearGradient-23">
            <stop stop-color="#FF6F31" offset="0%"></stop>
            <stop stop-color="#FF4900" offset="100%"></stop>
        </linearGradient>
        <path d="M12.9899671,0 L22,0 L22,0 L17.9192992,40 L0,40 L5.08202167,6.78987652 C5.67967104,2.88434236 9.03896954,7.83121384e-15 12.9899671,0 Z" id="path-24"></path>
        <linearGradient x1="47.066028%" y1="0%" x2="52.8384593%" y2="100%" id="linearGradient-26">
            <stop stop-color="#FF6F31" offset="0%"></stop>
            <stop stop-color="#FF4900" offset="100%"></stop>
        </linearGradient>
        <path d="M70,0 L80.6788408,0 C84.7813452,1.022739e-15 88.2189407,3.103324 88.6371626,7.18445534 L92,40 L92,40 L74,40 L70,0 Z" id="path-27"></path>
        <linearGradient x1="46.8136813%" y1="0%" x2="54.1958961%" y2="100%" id="linearGradient-29">
            <stop stop-color="#FFFFFF" offset="0%"></stop>
            <stop stop-color="#FFF3EF" offset="100%"></stop>
        </linearGradient>
        <linearGradient x1="50%" y1="0%" x2="50%" y2="100%" id="linearGradient-30">
            <stop stop-color="#FF300C" offset="0%"></stop>
            <stop stop-color="#FF5010" offset="100%"></stop>
        </linearGradient>
        <linearGradient x1="50%" y1="0%" x2="50%" y2="77.3457831%" id="linearGradient-31">
            <stop stop-color="#FFDFC0" offset="0%"></stop>
            <stop stop-color="#FFFFFF" offset="100%"></stop>
        </linearGradient>
        <linearGradient x1="50%" y1="0%" x2="50%" y2="100%" id="linearGradient-32">
            <stop stop-color="#FF300C" offset="0%"></stop>
            <stop stop-color="#FF5010" offset="100%"></stop>
        </linearGradient>
    </defs>
    <g id="apps/96/deepin-app-store" stroke="none" stroke-width="1" fill="none" fill-rule="evenodd">
        <g id="编组-21" filter="url(#filter-1)" transform="translate(2.000000, 4.000000)">
            <g id="矩形-3" transform="translate(6.000000, 36.000000)">
                <mask id="mask-4" fill="white">
                    <use xlink:href="#path-3"></use>
                </mask>
                <g id="蒙版">
                    <use fill="url(#linearGradient-2)" fill-rule="evenodd" xlink:href="#path-3"></use>
                    <use fill="black" fill-opacity="1" filter="url(#filter-5)" xlink:href="#path-3"></use>
                </g>
                <g id="矩形" mask="url(#mask-4)">
                    <use fill="black" fill-opacity="1" filter="url(#filter-7)" xlink:href="#path-6"></use>
                    <use fill="#63CDFE" fill-rule="evenodd" xlink:href="#path-6"></use>
                </g>
                <g id="矩形" mask="url(#mask-4)">
                    <use fill="url(#linearGradient-8)" fill-rule="evenodd" xlink:href="#path-9"></use>
                    <use fill="black" fill-opacity="1" filter="url(#filter-10)" xlink:href="#path-9"></use>
                </g>
                <path d="M52,24 L66,24 C67.1045695,24 68,24.8954305 68,26 L68,48 L68,48 L50,48 L50,26 C50,24.8954305 50.8954305,24 52,24 Z" id="矩形" fill="url(#linearGradient-11)" mask="url(#mask-4)"></path>
                <g id="矩形" mask="url(#mask-4)">
                    <use fill="black" fill-opacity="1" filter="url(#filter-14)" xlink:href="#path-13"></use>
                    <use fill="url(#linearGradient-12)" fill-rule="evenodd" xlink:href="#path-13"></use>
                    <use fill="black" fill-opacity="1" filter="url(#filter-15)" xlink:href="#path-13"></use>
                </g>
                <g id="矩形" mask="url(#mask-4)">
                    <use fill="black" fill-opacity="1" filter="url(#filter-18)" xlink:href="#path-17"></use>
                    <use fill="url(#linearGradient-16)" fill-rule="evenodd" xlink:href="#path-17"></use>
                    <use fill="black" fill-opacity="1" filter="url(#filter-19)" xlink:href="#path-17"></use>
                </g>
                <rect id="矩形" fill="#FFD2B3" filter="url(#filter-20)" mask="url(#mask-4)" x="82" y="24" width="16" height="40" rx="4"></rect>
                <ellipse id="椭圆形" fill="#FFE4D2" filter="url(#filter-21)" mask="url(#mask-4)" cx="66.3337623" cy="57.2985936" rx="13" ry="7"></ellipse>
                <circle id="椭圆形" fill="url(#linearGradient-22)" mask="url(#mask-4)" cx="54" cy="34" r="2"></circle>
            </g>
            <g id="编组-20">
                <mask id="mask-25" fill="white">
                    <use xlink:href="#path-24"></use>
                </mask>
                <use id="矩形" fill="url(#linearGradient-23)" xlink:href="#path-24"></use>
                <polygon id="矩形备份-40" fill="url(#linearGradient-26)" points="40 0 52 0 56 40 36 40"></polygon>
                <mask id="mask-28" fill="white">
                    <use xlink:href="#path-27"></use>
                </mask>
                <use id="矩形备份-55" fill="url(#linearGradient-23)" xlink:href="#path-27"></use>
                <polygon id="矩形备份-19" fill="url(#linearGradient-29)" points="22.0990785 0 40 0 36 40 18 40"></polygon>
                <polygon id="矩形备份-47" fill="url(#linearGradient-29)" points="52 0 70 0 74 40 56 40"></polygon>
            </g>
            <g id="编组" transform="translate(0.000000, 40.000000)">
                <path d="M74,0 L92,0 L92,1 C92,5.97056275 87.9705627,10 83,10 C78.0294373,10 74,5.97056275 74,1 L74,0 L74,0 Z" id="矩形" fill="url(#linearGradient-30)"></path>
                <path d="M0,0 L18,0 L18,1 C18,5.97056275 13.9705627,10 9,10 C4.02943725,10 6.08718376e-16,5.97056275 0,1 L0,0 L0,0 Z" id="矩形备份-8" fill="url(#linearGradient-30)"></path>
                <path d="M56,0 L74,0 L74,1 C74,5.97056275 69.9705627,10 65,10 C60.0294373,10 56,5.97056275 56,1 L56,0 L56,0 Z" id="矩形备份-5" fill="url(#linearGradient-31)"></path>
                <path d="M18,0 L36,0 L36,1 C36,5.97056275 31.9705627,10 27,10 C22.0294373,10 18,5.97056275 18,1 L18,0 L18,0 Z" id="矩形备份-7" fill="url(#linearGradient-31)"></path>
                <path d="M36,0 L56,0 C56,5.5228475 51.5228475,10 46,10 C40.4771525,10 36,5.5228475 36,0 L36,0 L36,0 Z" id="矩形备份-6" fill="url(#linearGradient-32)"></path>
            </g>
        </g>
    </g>
</svg>