<?xml version="1.0" encoding="UTF-8"?>
<svg width="14px" height="14px" viewBox="0 0 14 14" version="1.1" xmlns="http://www.w3.org/2000/svg" xmlns:xlink="http://www.w3.org/1999/xlink">
    <!-- Generator: Sketch 58 (84663) - https://sketch.com -->
    <title>icon_details</title>
    <desc>Created with Sketch.</desc>
    <g id="病毒查杀" stroke="none" stroke-width="1" fill="none" fill-rule="evenodd">
        <g id="icon_details">
            <rect id="矩形" fill="#FF6969" opacity="0" x="0" y="0" width="14" height="14"></rect>
            <path d="M7.36583242,7.36888626 C8.37417811,6.35670562 9.98700511,6.28903355 11.0759834,7.21321329 C12.1649617,8.13739302 12.3667384,9.74505901 11.5401509,10.9114919 L11.5401509,10.9114919 L13.281954,12.6599194 C13.4601032,12.8387461 13.4601031,13.1286815 13.281954,13.3075082 C13.1038048,13.4863349 12.814968,13.4863349 12.6368188,13.3075082 L12.6368188,13.3075082 L10.8950157,11.5590806 C9.7330023,12.3888118 8.13142745,12.1862677 7.21074926,11.0931478 C6.29007107,10.0000279 6.35748674,8.38106691 7.36583242,7.36888626 Z M10.9150803,6.50391485e-07 C11.5012697,-0.000265580826 12.063527,0.232460302 12.4780256,0.646925451 C12.8925241,1.0613906 13.1252687,1.62360257 13.1250021,2.20974474 L13.1250021,2.20974474 L13.1250021,2.2112794 L13.1055789,7.97041366 C13.1024711,8.22762308 12.8928492,8.4343841 12.6356006,8.43397794 C12.378352,8.43357178 12.1693842,8.22614987 12.1670887,7.96893192 L12.1670887,7.96893192 L12.1670887,7.96739727 L12.186882,2.20921556 C12.1867233,1.86931609 12.0554204,1.5498434 11.8151482,1.30959062 C11.5769601,1.07009713 11.2528661,0.935816746 10.9150803,0.936669621 L10.9150803,0.936669621 L2.20860252,0.936669621 C1.87108653,0.936767801 1.54744185,1.07096874 1.3089061,1.3097334 C1.07037034,1.54849806 0.936495168,1.87225602 0.936747909,2.20974474 L0.936747909,2.20974474 L0.936747909,10.9155211 C0.936509203,11.2529812 1.07039733,11.5767038 1.30893765,11.8154234 C1.54747797,12.054143 1.87111517,12.1882896 2.20860252,12.1883316 L2.20860252,12.1883316 L7.96830666,12.1883316 C8.22698132,12.1883316 8.43667856,12.398012 8.43667856,12.6566658 C8.43667856,12.9153196 8.22698132,13.1250007 7.96830666,13.1250007 L7.96830666,13.1250007 L2.20865545,13.1250007 C1.62256821,13.1254642 1.06036683,12.8927974 0.646034761,12.4783101 C0.231702692,12.0638228 -0.000726916426,11.5015609 2.05497884e-06,10.9155211 L2.05497884e-06,10.9155211 L2.05497884e-06,2.20974474 C-0.000797229266,1.62366835 0.231594064,1.06134641 0.645922312,0.646803355 C1.06025056,0.232260301 1.62247853,-0.000448992206 2.20860252,6.50391485e-07 L2.20860252,6.50391485e-07 Z M10.8264273,8.29917756 C10.3422513,7.57177138 9.41361238,7.28898037 8.60842752,7.62374776 C7.80324266,7.95851514 7.34576628,8.81760386 7.51577192,9.67563096 C7.68577755,10.5336581 8.43591644,11.1516797 9.3074348,11.1516797 C9.79223183,11.152994 10.2573592,10.9596028 10.5991999,10.6146027 C11.215467,9.99601301 11.3106032,9.02658373 10.8264273,8.29917756 Z M4.66262256,8.12593501 C4.8718451,8.12418436 5.06613398,8.21099216 5.1713929,8.35325236 C5.27665182,8.49551257 5.27665182,8.67129129 5.1713929,8.81355149 C5.06613398,8.95581169 4.8718451,9.04261949 4.66262256,9.04086885 L4.66262256,9.04086885 L2.33222857,9.04061015 C2.01085878,9.04061015 1.75033709,8.83565624 1.75033709,8.58283277 C1.75033709,8.33000931 2.01085878,8.1250554 2.33222857,8.1250554 L2.33222857,8.1250554 Z M7.11021211,5.37761507 C7.38358334,5.37761507 7.63618878,5.46489159 7.7728744,5.60656843 C7.90956002,5.74824526 7.90956002,5.92279832 7.7728744,6.06447516 C7.63618878,6.206152 7.38358334,6.29342852 7.11021211,6.29342852 L7.11021211,6.29342852 L2.51483022,6.29254893 C2.24172154,6.29254893 1.98935871,6.20535623 1.85280437,6.06381547 C1.71625003,5.92227471 1.71625003,5.74788929 1.85280437,5.60634853 C1.98935871,5.46480777 2.24172154,5.37761507 2.51483022,5.37761507 L2.51483022,5.37761507 Z M2.23570764,2.62500065 L10.0143513,2.62738074 C10.2826145,2.62743248 10.5000021,2.83398204 10.5000021,3.08683968 C10.5000021,3.33969732 10.2825047,3.54598818 10.0142965,3.54598818 L10.0142965,3.54598818 L2.23565277,3.5433494 C1.96738962,3.54334939 1.75000205,3.33659286 1.75000205,3.08368348 C1.75000205,2.83065095 1.96731419,2.6254003 2.23570764,2.62500065 L2.23570764,2.62500065 Z" fill="#536076"></path>
        </g>
    </g>
</svg>