<?xml version="1.0" encoding="UTF-8"?>
<svg width="12px" height="12px" viewBox="0 0 12 12" version="1.1" xmlns="http://www.w3.org/2000/svg" xmlns:xlink="http://www.w3.org/1999/xlink">
    <!-- Generator: Sketch 58 (84663) - https://sketch.com -->
    <title>Icon_调节</title>
    <desc>Created with Sketch.</desc>
    <g id="高保真" stroke="none" stroke-width="1" fill="none" fill-rule="evenodd">
        <g id="网络防护_流量详情-20" transform="translate(-933.000000, -642.000000)">
            <g id="高保真1备份-19" transform="translate(65.000000, 45.000000)">
                <g id="编组-8" transform="translate(210.000000, 60.000000)">
                    <g id="编组-4">
                        <g id="编组-10" transform="translate(0.000000, 99.000000)">
                            <g id="编组-7备份-5" transform="translate(10.000000, 420.000000)">
                                <g id="编组-6" transform="translate(222.000000, 12.000000)">
                                    <g id="Icon_调节" transform="translate(420.000000, 0.000000)">
                                        <g id="编组-4">
                                            <rect id="矩形" fill="#FF6969" opacity="0" x="0" y="0" width="24" height="24"></rect>
                                            <path d="M17.9961091,10.5455031 C17.8438279,9.917192 17.5949781,9.32659674 17.2661307,8.78971792 C17.2281318,8.72771542 17.1501341,8.70771461 17.0829932,8.73543002 C16.5764367,8.94258124 15.9755973,8.84572018 15.5641809,8.43456073 C15.1530502,8.02340128 15.0561959,7.4228056 15.263047,6.91621373 C15.2904747,6.84906816 15.2704753,6.77106501 15.2087629,6.73306348 C14.6716359,6.40447879 14.0807962,6.15589732 13.452529,6.00389119 C13.381674,5.98674764 13.3119618,6.02789216 13.2839626,6.09503772 C13.072826,6.60077242 12.5788406,6.95821542 11.9962863,6.95821542 C11.4148749,6.95821542 10.921461,6.60191533 10.7097529,6.0970378 C10.681468,6.02989224 10.6117558,5.98874772 10.5409008,6.00589127 C9.91234791,6.15932603 9.32122252,6.40876467 8.78438123,6.73820654 C8.72295448,6.77592235 8.70352648,6.8527826 8.73066853,6.91935671 C8.93751957,7.42566286 8.84037958,8.02625853 8.42924887,8.43741799 C8.01897528,8.84800599 7.41956441,8.94543849 6.91357936,8.74000163 C6.8470099,8.71285768 6.77015503,8.73257276 6.73244186,8.79400381 C6.40416584,9.33145407 6.15560176,9.92262079 6.00389195,10.5509319 C5.9867496,10.6215061 6.02789124,10.6912232 6.09474641,10.7195101 C6.59816011,10.9315187 6.95329247,11.4243957 6.95329247,12.005562 C6.95329247,12.5855854 6.59901723,13.077891 6.09703206,13.2907567 C6.03017689,13.3190436 5.98932095,13.3887607 6.0064633,13.459335 C6.15931593,14.0879318 6.40902284,14.6788128 6.73844168,15.2156916 C6.77586914,15.2768369 6.85272402,15.296552 6.91929348,15.2696938 C7.42470712,15.0651141 8.02297516,15.163118 8.43296304,15.5728489 C8.84237952,15.9820082 8.94037663,16.5797466 8.73638265,17.0851956 C8.7095263,17.1517697 8.72924001,17.2283443 8.79038106,17.2657743 C9.32779375,17.5949305 9.91891914,17.8437977 10.547472,17.9960895 C10.6180413,18.0132331 10.6877536,17.9723743 10.7160385,17.9055144 C10.9286036,17.4032085 11.4211605,17.0489084 12.0008576,17.0489084 C12.5808405,17.0489084 13.0731117,17.4032085 13.2856768,17.9055144 C13.3139617,17.9723743 13.3836739,18.0132331 13.4542433,17.9960895 C14.0827961,17.8437977 14.6736358,17.5949305 15.2110485,17.2660601 C15.2724753,17.22863 15.2919033,17.1517697 15.2650469,17.0851956 C15.0596244,16.5794609 15.1570501,15.9800082 15.5673237,15.5697059 C15.977883,15.1594036 16.5775796,15.0622568 17.0832789,15.2679794 C17.1498484,15.2951234 17.2267032,15.2754083 17.2641307,15.214263 C17.5935495,14.6770984 17.8429708,14.0859317 17.9955377,13.4573349 C18.01268,13.3864749 17.9715384,13.3167578 17.9043975,13.2887567 C17.399841,13.0770338 17.0435658,12.5832996 17.0435658,12.0018476 C17.0435658,11.4198241 17.4001267,10.9263756 17.9049689,10.7149385 C17.9721098,10.6860802 18.0132514,10.6163631 17.9961091,10.5455031 L17.9961091,10.5455031 L17.9961091,10.5455031 Z M12,13.8 C12.9941125,13.8 13.8,12.9941125 13.8,12 C13.8,11.0058875 12.9941125,10.2 12,10.2 C11.0058875,10.2 10.2,11.0058875 10.2,12 C10.2,12.9941125 11.0058875,13.8 12,13.8 Z" id="path13637" fill="#9B9B9B"></path>
                                        </g>
                                    </g>
                                </g>
                            </g>
                        </g>
                    </g>
                </g>
            </g>
        </g>
    </g>
</svg>