<svg xmlns="http://www.w3.org/2000/svg" width="10" height="16" viewBox="0 0 10 16">
  <path fill="#536076" fill-rule="evenodd" d="M13.5714286,2.85714286 C13.9659177,2.85714286 14.2857143,3.17693946 14.2857143,3.57142857 L14.2857143,16.4285714 C14.2857143,16.8230605 13.9659177,17.1428571 13.5714286,17.1428571 C13.1769395,17.1428571 12.8571429,16.8230605 12.8571429,16.4285714 L12.8571429,3.57142857 C12.8571429,3.17693946 13.1769395,2.85714286 13.5714286,2.85714286 Z M6.42857143,2.85714286 C6.82306054,2.85714286 7.14285714,3.17693946 7.14285714,3.57142857 L7.14285714,16.4285714 C7.14285714,16.8230605 6.82306054,17.1428571 6.42857143,17.1428571 C6.03408232,17.1428571 5.71428571,16.8230605 5.71428571,16.4285714 L5.71428571,3.57142857 C5.71428571,3.17693946 6.03408232,2.85714286 6.42857143,2.85714286 Z" transform="translate(-5 -2)"/>
</svg>
