<?xml version="1.0" encoding="UTF-8"?>
<svg width="30px" height="20px" viewBox="0 0 30 20" version="1.1" xmlns="http://www.w3.org/2000/svg" xmlns:xlink="http://www.w3.org/1999/xlink">
    <!-- Generator: Sketch 64 (93537) - https://sketch.com -->
    <title>Down</title>
    <desc>Created with Sketch.</desc>
    <g id="页面-1" stroke="none" stroke-width="1" fill="none" fill-rule="evenodd">
        <g id="Down">
            <g id="g8">
                <path d="M25.667,19.5 L4.333,19.5 C2.225,19.5 0.5,17.775 0.5,15.667 L0.5,4.333 C0.5,2.225 2.225,0.5 4.333,0.5 L25.667,0.5 C27.775,0.5 29.5,2.225 29.5,4.333 L29.5,15.667 C29.5,17.775 27.775,19.5 25.667,19.5 Z" id="path2" fill="#FFFFFF" fill-rule="nonzero"></path>
                <g id="g6" stroke="#CBCBCB">
                    <path d="M25.5,19.5 L4.5,19.5 C2.291,19.5 0.5,17.709 0.5,15.5 L0.5,4.5 C0.5,2.291 2.291,0.5 4.5,0.5 L25.5,0.5 C27.709,0.5 29.5,2.291 29.5,4.5 L29.5,15.5 C29.5,17.709 27.709,19.5 25.5,19.5 Z" id="path4"></path>
                </g>
            </g>
            <g id="g26" transform="translate(6.000000, 3.000000)" fill="#000000" fill-rule="nonzero">
                <path d="M2,0 L1,0 L0,0 L0,6 L1,6 L1,4 L2,4 C3.104,4 4,3.105 4,2 L4,2 C4,0.895 3.105,0 2,0 Z M2,3 L1,3 L1,1 L2,1 C2.552,1 3,1.448 3,2 C3,2.552 2.552,3 2,3 Z" id="path10"></path>
                <path d="M4.472,2.361 C4.965,2.117 5.533,1.996 6.178,1.996 C7.372,1.996 7.969,2.492 7.969,3.485 L7.969,6.01 L7.031,6 L7.031,5.394 C7.031,5.394 6.672,6.102 5.56,6.102 C5.08,6.102 4.697,5.999 4.414,5.794 C4.13,5.587 3.988,5.31 3.988,4.96 C3.988,4.227 4.535,3.801 5.631,3.68 L7.031,3.508 C7.031,2.867 6.765,2.763 6.097,2.763 C5.503,2.763 4.961,2.922 4.472,3.238 L4.472,2.361 Z M5.94,4.166 C5.534,4.209 5.254,4.289 5.1,4.407 C4.948,4.525 4.87,4.69 4.87,4.903 C4.87,5.09 4.954,5.243 5.121,5.36 C5.288,5.478 5.509,5.537 5.784,5.537 C6.166,5.537 6.481,5.431 6.729,5.218 C6.976,5.005 7.032,4.729 7.032,4.407 L7.032,4.032 L5.94,4.166 Z" id="path12"></path>
                <path d="M13.02,5.775 C13.02,7.265 12.244,8.01 10.692,8.01 C10.156,8.01 9.689,7.916 9.294,7.73 L9.325,6.802 C9.806,7.052 10.074,7.198 10.516,7.198 C11.566,7.198 12.059,6.923 12.059,5.894 L12.08,5.655 C11.605,6.078 11.343,6.163 10.77,6.207 C10.23,6.249 9.794,6.026 9.469,5.665 C9.144,5.304 8.98,4.825 8.98,4.228 C8.98,3.541 9.134,2.972 9.519,2.595 C9.787,2.332 10.187,1.984 10.957,1.993 C11.516,1.999 11.78,2.181 12.062,2.406 L12.071,2.093 L13.019,2.087 L13.019,5.775 L13.02,5.775 Z M12.07,3.688 C12.073,3.378 11.961,3.11 11.734,2.887 C11.507,2.664 10.828,2.39 10.109,3.01 C9.831,3.25 9.761,3.686 9.761,4.184 C9.761,4.611 9.839,4.989 10.097,5.221 C10.718,5.781 11.481,5.461 11.718,5.209 C11.955,4.957 12.072,4.637 12.07,4.248 L12.07,3.688 Z" id="path14"></path>
                <path d="M18,4.313 L14.862,4.313 C14.862,4.313 14.86,5.313 16.188,5.334 C16.691,5.342 17.254,5.164 17.672,4.891 L17.68,5.632 C17.286,5.869 16.763,5.987 16.111,5.987 C15.462,5.987 14.956,5.812 14.593,5.463 C14.229,5.114 14.048,4.629 14.048,4.008 C14.048,3.425 14.248,2.943 14.646,2.563 C15.044,2.184 15.54,1.994 16.132,1.994 C17.5,1.994 18,3.245 18,3.821 L18,4.313 Z M17.205,3.621 C17.202,3.277 16.766,2.7 16.109,2.7 C15.562,2.7 14.861,3.172 14.861,3.621 L17.205,3.621 Z" id="path16"></path>
                <path d="M1.391,8 L0.747,8 L0.725,8 L0,8 L0,14 L0.725,14 L0.747,14 L1.391,14 C2.856,14 4,12.755 4,11.29 L4,10.624 C4,9.158 2.856,8 1.391,8 Z M3,11.29 C3,12.233 2.278,13 1.391,13 L1,13 L1,9 L1.391,9 C2.293,9 3,9.713 3,10.624 L3,11.29 Z" id="path18"></path>
                <path d="M14.281,10 L13.088,14 L12.35,14 L11.554,11.193 C11.52,11.072 11.439,11.036 11.392,11.186 L10.53,14 L9.815,14 L8.614,10 L9.484,10 L10.234,12.738 C10.258,12.827 11,10 11,10 L11.922,10 C11.922,10 12.668,12.907 12.706,12.767 L13.5,10 L14.281,10 Z" id="path20"></path>
                <path d="M18,14 L17.234,14 L17.234,11.896 C17.234,11.351 17.108,10.86 16.575,10.86 C16.14,10.86 15.889,11.403 15.889,11.753 L15.889,14 L15,14 L15,10.059 L15.89,10.059 L15.903,10.712 C16.024,10.422 16.298,10.104 16.807,10.104 C17.197,10.104 17.493,10.242 17.695,10.519 C17.898,10.796 18,11.2 18,11.729 L18,14 Z" id="path22"></path>
                <path d="M6.49,10 C5.391,10 4.5,10.895 4.5,12 C4.5,13.105 5.391,14 6.49,14 C7.589,14 8.48,13.105 8.48,12 C8.48,10.895 7.589,10 6.49,10 Z M6.49,13.262 C5.801,13.262 5.24,12.696 5.24,12 C5.24,11.304 5.801,10.738 6.49,10.738 C7.179,10.738 7.74,11.304 7.74,12 C7.74,12.696 7.179,13.262 6.49,13.262 Z" id="path24"></path>
            </g>
        </g>
    </g>
</svg>