<?xml version="1.0" encoding="UTF-8"?>
<svg width="30px" height="20px" viewBox="0 0 30 20" version="1.1" xmlns="http://www.w3.org/2000/svg" xmlns:xlink="http://www.w3.org/1999/xlink">
    <!-- Generator: Sketch 64 (93537) - https://sketch.com -->
    <title>Up</title>
    <desc>Created with Sketch.</desc>
    <g id="页面-1" stroke="none" stroke-width="1" fill="none" fill-rule="evenodd">
        <g id="Up">
            <g id="g8">
                <path d="M25.667,19.5 L4.333,19.5 C2.225,19.5 0.5,17.775 0.5,15.667 L0.5,4.333 C0.5,2.225 2.225,0.5 4.333,0.5 L25.667,0.5 C27.775,0.5 29.5,2.225 29.5,4.333 L29.5,15.667 C29.5,17.775 27.775,19.5 25.667,19.5 Z" id="path2" fill="#FFFFFF" fill-rule="nonzero"></path>
                <g id="g6" stroke="#CBCBCB">
                    <path d="M25.5,19.5 L4.5,19.5 C2.291,19.5 0.5,17.709 0.5,15.5 L0.5,4.5 C0.5,2.291 2.291,0.5 4.5,0.5 L25.5,0.5 C27.709,0.5 29.5,2.291 29.5,4.5 L29.5,15.5 C29.5,17.709 27.709,19.5 25.5,19.5 Z" id="path4"></path>
                </g>
            </g>
            <g id="g22" transform="translate(6.000000, 3.000000)" fill="#000000" fill-rule="nonzero">
                <path d="M2,0 L1,0 L0,0 L0,6 L1,6 L1,4 L2,4 C3.104,4 4,3.105 4,2 L4,2 C4,0.895 3.105,0 2,0 Z M2,3 L1,3 L1,1 L2,1 C2.552,1 3,1.448 3,2 C3,2.552 2.552,3 2,3 Z" id="path10"></path>
                <path d="M4.472,2.361 C4.965,2.117 5.533,1.996 6.178,1.996 C7.372,1.996 7.969,2.492 7.969,3.485 L7.969,6.01 L7.031,6 L7.031,5.394 C7.031,5.394 6.672,6.102 5.56,6.102 C5.08,6.102 4.697,5.999 4.414,5.794 C4.13,5.587 3.988,5.31 3.988,4.96 C3.988,4.227 4.535,3.801 5.631,3.68 L7.031,3.508 C7.031,2.867 6.765,2.763 6.097,2.763 C5.503,2.763 4.961,2.922 4.472,3.238 L4.472,2.361 Z M5.94,4.166 C5.534,4.209 5.254,4.289 5.1,4.407 C4.948,4.525 4.87,4.69 4.87,4.903 C4.87,5.09 4.954,5.243 5.121,5.36 C5.288,5.478 5.509,5.537 5.784,5.537 C6.166,5.537 6.481,5.431 6.729,5.218 C6.976,5.005 7.032,4.729 7.032,4.407 L7.032,4.032 L5.94,4.166 Z" id="path12"></path>
                <path d="M13.02,5.775 C13.02,7.265 12.244,8.01 10.692,8.01 C10.156,8.01 9.689,7.916 9.294,7.73 L9.325,6.802 C9.806,7.052 10.074,7.198 10.516,7.198 C11.566,7.198 12.059,6.923 12.059,5.894 L12.08,5.655 C11.605,6.078 11.343,6.163 10.77,6.207 C10.23,6.249 9.794,6.026 9.469,5.665 C9.144,5.304 8.981,4.824 8.981,4.227 C8.981,3.54 9.135,2.971 9.52,2.594 C9.788,2.331 10.188,1.983 10.958,1.992 C11.517,1.998 11.781,2.18 12.063,2.405 L12.072,2.092 L13.02,2.086 L13.02,5.775 Z M12.07,3.688 C12.073,3.378 11.961,3.11 11.734,2.887 C11.507,2.664 10.828,2.39 10.109,3.01 C9.831,3.25 9.761,3.686 9.761,4.184 C9.761,4.611 9.839,4.989 10.097,5.221 C10.718,5.781 11.481,5.461 11.718,5.209 C11.955,4.957 12.072,4.637 12.07,4.248 L12.07,3.688 Z" id="path14"></path>
                <path d="M18,4.313 L14.862,4.313 C14.862,4.313 14.86,5.313 16.188,5.334 C16.691,5.342 17.254,5.164 17.672,4.891 L17.68,5.632 C17.286,5.869 16.763,5.987 16.111,5.987 C15.462,5.987 14.956,5.812 14.593,5.463 C14.229,5.114 14.048,4.629 14.048,4.008 C14.048,3.425 14.248,2.943 14.646,2.563 C15.044,2.184 15.54,1.994 16.132,1.994 C17.5,1.994 18,3.245 18,3.821 L18,4.313 Z M17.205,3.621 C17.202,3.277 16.766,2.7 16.109,2.7 C15.562,2.7 14.861,3.172 14.861,3.621 L17.205,3.621 Z" id="path16"></path>
                <path d="M3,8 L3,11.005 C3,11.563 2.725,12.016 2,12.016 C1.275,12.016 1,11.563 1,11.005 L1,8 L0,8 L0,11.005 C0,12.171 0.778,13 2,13 C3.184,13 4,12.171 4,11.005 L4,8 L3,8 Z" id="path18"></path>
                <path d="M7.24,8.98 C6.754,8.98 6.316,9.21 6,9.579 L6,9 L5,9 L5,15 L6,15 L6,12.381 C6.316,12.75 6.754,12.98 7.24,12.98 C8.201,12.98 8.98,12.085 8.98,10.98 C8.98,9.875 8.201,8.98 7.24,8.98 Z M7.075,12.25 C6.482,12.25 6,11.681 6,10.979 C6,10.277 6.481,9.708 7.075,9.708 C7.669,9.708 8.15,10.277 8.15,10.979 C8.149,11.681 7.668,12.25 7.075,12.25 L7.075,12.25 Z" id="path20"></path>
            </g>
        </g>
    </g>
</svg>