<?xml version="1.0" encoding="UTF-8"?>
<svg width="22px" height="22px" viewBox="0 0 22 22" version="1.1" xmlns="http://www.w3.org/2000/svg" xmlns:xlink="http://www.w3.org/1999/xlink">
    <!-- Generator: Sketch 48.2 (47327) - http://www.bohemiancoding.com/sketch -->
    <title>工具栏</title>
    <desc>Created with Sketch.</desc>
    <defs></defs>
    <g id="图标两倍" stroke="none" stroke-width="1" fill="none" fill-rule="evenodd" transform="translate(-191.000000, -11.000000)">
        <g id="工具栏" transform="translate(21.000000, 11.000000)">
            <circle id="Oval-3" fill="#F34343" cx="181" cy="11" r="4"></circle>
            <rect id="占位" fill="#000000" opacity="0" x="170" y="0" width="22" height="22"></rect>
            <g id="Group-8" transform="translate(173.000000, 3.000000)"></g>
            <g id="Group-4" transform="translate(173.000000, 3.000000)">
                <g id="Group-2">
                    <path d="M8.98471629,1.93786063 C8.35008096,2.09986073 7.68509737,2.18597803 7,2.18597803 L7,0.185978032 C7.50905233,0.185978032 8.00807418,0.123031124 8.49004855,0 L8.98471629,1.93786063 Z" id="Path" fill="#1A96F1" transform="translate(7.992358, 1.092989) rotate(180.000000) translate(-7.992358, -1.092989) "></path>
                    <path d="M13.0445555,3.25698235 C12.4099202,3.41898245 11.7449366,3.50509975 11.0598392,3.50509975 L11.0598392,1.50509975 C11.5688915,1.50509975 12.0679134,1.44215284 12.5498877,1.31912172 L13.0445555,3.25698235 Z" id="Path" fill="#3945FF" transform="translate(12.052197, 2.412111) rotate(216.000000) translate(-12.052197, -2.412111) "></path>
                    <path d="M15.5536741,6.71048784 C14.9190388,6.87248794 14.2540552,6.95860524 13.5689578,6.95860524 L13.5689578,4.95860524 C14.0780101,4.95860524 14.577032,4.89565833 15.0590064,4.77262721 L15.5536741,6.71048784 Z" id="Path" fill="#7C07F0" transform="translate(14.561316, 5.865616) rotate(252.000000) translate(-14.561316, -5.865616) "></path>
                    <path d="M15.5536741,10.9792554 C14.9190388,11.1412555 14.2540552,11.2273728 13.5689578,11.2273728 L13.5689578,9.22737279 C14.0780101,9.22737279 14.577032,9.16442588 15.0590064,9.04139476 L15.5536741,10.9792554 Z" id="Path" fill="#FF4227" transform="translate(14.561316, 10.134384) rotate(288.000000) translate(-14.561316, -10.134384) "></path>
                    <path d="M13.0445555,14.4327609 C12.4099202,14.594761 11.7449366,14.6808783 11.0598392,14.6808783 L11.0598392,12.6808783 C11.5688915,12.6808783 12.0679134,12.6179314 12.5498877,12.4949003 L13.0445555,14.4327609 Z" id="Path" fill="#FFA00A" transform="translate(12.052197, 13.587889) rotate(324.000000) translate(-12.052197, -13.587889) "></path>
                    <path d="M8.98471629,15.7518826 C8.35008096,15.9138827 7.68509737,16 7,16 L7,14 C7.50905233,14 8.00807418,13.9370531 8.49004855,13.814022 L8.98471629,15.7518826 Z" id="Path" fill="#D4D400" transform="translate(7.992358, 14.907011) rotate(360.000000) translate(-7.992358, -14.907011) "></path>
                    <path d="M4.92487709,14.4327609 C4.29024177,14.594761 3.62525817,14.6808783 2.94016081,14.6808783 L2.94016081,12.6808783 C3.44921314,12.6808783 3.94823498,12.6179314 4.43020936,12.4949003 L4.92487709,14.4327609 Z" id="Path" fill="#8AF400" transform="translate(3.932519, 13.587889) rotate(396.000000) translate(-3.932519, -13.587889) "></path>
                    <path d="M2.41575848,10.9792554 C1.78112316,11.1412555 1.11613956,11.2273728 0.431042196,11.2273728 L0.431042196,9.22737279 C0.94009453,9.22737279 1.43911637,9.16442588 1.92109075,9.04139476 L2.41575848,10.9792554 Z" id="Path" fill="#45FF24" transform="translate(1.423400, 10.134384) rotate(432.000000) translate(-1.423400, -10.134384) "></path>
                    <path d="M2.41575848,6.71048784 C1.78112316,6.87248794 1.11613956,6.95860524 0.431042196,6.95860524 L0.431042196,4.95860524 C0.94009453,4.95860524 1.43911637,4.89565833 1.92109075,4.77262721 L2.41575848,6.71048784 Z" id="Path" fill="#0DFF53" transform="translate(1.423400, 5.865616) rotate(468.000000) translate(-1.423400, -5.865616) "></path>
                    <path d="M4.92487709,3.25698235 C4.29024177,3.41898245 3.62525817,3.50509975 2.94016081,3.50509975 L2.94016081,1.50509975 C3.44921314,1.50509975 3.94823498,1.44215284 4.43020936,1.31912172 L4.92487709,3.25698235 Z" id="Path" fill="#0CD19E" transform="translate(3.932519, 2.412111) rotate(504.000000) translate(-3.932519, -2.412111) "></path>
                </g>
            </g>
        </g>
    </g>
</svg>