<?xml version="1.0" encoding="UTF-8"?>
<svg width="36px" height="36px" viewBox="0 0 36 36" version="1.1" xmlns="http://www.w3.org/2000/svg" xmlns:xlink="http://www.w3.org/1999/xlink">
    <!-- Generator: Sketch 58 (84663) - https://sketch.com -->
    <title>comments_normal</title>
    <desc>Created with Sketch.</desc>
    <g id="light" stroke="none" stroke-width="1" fill="none" fill-rule="evenodd">
        <g id="按钮规范new备份" transform="translate(-726.000000, -51.000000)">
            <g id="批注备份-2" transform="translate(726.000000, 51.000000)">
                <rect id="Rectangle-6" fill-opacity="0" fill="#D8D8D8" x="6" y="6" width="24" height="24"></rect>
                <path d="M18,12.5 C18,14.9852814 20.0147186,17 22.5,17 C22.6692473,17 22.8363124,16.9906566 23.0007074,16.9724574 L23,26 L11,26 L11,12 L18.0274316,12.000297 C18.0093054,12.1643682 18,12.3310974 18,12.5 Z M20,22 L13,22 L13,23 L20,23 L20,22 Z M17,19 L13,19 L13,20 L17,20 L17,19 Z M15,16 L13,16 L13,17 L15,17 L15,16 Z M22.5,16 C24.4329966,16 26,14.4329966 26,12.5 C26,10.5670034 24.4329966,9 22.5,9 C20.5670034,9 19,10.5670034 19,12.5 C19,14.4329966 20.5670034,16 22.5,16 Z" id="批注" fill="#536076" fill-rule="nonzero"></path>
            </g>
        </g>
    </g>
</svg>