<?xml version="1.0" encoding="UTF-8"?>
<svg width="24px" height="24px" viewBox="0 0 24 24" version="1.1" xmlns="http://www.w3.org/2000/svg" xmlns:xlink="http://www.w3.org/1999/xlink">
    <title>icon/24/下载</title>
    <g id="icon/24/下载" stroke="none" stroke-width="1" fill="none" fill-rule="evenodd">
        <g id="编组备份" transform="translate(12.000000, 12.000000) scale(1, -1) translate(-12.000000, -12.000000) translate(2.000000, 2.000000)">
            <path d="M10,0.5 C15.2467051,0.5 19.5,4.75329488 19.5,10 C19.5,15.2467051 15.2467051,19.5 10,19.5 C4.75329488,19.5 0.5,15.2467051 0.5,10 C0.5,4.75329488 4.75329488,0.5 10,0.5 Z M10,1.5 C5.30557963,1.5 1.5,5.30557963 1.5,10 C1.5,14.6944204 5.30557963,18.5 10,18.5 C14.6944204,18.5 18.5,14.6944204 18.5,10 C18.5,5.30557963 14.6944204,1.5 10,1.5 Z M9.71753594,5.0343882 C9.91148995,4.90131487 10.1783241,4.92032534 10.3514552,5.09141963 L10.3514552,5.09141963 L14.3514552,9.0443608 L14.4097194,9.11326514 C14.5458661,9.30733109 14.5281755,9.57686489 14.3556392,9.75145521 C14.1615358,9.94786931 13.8449589,9.94974255 13.6485448,9.7556392 L13.6485448,9.7556392 L10.5,6.645 L10.5,14.692549 L10.4919443,14.7824247 C10.4496084,15.0156739 10.2454599,15.192549 10,15.192549 C9.72385763,15.192549 9.5,14.9686914 9.5,14.692549 L9.5,14.692549 L9.5,6.643 L6.35145521,9.7556392 L6.2818662,9.81308389 C6.08620269,9.94692453 5.81689712,9.92604552 5.6443608,9.75145521 C5.45025745,9.5550411 5.45213069,9.23846415 5.64854479,9.0443608 L5.64854479,9.0443608 L9.64854479,5.09141963 Z" id="形状结合" fill-opacity="0.85" fill="#000000"></path>
            <g id="编组-2" transform="translate(10.000000, 10.000000) scale(1, -1) translate(-10.000000, -10.000000) translate(6.000000, 5.000000)"></g>
        </g>
    </g>
</svg>