<?xml version="1.0" encoding="UTF-8"?>
<svg width="24px" height="24px" viewBox="0 0 24 24" version="1.1" xmlns="http://www.w3.org/2000/svg" xmlns:xlink="http://www.w3.org/1999/xlink">
    <!-- Generator: Sketch 44.1 (41455) - http://www.bohemiancoding.com/sketch -->
    <title>screen_share</title>
    <desc>Created with Sketch.</desc>
    <defs></defs>
    <g id="Page-1" stroke="none" stroke-width="1" fill="none" fill-rule="evenodd">
        <g id="Group-4" fill="#000000">
            <path d="M21.5,17.5 L21.5,9.5 L17.5,9.5 L17.5,17.5 L21.5,17.5 Z M22.5175439,7.5 C22.7982456,7.5 23.0321637,7.59375 23.2192982,7.78125 C23.4064327,7.96875 23.5,8.203125 23.5,8.484375 L23.5,18.46875 C23.5,18.7500015 23.4064327,18.9921864 23.2192982,19.1953125 C23.0321637,19.3984385 22.7982456,19.5 22.5175439,19.5 L16.5292398,19.5 C16.248538,19.5 16.0068231,19.3984385 15.8040951,19.1953125 C15.601364,18.9921864 15.5,18.7500015 15.5,18.46875 L15.5,8.484375 C15.5,8.203125 15.601364,7.96875 15.8040951,7.78125 C16.0068231,7.59375 16.248538,7.5 16.5292398,7.5 L22.5175439,7.5 Z M4.53097588,6.03919956 L4.53097588,17 L13.5,17 L13.5,19.5 L0.5,19.5 L0.5,17 L2.53919956,17 L2.53919956,6.03919956 C2.53919956,5.50173409 2.73679439,5.02750467 3.13199013,4.61650219 C3.52718587,4.20549972 3.9935104,4 4.53097588,4 L22,4 L22,6.03919956 L4.53097588,6.03919956 Z" id="Page-1"></path>
        </g>
    </g>
</svg>