<?xml version="1.0" encoding="UTF-8"?>
<svg width="24px" height="24px" viewBox="0 0 24 24" version="1.1" xmlns="http://www.w3.org/2000/svg" xmlns:xlink="http://www.w3.org/1999/xlink">
    <!-- Generator: Sketch 42 (36781) - http://www.bohemiancoding.com/sketch -->
    <title>控制中心-24px</title>
    <desc>Created with Sketch.</desc>
    <defs></defs>
    <g id="Page-1" stroke="none" stroke-width="1" fill="none" fill-rule="evenodd">
        <g id="控制中心-24px" fill="#B5B5B6">
            <path d="M21.6545729,6.11448286 C22.2574598,7.09876068 22.7136844,8.18151867 22.9928667,9.33342231 C23.0242943,9.46333232 22.948868,9.591147 22.8257764,9.6440539 C21.9002323,10.0316886 21.2465373,10.9363442 21.2465373,12.0033872 C21.2465373,13.0693826 21.8997085,13.974562 22.8247288,14.3627206 C22.9478204,14.414056 23.0232467,14.5418706 22.9918191,14.6717806 C22.712113,15.8242081 22.2548408,16.9080138 21.6509063,17.8928154 C21.5822893,18.0049152 21.4413887,18.0410595 21.3193447,17.9912956 C20.3922292,17.6141375 19.2927855,17.7922399 18.5400934,18.5444608 C17.7879252,19.2966816 17.6093114,20.3956784 17.9859193,21.3228586 C18.035156,21.4449112 17.999538,21.5858216 17.8869223,21.6544435 C16.9016657,22.2573726 15.8184596,22.7136291 14.6661127,22.9928308 C14.5367355,23.0242607 14.4089298,22.9493529 14.3570742,22.8267765 C13.9673714,21.9058822 13.0648743,21.2563321 12.0015723,21.2563321 C10.9387942,21.2563321 10.0357733,21.9058822 9.64607049,22.8267765 C9.59421488,22.9493529 9.46640913,23.0242607 9.337032,22.9928308 C8.1846851,22.7136291 7.10095521,22.2573726 6.1156986,21.6539196 C6.00360668,21.5852978 5.96746489,21.4449112 6.01670153,21.3228586 C6.39069048,20.3962022 6.21102912,19.3003484 5.46043225,18.5502229 C4.70878779,17.7990497 3.61196305,17.6193758 2.68537138,17.9944386 C2.56332736,18.0436787 2.42242676,18.0075343 2.35380974,17.8954346 C1.74987521,16.9111568 1.29207921,15.8278749 1.01184939,14.6754475 C0.980421748,14.5460613 1.0553243,14.4182466 1.1778921,14.3663874 C2.09819825,13.9761335 2.74770287,13.0735733 2.74770287,12.010197 C2.74770287,10.9447254 2.09662687,10.0411175 1.17370175,9.65243519 C1.05113394,9.60057595 0.975707601,9.47276127 1.00713524,9.34337509 C1.28526988,8.19147146 1.74097071,7.1076658 2.34281007,6.12234032 C2.41195088,6.00971672 2.55285148,5.97357241 2.6748955,6.02333632 C3.60253476,6.39997057 4.70145467,6.22134431 5.45362293,5.46859964 C6.20736256,4.71480731 6.38545254,3.61371525 6.00622565,2.6854873 C5.95646521,2.56343476 5.99208321,2.42252431 6.10469893,2.35337866 C7.08890795,1.7494019 8.17263783,1.29209773 9.32498474,1.01080066 C9.45488567,0.979370818 9.58269141,1.05480243 9.63454702,1.17790264 C10.0226784,2.10351143 10.9272707,2.75672828 11.9931916,2.75672828 C13.0612077,2.75672828 13.9668476,2.10141611 14.3539314,1.17423583 C14.4052632,1.05113562 14.533069,0.975704004 14.6629699,1.00713384 C15.814793,1.28581176 16.8979991,1.74154444 17.8827319,2.34394971 C17.9958714,2.41361919 18.032537,2.55662496 17.9822528,2.67972517 C17.6030259,3.60847694 17.7805921,4.70956901 18.5343317,5.46336134 C19.2885951,6.21715367 20.390134,6.39473226 21.3188209,6.01495503 C21.4419125,5.96414346 21.5849083,6.0008116 21.6545729,6.11448286 Z M7,10 C7,11.1122704 7.89525812,12 8.99961498,12 L15.000385,12 C16.1125667,12 17,11.1045695 17,10 C17,8.88772964 16.1047419,8 15.000385,8 L8.99961498,8 C7.88743329,8 7,8.8954305 7,10 Z M7,15 C7,16.1122704 7.89525812,17 8.99961498,17 L15.000385,17 C16.1125667,17 17,16.1045695 17,15 C17,13.8877296 16.1047419,13 15.000385,13 L8.99961498,13 C7.88743329,13 7,13.8954305 7,15 Z" id="Combined-Shape"></path>
            <circle id="Oval" cx="15" cy="10" r="1"></circle>
            <ellipse id="Oval" cx="9" cy="15" rx="1" ry="1"></ellipse>
        </g>
    </g>
</svg>