<?xml version="1.0" encoding="UTF-8"?>
<svg width="64px" height="64px" viewBox="0 0 64 64" version="1.1" xmlns="http://www.w3.org/2000/svg" xmlns:xlink="http://www.w3.org/1999/xlink">
    <!-- Generator: Sketch 42 (36781) - http://www.bohemiancoding.com/sketch -->
    <title>控制中心-64px</title>
    <desc>Created with Sketch.</desc>
    <defs></defs>
    <g id="Page-1" stroke="none" stroke-width="1" fill="none" fill-rule="evenodd">
        <g id="控制中心-64px" fill="#B5B5B6">
            <g id="Group" transform="translate(7.000000, 7.000000)">
                <path d="M49.9837879,18.9395962 C50.0552143,19.2348462 49.8837908,19.5253341 49.6040372,19.645577 C47.5005279,20.526565 46.0148575,22.5826004 46.0148575,25.0076982 C46.0148575,27.4304151 47.4993374,29.487641 49.6016563,30.3698194 C49.8814099,30.4864908 50.0528334,30.7769787 49.981407,31.0722287 C49.3457115,33.6913821 48.3064565,36.1545768 46.933878,38.3927623 C46.7779302,38.6475345 46.4577015,38.7296807 46.1803288,38.6165809 C44.0732482,37.7594034 41.5745125,38.1641817 39.8638487,39.8737745 C38.1543754,41.5833673 37.748435,44.0810872 38.6043621,46.1883151 C38.7162636,46.4657072 38.6353136,46.7859583 38.3793688,46.9419169 C36.1401492,48.3122103 33.6783172,49.349157 31.059347,49.9837064 C30.765308,50.0551378 30.4748404,49.8848929 30.3569867,49.6063102 C29.4712986,47.5133686 27.4201688,46.0371185 25.0035735,46.0371185 C22.5881687,46.0371185 20.5358483,47.5133686 19.6501602,49.6063102 C19.5323066,49.8848929 19.2418389,50.0551378 18.9478,49.9837064 C16.3288298,49.349157 13.8658073,48.3122103 11.6265877,46.9407264 C11.3718334,46.7847677 11.2896929,46.4657072 11.4015944,46.1883151 C12.2515693,44.0822777 11.843248,41.591701 10.137346,39.8868703 C8.42906315,38.1796585 5.93627966,37.7713087 3.83038949,38.623724 C3.55301674,38.7356333 3.2327881,38.6534871 3.07684033,38.398715 C1.70426183,36.1617199 0.663816379,33.6997158 0.0269304334,31.0805624 C-0.0444960278,30.7865029 0.125737038,30.496015 0.404300237,30.3781531 C2.49590511,29.4912126 3.97205197,27.4399393 3.97205197,25.0231751 C3.97205197,22.6016487 2.49233379,20.5479944 0.394776709,19.6646254 C0.11621351,19.5467635 -0.055209997,19.2562756 0.0162164642,18.9622161 C0.648340646,16.3442533 1.68402433,13.8810586 3.05184107,11.6416825 C3.20897928,11.3857198 3.52920792,11.3035737 3.80658067,11.4166735 C5.91485172,12.2726604 8.41239698,11.8666916 10.1218703,10.1559083 C11.8349149,8.44274389 12.2396649,5.94026193 11.3777856,3.83065296 C11.2646937,3.55326081 11.3456437,3.23300979 11.6015885,3.07586059 C13.8384272,1.70318614 16.3014496,0.663858471 18.9204199,0.0245469513 C19.2156492,-0.0468845034 19.5061168,0.124550988 19.6239705,0.404324186 C20.5060873,2.50798053 22.5619789,3.99256426 24.9845264,3.99256426 C27.4118357,3.99256426 29.4701082,2.50321843 30.3498441,0.395990516 C30.4665073,0.116217318 30.7569749,-0.0552181731 31.0522043,0.0162132816 C33.6699841,0.64957218 36.1318161,1.68532827 38.3698453,3.05443116 C38.6269805,3.21277088 38.7103114,3.537784 38.5960291,3.8175572 C37.7341498,5.92835668 38.1377093,8.43083865 39.8507539,10.144003 C41.564989,11.8571674 44.0684864,12.2607551 46.1791384,11.3976251 C46.458892,11.2821442 46.7838824,11.3654809 46.942211,11.6238247 C48.3124087,13.8608197 49.3492828,16.3216333 49.9837879,18.9395962 Z M13,19 C13,21.2046438 14.7951402,23 17.0095579,23 L30.9904421,23 C33.1996477,23 35,21.209139 35,19 C35,16.7953562 33.2048598,15 30.9904421,15 L17.0095579,15 C14.8003523,15 13,16.790861 13,19 Z M13,31 C13,33.2046438 14.7951402,35 17.0095579,35 L30.9904421,35 C33.1996477,35 35,33.209139 35,31 C35,28.7953562 33.2048598,27 30.9904421,27 L17.0095579,27 C14.8003523,27 13,28.790861 13,31 Z" id="Combined-Shape"></path>
                <circle id="Oval" cx="31" cy="19" r="3"></circle>
                <circle id="Oval" cx="17" cy="31" r="3"></circle>
            </g>
        </g>
    </g>
</svg>