<?xml version="1.0" encoding="UTF-8"?>
<svg width="48px" height="48px" viewBox="0 0 48 48" version="1.1" xmlns="http://www.w3.org/2000/svg" xmlns:xlink="http://www.w3.org/1999/xlink">
    <!-- Generator: Sketch 42 (36781) - http://www.bohemiancoding.com/sketch -->
    <title>深度桌面环境图标</title>
    <desc>Created with Sketch.</desc>
    <defs></defs>
    <g id="Page-1" stroke="none" stroke-width="1" fill="none" fill-rule="evenodd">
        <g id="深度桌面环境图标">
            <g id="Group" transform="translate(3.000000, 3.000000)">
                <ellipse id="circle14681" fill="#FFFFFF" cx="21" cy="21" rx="21" ry="21"></ellipse>
                <ellipse id="circle14683" fill="#0080FF" cx="21" cy="21" rx="19" ry="19"></ellipse>
                <path d="M33.7034411,9.7091686 C32.8796763,9.77253512 31.9121778,9.81271876 30.8952225,9.77871721 C30.8952225,9.77871721 26.6079367,9.98272649 24.2046457,11.2083277 C24.2046457,11.2083277 22.4118369,12.0243647 20.6205737,13.409155 C20.6205737,13.409155 20.2403746,13.6038911 20.2589209,14.316378 C20.2759216,15.0288649 19.894177,16.9236783 18.6253012,18.0349107 C18.6253012,18.0349107 17.7196236,18.5109323 18.1724624,19.1925088 C18.1724624,19.1925088 18.7844902,20.0997318 19.646893,19.1476885 C19.646893,19.1476885 21.8693577,16.810855 22.0053639,13.0459566 C22.0053639,13.0459566 22.7085777,12.4323833 23.81981,12.2515569 C23.81981,12.2515569 24.0238193,17.8989045 21.2805128,20.7349425 C21.2805128,20.7349425 18.6716669,23.6374381 17.8324469,19.3285149 C17.8324469,19.3285149 16.8124006,15.2236011 22.0749125,10.3459248 C22.0749125,10.3459248 25.3236056,7.03231965 27.4317014,5.26269376 C25.4472476,4.45129324 23.2773308,4 21.0007728,4 C20.4057457,4 19.8169008,4.0309105 19.2357834,4.09118596 C16.7042138,7.56552571 15.3905178,13.1665076 15.4956134,16.6053002 C15.4956134,16.6053002 15.3271512,21.7364426 18.898859,23.5555253 C18.898859,23.5555253 22.108914,24.9403155 24.2958316,20.4598391 C24.2958316,20.4598391 25.7996273,17.9313605 25.1875994,12.2160098 C25.1875994,12.2160098 25.7733533,12.3180145 25.8398109,12.4092004 C25.9062685,12.5003864 27.1334152,16.8093095 26.2710123,20.4382017 C26.2710123,20.4382017 25.4766126,24.7023047 21.575708,25.6790763 C17.6748034,26.6543025 14.6347561,24.2942861 12.5714805,22.0718214 C11.0244102,20.4057457 8.72621483,15.9098141 7.61034592,10.5329333 C5.35078867,13.4199736 4,17.0519569 4,21.0007728 C4,23.6389836 4.60120915,26.1350061 5.67225783,28.3636529 C9.66125733,29.4671576 19.054957,31.3928815 25.0902314,27.1318696 C29.1781445,24.2463748 28.6511205,19.6237102 28.6511205,19.6237102 C28.5831174,16.1091868 26.3606528,12.6163007 26.3606528,12.6163007 C35.0016819,20.1460975 29.895268,28.5120233 29.895268,28.5120233 C27.4054275,33.4097914 22.167644,36.4560207 17.7582617,37.690895 C18.8076731,37.8933588 19.891086,38.003091 20.9992272,38.003091 C30.3882904,38.003091 38,30.3913814 38,21.0023183 C38,16.6655757 36.3741079,12.7121233 33.7034411,9.7091686 L33.7034411,9.7091686 Z" id="path14685" fill="#FFFFFF"></path>
            </g>
        </g>
    </g>
</svg>