<?xml version="1.0" encoding="UTF-8"?>
<svg width="96px" height="96px" viewBox="0 0 96 96" version="1.1" xmlns="http://www.w3.org/2000/svg" xmlns:xlink="http://www.w3.org/1999/xlink">
    <!-- Generator: Sketch 48.2 (47327) - http://www.bohemiancoding.com/sketch -->
    <title>dde_96</title>
    <desc>Created with Sketch.</desc>
    <defs>
        <circle id="path-1" cx="48" cy="48" r="42"></circle>
        <filter x="-8.3%" y="-6.0%" width="116.7%" height="116.7%" filterUnits="objectBoundingBox" id="filter-2">
            <feOffset dx="0" dy="2" in="SourceAlpha" result="shadowOffsetOuter1"></feOffset>
            <feGaussianBlur stdDeviation="2" in="shadowOffsetOuter1" result="shadowBlurOuter1"></feGaussianBlur>
            <feComposite in="shadowBlurOuter1" in2="SourceAlpha" operator="out" result="shadowBlurOuter1"></feComposite>
            <feColorMatrix values="0 0 0 0 0   0 0 0 0 0   0 0 0 0 0  0 0 0 0.2 0" type="matrix" in="shadowBlurOuter1"></feColorMatrix>
        </filter>
        <linearGradient x1="50%" y1="0%" x2="50%" y2="100%" id="linearGradient-3">
            <stop stop-color="#07B3FF" offset="0%"></stop>
            <stop stop-color="#007DE8" offset="100%"></stop>
        </linearGradient>
    </defs>
    <g id="Page-1" stroke="none" stroke-width="1" fill="none" fill-rule="evenodd">
        <g id="dde_96">
            <g id="Oval">
                <use fill="black" fill-opacity="1" filter="url(#filter-2)" xlink:href="#path-1"></use>
                <use fill-opacity="0.1" fill="#000000" fill-rule="evenodd" xlink:href="#path-1"></use>
            </g>
            <circle id="Oval" fill="#FFFFFF" cx="48" cy="48" r="42"></circle>
            <path d="M63.0838257,14.9028492 C58.4888652,12.8052131 53.380943,11.6363711 48.0000826,11.6363711 C46.487566,11.6363711 44.9966149,11.7287245 43.5325604,11.9080998 C38.1213958,19.3927986 35.3173146,31.5468469 35.5410576,38.9921989 C35.5410576,38.9921989 35.183422,50.0557567 42.7671706,53.9799491 C42.7671706,53.9799491 49.5825492,56.9682994 54.2271266,47.3053324 C54.2271266,47.3053324 57.4192975,41.8520691 56.1199403,29.5275036 C56.1199403,29.5275036 57.3630754,29.7463955 57.5036308,29.943081 C57.6441863,30.1381803 60.2491477,39.4315688 58.4188031,47.2577472 C58.4188031,47.2577472 56.7336992,56.4543793 48.448735,58.5576449 C40.1668943,60.6609105 33.7122748,55.572467 29.3300675,50.7790517 C26.0778927,47.2218874 21.2551995,37.6900238 18.860325,26.2443838 C14.3232275,32.3116328 11.6363711,39.8429831 11.6363711,48.0017346 C11.6363711,53.6637674 12.9304103,59.0235486 15.2388751,63.8014648 C23.1892577,66.1651629 43.7738529,70.8953444 56.843648,61.3166408 C65.4487984,55.0087974 64.3400549,44.9072461 64.3400549,44.9072461 C64.1975907,37.2233798 59.5194983,29.5909537 59.5194983,29.5909537 C77.7100151,46.046966 66.9586098,64.3291021 66.9586098,64.3291021 C61.9669779,74.5244653 51.7204105,81.0552267 42.737091,83.9873775 C44.4554371,84.2364911 46.2126997,84.365446 48.0000826,84.365446 C68.0832762,84.365446 84.363794,68.0849282 84.363794,48.0017346 C84.363794,39.380647 81.3637948,31.4600818 76.3508498,25.2271929 C74.5658228,25.3507859 72.4896065,25.4234973 70.3351091,25.3527896 C70.3351091,25.3527896 60.6570423,25.8047395 55.230151,28.5115617 C55.230151,28.5115617 51.1832311,30.3161098 47.1379718,33.375713 C47.1379718,33.375713 46.2794337,33.8049028 46.320949,35.3818502 C46.3574826,36.9539205 45.4972838,41.1450241 42.6310615,43.6014856 C42.6310615,43.6014856 40.5851833,44.6533258 41.6081224,46.1587416 C41.6081224,46.1587416 42.9897544,48.1648789 44.9359958,46.057947 C44.9359958,46.057947 49.9543757,40.8946634 50.2615895,32.5742335 C50.2615895,32.5742335 51.8491379,31.2183838 54.3566672,30.818457 C54.3566672,30.818457 54.8183183,43.3007276 48.6242227,49.5678744 C48.6242227,49.5678744 42.732359,55.9845873 40.8392574,46.4594996 C40.8392574,46.4594996 38.5343232,37.3847361 50.4160268,26.6078447 C50.4160268,26.6078447 58.3696129,18.6647957 63.0838257,14.9028492 Z M48.0000826,88.0018172 C25.9085767,88.0018172 8,70.0932405 8,48.0017346 C8,25.9099378 25.9088674,8 48.0000826,8 C70.0912978,8 88.0001652,25.9099378 88.0001652,48.0017346 C88.0001652,70.0932405 70.0915885,88.0018172 48.0000826,88.0018172 Z" id="Combined-Shape" fill="url(#linearGradient-3)" fill-rule="nonzero"></path>
        </g>
    </g>
</svg>