<?xml version="1.0" encoding="UTF-8"?>
<svg width="64px" height="64px" viewBox="0 0 64 64" version="1.1" xmlns="http://www.w3.org/2000/svg" xmlns:xlink="http://www.w3.org/1999/xlink">
    <!-- Generator: Sketch 42 (36781) - http://www.bohemiancoding.com/sketch -->
    <title>桌面-64px</title>
    <desc>Created with Sketch.</desc>
    <defs></defs>
    <g id="Page-1" stroke="none" stroke-width="1" fill="none" fill-rule="evenodd">
        <g id="桌面-64px" fill="#B5B5B6">
            <path d="M6,14.9982167 C6,13.3423474 7.3376562,12 9.0014819,12 L54.9985181,12 C56.6561908,12 58,13.3408334 58,14.9982167 L58,50.0017833 C58,51.6576526 56.6623438,53 54.9985181,53 L9.0014819,53 C7.34380922,53 6,51.6591666 6,50.0017833 L6,14.9982167 Z M9,17 L9,23 L15,23 L15,17 L9,17 Z M9,27 L9,33 L15,33 L15,27 L9,27 Z M13,44.990778 L13,49.009222 C13,49.5490248 13.4491668,50 14.0032421,50 L50.9967579,50 C51.5620117,50 52,49.5564136 52,49.009222 L52,44.990778 C52,44.4509752 51.5508332,44 50.9967579,44 L14.0032421,44 C13.4379883,44 13,44.4435864 13,44.990778 Z" id="Combined-Shape"></path>
        </g>
    </g>
</svg>