<?xml version="1.0" encoding="UTF-8"?>
<svg width="24px" height="24px" viewBox="0 0 24 24" version="1.1" xmlns="http://www.w3.org/2000/svg" xmlns:xlink="http://www.w3.org/1999/xlink">
    <!-- Generator: Sketch 42 (36781) - http://www.bohemiancoding.com/sketch -->
    <title>桌面-24px</title>
    <desc>Created with Sketch.</desc>
    <defs></defs>
    <g id="Page-1" stroke="none" stroke-width="1" fill="none" fill-rule="evenodd">
        <g id="桌面-24px" fill="#B5B5B6">
            <path d="M1,6.00087166 C1,5.4481055 1.43945834,5 2.00246167,5 L21.9975383,5 C22.5511826,5 23,5.44463086 23,6.00087166 L23,19.9991283 C23,20.5518945 22.5605417,21 21.9975383,21 L2.00246167,21 C1.44881738,21 1,20.5553691 1,19.9991283 L1,6.00087166 Z M4,7 L4,10 L7,10 L7,7 L4,7 Z M4,11 L4,14 L7,14 L7,11 L4,11 Z M4,18.5046844 L4,19.4953156 C4,19.785965 4.22224281,20 4.4963932,20 L19.5036068,20 C19.773819,20 20,19.7740451 20,19.4953156 L20,18.5046844 C20,18.214035 19.7777572,18 19.5036068,18 L4.4963932,18 C4.22618103,18 4,18.2259549 4,18.5046844 Z" id="Combined-Shape"></path>
        </g>
    </g>
</svg>