<?xml version="1.0" encoding="UTF-8"?>
<svg width="64px" height="64px" viewBox="0 0 64 64" version="1.1" xmlns="http://www.w3.org/2000/svg" xmlns:xlink="http://www.w3.org/1999/xlink">
    <!-- Generator: Sketch 42 (36781) - http://www.bohemiancoding.com/sketch -->
    <title>任务栏-64px</title>
    <desc>Created with Sketch.</desc>
    <defs></defs>
    <g id="Page-1" stroke="none" stroke-width="1" fill="none" fill-rule="evenodd">
        <g id="任务栏-64px" fill="#B5B5B6">
            <path d="M47.5834789,33 L47.9856461,28.5238095 C48.448753,28.5238095 48.8000002,28.1826932 48.8000002,27.7619048 C48.8000002,27.3381827 48.450755,27 48.0199392,27 L34.780061,27 C34.3512472,27 34,27.3411164 34,27.7619048 C34,28.1856268 34.3492452,28.5238095 34.780061,28.5238095 L35.1956537,33 L29.9381062,33 C29.4460082,29.0536884 26.0796177,26 22,26 C17.9203823,26 14.5539918,29.0536884 14.0618938,33 L11,33 C10.4477153,33 10,33.4477153 10,34 L10,48 C10,48.5522847 10.4477153,49 11,49 L53,49 C53.5522847,49 54,48.5522847 54,48 L54,34 C54,33.4477153 53.5522847,33 53,33 L47.5834789,33 Z M47.4037872,35 L52,35 L52,47 L12,47 L12,35 L14.0618938,35 C14.5539918,38.9463116 17.9203823,42 22,42 C26.0796177,42 29.4460082,38.9463116 29.9381062,35 L35.3813441,35 L35.8416181,39.9574354 C35.9001178,40.5868532 36.4698764,41.0952383 37.1144226,41.0952383 L45.6855775,41.0952383 C46.3266482,41.0952383 46.8999778,40.5858266 46.9583821,39.9574354 L47.4037872,35 L47.4037872,35 Z M6,14.9982167 C6,13.3423474 7.3376562,12 9.0014819,12 L54.9985181,12 C56.6561908,12 58,13.3408334 58,14.9982167 L58,50.0017833 C58,51.6576526 56.6623438,53 54.9985181,53 L9.0014819,53 C7.34380922,53 6,51.6591666 6,50.0017833 L6,14.9982167 Z" id="Combined-Shape"></path>
        </g>
    </g>
</svg>