<?xml version="1.0" encoding="UTF-8"?>
<svg width="24px" height="24px" viewBox="0 0 24 24" version="1.1" xmlns="http://www.w3.org/2000/svg" xmlns:xlink="http://www.w3.org/1999/xlink">
    <!-- Generator: Sketch 42 (36781) - http://www.bohemiancoding.com/sketch -->
    <title>任务栏-24px</title>
    <desc>Created with Sketch.</desc>
    <defs></defs>
    <g id="Page-1" stroke="none" stroke-width="1" fill="none" fill-rule="evenodd">
        <g id="任务栏-24px" fill="#B5B5B6">
            <path d="M19.2813939,13 L19.5,10 C19.7190371,10 20,9.80000019 20,9.5 C20,9.19999981 19.7037642,9 19.5,9 L13.5,9 C13.2971827,9 13,9.19999981 13,9.5 C13,9.80000019 13.2962358,10 13.5,10 L13.6889872,13 L11.9645556,13 C11.987914,12.8366985 12,12.6697607 12,12.5 C12,10.5670034 10.4329966,9 8.5,9 C6.56700338,9 5,10.5670034 5,12.5 C5,12.6697607 5.01208598,12.8366985 5.03544443,13 L2.5,13 C2.22385763,13 2,13.2238576 2,13.5 L2,19.5 C2,19.7761424 2.22385763,20 2.5,20 L21.5,20 C21.7761424,20 22,19.7761424 22,19.5 L22,13.5 C22,13.2238576 21.7761424,13 21.5,13 L19.2813939,13 Z M19.2085252,14 L21,14 L21,19 L3,19 L3,14 L5.33681558,14 C5.89854755,15.1824737 7.10380202,16 8.5,16 C9.89619798,16 11.1014525,15.1824737 11.6631844,14 L13.751983,14 L13.8440733,15.46185 C13.8717421,15.7595476 14.1412225,16 14.4460754,16 L18.5,16 C18.8032091,16 19.0743785,15.759062 19.1020021,15.46185 L19.2085252,14 Z M1,6.00087166 C1,5.4481055 1.43945834,5 2.00246167,5 L21.9975383,5 C22.5511826,5 23,5.44463086 23,6.00087166 L23,19.9991283 C23,20.5518945 22.5605417,21 21.9975383,21 L2.00246167,21 C1.44881738,21 1,20.5553691 1,19.9991283 L1,6.00087166 Z" id="Combined-Shape"></path>
        </g>
    </g>
</svg>