<?xml version="1.0" encoding="UTF-8"?>
<svg width="24px" height="24px" viewBox="0 0 24 24" version="1.1" xmlns="http://www.w3.org/2000/svg" xmlns:xlink="http://www.w3.org/1999/xlink">
    <!-- Generator: Sketch 42 (36781) - http://www.bohemiancoding.com/sketch -->
    <title>启动器-24px</title>
    <desc>Created with Sketch.</desc>
    <defs></defs>
    <g id="Page-1" stroke="none" stroke-width="1" fill="none" fill-rule="evenodd">
        <g id="启动器-24px" fill="#B5B5B6">
            <path d="M12,23 C5.92486775,23 1,18.0751322 1,12 C1,5.92486775 5.92486775,1 12,1 C18.0751322,1 23,5.92486775 23,12 C23,18.0751322 18.0751322,23 12,23 Z M17,7 L13,7 L13,11 L17,11 L17,7 Z M11,13 L7,13 L7,17 L11,17 L11,13 Z M17,13 L13,13 L13,17 L17,17 L17,13 Z M11,7 L7,7 L7,11 L11,11 L11,7 Z M14,16 L14,14 L16,14 L16,16 L14,16 Z M8,8 L10,8 L10,10 L8,10 L8,8 Z" id="Combined-Shape"></path>
        </g>
    </g>
</svg>