<?xml version="1.0" encoding="UTF-8"?>
<svg width="64px" height="64px" viewBox="0 0 64 64" version="1.1" xmlns="http://www.w3.org/2000/svg" xmlns:xlink="http://www.w3.org/1999/xlink">
    <!-- Generator: Sketch 42 (36781) - http://www.bohemiancoding.com/sketch -->
    <title>启动器-64px</title>
    <desc>Created with Sketch.</desc>
    <defs></defs>
    <g id="Page-1" stroke="none" stroke-width="1" fill="none" fill-rule="evenodd">
        <g id="启动器-64px" fill="#B5B5B6">
            <path d="M32,57 C18.1928813,57 7,45.8071187 7,32 C7,18.1928813 18.1928813,7 32,7 C45.8071187,7 57,18.1928813 57,32 C57,45.8071187 45.8071187,57 32,57 Z M43.0044225,20 L33.9955775,20 C33.444837,20 33,20.4457352 33,20.9955775 L33,30.0044225 C33,30.555163 33.4457352,31 33.9955775,31 L43.0044225,31 C43.555163,31 44,30.5542648 44,30.0044225 L44,20.9955775 C44,20.444837 43.5542648,20 43.0044225,20 Z M30.0044225,33 L20.9955775,33 C20.444837,33 20,33.4457352 20,33.9955775 L20,43.0044225 C20,43.555163 20.4457352,44 20.9955775,44 L30.0044225,44 C30.555163,44 31,43.5542648 31,43.0044225 L31,33.9955775 C31,33.444837 30.5542648,33 30.0044225,33 Z M21,20 C20.4477153,20 20,20.4477153 20,21 L20,30 C20,30.5522847 20.4477153,31 21,31 L30,31 C30.5522847,31 31,30.5522847 31,30 L31,21 C31,20.4477153 30.5522847,20 30,20 L21,20 Z M34,33 C33.4477153,33 33,33.4477153 33,34 L33,43 C33,43.5522847 33.4477153,44 34,44 L43,44 C43.5522847,44 44,43.5522847 44,43 L44,34 C44,33.4477153 43.5522847,33 43,33 L34,33 Z M35,42 L35,35 L42,35 L42,42 L35,42 Z M22,29 L22,22 L29,22 L29,29 L22,29 Z" id="Combined-Shape"></path>
        </g>
    </g>
</svg>