<?xml version="1.0" encoding="UTF-8"?>
<svg width="24px" height="24px" viewBox="0 0 24 24" version="1.1" xmlns="http://www.w3.org/2000/svg" xmlns:xlink="http://www.w3.org/1999/xlink">
    <!-- Generator: Sketch 42 (36781) - http://www.bohemiancoding.com/sketch -->
    <title>窗口管理器-24px</title>
    <desc>Created with Sketch.</desc>
    <defs></defs>
    <g id="Page-1" stroke="none" stroke-width="1" fill="none" fill-rule="evenodd">
        <g id="窗口管理器-24px" fill="#B5B5B6">
            <path d="M2,4.9999602 C2,4.44769743 2.45530558,4 2.99180311,4 L21.0081969,4 C21.5559546,4 22,4.45470893 22,4.9999602 L22,20.0000398 C22,20.5523026 21.5446944,21 21.0081969,21 L2.99180311,21 C2.44404538,21 2,20.5452911 2,20.0000398 L2,4.9999602 Z M3,7 L3,20 L21,20 L21,7 L3,7 Z M20.5,6 C20.7761424,6 21,5.77614237 21,5.5 C21,5.22385763 20.7761424,5 20.5,5 C20.2238576,5 20,5.22385763 20,5.5 C20,5.77614237 20.2238576,6 20.5,6 Z M18.5,6 C18.7761424,6 19,5.77614237 19,5.5 C19,5.22385763 18.7761424,5 18.5,5 C18.2238576,5 18,5.22385763 18,5.5 C18,5.77614237 18.2238576,6 18.5,6 Z M16.5,6 C16.7761424,6 17,5.77614237 17,5.5 C17,5.22385763 16.7761424,5 16.5,5 C16.2238576,5 16,5.22385763 16,5.5 C16,5.77614237 16.2238576,6 16.5,6 Z" id="Combined-Shape"></path>
            <rect id="Rectangle-15" x="4" y="8" width="16" height="11"></rect>
        </g>
    </g>
</svg>