<?xml version="1.0" encoding="UTF-8"?>
<svg width="64px" height="64px" viewBox="0 0 64 64" version="1.1" xmlns="http://www.w3.org/2000/svg" xmlns:xlink="http://www.w3.org/1999/xlink">
    <!-- Generator: Sketch 42 (36781) - http://www.bohemiancoding.com/sketch -->
    <title>窗口管理器-64px</title>
    <desc>Created with Sketch.</desc>
    <defs></defs>
    <g id="Page-1" stroke="none" stroke-width="1" fill="none" fill-rule="evenodd">
        <g id="窗口管理器-64px" fill="#B5B5B6">
            <path d="M7,16.0036812 C7,14.3447939 8.33737922,13 9.99653242,13 L54.0034676,13 C55.6584067,13 57,14.3498463 57,16.0036812 L57,51.9963188 C57,53.6552061 55.6626208,55 54.0034676,55 L9.99653242,55 C8.34159326,55 7,53.6501537 7,51.9963188 L7,16.0036812 Z M10,22.9981537 L10,51.0018463 C10,51.5526348 10.448464,52 11.0016723,52 L52.9983277,52 C53.5501844,52 54,51.5531114 54,51.0018463 L54,22.9981537 C54,22.4473652 53.551536,22 52.9983277,22 L11.0016723,22 C10.4498156,22 10,22.4468886 10,22.9981537 Z M52.5,19 C53.3284271,19 54,18.3284271 54,17.5 C54,16.6715729 53.3284271,16 52.5,16 C51.6715729,16 51,16.6715729 51,17.5 C51,18.3284271 51.6715729,19 52.5,19 Z M48.5,19 C49.3284271,19 50,18.3284271 50,17.5 C50,16.6715729 49.3284271,16 48.5,16 C47.6715729,16 47,16.6715729 47,17.5 C47,18.3284271 47.6715729,19 48.5,19 Z M44.5,19 C45.3284271,19 46,18.3284271 46,17.5 C46,16.6715729 45.3284271,16 44.5,16 C43.6715729,16 43,16.6715729 43,17.5 C43,18.3284271 43.6715729,19 44.5,19 Z" id="Combined-Shape"></path>
            <rect id="Rectangle-2" x="12" y="24" width="40" height="26" rx="1"></rect>
        </g>
    </g>
</svg>